<?xml version="1.0" encoding="utf-8"?>
<svg viewBox="397.8934631347656 123.37862396240234 84.50875854492188 96.47139739990234" width="84.50875854492188" height="96.47139739990234" xmlns="http://www.w3.org/2000/svg">
  <g id="legLeft_FL_FL_FL_FL_FL_FL_FL_FL_FL_FL" transform="matrix(0.86602783203125, 0.4999847114086151, -0.4999847114086151, 0.86602783203125, 421.29998779296875, 201.35000610351562)">
    <g transform="matrix( 1, 0, 0, 1, 0,0) ">
      <g id="" transform="matrix(1, 0, 0, 1, 0, 0)">
        <path fill="#916B4E" stroke="none" d="&#10;M 8.95 9.25&#10;L 9 6.35 -8.75 6.35 -8.75 8.35 8.95 9.25 Z"/>
        <path fill="#AA7E5C" stroke="none" d="&#10;M 8.95 16&#10;L 8.95 9.25 -8.75 8.35 -7.2 11 -8.75 11&#10;Q -10.55 11.9 -12 13.85&#10;L -12 16 8.95 16 Z"/>
        <path fill="#E0C1A2" stroke="none" d="&#10;M 9 6.35&#10;L 9 2.95 -8.75 2.95 -8.75 6.35 9 6.35 Z"/>
        <path fill="#ECCFB1" stroke="none" d="&#10;M 6.45 -4.5&#10;Q 3.85 -7 0.15 -7&#10;L 0.1 -7&#10;Q -3.6 -7 -6.15 -4.5 -8.75 -1.95 -8.75 1.7&#10;L -8.75 2.95 9 2.95 9 1.7&#10;Q 9 -1.95 6.45 -4.5 Z"/>
      </g>
    </g>
  </g>
  <g id="legRight_FL_FL_FL_FL_FL_FL_FL_FL_FL_FL" transform="matrix(-1, 0, 0, 1, 439.20001220703125, 203.85000610351562)">
    <g transform="matrix( 1, 0, 0, 1, 0,0) ">
      <g id="" transform="matrix(1, 0, 0, 1, 0, 0)">
        <path fill="#916B4E" stroke="none" d="&#10;M 8.95 9.25&#10;L 9 6.35 -8.75 6.35 -8.75 8.35 8.95 9.25 Z"/>
        <path fill="#AA7E5C" stroke="none" d="&#10;M 8.95 16&#10;L 8.95 9.25 -8.75 8.35 -7.2 11 -8.75 11&#10;Q -10.55 11.9 -12 13.85&#10;L -12 16 8.95 16 Z"/>
        <path fill="#E0C1A2" stroke="none" d="&#10;M 9 6.35&#10;L 9 2.95 -8.75 2.95 -8.75 6.35 9 6.35 Z"/>
        <path fill="#ECCFB1" stroke="none" d="&#10;M 6.45 -4.5&#10;Q 3.85 -7 0.15 -7&#10;L 0.1 -7&#10;Q -3.6 -7 -6.15 -4.5 -8.75 -1.95 -8.75 1.7&#10;L -8.75 2.95 9 2.95 9 1.7&#10;Q 9 -1.95 6.45 -4.5 Z"/>
      </g>
    </g>
  </g>
  <g id="body_FL_FL_FL_FL_FL_FL_FL_FL_FL_FL" transform="matrix(0.9135132431983948, 0.1831970363855362, -0.1000213548541069, 0.994964599609375, 431.20001220703125, 193.6999969482422)">
    <g transform="matrix( 1, 0, 0, 1, 0,0) ">
      <g id="" transform="matrix(1, 0, 0, 1, 0, 0)">
        <path fill="#B8824D" stroke="none" d="&#10;M 20 10&#10;L 20 5.95 -5.6 5.95 -16.55 5.95 -19 5.95 -19 10 20 10&#10;M -11.1 -18.6&#10;Q -11.75 -19.75 -12.6 -21&#10;L -19 -21 -19 -3.55&#10;Q -6.1 -5.75 -9.5 -15.2&#10;L -11.8 -16.4&#10;Q -11.65 -17.55 -11.1 -18.6&#10;M 20 -21&#10;L 13.9 -21&#10;Q 15.3 -17.85 14.5 -14.4 13.3 -8.25 20 -6.55&#10;L 20 -21 Z"/>
        <path fill="#E0C79A" stroke="none" d="&#10;M 2.6 -9.1&#10;L 13.9 -21 -9.3 -21 2.6 -9.1 Z"/>
        <path fill="#637480" stroke="none" d="&#10;M 14.5 -14.4&#10;Q 15.3 -17.85 13.9 -21&#10;L 2.6 -9.1 14.5 -14.4&#10;M -11.1 -18.6&#10;Q -11.65 -17.55 -11.8 -16.4&#10;L -9.5 -15.2 2.6 -9.1 -9.3 -21&#10;Q -10.45 -19.9 -11.1 -18.6 Z"/>
        <path fill="#7E95A3" stroke="none" d="&#10;M -9.5 -15.2&#10;Q -6.1 -5.75 -19 -3.55&#10;L -19 5.95 -16.55 5.95 -9.3 0.9 -5.6 5.95 20 5.95 20 -6.55&#10;Q 13.3 -8.25 14.5 -14.4&#10;L 2.6 -9.1 -9.5 -15.2&#10;M 3.75 -5.5&#10;Q 3.25 -5.95 3.25 -6.55 3.25 -7.15 3.75 -7.65 4.2 -8.1 4.8 -8.1 5.4 -8.1 5.85 -7.65 6.3 -7.15 6.3 -6.55 6.3 -5.95 5.85 -5.5 5.4 -5.05 4.8 -5.05 4.2 -5.05 3.75 -5.5&#10;M 2.4 -1.2&#10;Q 6 -1.2 8.55 -0.55 10.85 0.1 11.1 0.9&#10;L -6.25 0.9&#10;Q -6.05 0.1 -3.75 -0.55 -1.2 -1.2 2.4 -1.2&#10;M -12.6 -21&#10;Q -11.75 -19.75 -11.1 -18.6 -10.45 -19.9 -9.3 -21&#10;L -12.6 -21 Z"/>
        <path fill="#738895" stroke="none" d="&#10;M 8.55 -0.55&#10;Q 6 -1.2 2.4 -1.2 -1.2 -1.2 -3.75 -0.55 -6.05 0.1 -6.25 0.9&#10;L 11.1 0.9&#10;Q 10.85 0.1 8.55 -0.55 Z"/>
        <path fill="#E7E2DA" stroke="none" d="&#10;M 3.25 -6.55&#10;Q 3.25 -5.95 3.75 -5.5 4.2 -5.05 4.8 -5.05 5.4 -5.05 5.85 -5.5 6.3 -5.95 6.3 -6.55 6.3 -7.15 5.85 -7.65 5.4 -8.1 4.8 -8.1 4.2 -8.1 3.75 -7.65 3.25 -7.15 3.25 -6.55&#10;M -9.3 0.9&#10;L -16.55 5.95 -5.6 5.95 -9.3 0.9 Z"/>
      </g>
    </g>
  </g>
  <g id="armLeft_FL_FL_FL_FL_FL_FL_FL_FL_FL_FL_FL" transform="matrix(0.994964599609375, 0.1000213548541069, -0.1000213548541069, 0.994964599609375, 411.8500061035156, 176.75)">
    <g transform="matrix( 1, 0, 0, 1, 0,0) ">
      <g id="" transform="matrix(1, 0, 0, 1, 0, 0)">
        <path fill="#E7E2DA" stroke="none" d="&#10;M 5.15 8.95&#10;Q 5.1802734375 8.848828125 5.2 8.75&#10;L -9.7 6.05&#10;Q -11.4134765625 8.3953125 -9.95 11.65&#10;L -8.9 11.45 5.15 8.95 Z"/>
        <path fill="#637480" stroke="none" d="&#10;M 5.7 8.85&#10;L 6.2 5.9 -9.2 3.05&#10;Q -10.5 3.65 -9.7 6.05&#10;L 5.2 8.75 5.7 8.85 Z"/>
        <path fill="#FFE0B1" stroke="none" d="&#10;M -8.9 11.45&#10;Q -9.2880859375 16.8732421875 -8.95 22.25 -5.9 25.15 -1.4 26 3.299609375 18.134375 5.15 8.95&#10;L -8.9 11.45 Z"/>
        <path fill="#7E95A3" stroke="none" d="&#10;M 5.6 -3.65&#10;Q 3.75 -6.35 0.55 -6.9&#10;L 0.5 -6.9&#10;Q -0.1 -7 -0.65 -7 -5.7 -7.15 -9.2 3.05&#10;L 6.2 5.9 6.85 2.3&#10;Q 7.45 -0.9 5.6 -3.65 Z"/>
      </g>
    </g>
  </g>
  <g id="handLeft_FL_FL_FL_FL_FL_FL_FL_FL_FL_FL_FL" transform="matrix(0.994964599609375, 0.1000213548541069, -0.1000213548541069, 0.994964599609375, 410.29998779296875, 204.39999389648438)">
    <g transform="matrix( 1, 0, 0, 1, 0,0) ">
      <g id="" transform="matrix(1, 0, 0, 1, 0, 0)">
        <path fill="#FFE0B1" stroke="none" d="&#10;M 4.9 -1.85&#10;Q 3.1 -6.8 0.65 -9&#10;L -9 -6.45&#10;Q -10.2 -6.15 -9.95 -5.05&#10;L -9.8 -4.5&#10;Q -7.1 7.6 -0.2 5.8 2.25 5.2 4.65 3.95 6.25 3.15 5.95 1.95&#10;L 5.9 1.7&#10;Q 5.5 0.25 5.1 -1.1&#10;L 5.1 -1.05 4.9 -1.85&#10;M -8.15 -3&#10;Q -8.2 -3.45 -7.05 -4.15 -5.95 -4.85 -4.25 -5.45 -2.5 -6 -1.3 -6.15 0 -6.25 0.05 -5.85 0.15 -5.4 -0.95 -4.7 -2.05 -3.95 -3.8 -3.35 -5.5 -2.75 -6.75 -2.65 -8.05 -2.55 -8.15 -3 Z"/>
        <path fill="#E7CBA0" stroke="none" d="&#10;M -7.05 -4.15&#10;Q -8.2 -3.45 -8.15 -3 -8.05 -2.55 -6.75 -2.65 -5.5 -2.75 -3.8 -3.35 -2.05 -3.95 -0.95 -4.7 0.15 -5.4 0.05 -5.85 0 -6.25 -1.3 -6.15 -2.5 -6 -4.25 -5.45 -5.95 -4.85 -7.05 -4.15&#10;M 5.1 -1.1&#10;Q 8.2 -5.45 0.65 -9 3.1 -6.8 4.9 -1.85&#10;L 5.1 -1.05 5.1 -1.1 Z"/>
      </g>
    </g>
  </g>
  <g id="armRight_FL_FL_FL_FL_FL_FL_FL_FL_FL_FL_FL_FL" transform="matrix(-0.402496337890625, 0.915374755859375, 0.915374755859375, 0.402496337890625, 445.1000061035156, 177.39999389648438)">
    <g transform="matrix( 1, 0, 0, 1, 0,0) ">
      <g id="" transform="matrix(1, 0, 0, 1, 0, 0)">
        <path fill="#E7E2DA" stroke="none" d="&#10;M 5.15 8.95&#10;Q 5.1802734375 8.848828125 5.2 8.75&#10;L -9.7 6.05&#10;Q -11.4134765625 8.3953125 -9.95 11.65&#10;L -8.9 11.45 5.15 8.95 Z"/>
        <path fill="#637480" stroke="none" d="&#10;M 5.7 8.85&#10;L 6.2 5.9 -9.2 3.05&#10;Q -10.5 3.65 -9.7 6.05&#10;L 5.2 8.75 5.7 8.85 Z"/>
        <path fill="#FFE0B1" stroke="none" d="&#10;M -8.9 11.45&#10;Q -9.2880859375 16.8732421875 -8.95 22.25 -5.9 25.15 -1.4 26 3.299609375 18.134375 5.15 8.95&#10;L -8.9 11.45 Z"/>
        <path fill="#7E95A3" stroke="none" d="&#10;M 5.6 -3.65&#10;Q 3.75 -6.35 0.55 -6.9&#10;L 0.5 -6.9&#10;Q -0.1 -7 -0.65 -7 -5.7 -7.15 -9.2 3.05&#10;L 6.2 5.9 6.85 2.3&#10;Q 7.45 -0.9 5.6 -3.65 Z"/>
      </g>
    </g>
  </g>
  <g id="handRight_FL_FL_FL_FL_FL_FL_FL_FL_FL_FL_FL_FL" transform="matrix(0.3619689643383026, 0.9321137070655823, 0.9321137070655823, -0.3619689643383026, 472.3500061035156, 183.9499969482422)">
    <g transform="matrix( 1, 0, 0, 1, 0,0) ">
      <g id="" transform="matrix(1, 0, 0, 1, 0, 0)">
        <path fill="#FFE0B1" stroke="none" d="&#10;M 4.9 -1.85&#10;Q 3.1 -6.8 0.65 -9&#10;L -9 -6.45&#10;Q -10.2 -6.15 -9.95 -5.05&#10;L -9.8 -4.5&#10;Q -7.1 7.6 -0.2 5.8 2.25 5.2 4.65 3.95 6.25 3.15 5.95 1.95&#10;L 5.9 1.7&#10;Q 5.5 0.25 5.1 -1.1&#10;L 5.1 -1.05 4.9 -1.85&#10;M -8.15 -3&#10;Q -8.2 -3.45 -7.05 -4.15 -5.95 -4.85 -4.25 -5.45 -2.5 -6 -1.3 -6.15 0 -6.25 0.05 -5.85 0.15 -5.4 -0.95 -4.7 -2.05 -3.95 -3.8 -3.35 -5.5 -2.75 -6.75 -2.65 -8.05 -2.55 -8.15 -3 Z"/>
        <path fill="#E7CBA0" stroke="none" d="&#10;M -7.05 -4.15&#10;Q -8.2 -3.45 -8.15 -3 -8.05 -2.55 -6.75 -2.65 -5.5 -2.75 -3.8 -3.35 -2.05 -3.95 -0.95 -4.7 0.15 -5.4 0.05 -5.85 0 -6.25 -1.3 -6.15 -2.5 -6 -4.25 -5.45 -5.95 -4.85 -7.05 -4.15&#10;M 5.1 -1.1&#10;Q 8.2 -5.45 0.65 -9 3.1 -6.8 4.9 -1.85&#10;L 5.1 -1.05 5.1 -1.1 Z"/>
      </g>
    </g>
  </g>
  <g transform="matrix(0.9901885986328125, 0.1395721435546875, -0.1395721435546875, 0.9901885986328125, 433.45001220703125, 176.39999389648438)">
    <g transform="matrix( 1, 0, 0, 1, 0,0) ">
      <g id="" transform="matrix(1, 0, 0, 1, 0, 0)">
        <path fill="#D7BD93" stroke="none" d="&#10;M 6.6 3.15&#10;Q 8.35 2 9.05 0.55&#10;L -10.15 0.55&#10;Q -9.45 2 -7.7 3.15 -4.75 5.1 -0.55 5.1 3.65 5.1 6.6 3.15 Z"/>
        <path fill="#FFE0B1" stroke="none" d="&#10;M 13.75 -7.5&#10;Q 18.4 -5.9 19.55 -12.1 19.6 -14.8 19.5 -17.55 19.3 -21.05 18.75 -24.65 18.1 -29.1 13.65 -29.1&#10;L -16.7 -29.1&#10;Q -21.1 -29.1 -21.8 -24.55 -22.35 -20.65 -22.5 -16.7 -19.25 -5.45 -14.05 -7.85 -12.9 -8.3 -11.7 -8.65 -6.75 -10.15 -0.6 -10.15 7.6 -10.15 13.75 -7.5 Z"/>
        <path fill="#E7E2DA" stroke="none" d="&#10;M 18.9 -4.45&#10;Q 19.45 -8.25 19.55 -12.1 18.4 -5.9 13.75 -7.5 7.6 -10.15 -0.6 -10.15 -6.75 -10.15 -11.7 -8.65 -12.9 -8.3 -14.05 -7.85 -19.25 -5.45 -22.5 -16.7 -22.75 -10.35 -21.8 -3.95 -21.7 -3.4 -21.55 -2.95 -21.4 -2.25 -21.05 -1.7 -19.8 0.55 -16.7 0.55&#10;L -10.15 0.55 9.05 0.55 13.65 0.55&#10;Q 17.85 0.55 18.7 -3.45 18.75 -3.75 18.8 -4 18.85 -4.25 18.9 -4.45 Z"/>
      </g>
    </g>
    <g transform="matrix( 1, 0, 0, 1, 0,0) ">
      <g id="" transform="matrix(1, 0, 0, 1, 0, 0)">
        <path fill="#544B4B" stroke="none" d="&#10;M 6.3 -21.6&#10;L 6.5 -18.35 15 -20.6&#10;Q 11.45 -23.2 6.3 -21.6&#10;M -3.5 -20.2&#10;L -3.3 -23.5&#10;Q -8.45 -25.15 -12 -22.5&#10;L -3.5 -20.2 Z"/>
        <path fill="#7F7058" stroke="none" d="&#10;M 7.65 -5.7&#10;Q 8.05 -5.85 8.25 -6.2 8.4 -6.55 8.3 -6.95 8.15 -7.35 7.8 -7.5 7.45 -7.7 7.05 -7.6 1.7 -5.9 -2.25 -8.45 -2.6 -8.7 -3 -8.6 -3.4 -8.55 -3.6 -8.2 -3.85 -7.85 -3.75 -7.45 -3.7 -7.05 -3.35 -6.8 1.3 -3.7 7.65 -5.7 Z"/>
        <path fill="#FFFFFF" stroke="none" d="&#10;M -5.1 -17.55&#10;Q -6.1 -18.65 -7.65 -18.65 -9.2 -18.65 -10.3 -17.55 -11.3 -16.4 -11.3 -14.85 -11.3 -13.3 -10.3 -12.2 -9.2 -11.05 -7.65 -11.05 -6.1 -11.05 -5.1 -12.2 -4 -13.3 -4 -14.85 -4 -16.4 -5.1 -17.55&#10;M 13.5 -17.55&#10;Q 12.5 -18.65 10.95 -18.65 9.4 -18.65 8.3 -17.55 7.3 -16.4 7.3 -14.85 7.3 -13.3 8.3 -12.2 9.4 -11.05 10.95 -11.05 12.5 -11.05 13.5 -12.2 14.6 -13.3 14.6 -14.85 14.6 -16.4 13.5 -17.55 Z"/>
      </g>
    </g>
    <g transform="matrix( 1, 0, 0, 1, 0,0) ">
      <g id="" transform="matrix(1, 0, 0, 1, 0, 0)">
        <path fill="#7F7058" stroke="none" d="&#10;M -5.4 -12.65&#10;Q -4.75 -13.55 -4.75 -14.85 -4.75 -16.15 -5.4 -17.1 -6 -18 -6.9 -18 -7.8 -18 -8.45 -17.1 -9.05 -16.15 -9.05 -14.85 -9.05 -13.55 -8.45 -12.65 -7.8 -11.7 -6.9 -11.7 -6 -11.7 -5.4 -12.65&#10;M 11.45 -12.65&#10;Q 12.1 -13.55 12.1 -14.85 12.1 -16.15 11.45 -17.1 10.85 -18 9.95 -18 9.05 -18 8.4 -17.1 7.8 -16.15 7.8 -14.85 7.8 -13.55 8.4 -12.65 9.05 -11.7 9.95 -11.7 10.85 -11.7 11.45 -12.65 Z"/>
      </g>
    </g>
    <g transform="matrix( 1, 0, 0, 1, 0,0) ">
      <g id="" transform="matrix(1, 0, 0, 1, 0, 0)">
        <path fill="#5D5454" stroke="none" d="&#10;M 14.15 -47.55&#10;Q 14.7546875 -48.1908203125 15.65 -48.35 7.05 -49.6 -4.3 -45.3 -4.55 -45.25 -4.8 -45.15 -10.5 -43.45 -17.85 -40.05&#10;L -19.1 -36.95 -22.2 -38.3 -25.2 -31.55&#10;Q -28 -24.05 -22.2 -11.55&#10;L -16.2 -26.45&#10;Q -7.357421875 -42.121875 14.15 -47.55&#10;M 13.05 -44.45&#10;L 17.15 -25.7 19.55 -17.55 20.65 -34.3 13.05 -44.45 Z"/>
        <path fill="#544B4B" stroke="none" d="&#10;M 1.7 -25.9&#10;Q 8.9099609375 -24.3138671875 17.15 -25.7&#10;L 13.05 -44.45&#10;Q 13.2607421875 -46.5572265625 14.15 -47.55 -7.357421875 -42.121875 -16.2 -26.45 -10.8669921875 -29.1984375 -5.1 -27.9 -2.0802734375 -27.026953125 0 -24.35&#10;L 1.7 -25.9 Z"/>
      </g>
    </g>
  </g>
</svg>