{
  "accessors": {
    "IBM_Armature_Cube-skin": {
      "bufferView": "bufferView_1",
      "byteOffset": 0,
      "componentType": 5126,
      "count": 2,
      "type": "MAT4",
      "byteStride": 0,
      "min": [
        -1,
        0,
        0,
        0,
        0,
        -1,
        -1,
        0,
        0,
        1.1920899822825959e-7,
        0,
        0,
        -0.09032949805259705,
        0,
        -1.1271499395370483,
        1
      ],
      "max": [
        1,
        0,
        0,
        0,
        0,
        0,
        0,
        0,
        0,
        1,
        1,
        0,
        0.10562600195407867,
        0.665835976600647,
        0,
        1
      ]
    },
    "accessor_21": {
      "bufferView": "bufferView_2",
      "byteOffset": 0,
      "byteStride": 0,
      "componentType": 5123,
      "count": 408,
      "type": "SCALAR",
      "min": [
        0
      ],
      "max": [
        407
      ]
    },
    "accessor_23": {
      "bufferView": "bufferView_0",
      "byteOffset": 0,
      "byteStride": 0,
      "componentType": 5126,
      "count": 295,
      "max": [
        1.3341599702835083,
        1.3385000228881836,
        2.127150058746338
      ],
      "min": [
        -0.6658369898796082,
        -1.6614999771118164,
        0
      ],
      "type": "VEC3"
    },
    "accessor_25": {
      "bufferView": "bufferView_0",
      "byteOffset": 3540,
      "byteStride": 0,
      "componentType": 5126,
      "count": 295,
      "max": [
        1,
        1,
        1
      ],
      "min": [
        -1,
        -1,
        -1
      ],
      "type": "VEC3"
    },
    "accessor_27": {
      "bufferView": "bufferView_0",
      "byteOffset": 7080,
      "byteStride": 0,
      "componentType": 5126,
      "count": 295,
      "max": [
        0.9971820116043091,
        0.9933125972747803
      ],
      "min": [
        0.0005776729667559266,
        0.0033569931983947754
      ],
      "type": "VEC2"
    },
    "accessor_44": {
      "bufferView": "bufferView_0",
      "byteOffset": 9440,
      "byteStride": 0,
      "componentType": 5126,
      "count": 295,
      "max": [
        1,
        0,
        0,
        0
      ],
      "min": [
        1,
        0,
        0,
        0
      ],
      "type": "VEC4"
    },
    "accessor_47": {
      "bufferView": "bufferView_0",
      "byteOffset": 14160,
      "byteStride": 0,
      "componentType": 5121,
      "count": 295,
      "max": [
        1,
        0,
        0,
        0
      ],
      "min": [
        0,
        0,
        0,
        0
      ],
      "type": "VEC4"
    },
    "animAccessor_0": {
      "bufferView": "bufferView_1",
      "byteOffset": 128,
      "componentType": 5126,
      "count": 2,
      "type": "SCALAR",
      "byteStride": 0,
      "min": [
        0
      ],
      "max": [
        1
      ]
    },
    "animAccessor_1": {
      "bufferView": "bufferView_1",
      "byteOffset": 136,
      "componentType": 5126,
      "count": 2,
      "type": "VEC3",
      "byteStride": 0,
      "min": [
        1,
        1,
        1
      ],
      "max": [
        1,
        1,
        1
      ]
    },
    "animAccessor_2": {
      "bufferView": "bufferView_1",
      "byteOffset": 160,
      "componentType": 5126,
      "count": 2,
      "type": "VEC3",
      "byteStride": 0,
      "min": [
        0,
        0,
        0
      ],
      "max": [
        0,
        0,
        0
      ]
    },
    "animAccessor_3": {
      "bufferView": "bufferView_1",
      "byteOffset": 184,
      "componentType": 5126,
      "count": 2,
      "type": "VEC4",
      "byteStride": 0,
      "min": [
        0.7071067690849304,
        0,
        0,
        0.7071068286895752
      ],
      "max": [
        0.7071067690849304,
        0,
        0,
        0.7071068286895752
      ]
    },
    "animAccessor_4": {
      "bufferView": "bufferView_1",
      "byteOffset": 216,
      "componentType": 5126,
      "count": 2,
      "type": "VEC3",
      "byteStride": 0,
      "min": [
        1,
        1,
        1
      ],
      "max": [
        1,
        1.0000003576278687,
        1.0000003576278687
      ]
    },
    "animAccessor_5": {
      "bufferView": "bufferView_1",
      "byteOffset": 240,
      "componentType": 5126,
      "count": 2,
      "type": "VEC3",
      "byteStride": 0,
      "min": [
        0.015296000055968761,
        1.1271499395370483,
        -0.665835976600647
      ],
      "max": [
        0.015296000055968761,
        1.1271499395370483,
        -0.665835976600647
      ]
    },
    "animAccessor_6": {
      "bufferView": "bufferView_1",
      "byteOffset": 264,
      "componentType": 5126,
      "count": 2,
      "type": "VEC4",
      "byteStride": 0,
      "min": [
        3.090863032184643e-8,
        0.7071067690849304,
        0.036724433302879333,
        1.6030418104051591e-9
      ],
      "max": [
        4.365158545738268e-8,
        0.9993254542350769,
        0.7071067690849304,
        3.086563182819191e-8
      ]
    }
  },
  "animations": {
    "animation_0": {
      "channels": [
        {
          "sampler": "animation_0_scale_sampler",
          "target": {
            "id": "Bone",
            "path": "scale"
          }
        },
        {
          "sampler": "animation_0_translation_sampler",
          "target": {
            "id": "Bone",
            "path": "translation"
          }
        },
        {
          "sampler": "animation_0_rotation_sampler",
          "target": {
            "id": "Bone",
            "path": "rotation"
          }
        }
      ],
      "parameters": {
        "TIME": "animAccessor_0",
        "rotation": "animAccessor_3",
        "scale": "animAccessor_1",
        "translation": "animAccessor_2"
      },
      "samplers": {
        "animation_0_rotation_sampler": {
          "input": "TIME",
          "interpolation": "LINEAR",
          "output": "rotation"
        },
        "animation_0_scale_sampler": {
          "input": "TIME",
          "interpolation": "LINEAR",
          "output": "scale"
        },
        "animation_0_translation_sampler": {
          "input": "TIME",
          "interpolation": "LINEAR",
          "output": "translation"
        }
      }
    },
    "animation_1": {
      "channels": [
        {
          "sampler": "animation_1_scale_sampler",
          "target": {
            "id": "Bone_001",
            "path": "scale"
          }
        },
        {
          "sampler": "animation_1_translation_sampler",
          "target": {
            "id": "Bone_001",
            "path": "translation"
          }
        },
        {
          "sampler": "animation_1_rotation_sampler",
          "target": {
            "id": "Bone_001",
            "path": "rotation"
          }
        }
      ],
      "parameters": {
        "TIME": "animAccessor_0",
        "rotation": "animAccessor_6",
        "scale": "animAccessor_4",
        "translation": "animAccessor_5"
      },
      "samplers": {
        "animation_1_rotation_sampler": {
          "input": "TIME",
          "interpolation": "LINEAR",
          "output": "rotation"
        },
        "animation_1_scale_sampler": {
          "input": "TIME",
          "interpolation": "LINEAR",
          "output": "scale"
        },
        "animation_1_translation_sampler": {
          "input": "TIME",
          "interpolation": "LINEAR",
          "output": "translation"
        }
      }
    }
  },
  "asset": {
    "generator": "collada2gltf@",
    "premultipliedAlpha": true,
    "profile": {
      "api": "WebGL",
      "version": "1.0.2"
    },
    "version": "1.0"
  },
  "bufferViews": {
    "bufferView_0": {
      "buffer": "buffer_0",
      "byteLength": 15340,
      "byteOffset": 0,
      "target": 34962
    },
    "bufferView_1": {
      "buffer": "buffer_0",
      "byteLength": 296,
      "byteOffset": 15340
    },
    "bufferView_2": {
      "buffer": "buffer_0",
      "byteLength": 816,
      "byteOffset": 15636,
      "target": 34963
    }
  },
  "buffers": {
    "buffer_0": {
      "type": "arraybuffer",
      "byteLength": 16452,
      "uri": "data:application/octet-stream;base64,"
    }
  },
  "cameras": {
    "Camera-camera": {
      "name": "Camera",
      "orthographic": {
        "xmag": 5.397140026092529,
        "ymag": 5.397140026092529,
        "zfar": 100,
        "znear": 0.10000000149011612
      },
      "type": "orthographic"
    }
  },
  "images": {
    "Chest3-AO_png": {
      "name": "Chest3-AO_png",
      "uri": "data:image/png;base64,"
    },
    "Chest3-norm_png": {
      "name": "Chest3-norm_png",
      "uri": "data:image/png;base64,"
    }
  },
  "materials": {
    "UV-Material-effect": {
      "name": "UV-Material",
      "technique": "technique0",
      "values": {
        "ambient": [
          0,
          0,
          0,
          1
        ],
        "bump": "texture_Chest3-norm_png",
        "diffuse": "texture_Chest3-AO_png",
        "emission": [
          0,
          0,
          0,
          1
        ]
      }
    }
  },
  "meshes": {
    "Cube-mesh": {
      "name": "Cube",
      "primitives": [
        {
          "attributes": {
            "JOINT": "accessor_47",
            "NORMAL": "accessor_25",
            "POSITION": "accessor_23",
            "TEXCOORD_0": "accessor_27",
            "WEIGHT": "accessor_44"
          },
          "indices": "accessor_21",
          "material": "UV-Material-effect",
          "mode": 4
        }
      ]
    }
  },
  "nodes": {
    "Armature": {
      "children": [
        "Bone"
      ],
      "matrix": [
        1,
        0,
        0,
        0,
        0,
        0,
        -1,
        0,
        0,
        1,
        0,
        0,
        -0.10562600195407867,
        0,
        0,
        1
      ],
      "name": "Armature"
    },
    "Bone": {
      "children": [
        "Bone_001"
      ],
      "jointName": "Bone",
      "name": "Bone",
      "rotation": [
        0.7071067690849304,
        0,
        0,
        0.7071068286895752
      ],
      "scale": [
        1,
        1,
        1
      ],
      "translation": [
        0,
        0,
        0
      ]
    },
    "Bone_001": {
      "children": [],
      "jointName": "Bone_001",
      "name": "Bone.001",
      "rotation": [
        3.090863032184643e-8,
        0.7071067690849304,
        0.7071067690849304,
        3.090862321641907e-8
      ],
      "scale": [
        1,
        1,
        1
      ],
      "translation": [
        0.015296000055968761,
        1.1271499395370483,
        -0.665835976600647
      ]
    },
    "Camera": {
      "camera": "Camera-camera",
      "children": [],
      "matrix": [
        1,
        -1.6292753186691597e-17,
        0.00004095833719475195,
        0,
        0.00004095833719475195,
        3.3759379736153505e-9,
        -1,
        0,
        -1.382565123584506e-13,
        1,
        3.3759379736153505e-9,
        0,
        2.8022398948669434,
        13.852799415588379,
        1.2211400270462036,
        1
      ],
      "name": "Camera"
    },
    "Cube": {
      "children": [],
      "matrix": [
        1,
        0,
        0,
        0,
        0,
        0,
        -1,
        0,
        0,
        1,
        0,
        0,
        0,
        0,
        0,
        1
      ],
      "meshes": [
        "Cube-mesh"
      ],
      "name": "Cube",
      "skeletons": [
        "Bone"
      ],
      "skin": "Armature_Cube-skin"
    }
  },
  "programs": {
    "program_0": {
      "attributes": [
        "a_joint",
        "a_normal",
        "a_position",
        "a_texcoord0",
        "a_weight"
      ],
      "fragmentShader": "chest0FS",
      "vertexShader": "chest0VS"
    }
  },
  "samplers": {
    "sampler_0": {
      "magFilter": 9729,
      "minFilter": 9729,
      "wrapS": 10497,
      "wrapT": 10497
    }
  },
  "scene": "defaultScene",
  "scenes": {
    "defaultScene": {
      "nodes": [
        "Armature",
        "Cube",
        "Camera"
      ]
    }
  },
  "shaders": {
    "chest0FS": {
      "type": 35632,
      "uri": "data:text/plain;base64,"
    },
    "chest0VS": {
      "type": 35633,
      "uri": "data:text/plain;base64,"
    }
  },
  "skins": {
    "Armature_Cube-skin": {
      "bindShapeMatrix": [
        1.1924900178428288e-8,
        -1,
        0,
        0,
        1,
        1.1924900178428288e-8,
        0,
        0,
        0,
        0,
        1,
        0,
        0,
        0,
        0,
        1
      ],
      "inverseBindMatrices": "IBM_Armature_Cube-skin",
      "jointNames": [
        "Bone",
        "Bone_001"
      ],
      "name": "Armature"
    }
  },
  "techniques": {
    "technique0": {
      "attributes": {
        "a_joint": "joint",
        "a_normal": "normal",
        "a_position": "position",
        "a_texcoord0": "texcoord0",
        "a_weight": "weight"
      },
      "parameters": {
        "ambient": {
          "type": 35666
        },
        "bump": {
          "type": 35678
        },
        "diffuse": {
          "type": 35678
        },
        "emission": {
          "type": 35666
        },
        "joint": {
          "semantic": "JOINT",
          "type": 35666
        },
        "jointMat": {
          "count": 2,
          "semantic": "JOINTMATRIX",
          "type": 35676
        },
        "modelViewMatrix": {
          "semantic": "MODELVIEW",
          "type": 35676
        },
        "normal": {
          "semantic": "NORMAL",
          "type": 35665
        },
        "normalMatrix": {
          "semantic": "MODELVIEWINVERSETRANSPOSE",
          "type": 35675
        },
        "position": {
          "semantic": "POSITION",
          "type": 35665
        },
        "projectionMatrix": {
          "semantic": "PROJECTION",
          "type": 35676
        },
        "texcoord0": {
          "semantic": "TEXCOORD_0",
          "type": 35664
        },
        "weight": {
          "semantic": "WEIGHT",
          "type": 35666
        }
      },
      "program": "program_0",
      "states": {
        "enable": [
          2929,
          3042
        ],
        "functions": {
          "blendEquationSeparate": [
            32774,
            32774
          ],
          "blendFuncSeparate": [
            1,
            771,
            1,
            771
          ],
          "depthMask": [
            false
          ]
        },
        "disable": []
      },
      "uniforms": {
        "u_ambient": "ambient",
        "u_bump": "bump",
        "u_diffuse": "diffuse",
        "u_emission": "emission",
        "u_jointMat": "jointMat",
        "u_modelViewMatrix": "modelViewMatrix",
        "u_normalMatrix": "normalMatrix",
        "u_projectionMatrix": "projectionMatrix"
      }
    }
  },
  "textures": {
    "texture_Chest3-AO_png": {
      "format": 6408,
      "internalFormat": 6408,
      "sampler": "sampler_0",
      "source": "Chest3-AO_png",
      "target": 3553,
      "type": 5121
    },
    "texture_Chest3-norm_png": {
      "format": 6408,
      "internalFormat": 6408,
      "sampler": "sampler_0",
      "source": "Chest3-norm_png",
      "target": 3553,
      "type": 5121
    }
  },
  "extensionsUsed": []
}
