<?xml version="1.0" encoding="utf-8"?>
<svg viewBox="0 0 64 64.00000762939453" width="64" height="64.00000762939453" xmlns="http://www.w3.org/2000/svg" xmlns:bx="https://boxy-svg.com">
  <rect width="64" height="64" style="fill: rgb(170, 115, 60);" transform="matrix(1, 0, 0, 1, 0, -8.881784197001252e-16)" bx:origin="0 0">
    <title>Background</title>
  </rect>
  <g transform="matrix(1, 0, 0, 1, -144, -70)">
    <g id="" transform="matrix(1, 0, 0, 1, 0, 0)">
      <path fill="#D9944E" stroke="none" d="&#10;M 208 77.95&#10;Q 208 70 200.05 70&#10;L 151.95 70&#10;Q 144 70 144 77.95&#10;L 144 126.05&#10;Q 144 134 151.95 134&#10;L 200.05 134&#10;Q 208 134 208 126.05&#10;L 208 77.95&#10;M 200.05 72&#10;Q 206 72 206 77.95&#10;L 206 126.05&#10;Q 206 132 200.05 132&#10;L 151.95 132&#10;Q 146 132 146 126.05&#10;L 146 77.95&#10;Q 146 72 151.95 72&#10;L 200.05 72&#10;M 195.5 82.5&#10;L 185.5 82.5 156.5 111.5 156.5 121.5 166.5 121.5 195.5 92.5 195.5 82.5 Z"/>
      <path fill="#CD8C4A" stroke="none" d="&#10;M 206 77.95&#10;Q 206 72 200.05 72&#10;L 151.95 72&#10;Q 146 72 146 77.95&#10;L 146 126.05&#10;Q 146 132 151.95 132&#10;L 200.05 132&#10;Q 206 132 206 126.05&#10;L 206 77.95&#10;M 198 80&#10;L 198 124 154 124 154 80 198 80 Z"/>
      <path fill="#AA733C" stroke="none" d="&#10;M 198 124&#10;L 198 80 154 80 154 124 198 124&#10;M 185.5 82.5&#10;L 195.5 82.5 195.5 92.5 166.5 121.5 156.5 121.5 156.5 111.5 185.5 82.5 Z"/>
    </g>
  </g>
</svg>