<?xml version="1.0" encoding="utf-8"?>
<svg viewBox="444 0.05000445246696472 64 63.95000457763672" width="64" height="63.95000457763672" xmlns="http://www.w3.org/2000/svg">
  <g transform="matrix(1, 0, 0, 1, -70, -70)">
    <g id="" transform="matrix(1, 0, 0, 1, 0, 0)">
      <path fill="#D9944E" stroke="none" d="&#10;M 572.75 70.3&#10;Q 571.85 70.1 570.8 70.05&#10;L 521.25 70.05&#10;Q 520.2 70.1 519.3 70.3 515.2 71.2 514.3 75.3 514.05 76.35 514 77.6&#10;L 514 126.45&#10;Q 514.05 127.7 514.3 128.75 515.2 132.8 519.3 133.75 520.3 133.95 521.45 134&#10;L 570.6 134&#10;Q 571.8 133.95 572.75 133.75 576.8 132.8 577.75 128.75 577.95 127.7 578 126.45&#10;L 578 77.6&#10;Q 577.95 76.3 577.75 75.3 577.65 75 577.6 74.75 577.2 73.5 576.5 72.55 575.2 70.85 572.75 70.3&#10;M 570.7 72.05&#10;Q 571.55 72.1 572.3 72.25 574 72.65 574.9 73.8&#10;L 574.9 73.75&#10;Q 575.4 74.4 575.7 75.3 575.75 75.55 575.85 75.85 575.95 76.65 576 77.7&#10;L 576 126.4&#10;Q 575.95 127.45 575.8 128.4&#10;L 575.8 128.3&#10;Q 575.15 131.15 572.3 131.8&#10;L 572.35 131.8&#10;Q 571.55 131.95 570.6 132&#10;L 521.55 132&#10;Q 520.55 131.95 519.7 131.8&#10;L 519.75 131.8&#10;Q 516.9 131.15 516.25 128.35&#10;L 516.25 128.3&#10;Q 516.05 127.45 516 126.45&#10;L 516 77.7&#10;Q 516.05 76.65 516.25 75.8&#10;L 516.25 75.75&#10;Q 516.9 72.9 519.75 72.25 520.45 72.1 521.25 72.05&#10;L 570.7 72.05&#10;M 555.5 77.6&#10;L 526.5 96.05 526.5 102.4 536.5 102.4 565.5 83.95 565.5 77.6 555.5 77.6 Z"/>
      <path fill="#CD8C4A" stroke="none" d="&#10;M 572.3 72.25&#10;Q 571.55 72.1 570.7 72.05&#10;L 521.25 72.05&#10;Q 520.45 72.1 519.75 72.25 516.9 72.9 516.25 75.75&#10;L 516.25 75.8&#10;Q 516.05 76.65 516 77.7&#10;L 516 126.45&#10;Q 516.05 127.45 516.25 128.3&#10;L 516.25 128.35&#10;Q 516.9 131.15 519.75 131.8&#10;L 519.7 131.8&#10;Q 520.55 131.95 521.55 132&#10;L 570.6 132&#10;Q 571.55 131.95 572.35 131.8&#10;L 572.3 131.8&#10;Q 575.15 131.15 575.8 128.3&#10;L 575.8 128.4&#10;Q 575.95 127.45 576 126.4&#10;L 576 77.7&#10;Q 575.95 76.65 575.85 75.85 575.75 75.55 575.7 75.3 575.4 74.4 574.9 73.75&#10;L 574.9 73.8&#10;Q 574 72.65 572.3 72.25&#10;M 524 128&#10;L 524 113 568 113 568 128 524 128&#10;M 524 76&#10;L 568 76 568 104 524 104 524 76 Z"/>
      <path fill="#AA733C" stroke="none" d="&#10;M 568 76&#10;L 524 76 524 104 568 104 568 76&#10;M 526.5 96.05&#10;L 555.5 77.6 565.5 77.6 565.5 83.95 536.5 102.4 526.5 102.4 526.5 96.05&#10;M 524 113&#10;L 524 128 568 128 568 113 524 113 Z"/>
    </g>
  </g>
</svg>