<?xml version="1.0" encoding="utf-8"?>
<svg viewBox="0 0 32 32" width="32px" height="32px" preserveAspectRatio="xMinYMin" xmlns="http://www.w3.org/2000/svg" xmlns:bx="https://boxy-svg.com">
  <g transform="matrix(1, 0, 0, 1, -979.849976, -240.699997)" bx:origin="0 0">
    <g id="" transform="matrix(1, 0, 0, 1, 0, 0)">
      <path fill="#FF5342" stroke="none" d="&#10;M 992.9 243.55&#10;Q 990.05 240.7 987.2 243.55&#10;L 981.55 249.2&#10;Q 980.4 250.35 980.2 251.5 979.85 253.2 981.55 254.9&#10;L 987.2 260.55&#10;Q 990.05 263.35 992.9 260.5&#10;L 998.55 254.85&#10;Q 1000.2 253.2 999.95 251.6 999.75 250.4 998.55 249.2&#10;L 992.9 243.55&#10;M 988.65 245&#10;Q 990.05 243.55 991.5 245&#10;L 997.15 250.65&#10;Q 997.9 251.35 998 252.05 997.85 252.7 997.15 253.45&#10;L 991.5 259.1&#10;Q 990.05 260.5 988.6 259.15&#10;L 988.65 259.15 983 253.5&#10;Q 981.55 252.05 983 250.65&#10;L 988.65 245 Z"/>
      <path fill="#E74C3C" stroke="none" d="&#10;M 991.5 245&#10;Q 990.05 243.55 988.65 245&#10;L 983 250.65&#10;Q 981.55 252.05 983 253.5&#10;L 988.65 259.15 988.6 259.15&#10;Q 990.05 260.5 991.5 259.1&#10;L 997.15 253.45&#10;Q 997.85 252.7 998 252.05 997.9 251.35 997.15 250.65&#10;L 991.5 245 Z"/>
    </g>
  </g>
</svg>