<?xml version="1.0" encoding="utf-8"?>
<svg viewBox="0 0 68 100" width="64px" height="128px" preserveAspectRatio="xMinYMax" xmlns="http://www.w3.org/2000/svg">
  <g id="legLeft_FL_FL_FL_FL_FL_FL_FL_FL_FL" transform="matrix(1, 0, 0, 1, 20.122236, 83.499176)">
    <g transform="matrix( 1, 0, 0, 1, 0,0) ">
      <g id="" transform="matrix(1, 0, 0, 1, 0, 0)">
        <path fill="#916B4E" stroke="none" d="&#10;M 8.95 9.25&#10;L 9 6.35 -8.75 6.35 -8.75 8.35 8.95 9.25 Z"/>
        <path fill="#AA7E5C" stroke="none" d="&#10;M 8.95 16&#10;L 8.95 9.25 -8.75 8.35 -7.2 11 -8.75 11&#10;Q -10.55 11.9 -12 13.85&#10;L -12 16 8.95 16 Z"/>
        <path fill="#E0C1A2" stroke="none" d="&#10;M 9 6.35&#10;L 9 2.95 -8.75 2.95 -8.75 6.35 9 6.35 Z"/>
        <path fill="#ECCFB1" stroke="none" d="&#10;M 6.45 -4.5&#10;Q 3.85 -7 0.15 -7&#10;L 0.1 -7&#10;Q -3.6 -7 -6.15 -4.5 -8.75 -1.95 -8.75 1.7&#10;L -8.75 2.95 9 2.95 9 1.7&#10;Q 9 -1.95 6.45 -4.5 Z"/>
      </g>
    </g>
  </g>
  <g id="legRight_FL_FL_FL_FL_FL_FL_FL_FL_FL" transform="matrix(-0.607376, 0.793381, 0.87233, 0.506927, 42.272228, 79.999176)">
    <g transform="matrix(0.757044, -0.559049, 0.57001, 0.899999, 4.188507, -1.222219)">
      <g id="" transform="matrix(1, 0, 0, 1, 0, 0)">
        <path fill="#916B4E" stroke="none" d="&#10;M 8.95 9.25&#10;L 9 6.35 -8.75 6.35 -8.75 8.35 8.95 9.25 Z"/>
        <path fill="#AA7E5C" stroke="none" d="&#10;M 8.95 16&#10;L 8.95 9.25 -8.75 8.35 -7.2 11 -8.75 11&#10;Q -10.55 11.9 -12 13.85&#10;L -12 16 8.95 16 Z"/>
        <path fill="#E0C1A2" stroke="none" d="&#10;M 9 6.35&#10;L 9 2.95 -8.75 2.95 -8.75 6.35 9 6.35 Z"/>
        <path fill="#ECCFB1" stroke="none" d="&#10;M 6.45 -4.5&#10;Q 3.85 -7 0.15 -7&#10;L 0.1 -7&#10;Q -3.6 -7 -6.15 -4.5 -8.75 -1.95 -8.75 1.7&#10;L -8.75 2.95 9 2.95 9 1.7&#10;Q 9 -1.95 6.45 -4.5 Z"/>
      </g>
    </g>
  </g>
  <g id="body_FL_FL_FL_FL_FL_FL_FL_FL_FL" transform="matrix(0.889282, -0.122635, 0.082596, 0.996567, 29.22224, 73.199173)">
    <g transform="matrix( 1, 0, 0, 1, 0,0) ">
      <g id="" transform="matrix(1, 0, 0, 1, 0, 0)">
        <path fill="#B8824D" stroke="none" d="&#10;M 20 10&#10;L 20 5.95 -5.6 5.95 -16.55 5.95 -19 5.95 -19 10 20 10&#10;M -11.1 -18.6&#10;Q -11.75 -19.75 -12.6 -21&#10;L -19 -21 -19 -3.55&#10;Q -6.1 -5.75 -9.5 -15.2&#10;L -11.8 -16.4&#10;Q -11.65 -17.55 -11.1 -18.6&#10;M 20 -21&#10;L 13.9 -21&#10;Q 15.3 -17.85 14.5 -14.4 13.3 -8.25 20 -6.55&#10;L 20 -21 Z"/>
        <path fill="#E0C79A" stroke="none" d="&#10;M 2.6 -9.1&#10;L 13.9 -21 -9.3 -21 2.6 -9.1 Z"/>
        <path fill="#637480" stroke="none" d="&#10;M 14.5 -14.4&#10;Q 15.3 -17.85 13.9 -21&#10;L 2.6 -9.1 14.5 -14.4&#10;M -11.1 -18.6&#10;Q -11.65 -17.55 -11.8 -16.4&#10;L -9.5 -15.2 2.6 -9.1 -9.3 -21&#10;Q -10.45 -19.9 -11.1 -18.6 Z"/>
        <path fill="#7E95A3" stroke="none" d="&#10;M -9.5 -15.2&#10;Q -6.1 -5.75 -19 -3.55&#10;L -19 5.95 -16.55 5.95 -9.3 0.9 -5.6 5.95 20 5.95 20 -6.55&#10;Q 13.3 -8.25 14.5 -14.4&#10;L 2.6 -9.1 -9.5 -15.2&#10;M 3.75 -5.5&#10;Q 3.25 -5.95 3.25 -6.55 3.25 -7.15 3.75 -7.65 4.2 -8.1 4.8 -8.1 5.4 -8.1 5.85 -7.65 6.3 -7.15 6.3 -6.55 6.3 -5.95 5.85 -5.5 5.4 -5.05 4.8 -5.05 4.2 -5.05 3.75 -5.5&#10;M 2.4 -1.2&#10;Q 6 -1.2 8.55 -0.55 10.85 0.1 11.1 0.9&#10;L -6.25 0.9&#10;Q -6.05 0.1 -3.75 -0.55 -1.2 -1.2 2.4 -1.2&#10;M -12.6 -21&#10;Q -11.75 -19.75 -11.1 -18.6 -10.45 -19.9 -9.3 -21&#10;L -12.6 -21 Z"/>
        <path fill="#738895" stroke="none" d="&#10;M 8.55 -0.55&#10;Q 6 -1.2 2.4 -1.2 -1.2 -1.2 -3.75 -0.55 -6.05 0.1 -6.25 0.9&#10;L 11.1 0.9&#10;Q 10.85 0.1 8.55 -0.55 Z"/>
        <path fill="#E7E2DA" stroke="none" d="&#10;M 3.25 -6.55&#10;Q 3.25 -5.95 3.75 -5.5 4.2 -5.05 4.8 -5.05 5.4 -5.05 5.85 -5.5 6.3 -5.95 6.3 -6.55 6.3 -7.15 5.85 -7.65 5.4 -8.1 4.8 -8.1 4.2 -8.1 3.75 -7.65 3.25 -7.15 3.25 -6.55&#10;M -9.3 0.9&#10;L -16.55 5.95 -5.6 5.95 -9.3 0.9 Z"/>
      </g>
    </g>
  </g>
  <g id="armLeft_FL_FL_FL_FL_FL_FL_FL_FL_FL_FL" transform="matrix(0.486046, -0.873916, 0.873916, 0.486046, 10.449988, 61.775246)">
    <g transform="matrix( 1, 0, 0, 1, 0,0) ">
      <g id="" transform="matrix(1, 0, 0, 1, 0, 0)">
        <path fill="#E7E2DA" stroke="none" d="&#10;M 5.15 8.95&#10;Q 5.1802734375 8.848828125 5.2 8.75&#10;L -9.7 6.05&#10;Q -11.4134765625 8.3953125 -9.95 11.65&#10;L -8.9 11.45 5.15 8.95 Z"/>
        <path fill="#637480" stroke="none" d="&#10;M 5.7 8.85&#10;L 6.2 5.9 -9.2 3.05&#10;Q -10.5 3.65 -9.7 6.05&#10;L 5.2 8.75 5.7 8.85 Z"/>
        <path fill="#FFE0B1" stroke="none" d="&#10;M -8.9 11.45&#10;Q -9.2880859375 16.8732421875 -8.95 22.25 -5.9 25.15 -1.4 26 3.299609375 18.134375 5.15 8.95&#10;L -8.9 11.45 Z"/>
        <path fill="#7E95A3" stroke="none" d="&#10;M 5.6 -3.65&#10;Q 3.75 -6.35 0.55 -6.9&#10;L 0.5 -6.9&#10;Q -0.1 -7 -0.65 -7 -5.7 -7.15 -9.2 3.05&#10;L 6.2 5.9 6.85 2.3&#10;Q 7.45 -0.9 5.6 -3.65 Z"/>
      </g>
    </g>
  </g>
  <g id="handLeft_FL_FL_FL_FL_FL_FL_FL_FL_FL_FL" transform="matrix(0.77695, -0.629538, 0.629538, 0.77695, 34.996517, 76.813171)">
    <g transform="matrix( 1, 0, 0, 1, 0,0) ">
      <g id="" transform="matrix(1, 0, 0, 1, 0, 0)">
        <path fill="#FFE0B1" stroke="none" d="&#10;M 4.9 -1.85&#10;Q 3.1 -6.8 0.65 -9&#10;L -9 -6.45&#10;Q -10.2 -6.15 -9.95 -5.05&#10;L -9.8 -4.5&#10;Q -7.1 7.6 -0.2 5.8 2.25 5.2 4.65 3.95 6.25 3.15 5.95 1.95&#10;L 5.9 1.7&#10;Q 5.5 0.25 5.1 -1.1&#10;L 5.1 -1.05 4.9 -1.85&#10;M -8.15 -3&#10;Q -8.2 -3.45 -7.05 -4.15 -5.95 -4.85 -4.25 -5.45 -2.5 -6 -1.3 -6.15 0 -6.25 0.05 -5.85 0.15 -5.4 -0.95 -4.7 -2.05 -3.95 -3.8 -3.35 -5.5 -2.75 -6.75 -2.65 -8.05 -2.55 -8.15 -3 Z"/>
        <path fill="#E7CBA0" stroke="none" d="&#10;M -7.05 -4.15&#10;Q -8.2 -3.45 -8.15 -3 -8.05 -2.55 -6.75 -2.65 -5.5 -2.75 -3.8 -3.35 -2.05 -3.95 -0.95 -4.7 0.15 -5.4 0.05 -5.85 0 -6.25 -1.3 -6.15 -2.5 -6 -4.25 -5.45 -5.95 -4.85 -7.05 -4.15&#10;M 5.1 -1.1&#10;Q 8.2 -5.45 0.65 -9 3.1 -6.8 4.9 -1.85&#10;L 5.1 -1.05 5.1 -1.1 Z"/>
      </g>
    </g>
  </g>
  <g id="armRight_FL_FL_FL_FL_FL_FL_FL_FL_FL_FL_FL" transform="matrix(-0.964729, 0.263156, 0.263156, 0.964729, 46.97942, 57.708744)">
    <g transform="matrix( 1, 0, 0, 1, 0,0) ">
      <g id="" transform="matrix(1, 0, 0, 1, 0, 0)">
        <path fill="#E7E2DA" stroke="none" d="&#10;M 5.15 8.95&#10;Q 5.1802734375 8.848828125 5.2 8.75&#10;L -9.7 6.05&#10;Q -11.4134765625 8.3953125 -9.95 11.65&#10;L -8.9 11.45 5.15 8.95 Z"/>
        <path fill="#637480" stroke="none" d="&#10;M 5.7 8.85&#10;L 6.2 5.9 -9.2 3.05&#10;Q -10.5 3.65 -9.7 6.05&#10;L 5.2 8.75 5.7 8.85 Z"/>
        <path fill="#FFE0B1" stroke="none" d="&#10;M -8.9 11.45&#10;Q -9.2880859375 16.8732421875 -8.95 22.25 -5.9 25.15 -1.4 26 3.299609375 18.134375 5.15 8.95&#10;L -8.9 11.45 Z"/>
        <path fill="#7E95A3" stroke="none" d="&#10;M 5.6 -3.65&#10;Q 3.75 -6.35 0.55 -6.9&#10;L 0.5 -6.9&#10;Q -0.1 -7 -0.65 -7 -5.7 -7.15 -9.2 3.05&#10;L 6.2 5.9 6.85 2.3&#10;Q 7.45 -0.9 5.6 -3.65 Z"/>
      </g>
    </g>
  </g>
  <g id="handRight_FL_FL_FL_FL_FL_FL_FL_FL_FL_FL_FL" transform="matrix(0.957043, -0.289816, -0.289816, -0.957043, 59.875095, 73.655487)">
    <g transform="matrix( 1, 0, 0, 1, 0,0) ">
      <g id="" transform="matrix(1, 0, 0, 1, 0, 0)">
        <path fill="#FFE0B1" stroke="none" d="&#10;M 4.9 -1.85&#10;Q 3.1 -6.8 0.65 -9&#10;L -9 -6.45&#10;Q -10.2 -6.15 -9.95 -5.05&#10;L -9.8 -4.5&#10;Q -7.1 7.6 -0.2 5.8 2.25 5.2 4.65 3.95 6.25 3.15 5.95 1.95&#10;L 5.9 1.7&#10;Q 5.5 0.25 5.1 -1.1&#10;L 5.1 -1.05 4.9 -1.85&#10;M -8.15 -3&#10;Q -8.2 -3.45 -7.05 -4.15 -5.95 -4.85 -4.25 -5.45 -2.5 -6 -1.3 -6.15 0 -6.25 0.05 -5.85 0.15 -5.4 -0.95 -4.7 -2.05 -3.95 -3.8 -3.35 -5.5 -2.75 -6.75 -2.65 -8.05 -2.55 -8.15 -3 Z"/>
        <path fill="#E7CBA0" stroke="none" d="&#10;M -7.05 -4.15&#10;Q -8.2 -3.45 -8.15 -3 -8.05 -2.55 -6.75 -2.65 -5.5 -2.75 -3.8 -3.35 -2.05 -3.95 -0.95 -4.7 0.15 -5.4 0.05 -5.85 0 -6.25 -1.3 -6.15 -2.5 -6 -4.25 -5.45 -5.95 -4.85 -7.05 -4.15&#10;M 5.1 -1.1&#10;Q 8.2 -5.45 0.65 -9 3.1 -6.8 4.9 -1.85&#10;L 5.1 -1.05 5.1 -1.1 Z"/>
      </g>
    </g>
  </g>
  <g id="head_FL_FL_FL_FL_FL" transform="matrix(0.996567, -0.082596, 0.082596, 0.996567, 28.522228, 54.24918)">
    <g transform="matrix( 1, 0, 0, 1, -924.35,-604.1) ">
      <g id="" transform="matrix(1, 0, 0, 1, 0, 0)">
        <path fill="#D7BD93" stroke="none" d="&#10;M 923.8 609.2&#10;Q 928 609.2 930.95 607.25 932.7 606.1 933.4 604.65&#10;L 914.2 604.65&#10;Q 914.9 606.1 916.65 607.25 919.6 609.2 923.8 609.2 Z"/>
        <path fill="#E7E2DA" stroke="none" d="&#10;M 943.15 600.1&#10;Q 943.2 599.85 943.25 599.65 943.8 595.85 943.9 592 942.75 598.2 938.1 596.6 931.95 593.95 923.75 593.95 917.6 593.95 912.65 595.45 911.45 595.8 910.3 596.25 905.1 598.65 901.85 587.4 901.6 593.75 902.55 600.15 902.65 600.7 902.8 601.15 902.95 601.85 903.3 602.4 904.55 604.65 907.65 604.65&#10;L 914.2 604.65 933.4 604.65 938 604.65&#10;Q 942.2 604.65 943.05 600.65 943.1 600.35 943.15 600.1 Z"/>
        <path fill="#FFE0B1" stroke="none" d="&#10;M 902.55 579.55&#10;Q 902 583.45 901.85 587.4 905.1 598.65 910.3 596.25 911.45 595.8 912.65 595.45 917.6 593.95 923.75 593.95 931.95 593.95 938.1 596.6 942.75 598.2 943.9 592 943.95 589.3 943.85 586.55 943.65 583.05 943.1 579.45 942.45 575 938 575&#10;L 907.65 575&#10;Q 903.25 575 902.55 579.55 Z"/>
      </g>
    </g>
    <g transform="matrix( 1, 0, 0, 1, 0,0) ">
      <g id="" transform="matrix(1, 0, 0, 1, 0, 0)">
        <path fill="#544B4B" stroke="none" d="&#10;M 7.55 -21.6&#10;L 6.9 -18.4 15.7 -18.4&#10;Q 12.95 -21.85 7.55 -21.6&#10;M -3.95 -17.3&#10;L -4.6 -20.5&#10;Q -10 -20.75 -12.75 -17.3&#10;L -3.95 -17.3 Z"/>
        <path fill="#7F7058" stroke="none" d="&#10;M -8.95 -15.15&#10;Q -9.05 -14.7 -9.05 -14.2 -9.05 -12.9 -8.45 -12 -8.3 -11.8 -8.15 -11.65 -7.6 -11.05 -6.9 -11.05 -6.2 -11.05 -5.65 -11.65 -5.5 -11.8 -5.4 -12 -4.75 -12.9 -4.75 -14.2 -4.75 -14.7 -4.85 -15.15&#10;L -8.95 -15.15&#10;M 12.1 -14.2&#10;Q 12.1 -14.7 12 -15.15&#10;L 7.9 -15.15&#10;Q 7.8 -14.7 7.8 -14.2 7.8 -12.9 8.4 -12 8.55 -11.8 8.7 -11.65 9.25 -11.05 9.95 -11.05 10.65 -11.05 11.2 -11.65 11.35 -11.8 11.45 -12 12.1 -12.9 12.1 -14.2&#10;M 6.5 -8.45&#10;Q 6.2 -8.65 5.9 -8.65&#10;L 3.05 -8.65 3.05 -5.65 -3.95 -5.65&#10;Q -3.65 -5.15 -3.2 -4.75 -1.4 -2.95 1.05 -2.95 3.5 -2.95 5.25 -4.7&#10;L 5.3 -4.75&#10;Q 6.05 -5.5 6.5 -6.4 6.75 -6.85 6.9 -7.35 6.95 -7.7 6.85 -7.95 6.75 -8.3 6.5 -8.45 Z"/>
        <path fill="#FFFFFF" stroke="none" d="&#10;M -9.05 -14.2&#10;Q -9.05 -14.7 -8.95 -15.15&#10;L -11.2 -15.15&#10;Q -11.3 -14.7 -11.3 -14.2 -11.3 -12.7 -10.4 -11.65 -10.35 -11.6 -10.3 -11.55 -9.2 -10.4 -7.65 -10.4 -6.1 -10.4 -5.1 -11.55 -5.05 -11.6 -5 -11.65 -4 -12.7 -4 -14.2 -4 -14.7 -4.1 -15.15&#10;L -4.85 -15.15&#10;Q -4.75 -14.7 -4.75 -14.2 -4.75 -12.9 -5.4 -12 -5.5 -11.8 -5.65 -11.65 -6.2 -11.05 -6.9 -11.05 -7.6 -11.05 -8.15 -11.65 -8.3 -11.8 -8.45 -12 -9.05 -12.9 -9.05 -14.2&#10;M 12 -15.15&#10;Q 12.1 -14.7 12.1 -14.2 12.1 -12.9 11.45 -12 11.35 -11.8 11.2 -11.65 10.65 -11.05 9.95 -11.05 9.25 -11.05 8.7 -11.65 8.55 -11.8 8.4 -12 7.8 -12.9 7.8 -14.2 7.8 -14.7 7.9 -15.15&#10;L 7.4 -15.15&#10;Q 7.3 -14.7 7.3 -14.2 7.3 -12.7 8.2 -11.65 8.25 -11.6 8.3 -11.55 9.4 -10.4 10.95 -10.4 12.5 -10.4 13.5 -11.55 13.55 -11.6 13.6 -11.65 14.6 -12.7 14.6 -14.2 14.6 -14.7 14.5 -15.15&#10;L 12 -15.15&#10;M 3.05 -5.65&#10;L 3.05 -8.65 -3.8 -8.65&#10;Q -4.1 -8.65 -4.35 -8.45 -4.65 -8.3 -4.75 -7.95 -4.85 -7.7 -4.75 -7.35 -4.65 -6.85 -4.4 -6.4 -4.2 -6 -3.95 -5.65&#10;L 3.05 -5.65 Z"/>
      </g>
    </g>
    <g transform="matrix( 1, 0, 0, 1, 0,0) ">
      <g id="" transform="matrix(1, 0, 0, 1, 0, 0)">
        <path fill="#544B4B" stroke="none" d="&#10;M 1.7 -25.9&#10;Q 8.9099609375 -24.3138671875 17.15 -25.7&#10;L 13.05 -44.45&#10;Q 13.2607421875 -46.5572265625 14.15 -47.55 -7.357421875 -42.121875 -16.2 -26.45 -10.8669921875 -29.1984375 -5.1 -27.9 -2.0802734375 -27.026953125 0 -24.35&#10;L 1.7 -25.9 Z"/>
        <path fill="#5D5454" stroke="none" d="&#10;M 13.05 -44.45&#10;L 17.15 -25.7 19.55 -17.55 20.65 -34.3 13.05 -44.45&#10;M 14.15 -47.55&#10;Q 14.7546875 -48.1908203125 15.65 -48.35 7.05 -49.6 -4.3 -45.3 -4.55 -45.25 -4.8 -45.15 -10.5 -43.45 -17.85 -40.05&#10;L -19.1 -36.95 -22.2 -38.3 -25.2 -31.55&#10;Q -28 -24.05 -22.2 -11.55&#10;L -16.2 -26.45&#10;Q -7.357421875 -42.121875 14.15 -47.55 Z"/>
      </g>
    </g>
  </g>
</svg>