<?xml version="1.0" encoding="utf-8"?>
<svg viewBox="0 7 65 93" width="64px" height="128px" preserveAspectRatio="xMinYMax" xmlns="http://www.w3.org/2000/svg">
  <g id="legLeft_FL" transform="matrix(1.033837, 0, 0, 1.033837, 22.147879, 83.29702)" style="visibility: hidden;">
    <title>Blue Right Leg</title>
    <path fill="#B8824D" stroke="none" d="M 8.964 15.976 L 8.964 11.03 L -8.763 11.03 L -8.763 10.981 C -9.938 11.607 -11.012 12.563 -11.986 13.849 L -11.986 15.976 L 8.964 15.976 Z">
      <title>Shoe</title>
    </path>
    <path fill="#2A7DB4" stroke="none" d="M 8.964 11.03 L 9.014 11.03 L 9.014 7.667 L -8.763 7.667 L -8.763 10.981 L -8.763 11.03 L 8.964 11.03 Z">
      <title>Cuff</title>
    </path>
    <path stroke="none" d="M 6.446 -4.501 C 4.7 -6.183 2.602 -7.024 0.151 -7.024 L 0.101 -7.024 C -2.35 -7.024 -4.432 -6.183 -6.144 -4.501 C -7.89 -2.786 -8.763 -0.725 -8.763 1.682 L -8.763 7.667 L 9.014 7.667 L 9.014 1.682 C 9.014 -0.725 8.158 -2.786 6.446 -4.501 Z" fill="#3498DB">
      <title>Pant</title>
    </path>
  </g>
  <g id="g-4" transform="matrix(1.033837, 0, 0, 1.033837, 22.143751, 83.301163)">
    <title>Tan Right Leg</title>
    <path fill="#B8824D" stroke="none" d="M 8.964 15.976 L 8.964 11.03 L -8.763 11.03 L -8.763 10.981 C -9.938 11.607 -11.012 12.563 -11.986 13.849 L -11.986 15.976 L 8.964 15.976 Z">
      <title>Shoe</title>
    </path>
    <path stroke="none" d="M 8.964 11.03 L 9.014 11.03 L 9.014 7.667 L -8.763 7.667 L -8.763 10.981 L -8.763 11.03 L 8.964 11.03 Z" style="fill: rgb(224, 193, 162);">
      <title>Cuff</title>
    </path>
    <path stroke="none" d="M 6.446 -4.501 C 4.7 -6.183 2.602 -7.024 0.151 -7.024 L 0.101 -7.024 C -2.35 -7.024 -4.432 -6.183 -6.144 -4.501 C -7.89 -2.786 -8.763 -0.725 -8.763 1.682 L -8.763 7.667 L 9.014 7.667 L 9.014 1.682 C 9.014 -0.725 8.158 -2.786 6.446 -4.501 Z" style="fill: rgb(236, 207, 177);">
      <title>Pant</title>
    </path>
  </g>
  <g id="legRight_FL" transform="matrix(-1.033837, 0, 0, 1.033837, 44.013527, 83.29702)" style="visibility: hidden;">
    <title>Blue Left Leg</title>
    <path fill="#B8824D" stroke="none" d="M 8.964 15.976 L 8.964 11.03 L -8.763 11.03 L -8.763 10.981 C -9.938 11.607 -11.012 12.563 -11.986 13.849 L -11.986 15.976 L 8.964 15.976 Z">
      <title>Shoe</title>
    </path>
    <path fill="#2A7DB4" stroke="none" d="M 8.964 11.03 L 9.014 11.03 L 9.014 7.667 L -8.763 7.667 L -8.763 10.981 L -8.763 11.03 L 8.964 11.03 Z">
      <title>Cuff</title>
    </path>
    <path fill="#3498DB" stroke="none" d="M 6.446 -4.501 C 4.7 -6.183 2.602 -7.024 0.151 -7.024 L 0.101 -7.024 C -2.35 -7.024 -4.432 -6.183 -6.144 -4.501 C -7.89 -2.786 -8.763 -0.725 -8.763 1.682 L -8.763 7.667 L 9.014 7.667 L 9.014 1.682 C 9.014 -0.725 8.158 -2.786 6.446 -4.501 Z">
      <title>Pant</title>
    </path>
  </g>
  <g id="g-5" transform="matrix(-1.033837, 0, 0, 1.033837, 44.01767, 83.301163)">
    <title>Tan Left Leg</title>
    <path fill="#B8824D" stroke="none" d="M 8.964 15.976 L 8.964 11.03 L -8.763 11.03 L -8.763 10.981 C -9.938 11.607 -11.012 12.563 -11.986 13.849 L -11.986 15.976 L 8.964 15.976 Z">
      <title>Shoe</title>
    </path>
    <path stroke="none" d="M 8.964 11.03 L 9.014 11.03 L 9.014 7.667 L -8.763 7.667 L -8.763 10.981 L -8.763 11.03 L 8.964 11.03 Z" style="fill: rgb(224, 193, 162);">
      <title>Cuff</title>
    </path>
    <path stroke="none" d="M 6.446 -4.501 C 4.7 -6.183 2.602 -7.024 0.151 -7.024 L 0.101 -7.024 C -2.35 -7.024 -4.432 -6.183 -6.144 -4.501 C -7.89 -2.786 -8.763 -0.725 -8.763 1.682 L -8.763 7.667 L 9.014 7.667 L 9.014 1.682 C 9.014 -0.725 8.158 -2.786 6.446 -4.501 Z" style="fill: rgb(236, 207, 177);">
      <title>Pant</title>
    </path>
  </g>
  <g id="body_FL" transform="matrix(1.033837, 0, 0, 1.033837, 33.106548, 74.30265)" style="visibility: hidden;">
    <title>Green Shirt</title>
    <g transform="matrix( 1.0129852294921875, 0, 0, 1.0081329345703125, 0.5,0.5) ">
      <g id="" transform="matrix(1, 0, 0, 1, 0, 0)">
        <path fill="#B8824D" stroke="none" d="&#10;M 19.25 9.4&#10;L 19.25 5.35 -19.25 5.35 -19.25 9.4 19.25 9.4 Z"/>
        <path fill="#2ECC71" stroke="none" d="&#10;M 19.25 -21.35&#10;L -19.25 -21.35 -19.25 5.35 19.25 5.35 19.25 -21.35 Z"/>
      </g>
    </g>
  </g>
  <g id="g-1" transform="matrix(1.033837, 0, 0, 1.033837, 31.354393, 74.281967)">
    <title>Brown Shirt</title>
    <path fill="#D7BD93" stroke="none" d="M -6.205 -16.512 C -4.239 -15.212 -1.855 -14.562 0.945 -14.562 C 3.745 -14.562 6.128 -15.212 8.095 -16.512 C 9.261 -17.279 10.078 -18.145 10.545 -19.112 L -8.655 -19.112 C -8.189 -18.145 -7.372 -17.279 -6.205 -16.512 Z">
      <title>Neck</title>
    </path>
    <path fill="#8E643A" stroke="none" d="M 8.2 -21 L 5.9 -14.45 L 1.25 -1.25 L 8.45 -9.4 L 10.75 -12.05 L 13.2 -14.8 L 8.2 -21 M -3.25 -14.05 L -5.7 -21 L -10.7 -14.8 L 1.25 -1.25 L -3.25 -14.05 M -19 5.9 L -19 10 L 20 10 L 20 5.9 L -19 5.9 Z" id="svg-3">
      <title>colar</title>
    </path>
    <path fill="#C48A51" stroke="none" d="M 8.45 -9.4 L 1.25 -1.25 L -10.7 -14.8 L -5.7 -21 L -19 -21 L -19 5.9 L 20 5.9 L 20 -21 L 8.2 -21 L 13.2 -14.8 L 10.75 -12.05 L 16.2 -12.05 L 16.2 -9.4 L 8.45 -9.4 Z" id="svg-3">
      <title>Shirt</title>
    </path>
    <path fill="#B17D49" stroke="none" d="M 16.2 -12.05 L 10.75 -12.05 L 8.45 -9.4 L 16.2 -9.4 L 16.2 -12.05 Z" id="svg-3">
      <title>Pocket</title>
    </path>
    <path fill="#FAFAFA" stroke="none" d="M 1.35 -1.25 L 5.9 -14.167 L -3.054 -13.775 L 1.35 -1.25 Z" id="svg-3">
      <title>Under Shirt</title>
    </path>
    <path fill="#E05848" stroke="none" d="M 10.423 -1.852 C 10.334 -1.424 10.264 -0.971 10.214 -0.494 C 9.871 -0.348 9.558 -0.14 9.274 0.132 C 9.007 0.411 8.798 0.713 8.647 1.037 C 8.185 1.104 7.744 1.185 7.325 1.281 C 6.257 1.513 5.723 1.792 5.723 2.116 C 5.723 2.465 6.257 2.755 7.325 2.987 C 7.745 3.074 8.198 3.144 8.682 3.196 C 8.811 3.522 9.008 3.812 9.274 4.066 C 9.557 4.349 9.859 4.558 10.179 4.692 C 10.251 5.178 10.333 5.619 10.423 6.015 C 10.655 7.129 10.945 7.686 11.293 7.686 C 11.618 7.686 11.896 7.129 12.128 6.015 C 12.229 5.61 12.311 5.158 12.372 4.658 C 12.676 4.527 12.955 4.329 13.207 4.066 C 13.482 3.814 13.691 3.524 13.834 3.196 C 14.329 3.149 14.782 3.08 15.192 2.987 C 16.305 2.755 16.862 2.465 16.862 2.116 C 16.862 1.792 16.305 1.513 15.192 1.281 C 14.782 1.179 14.33 1.097 13.834 1.037 C 13.692 0.709 13.483 0.408 13.207 0.132 C 12.954 -0.121 12.676 -0.318 12.372 -0.459 C 12.309 -0.951 12.228 -1.416 12.128 -1.852 C 11.896 -2.919 11.618 -3.453 11.293 -3.453 C 10.945 -3.453 10.655 -2.919 10.423 -1.852 Z" id="svg-3" transform="matrix(0.96593, 0.258803, -0.258803, 0.96593, 0.932491, -2.850423)" style="visibility: hidden;">
      <title>Left Spot</title>
    </path>
    <path fill="#E05848" stroke="none" d="M -11.297 -11.505 C -11.697 -11.472 -12.064 -11.355 -12.397 -11.155 C -12.731 -10.955 -12.997 -10.705 -13.197 -10.405 C -13.697 -10.505 -14.147 -10.555 -14.547 -10.555 C -15.647 -10.589 -16.247 -10.455 -16.347 -10.155 C -16.414 -9.822 -15.964 -9.405 -14.997 -8.905 C -14.631 -8.739 -14.214 -8.555 -13.747 -8.355 C -13.714 -8.022 -13.614 -7.689 -13.447 -7.355 C -13.247 -7.022 -12.981 -6.739 -12.647 -6.505 C -12.747 -6.039 -12.797 -5.605 -12.797 -5.205 C -12.864 -4.039 -12.731 -3.422 -12.397 -3.355 C -12.064 -3.255 -11.647 -3.722 -11.147 -4.755 C -10.981 -5.122 -10.797 -5.522 -10.597 -5.955 C -10.264 -6.055 -9.947 -6.189 -9.647 -6.355 C -9.314 -6.555 -9.031 -6.772 -8.797 -7.005 C -8.297 -6.972 -7.831 -6.922 -7.397 -6.855 C -6.264 -6.822 -5.664 -6.972 -5.597 -7.305 C -5.497 -7.605 -5.947 -8.005 -6.947 -8.505 C -7.347 -8.739 -7.781 -8.955 -8.247 -9.155 C -8.281 -9.489 -8.397 -9.822 -8.597 -10.155 C -8.764 -10.489 -8.981 -10.739 -9.247 -10.905 C -9.181 -11.439 -9.131 -11.922 -9.097 -12.355 C -9.064 -13.455 -9.214 -14.055 -9.547 -14.155 C -9.881 -14.222 -10.281 -13.772 -10.747 -12.805 C -10.947 -12.439 -11.131 -12.005 -11.297 -11.505 Z" id="svg-3" transform="matrix(0.829624, -0.558322, 0.558322, 0.829624, 3.017481, -7.614991)" style="visibility: hidden;">
      <title>Right Spot</title>
    </path>
    <path fill="#B17D49" stroke="none" d="M -0.6 3.3 C -0.567 3.2 -0.567 3.1 -0.6 3 L -2.3 -0.7 C -2.3 -0.733 -2.317 -0.767 -2.35 -0.8 L -5.05 -3.9 C -5.083 -3.967 -5.167 -4 -5.3 -4 C -5.4 -4.033 -5.5 -4.017 -5.6 -3.95 L -6.25 -3.5 C -6.317 -3.467 -6.367 -3.4 -6.4 -3.3 C -6.4 -3.2 -6.383 -3.1 -6.35 -3 L -4.55 0.85 C -4.517 0.883 -4.5 0.917 -4.5 0.95 L -1.9 3.9 C -1.833 3.967 -1.733 4 -1.6 4 C -1.5 4.033 -1.4 4.017 -1.3 3.95 L -0.75 3.55 C -0.683 3.483 -0.633 3.4 -0.6 3.3 Z" id="svg-3" style="visibility: hidden;">
      <title>Dirt</title>
    </path>
  </g>
  <g id="armLeft_FL_FL" transform="matrix(0.998611, 0.267561, -0.241454, 0.901184, 14.704254, 59.001858)" style="visibility: hidden;">
    <title>Green Right Arm</title>
    <path fill="#FFE0B1" stroke="none" d="M -8.975 22.235 C -6.913 24.183 -4.387 25.441 -1.397 26.008 C 1.768 20.714 3.962 14.963 5.184 8.753 L -8.277 6.288 C -9.077 11.604 -9.309 16.92 -8.975 22.235 Z" transform="matrix(1, 0, 0, 1, -0.000001, 0)">
      <title>Arm</title>
    </path>
    <path fill="#25A85C" stroke="none" d="M 5.682 8.854 L 6.181 5.886 L -9.224 3.069 C -10.088 3.471 -10.254 4.461 -9.723 6.037 L -8.277 6.288 L 5.184 8.753 L 5.682 8.854 Z">
      <title>Cuff</title>
    </path>
    <path fill="#2ECC71" stroke="none" d="M 0.547 -6.892 L 0.497 -6.892 C 0.11 -6.965 -0.272 -7.015 -0.649 -7.042 C -4.021 -7.101 -6.88 -3.731 -9.224 3.069 L 6.181 5.886 L 6.829 2.314 C 7.228 0.168 6.812 -1.827 5.582 -3.672 C 4.353 -5.449 2.674 -6.523 0.547 -6.892 Z">
      <title>Sleeve</title>
    </path>
  </g>
  <g id="g-2" transform="matrix(0.998611, 0.267561, -0.241454, 0.901183, 14.703019, 59.005611)">
    <title>Brown Right Arm</title>
    <path fill="#FFE0B1" stroke="none" d="M -8.975 22.235 C -6.913 24.183 -4.387 25.441 -1.397 26.008 C 1.768 20.714 3.962 14.963 5.184 8.753 L -8.277 6.288 C -9.077 11.604 -9.309 16.92 -8.975 22.235 Z" transform="matrix(1, 0, 0, 1, -0.000001, 0)">
      <title>Arm</title>
    </path>
    <path stroke="none" d="M 5.682 8.854 L 6.181 5.886 L -9.224 3.069 C -10.088 3.471 -10.254 4.461 -9.723 6.037 L -8.277 6.288 L 5.184 8.753 L 5.682 8.854 Z" style="fill: rgb(142, 100, 58);">
      <title>Cuff</title>
    </path>
    <path stroke="none" d="M 0.547 -6.892 L 0.497 -6.892 C 0.11 -6.965 -0.272 -7.015 -0.649 -7.042 C -4.021 -7.101 -6.88 -3.731 -9.224 3.069 L 6.181 5.886 L 6.829 2.314 C 7.228 0.168 6.812 -1.827 5.582 -3.672 C 4.353 -5.449 2.674 -6.523 0.547 -6.892 Z" style="fill: rgb(196, 138, 81);">
      <title>Sleeve</title>
    </path>
  </g>
  <g id="handLeft_FL_FL" transform="matrix(0.998611, 0.267561, -0.267561, 0.998611, 9.276613, 84.537628)">
    <title>Right Hand</title>
    <g transform="matrix( 1, 0, 0, 1, 0,0) ">
      <g id="" transform="matrix(1, 0, 0, 1, 0, 0)">
        <path fill="#E7CBA0" stroke="none" d="&#10;M 0.65 -9&#10;Q 3.1 -6.8 4.9 -1.85&#10;L 5.1 -1.05 5.1 -1.1&#10;Q 8.2 -5.45 0.65 -9&#10;M -6.75 -2.65&#10;Q -5.5 -2.75 -3.8 -3.35 -2.05 -3.95 -0.95 -4.7 0.15 -5.4 0.05 -5.85 0 -6.25 -1.3 -6.15 -2.5 -6 -4.25 -5.45 -5.95 -4.85 -7.05 -4.15 -8.2 -3.45 -8.15 -3 -8.05 -2.55 -6.75 -2.65 Z"/>
        <path fill="#FFE0B1" stroke="none" d="&#10;M 4.9 -1.85&#10;Q 3.1 -6.8 0.65 -9&#10;L -9 -6.45&#10;Q -10.2 -6.15 -9.95 -5.05&#10;L -9.8 -4.5&#10;Q -7.1 7.6 -0.2 5.8 2.25 5.2 4.65 3.95 6.25 3.15 5.95 1.95&#10;L 5.9 1.7&#10;Q 5.5 0.25 5.1 -1.1&#10;L 5.1 -1.05 4.9 -1.85&#10;M -3.8 -3.35&#10;Q -5.5 -2.75 -6.75 -2.65 -8.05 -2.55 -8.15 -3 -8.2 -3.45 -7.05 -4.15 -5.95 -4.85 -4.25 -5.45 -2.5 -6 -1.3 -6.15 0 -6.25 0.05 -5.85 0.15 -5.4 -0.95 -4.7 -2.05 -3.95 -3.8 -3.35 Z"/>
      </g>
    </g>
  </g>
  <g id="armRight_FL_FL_FL" transform="matrix(-0.998611, 0.267561, 0.241454, 0.901184, 49.906395, 57.968021)" style="visibility: hidden;">
    <title>Green Left Arm</title>
    <g transform="matrix( 0.9970703125, 0, 0, 1.006103515625, -0.4,-0.05) ">
      <g id="" transform="matrix(1, 0, 0, 1, 0, 0)">
        <path fill="#FFE0B1" stroke="none" d="&#10;M -8.6 22.15&#10;Q -5.4974609375 25.0546875 -1 25.9 3.7619140625 18.0072265625 5.6 8.75&#10;L -7.9 6.3&#10;Q -9.1033203125 14.225 -8.6 22.15 Z"/>
        <path fill="#25A85C" stroke="none" d="&#10;M 6.1 8.85&#10;L 6.6 5.9 -8.85 3.1&#10;Q -10.15 3.7 -9.35 6.05&#10;L -7.9 6.3 5.6 8.75 6.1 8.85 Z"/>
        <path fill="#2ECC71" stroke="none" d="&#10;M 0.95 -6.8&#10;L 0.9 -6.8&#10;Q 0.3177734375 -6.9091796875 -0.25 -6.95 -5.323046875 -7.0373046875 -8.85 3.1&#10;L 6.6 5.9 7.25 2.35&#10;Q 7.85 -0.85 6 -3.6 4.15 -6.25 0.95 -6.8 Z"/>
      </g>
    </g>
  </g>
  <g id="g-3" transform="matrix(-0.998611, 0.267561, 0.241454, 0.901183, 49.905586, 57.966003)">
    <title id="svg-4">Brown Left Arm</title>
    <path fill="#FFE0B1" stroke="none" d="M -8.975 22.235 C -6.913 24.183 -4.387 25.441 -1.397 26.008 C 1.768 20.714 3.962 14.963 5.184 8.753 L -8.277 6.288 C -9.077 11.604 -9.309 16.92 -8.975 22.235 Z" id="svg-4">
      <title>Arm</title>
    </path>
    <path stroke="none" d="M 5.682 8.854 L 6.181 5.886 L -9.224 3.069 C -10.088 3.471 -10.254 4.461 -9.723 6.037 L -8.277 6.288 L 5.184 8.753 L 5.682 8.854 Z" id="svg-4" style="fill: rgb(142, 100, 58);">
      <title>Cuff</title>
    </path>
    <path stroke="none" d="M 0.547 -6.892 L 0.497 -6.892 C 0.11 -6.965 -0.272 -7.015 -0.649 -7.042 C -4.021 -7.101 -6.88 -3.731 -9.224 3.069 L 6.181 5.886 L 6.829 2.314 C 7.228 0.168 6.812 -1.827 5.582 -3.672 C 4.353 -5.449 2.674 -6.523 0.547 -6.892 Z" id="svg-4" style="fill: rgb(196, 138, 81);">
      <title>Sleeve</title>
    </path>
  </g>
  <g id="handRight_FL_FL_FL" transform="matrix(-0.998611, 0.267561, 0.267561, 0.998611, 55.385731, 83.969017)">
    <title>Left Hand</title>
    <g transform="matrix( 1, 0, 0, 1, 0,0) ">
      <g id="" transform="matrix(1, 0, 0, 1, 0, 0)">
        <path fill="#E7CBA0" stroke="none" d="&#10;M 0.65 -9&#10;Q 3.1 -6.8 4.9 -1.85&#10;L 5.1 -1.05 5.1 -1.1&#10;Q 8.2 -5.45 0.65 -9&#10;M -6.75 -2.65&#10;Q -5.5 -2.75 -3.8 -3.35 -2.05 -3.95 -0.95 -4.7 0.15 -5.4 0.05 -5.85 0 -6.25 -1.3 -6.15 -2.5 -6 -4.25 -5.45 -5.95 -4.85 -7.05 -4.15 -8.2 -3.45 -8.15 -3 -8.05 -2.55 -6.75 -2.65 Z"/>
        <path fill="#FFE0B1" stroke="none" d="&#10;M 4.9 -1.85&#10;Q 3.1 -6.8 0.65 -9&#10;L -9 -6.45&#10;Q -10.2 -6.15 -9.95 -5.05&#10;L -9.8 -4.5&#10;Q -7.1 7.6 -0.2 5.8 2.25 5.2 4.65 3.95 6.25 3.15 5.95 1.95&#10;L 5.9 1.7&#10;Q 5.5 0.25 5.1 -1.1&#10;L 5.1 -1.05 4.9 -1.85&#10;M -3.8 -3.35&#10;Q -5.5 -2.75 -6.75 -2.65 -8.05 -2.55 -8.15 -3 -8.2 -3.45 -7.05 -4.15 -5.95 -4.85 -4.25 -5.45 -2.5 -6 -1.3 -6.15 0 -6.25 0.05 -5.85 0.15 -5.4 -0.95 -4.7 -2.05 -3.95 -3.8 -3.35 Z"/>
      </g>
    </g>
  </g>
  <g id="head_FL" transform="matrix(1.033837, 0, 0, 1.033837, 33.003166, 54.659748)">
    <title>Head</title>
    <g id="">
      <title>Skin</title>
      <path fill="#D7BD93" stroke="none" d="M -7.8 2.861 C -5.834 4.161 -3.45 4.811 -0.65 4.811 C 2.15 4.811 4.533 4.161 6.5 2.861 C 7.666 2.094 8.483 1.228 8.95 0.261 L -10.25 0.261 C -9.784 1.228 -8.967 2.094 -7.8 2.861 Z" style="visibility: hidden;">
        <title>Neck</title>
      </path>
      <path fill="#FFE0B1" stroke="none" d="M 19.1 -4.05 C 20.133 -10.783 20.117 -17.667 19.05 -24.7 C 18.617 -27.667 16.917 -29.15 13.95 -29.15 L -16.4 -29.15 C -19.333 -29.15 -21.033 -27.633 -21.5 -24.6 C -22.5 -17.733 -22.5 -10.867 -21.5 -4 C -21.033 -1 -19.333 0.5 -16.4 0.5 L -9.85 0.5 L 9.35 0.5 L 13.95 0.5 C 16.917 0.5 18.633 -1.017 19.1 -4.05 Z">
        <title>Face</title>
      </path>
    </g>
    <g id="" style="visibility: hidden;">
      <title>Smile</title>
      <path fill="#FFFFFF" stroke="none" d="&#10;M -5.1 -16.1&#10;Q -6.1 -17.2 -7.65 -17.2 -9.2 -17.2 -10.3 -16.1 -11.3 -14.95 -11.3 -13.4 -11.3 -11.85 -10.3 -10.75 -9.2 -9.6 -7.65 -9.6 -6.1 -9.6 -5.1 -10.75 -4 -11.85 -4 -13.4 -4 -14.95 -5.1 -16.1&#10;M 3.05 -5.65&#10;L 3.05 -8.65 -3.8 -8.65&#10;Q -4.1 -8.65 -4.35 -8.45 -4.65 -8.3 -4.75 -7.95 -4.85 -7.7 -4.75 -7.35 -4.65 -6.85 -4.4 -6.4 -4.2 -6 -3.95 -5.65&#10;L 3.05 -5.65&#10;M 13.5 -16.1&#10;Q 12.5 -17.2 10.95 -17.2 9.4 -17.2 8.3 -16.1 7.3 -14.95 7.3 -13.4 7.3 -11.85 8.3 -10.75 9.4 -9.6 10.95 -9.6 12.5 -9.6 13.5 -10.75 14.6 -11.85 14.6 -13.4 14.6 -14.95 13.5 -16.1 Z">
        <title>White</title>
      </path>
      <path stroke="none" d="&#10;M -4.65 -21.3&#10;Q -4.3 -21.15 -3.9 -21.3 -3.55 -21.5 -3.35 -21.85 -3.2 -22.25 -3.35 -22.6 -3.55 -23 -3.9 -23.15 -6.1 -24.1 -8.4 -23.1 -9.95 -22.45 -10.9 -21.2 -11.15 -20.9 -11.1 -20.45 -11.05 -20.05 -10.7 -19.8 -10.4 -19.55 -9.95 -19.6 -9.55 -19.65 -9.3 -20 -8.65 -20.85 -7.6 -21.25 -6.1 -21.9 -4.65 -21.3&#10;M 11.2 -19.75&#10;Q 12.25 -19.35 12.9 -18.5 13.15 -18.15 13.6 -18.1 14 -18.05 14.3 -18.3 14.65 -18.55 14.7 -18.95 14.75 -19.4 14.5 -19.7 13.55 -20.95 12 -21.6 9.7 -22.6 7.55 -21.65 7.15 -21.5 7 -21.1 6.8 -20.75 7 -20.35 7.15 -20 7.55 -19.8 7.9 -19.65 8.3 -19.8 9.7 -20.4 11.2 -19.75 Z" style="fill: rgb(113, 123, 131);">
        <title>Eyebrows</title>
      </path>
      <path fill="#7F7058" stroke="none" d="&#10;M 6.5 -6.4&#10;Q 6.75 -6.85 6.9 -7.35 6.95 -7.7 6.85 -7.95 6.75 -8.3 6.5 -8.45 6.2 -8.65 5.9 -8.65&#10;L 3.05 -8.65 3.05 -5.65 -3.95 -5.65&#10;Q -3.65 -5.15 -3.2 -4.75 -1.4 -2.95 1.05 -2.95 3.5 -2.95 5.25 -4.7&#10;L 5.3 -4.75&#10;Q 6.05 -5.5 6.5 -6.4 Z">
        <title>Color</title>
      </path>
    </g>
    <g transform="matrix(1, 0, 0, 1, -0.75, 1.399999)" id="svg-2">
      <title id="svg-2">Grin</title>
      <g id="svg-2" transform="matrix(1, 0, 0, 1, 0, 0)">
        <path fill="#FFFFFF" stroke="none" d="&#10;M -3.2 -14.85&#10;Q -3.2 -16.4 -4.3 -17.55 -5.3 -18.65 -6.85 -18.65 -8.4 -18.65 -9.5 -17.55 -10.5 -16.4 -10.5 -14.85 -10.5 -13.3 -9.5 -12.2 -8.4 -11.05 -6.85 -11.05 -5.3 -11.05 -4.3 -12.2 -3.2 -13.3 -3.2 -14.85&#10;M 14.3 -17.55&#10;Q 13.3 -18.65 11.75 -18.65 10.2 -18.65 9.1 -17.55 8.1 -16.4 8.1 -14.85 8.1 -13.3 9.1 -12.2 10.2 -11.05 11.75 -11.05 13.3 -11.05 14.3 -12.2 15.4 -13.3 15.4 -14.85 15.4 -16.4 14.3 -17.55 Z" id="svg-2">
          <title id="svg-2">White</title>
        </path>
        <path stroke="none" d="&#10;M -3.4 -20.9&#10;Q -3.2 -20.6 -2.75 -20.55 -2.35 -20.5 -2 -20.75 -1.7 -21 -1.6 -21.4 -1.6 -21.8 -1.85 -22.15 -3.3 -24.1 -5.75 -24.35 -7.4 -24.55 -8.85 -23.95 -9.2 -23.8 -9.4 -23.4 -9.6 -23 -9.35 -22.65 -9.25 -22.3 -8.8 -22.1 -8.5 -21.9 -8.05 -22.15 -7.1 -22.5 -6 -22.35 -4.35 -22.15 -3.4 -20.9&#10;M 13.45 -22.7&#10;Q 12.05 -23.3 10.35 -23.1 7.85 -22.85 6.5 -20.9 6.2 -20.55 6.25 -20.2 6.3 -19.8 6.65 -19.55 6.95 -19.3 7.4 -19.3 7.8 -19.35 8.05 -19.7 8.95 -20.9 10.6 -21.1 11.7 -21.25 12.65 -20.9 13.1 -20.65 13.45 -20.9 13.85 -21.05 14 -21.4 14.2 -21.75 14 -22.15 13.8 -22.55 13.45 -22.7 Z" id="svg-2" style="fill: rgb(107, 116, 123);">
          <title>Eyebrow</title>
        </path>
        <path fill="#7F7058" stroke="none" d="&#10;M 7.65 -6.7&#10;Q 8.05 -6.85 8.25 -7.2 8.4 -7.55 8.3 -7.95 8.15 -8.35 7.8 -8.5 7.45 -8.7 7.05 -8.6 1.7 -6.9 -2.25 -9.45 -2.6 -9.7 -3 -9.6 -3.4 -9.55 -3.6 -9.2 -3.85 -8.85 -3.75 -8.45 -3.7 -8.05 -3.35 -7.8 1.3 -4.7 7.65 -6.7 Z" id="svg-2">
          <title id="svg-2">Mouth</title>
        </path>
      </g>
    </g>
    <g>
      <title>Left Eye</title>
      <g id="" transform="matrix(1, 0, 0, 1, 0, 0)">
        <path fill="#7F7058" stroke="none" d="&#10;M 11.45 -11.2&#10;Q 12.1 -12.1 12.1 -13.4 12.1 -14.7 11.45 -15.65 10.85 -16.55 9.95 -16.55 9.05 -16.55 8.4 -15.65 7.8 -14.7 7.8 -13.4 7.8 -12.1 8.4 -11.2 9.05 -10.25 9.95 -10.25 10.85 -10.25 11.45 -11.2 Z"/>
      </g>
    </g>
    <g transform="matrix( 1, 0, 0, 1, 0,0) ">
      <title>Right Eye</title>
      <g id="" transform="matrix(1, 0, 0, 1, 0, 0)">
        <path fill="#7F7058" stroke="none" d="&#10;M -5.4 -11.2&#10;Q -4.75 -12.1 -4.75 -13.4 -4.75 -14.7 -5.4 -15.65 -6 -16.55 -6.9 -16.55 -7.8 -16.55 -8.45 -15.65 -9.05 -14.7 -9.05 -13.4 -9.05 -12.1 -8.45 -11.2 -7.8 -10.25 -6.9 -10.25 -6 -10.25 -5.4 -11.2 Z"/>
      </g>
    </g>
  </g>
  <g id="svg-1" transform="matrix(1.033837, 0, 0, 1.033837, 32.121307, 55.660999)">
    <title>Short Hair</title>
    <path fill="#717B83" stroke="none" d="&#10;M -12.65 -25&#10;L -10.2 -29.1 -15.7 -23.5 -14.3 -22.25 -12.65 -25&#10;M 16.45 -22.6&#10;L 16.45 -22.6 8.35 -21.15 8.95 -19.85 16.45 -22.6&#10;M 19.2 -11.3&#10;L 19.55 -9.85&#10;Q 27.615234375 -22.025390625 25.05 -37.1&#10;L 19.7 -37.1&#10;Q 23.43671875 -24.1875 19.2 -11.3&#10;M -7.7 -38.75&#10;L -4.8 -35.85&#10;Q 3.84609375 -41.0203125 14.15 -42.9 5.384765625 -44.227734375 -2.85 -41.85&#10;L 0 -45.75&#10;Q -9.221484375 -47.369921875 -14.9 -41.45&#10;L -18.55 -37.75 -21.45 -39 -26.2 -27.9&#10;Q -25.3431640625 -25.6625 -24.95 -23.6&#10;L -7.7 -38.75 Z" id="svg-1"/>
    <path fill="#000000" fill-opacity="0.10196078431372549" stroke="none" d="&#10;M 1.7 -22.15&#10;L 0 -26.85 -10.2 -29.1 -12.65 -25 1.7 -22.15 Z" id="svg-1"/>
    <path fill="#6B747B" stroke="none" d="&#10;M 19.7 -37.1&#10;L 17.2 -37.1 19.05 -41.85&#10;Q 16.5802734375 -42.5087890625 14.15 -42.9 3.84609375 -41.0203125 -4.8 -35.85&#10;L -7.7 -38.75 -24.95 -23.6&#10;Q -24.0095703125 -19.15390625 -25.1 -15.5 -26.638671875 -10.1310546875 -21.45 -5.85&#10;L -16.7 -13.85 -18.8 -20.35 -15.7 -23.5 -10.2 -29.1 0 -26.85 1.7 -22.15 2.45 -20.1 8.35 -21.15 16.45 -22.6 16.45 -22.6 19.2 -11.3&#10;Q 23.43671875 -24.1875 19.7 -37.1 Z" id="svg-1"/>
  </g>
  <g transform="matrix(1.033837, 0, 0, 1.033837, 33.003166, 54.659748)" style="visibility: hidden;">
    <title>Long Hair</title>
    <g id="" transform="matrix(1, 0, 0, 1, 0, 0)">
      <path fill="#B8824D" stroke="none" d="&#10;M -23.55 -31.75&#10;Q -25.95 -18.75 -22.3 -6.5 -17.35 -11.15 -16.7 -23 -11.95 -40.6 22.8 -52.25 -2.45 -46.9 -16.05 -40&#10;L -18.95 -35.25 -23.55 -31.75 Z"/>
      <path fill="#C48A51" stroke="none" d="&#10;M 0.8 -24.75&#10;Q 9.15 -22.35 18.55 -22.6&#10;L 19.55 -14.5&#10;Q 24.1 -28 22.5 -33.5 20.3 -41.15 22.8 -52.25 -11.95 -40.6 -16.7 -23 -9.5 -27.9 0.8 -24.75 Z"/>
    </g>
  </g>
</svg>