<?xml version="1.0" encoding="utf-8"?>
<svg viewBox="0 8 61 91.76899719238281" width="68px" height="100px" preserveAspectRatio="xMinYMax" xmlns="http://www.w3.org/2000/svg">
  <g id="armRight_FL" transform="matrix(-0.987747, 0.258804, 0.160034, 0.871689, 47.756805, 58.769257)">
    <g transform="matrix( 1, 0, 0, 1, 0,0) ">
      <g id="" transform="matrix(1, 0, 0, 1, 0, 0)">
        <path fill="#957544" stroke="none" d="&#10;M -8.8 10.4&#10;Q -9.321875 16.3369140625 -8.95 22.25 -5.9 25.15 -1.4 26 2.8025390625 18.9662109375 4.7 10.85&#10;L -8.8 10.4 Z"/>
        <path fill="#8C6E40" stroke="none" d="&#10;M 4.7 10.85&#10;Q 4.98671875 9.821875 5.2 8.75&#10;L -8.3 6.3&#10;Q -8.5947265625 8.3498046875 -8.8 10.4&#10;L 4.7 10.85 Z"/>
        <path fill="#747B64" stroke="none" d="&#10;M 5.7 8.85&#10;L 6.2 5.9 -9.2 3.05&#10;Q -10.5 3.65 -9.7 6.05&#10;L -8.3 6.3 5.2 8.75 5.7 8.85 Z"/>
        <path fill="#889176" stroke="none" d="&#10;M 0.55 -6.9&#10;L 0.5 -6.9&#10;Q -0.1 -7 -0.65 -7 -5.7 -7.15 -9.2 3.05&#10;L 6.2 5.9 6.85 2.3&#10;Q 7.45 -0.9 5.6 -3.65 3.75 -6.35 0.55 -6.9 Z"/>
      </g>
    </g>
  </g>
  <g id="handRight_FL" transform="matrix(-0.987747, 0.258804, 0.177338, 0.965927, 50.956787, 83.91925)">
    <g transform="matrix( 1, 0, 0, 1, 0,0) ">
      <g id="" transform="matrix(1, 0, 0, 1, 0, 0)">
        <path fill="#957544" stroke="none" d="&#10;M 4.9 -1.85&#10;Q 3.1 -6.8 0.65 -9&#10;L -9 -6.45&#10;Q -10.2 -6.15 -9.95 -5.05&#10;L -9.8 -4.5&#10;Q -7.1 7.6 -0.2 5.8 2.25 5.2 4.65 3.95 6.25 3.15 5.95 1.95&#10;L 5.9 1.7&#10;Q 5.5 0.25 5.1 -1.1&#10;L 5.1 -1.05 4.9 -1.85&#10;M -8.15 -3&#10;Q -8.2 -3.45 -7.05 -4.15 -5.95 -4.85 -4.25 -5.45 -2.5 -6 -1.3 -6.15 0 -6.25 0.05 -5.85 0.15 -5.4 -0.95 -4.7 -2.05 -3.95 -3.8 -3.35 -5.5 -2.75 -6.75 -2.65 -8.05 -2.55 -8.15 -3 Z"/>
        <path fill="#85683B" stroke="none" d="&#10;M -7.05 -4.15&#10;Q -8.2 -3.45 -8.15 -3 -8.05 -2.55 -6.75 -2.65 -5.5 -2.75 -3.8 -3.35 -2.05 -3.95 -0.95 -4.7 0.15 -5.4 0.05 -5.85 0 -6.25 -1.3 -6.15 -2.5 -6 -4.25 -5.45 -5.95 -4.85 -7.05 -4.15&#10;M 5.1 -1.1&#10;Q 8.2 -5.45 0.65 -9 3.1 -6.8 4.9 -1.85&#10;L 5.1 -1.05 5.1 -1.1 Z"/>
      </g>
    </g>
  </g>
  <g id="legLeft_FL_FL_FL_FL_FL_FL_FL_FL_FL_FL_FL_FL_FL_FL_FL_FL_FL_FL_FL_FL" transform="matrix(-1, 0, -0.247681, 1, 21.406799, 83.769257)">
    <g transform="matrix( 1, 0, 0, 1, 0,0) ">
      <g id="" transform="matrix(1, 0, 0, 1, 0, 0)">
        <path fill="#AA7847" stroke="none" d="&#10;M 9 7.65&#10;L 9 5.35 -8.75 3.7 -8.75 7.65 9 7.65 Z"/>
        <path fill="#B8824D" stroke="none" d="&#10;M 0.15 -7&#10;L 0.1 -7&#10;Q -3.6 -7 -6.15 -4.5 -8.75 -1.95 -8.75 1.7&#10;L -8.75 3.7 9 5.35 9 1.7&#10;Q 9 -1.95 6.45 -4.5 3.85 -7 0.15 -7 Z"/>
        <path fill="#484848" stroke="none" d="&#10;M 9 11.05&#10;L 9 7.65 -8.75 7.65 -8.75 11 -8.75 11.05 8.95 11.05 9 11.05 Z"/>
        <path fill="#545454" stroke="none" d="&#10;M 8.95 16&#10;L 8.95 11.05 -8.75 11.05 -8.75 11&#10;Q -10.55 11.9 -12 13.85&#10;L -12 16 8.95 16 Z"/>
      </g>
    </g>
  </g>
  <g id="legRight_FL_FL_FL_FL_FL_FL_FL_FL_FL_FL_FL_FL_FL_FL_FL_FL_FL_FL_FL_FL_FL" transform="matrix(-1, 0, 0.108353, 1, 42.556793, 83.769257)">
    <g transform="matrix( 1, 0, 0, 1, 0,0) ">
      <g id="" transform="matrix(1, 0, 0, 1, 0, 0)">
        <path fill="#AA7847" stroke="none" d="&#10;M 9 7.65&#10;L 9 5.35 -8.75 3.7 -8.75 7.65 9 7.65 Z"/>
        <path fill="#B8824D" stroke="none" d="&#10;M 0.15 -7&#10;L 0.1 -7&#10;Q -3.6 -7 -6.15 -4.5 -8.75 -1.95 -8.75 1.7&#10;L -8.75 3.7 9 5.35 9 1.7&#10;Q 9 -1.95 6.45 -4.5 3.85 -7 0.15 -7 Z"/>
        <path fill="#484848" stroke="none" d="&#10;M 9 11.05&#10;L 9 7.65 -8.75 7.65 -8.75 11 -8.75 11.05 8.95 11.05 9 11.05 Z"/>
        <path fill="#545454" stroke="none" d="&#10;M 8.95 16&#10;L 8.95 11.05 -8.75 11.05 -8.75 11&#10;Q -10.55 11.9 -12 13.85&#10;L -12 16 8.95 16 Z"/>
      </g>
    </g>
  </g>
  <g id="body_FL_FL_FL_FL_FL_FL_FL_FL_FL_FL_FL_FL_FL_FL_FL_FL_FL_FL_FL_FL_FL" transform="matrix(1, 0, 0, 1, 32.006805, 75.069244)">
    <g transform="matrix( 1, 0, 0, 1, 0,0) ">
      <g id="" transform="matrix(1, 0, 0, 1, 0, 0)">
        <path fill="#B8824D" stroke="none" d="&#10;M 7.5 5.9&#10;L 3.6 5.9 3.6 10 20 10 20 5.9 7.5 5.9&#10;M -3.6 5.9&#10;L -19 5.9 -19 10 -3.6 10 -3.6 5.9 Z"/>
        <path fill="#C3DAE2" stroke="none" d="&#10;M -3.6 4.4&#10;L -3.6 5.9 -3.6 10 3.6 10 3.6 5.9 3.6 4.4 -3.6 4.4 Z"/>
        <path fill="#D9C195" stroke="none" d="&#10;M -8.5 -7.6&#10;L -8.5 -7.55&#10;Q -9.05 -6.1 -8.45 -4.7 -7.85 -3.25 -6.4 -2.7 -4.95 -2.1 -3.55 -2.75 -3.280859375 -2.8576171875 -3.05 -3&#10;L -8.5 -7.6&#10;M 0.7 -10.4&#10;L 1 -11.05&#10;Q 1.6 -12.5 0.95 -13.95 0.35 -15.35 -1.1 -15.95 -2.55 -16.5 -3.95 -15.9 -4.5587890625 -15.6271484375 -5.05 -15.25&#10;L 0.7 -10.4&#10;M 8.2 -7.05&#10;Q 8.2 -6.45 8.8 -6.45&#10;L 14.9 -6.45&#10;Q 15.5 -6.45 15.5 -7.05&#10;L 15.5 -9.05&#10;Q 15.5 -9.65 14.9 -9.65&#10;L 8.8 -9.65&#10;Q 8.2 -9.65 8.2 -9.05&#10;L 8.2 -7.05 Z"/>
        <path fill="#889176" stroke="none" d="&#10;M -8.5 -7.55&#10;L -8.5 -7.6 -19 -16.45 -19 5.9 -3.6 5.9 -3.6 4.4 3.6 4.4 3.6 5.9 7.5 5.9 -3.05 -3&#10;Q -3.280859375 -2.8576171875 -3.55 -2.75 -4.95 -2.1 -6.4 -2.7 -7.85 -3.25 -8.45 -4.7 -9.05 -6.1 -8.5 -7.55&#10;M 1 -11.05&#10;L 0.7 -10.4 20 5.9 20 -21 -11.9 -21 -5.05 -15.25&#10;Q -4.5587890625 -15.6271484375 -3.95 -15.9 -2.55 -16.5 -1.1 -15.95 0.35 -15.35 0.95 -13.95 1.6 -12.5 1 -11.05&#10;M 14.95 -13.7&#10;Q 15.1 -13.55 15.1 -13.4&#10;L 15.1 -11.75&#10;Q 15.1 -11.6 15 -11.5 14.95 -11.4 14.8 -11.35&#10;L 11.85 -10.5&#10;Q 11.75 -10.45 11.65 -10.5&#10;L 8.65 -11.35&#10;Q 8.55 -11.4 8.45 -11.5 8.35 -11.6 8.35 -11.75&#10;L 8.35 -13.4&#10;Q 8.35 -13.55 8.5 -13.7 8.6 -13.8 8.75 -13.8&#10;L 14.7 -13.8&#10;Q 14.85 -13.8 14.95 -13.7&#10;M 8.8 -6.45&#10;Q 8.2 -6.45 8.2 -7.05&#10;L 8.2 -9.05&#10;Q 8.2 -9.65 8.8 -9.65&#10;L 14.9 -9.65&#10;Q 15.5 -9.65 15.5 -9.05&#10;L 15.5 -7.05&#10;Q 15.5 -6.45 14.9 -6.45&#10;L 8.8 -6.45&#10;M 12.4 -11.6&#10;Q 12.4 -11.85 12.2 -12.05 12 -12.25 11.75 -12.25 11.5 -12.25 11.3 -12.05 11.1 -11.85 11.1 -11.6 11.1 -11.35 11.3 -11.15 11.5 -10.95 11.75 -10.95 12 -10.95 12.2 -11.15 12.4 -11.35 12.4 -11.6 Z"/>
        <path fill="#91663C" stroke="none" d="&#10;M -19 -21&#10;L -19 -16.45 -8.5 -7.6 -3.05 -3 7.5 5.9 20 5.9 0.7 -10.4 -5.05 -15.25 -11.9 -21 -19 -21 Z"/>
        <path fill="#747B64" stroke="none" d="&#10;M 15.1 -13.4&#10;Q 15.1 -13.55 14.95 -13.7 14.85 -13.8 14.7 -13.8&#10;L 8.75 -13.8&#10;Q 8.6 -13.8 8.5 -13.7 8.35 -13.55 8.35 -13.4&#10;L 8.35 -11.75&#10;Q 8.35 -11.6 8.45 -11.5 8.55 -11.4 8.65 -11.35&#10;L 11.65 -10.5&#10;Q 11.75 -10.45 11.85 -10.5&#10;L 14.8 -11.35&#10;Q 14.95 -11.4 15 -11.5 15.1 -11.6 15.1 -11.75&#10;L 15.1 -13.4&#10;M 12.2 -12.05&#10;Q 12.4 -11.85 12.4 -11.6 12.4 -11.35 12.2 -11.15 12 -10.95 11.75 -10.95 11.5 -10.95 11.3 -11.15 11.1 -11.35 11.1 -11.6 11.1 -11.85 11.3 -12.05 11.5 -12.25 11.75 -12.25 12 -12.25 12.2 -12.05 Z"/>
      </g>
    </g>
  </g>
  <g id="armLeft_FL_FL_FL_FL_FL_FL_FL_FL_FL_FL_FL_FL_FL_FL_FL_FL_FL_FL_FL_FL_FL" transform="matrix(0.966019, 0.258423, -0.233215, 0.871765, 15.206787, 59.269257)">
    <g transform="matrix( 1, 0, 0, 1, 0,0) ">
      <g id="" transform="matrix(1, 0, 0, 1, 0, 0)">
        <path fill="#957544" stroke="none" d="&#10;M -8.8 10.4&#10;Q -9.321875 16.3369140625 -8.95 22.25 -5.9 25.15 -1.4 26 2.8025390625 18.9662109375 4.7 10.85&#10;L -8.8 10.4 Z"/>
        <path fill="#8C6E40" stroke="none" d="&#10;M 4.7 10.85&#10;Q 4.98671875 9.821875 5.2 8.75&#10;L -8.3 6.3&#10;Q -8.5947265625 8.3498046875 -8.8 10.4&#10;L 4.7 10.85 Z"/>
        <path fill="#747B64" stroke="none" d="&#10;M 5.7 8.85&#10;L 6.2 5.9 -9.2 3.05&#10;Q -10.5 3.65 -9.7 6.05&#10;L -8.3 6.3 5.2 8.75 5.7 8.85 Z"/>
        <path fill="#889176" stroke="none" d="&#10;M 0.55 -6.9&#10;L 0.5 -6.9&#10;Q -0.1 -7 -0.65 -7 -5.7 -7.15 -9.2 3.05&#10;L 6.2 5.9 6.85 2.3&#10;Q 7.45 -0.9 5.6 -3.65 3.75 -6.35 0.55 -6.9 Z"/>
      </g>
    </g>
  </g>
  <g id="handLeft_FL_FL_FL_FL_FL_FL_FL_FL_FL_FL_FL_FL_FL_FL_FL_FL_FL_FL_FL_FL_FL" transform="matrix(0.965912, -0.25882, 0.25882, 0.965912, 12.956787, 80.219238)">
    <g transform="matrix( 1, 0, 0, 1, 0,0) ">
      <g id="" transform="matrix(1, 0, 0, 1, 0, 0)">
        <path fill="#957544" stroke="none" d="&#10;M 4.9 -1.85&#10;Q 3.1 -6.8 0.65 -9&#10;L -9 -6.45&#10;Q -10.2 -6.15 -9.95 -5.05&#10;L -9.8 -4.5&#10;Q -7.1 7.6 -0.2 5.8 2.25 5.2 4.65 3.95 6.25 3.15 5.95 1.95&#10;L 5.9 1.7&#10;Q 5.5 0.25 5.1 -1.1&#10;L 5.1 -1.05 4.9 -1.85&#10;M -8.15 -3&#10;Q -8.2 -3.45 -7.05 -4.15 -5.95 -4.85 -4.25 -5.45 -2.5 -6 -1.3 -6.15 0 -6.25 0.05 -5.85 0.15 -5.4 -0.95 -4.7 -2.05 -3.95 -3.8 -3.35 -5.5 -2.75 -6.75 -2.65 -8.05 -2.55 -8.15 -3 Z"/>
        <path fill="#85683B" stroke="none" d="&#10;M -7.05 -4.15&#10;Q -8.2 -3.45 -8.15 -3 -8.05 -2.55 -6.75 -2.65 -5.5 -2.75 -3.8 -3.35 -2.05 -3.95 -0.95 -4.7 0.15 -5.4 0.05 -5.85 0 -6.25 -1.3 -6.15 -2.5 -6 -4.25 -5.45 -5.95 -4.85 -7.05 -4.15&#10;M 5.1 -1.1&#10;Q 8.2 -5.45 0.65 -9 3.1 -6.8 4.9 -1.85&#10;L 5.1 -1.05 5.1 -1.1 Z"/>
      </g>
    </g>
  </g>
  <g transform="matrix(0.999619, 0.026627, -0.026627, 0.999619, 30.606812, 56.819244)">
    <g transform="matrix( 1, 0, 0, 1, 0,0) ">
      <g id="" transform="matrix(1, 0, 0, 1, 0, 0)">
        <path fill="#795E36" stroke="none" d="&#10;M 6.6 3.15&#10;Q 8.35 2 9.05 0.55&#10;L -10.15 0.55&#10;Q -9.45 2 -7.7 3.15 -4.75 5.1 -0.55 5.1 3.65 5.1 6.6 3.15 Z"/>
        <path fill="#85683B" stroke="none" d="&#10;M 19.55 -12.1&#10;Q 18.4 -5.9 13.75 -7.5 7.6 -10.15 -0.6 -10.15 -6.75 -10.15 -11.7 -8.65 -12.9 -8.3 -14.05 -7.85 -19.25 -5.45 -22.5 -16.7 -22.75 -10.35 -21.8 -3.95 -21.7 -3.4 -21.55 -2.95 -21.4 -2.25 -21.05 -1.7 -19.8 0.55 -16.7 0.55&#10;L -10.15 0.55 9.05 0.55 13.65 0.55&#10;Q 17.85 0.55 18.7 -3.45 18.75 -3.75 18.8 -4 18.85 -4.25 18.9 -4.45 19.45 -8.25 19.55 -12.1 Z"/>
        <path fill="#957544" stroke="none" d="&#10;M 18.75 -24.65&#10;Q 18.1 -29.1 13.65 -29.1&#10;L -16.7 -29.1&#10;Q -21.1 -29.1 -21.8 -24.55 -22.35 -20.65 -22.5 -16.7 -19.25 -5.45 -14.05 -7.85 -12.9 -8.3 -11.7 -8.65 -6.75 -10.15 -0.6 -10.15 7.6 -10.15 13.75 -7.5 18.4 -5.9 19.55 -12.1 19.6 -14.8 19.5 -17.55 19.3 -21.05 18.75 -24.65 Z"/>
      </g>
    </g>
    <g transform="matrix( 1, 0, 0, 1, 0,0) ">
      <g id="" transform="matrix(1, 0, 0, 1, 0, 0)">
        <path fill="#85683B" stroke="none" d="&#10;M -19.2 -16.85&#10;L -17.4 -13&#10;Q -17.35 -12.95 -17.35 -12.9&#10;L -14.75 -9.95&#10;Q -14.65 -9.85 -14.45 -9.85 -14.3 -9.8 -14.15 -9.9&#10;L -13.6 -10.3&#10;Q -13.5 -10.4 -13.45 -10.55 -13.4 -10.7 -13.45 -10.85&#10;L -15.15 -14.55&#10;Q -15.15 -14.6 -15.2 -14.65&#10;L -17.9 -17.75&#10;Q -17.95 -17.85 -18.15 -17.85 -18.3 -17.9 -18.45 -17.8&#10;L -19.1 -17.35&#10;Q -19.2 -17.3 -19.25 -17.15 -19.25 -17 -19.2 -16.85 Z"/>
      </g>
    </g>
    <g transform="matrix( 1, 0, 0, 1, 0,0) ">
      <g id="" transform="matrix(1, 0, 0, 1, 0, 0)">
        <path fill="#544B4B" stroke="none" d="&#10;M -4.15 -17.5&#10;Q -3.75 -17.55 -3.45 -17.85 -3.2 -18.1 -3.2 -18.5 -3.3 -18.95 -3.55 -19.25 -3.8 -19.5 -4.25 -19.45 -7.35 -19.35 -10.15 -20.25 -10.6 -20.3 -10.95 -20.15 -11.35 -19.95 -11.4 -19.5 -11.55 -19.1 -11.3 -18.8 -11.15 -18.4 -10.75 -18.3 -7.65 -17.3 -4.15 -17.5&#10;M 14.35 -20.35&#10;Q 14 -20.5 13.55 -20.45 10.75 -19.6 7.65 -19.7 7.2 -19.75 6.9 -19.45 6.65 -19.2 6.55 -18.75 6.55 -18.3 6.85 -18 7.15 -17.75 7.55 -17.65 11 -17.55 14.1 -18.5 14.55 -18.6 14.75 -18.95 14.95 -19.35 14.8 -19.75 14.7 -20.2 14.35 -20.35 Z"/>
      </g>
    </g>
    <g transform="matrix( 1, 0, 0, 1, 0,0) ">
      <g id="" transform="matrix(1, 0, 0, 1, 0, 0)">
        <path fill="#544B4B" stroke="none" d="&#10;M -4.75 -14.4&#10;Q -4.75 -15.1 -4.95 -15.7&#10;L -8.6 -16.35&#10;Q -9.05 -15.5 -9.05 -14.4 -9.05 -13.1 -8.45 -12.2 -7.8 -11.25 -6.9 -11.25 -6 -11.25 -5.4 -12.2 -4.75 -13.1 -4.75 -14.4&#10;M 12.1 -14.4&#10;Q 12.1 -15.35 11.75 -16.15&#10;L 7.95 -15.6&#10;Q 7.8 -15.05 7.8 -14.4 7.8 -13.1 8.4 -12.2 9.05 -11.25 9.95 -11.25 10.85 -11.25 11.45 -12.2 12.1 -13.1 12.1 -14.4 Z"/>
        <path fill="#FFFFFF" stroke="none" d="&#10;M -4.95 -15.7&#10;Q -4.75 -15.1 -4.75 -14.4 -4.75 -13.1 -5.4 -12.2 -6 -11.25 -6.9 -11.25 -7.8 -11.25 -8.45 -12.2 -9.05 -13.1 -9.05 -14.4 -9.05 -15.5 -8.6 -16.35&#10;L -10.6 -16.7&#10;Q -11.3 -15.7 -11.3 -14.4 -11.3 -12.85 -10.3 -11.75 -9.2 -10.6 -7.65 -10.6 -6.1 -10.6 -5.1 -11.75 -4 -12.85 -4 -14.4 -4 -15.05 -4.15 -15.6&#10;L -4.95 -15.7&#10;M 14 -16.45&#10;L 11.75 -16.15&#10;Q 12.1 -15.35 12.1 -14.4 12.1 -13.1 11.45 -12.2 10.85 -11.25 9.95 -11.25 9.05 -11.25 8.4 -12.2 7.8 -13.1 7.8 -14.4 7.8 -15.05 7.95 -15.6&#10;L 7.45 -15.55&#10;Q 7.3 -15 7.3 -14.4 7.3 -12.85 8.3 -11.75 9.4 -10.6 10.95 -10.6 12.5 -10.6 13.5 -11.75 14.6 -12.85 14.6 -14.4 14.6 -15.55 14 -16.45 Z"/>
      </g>
    </g>
    <g transform="matrix( 1, 0, 0, 1, 0,0) ">
      <g id="" transform="matrix(1, 0, 0, 1, 0, 0)">
        <path fill="#544B4B" stroke="none" d="&#10;M 0.45 -8.95&#10;Q 0.9 -9.75 0 -10.9 -0.05 -10.95 -0.1 -11 -1.1 -11.9 -2.6 -11.55 -5.3 -10.8 -7.9 -6.95 -8.05 -6.75 -8.05 -6.5 -8.1 -6.2 -7.95 -6.05&#10;L -7.7 -5.4&#10;Q -7.6 -5.15 -7.45 -5.1 -7.2 -5 -7.05 -5.1 -3.8 -7.25 -0.95 -8 0.25 -8.25 0.45 -8.95&#10;M 9.75 -6.5&#10;Q 9.7 -6.75 9.55 -6.95 6.95 -10.8 4.25 -11.55 2.75 -11.9 1.75 -11 1.7 -10.95 1.7 -10.9 0.75 -9.75 1.2 -8.95 1.4 -8.25 2.6 -8 5.45 -7.25 8.7 -5.1 8.9 -5 9.1 -5.1 9.25 -5.15 9.35 -5.4&#10;L 9.65 -6.05&#10;Q 9.75 -6.2 9.75 -6.5 Z"/>
      </g>
    </g>
    <g transform="matrix( 1, 0, 0, 1, 0,0) ">
      <g id="" transform="matrix(1, 0, 0, 1, 0, 0)">
        <path fill="#5D5353" stroke="none" d="&#10;M -19.2 -35.5&#10;L -0.8 -44.3 -7.95 -43.95 -12.6 -40.45 -15.55 -41.5 -16.5 -38.45 -21.45 -36.95 -24.25 -31.1 -27.7 -30.1 -26.15 -27.25 -27.4 -24.55 -24.2 -18.65 -19.2 -35.5&#10;M 14.95 -42.05&#10;L 9.5 -43.15 19.85 -26.25 23.3 -28.5 14.95 -42.05 Z"/>
        <path fill="#544B4B" stroke="none" d="&#10;M 9.45 -43.15&#10;L 6.2 -48.1 -0.8 -44.3 -19.2 -35.5 -24.2 -18.65 -25.4 -14.9 -22.25 -11.5 -20.5 -16.3 -18.7 -16 -16.9 -26.25 -3.25 -22.7 0 -26.9 1.2 -26.8 11.55 -24.6 11.85 -25.85 15.55 -25.5 20 -16.65 19.85 -26.25 9.5 -43.15 9.45 -43.15 Z"/>
      </g>
    </g>
  </g>
</svg>