# Blender v2.79 (sub 0) OBJ File: ''
# www.blender.org
mtllib roadTile_014.mtl
o Mesh1_Group1_Model.013
v 0.000000 0.455000 -2.250000
v 0.000000 0.300000 -2.250000
v 0.000000 0.300000 -0.750000
v 0.000000 0.455000 -0.750000
v 0.000000 0.550000 -3.000000
v 0.000000 0.000000 -3.000000
v 0.000000 0.000000 -0.000000
v 0.000000 0.550000 0.000000
v 0.000000 0.550000 -0.750000
v 0.000000 0.550000 -2.250000
v 0.750000 0.550000 -3.000000
v 0.750000 0.455000 -3.000000
v 0.750000 0.300000 -3.000000
v 2.250000 0.300000 -3.000000
v 2.250000 0.455000 -3.000000
v 2.250000 0.550000 -3.000000
v 3.000000 0.550000 -3.000000
v 3.000000 0.000000 -3.000000
v 0.521265 0.550000 -2.425450
v 0.521265 0.455000 -2.425450
v 0.569028 0.455000 -0.540508
v 0.750000 0.455000 0.000000
v 2.250000 0.455000 0.000000
v 2.526930 0.455000 -0.559473
v 3.000000 0.455000 -0.750000
v 3.000000 0.455000 -2.250000
v 2.419710 0.455000 -2.464420
v 0.569028 0.550000 -0.540508
v 0.750000 0.550000 0.000000
v 3.000000 0.000000 -0.000000
v 3.000000 0.550000 0.000000
v 2.250000 0.550000 0.000000
v 2.250000 0.300000 0.000000
v 0.750000 0.300000 0.000000
v 3.000000 0.550000 -2.250000
v 3.000000 0.300000 -2.250000
v 3.000000 0.300000 -0.750000
v 3.000000 0.550000 -0.750000
v 2.419710 0.550000 -2.464420
v 2.526930 0.550000 -0.559473
vt 0.717753 0.550000
vt 0.717753 0.455000
vt 1.267750 0.455000
vt 1.267750 0.550000
vt -0.347250 0.550000
vt -0.347250 0.455000
vt 0.259116 0.455000
vt 0.259116 0.550000
vt 0.750000 3.000000
vt 0.521265 2.425450
vt 2.419710 2.464420
vt 2.250000 3.000000
vt 3.000000 2.250000
vt 2.526930 0.559473
vt 3.000000 0.750000
vt 2.250000 0.000000
vt 0.569028 0.540508
vt 0.750000 0.000000
vt 0.000000 0.750000
vt 0.000000 2.250000
vt -2.180210 0.550000
vt -2.180210 0.455000
vt -1.618390 0.455000
vt -1.618390 0.550000
vt 1.415540 0.550000
vt 1.415540 0.455000
vt 2.034180 0.455000
vt 2.034180 0.550000
vt 2.250000 0.455000
vt 0.750000 0.455000
vt 0.750000 0.300000
vt 2.250000 0.300000
vt -3.062980 0.550000
vt -3.062980 0.455000
vt -2.552980 0.455000
vt -2.552980 0.550000
vt -1.622380 0.550000
vt -1.622380 0.455000
vt -0.998118 0.455000
vt -0.998118 0.550000
vt 2.250000 0.455000
vt 0.750000 0.455000
vt 0.750000 0.300000
vt 2.250000 0.300000
vt -0.238121 0.550000
vt -0.238121 0.455000
vt 0.331879 0.455000
vt 0.331879 0.550000
vt -0.750000 0.455000
vt -2.250000 0.455000
vt -2.250000 0.300000
vt -0.750000 0.300000
vt 2.446240 0.550000
vt 2.446240 0.455000
vt 3.064650 0.455000
vt 3.064650 0.550000
vt -0.750000 0.455000
vt -2.250000 0.455000
vt -2.250000 0.300000
vt -0.750000 0.300000
vt -3.000000 0.000000
vt -0.000000 0.000000
vt -0.000000 0.000000
vt -3.000000 0.000000
vt 0.000000 3.000000
vt 0.521265 2.425450
vt 0.750000 3.000000
vt 3.000000 0.000000
vt 0.000000 -0.000000
vt 3.000000 -0.000000
vt 3.000000 0.000000
vt 2.526930 0.559473
vt 2.250000 0.000000
vt -2.250000 0.550000
vt -3.000000 0.550000
vt -0.750000 0.550000
vt -0.000000 0.550000
vt -0.000000 0.550000
vt -3.000000 0.550000
vt -0.750000 0.550000
vt -2.250000 0.550000
vt 3.000000 0.550000
vt 0.000000 2.250000
vt -3.000000 3.000000
vt -3.000000 0.000000
vt -0.000000 3.000000
vt 0.000000 0.550000
vt 2.250000 0.550000
vt 3.000000 0.550000
vt 0.750000 0.550000
vt 0.750000 0.550000
vt 2.250000 0.550000
vt 2.419710 2.464420
vt 3.000000 2.250000
vt 3.000000 3.000000
vt 2.250000 3.000000
vt 0.569028 0.540508
vt 0.000000 0.750000
vt -0.000000 0.000000
vt 0.750000 0.000000
vt 3.000000 0.750000
vn 0.3190 0.0000 0.9478
vn 0.3455 0.0000 -0.9384
vn 0.0000 1.0000 0.0000
vn -0.9533 0.0000 0.3021
vn -0.3466 0.0000 0.9380
vn 1.0000 0.0000 0.0000
vn -0.3736 0.0000 -0.9276
vn -0.8962 0.0000 -0.4436
vn 0.0000 -0.0000 1.0000
vn 0.9483 -0.0000 -0.3175
vn 0.0000 0.0000 -1.0000
vn 0.9291 0.0000 0.3699
vn -1.0000 0.0000 -0.0000
vn 0.0000 -1.0000 -0.0000
usemtl Alternate_Dirt.001
s 1
f 10/1/1 1/2/1 20/3/1 19/4/1
f 28/5/2 21/6/2 4/7/2 9/8/2
f 12/9/3 20/10/3 27/11/3 15/12/3
f 26/13/3 27/11/3 24/14/3 25/15/3
f 23/16/3 24/14/3 21/17/3 22/18/3
f 4/19/3 21/17/3 20/10/3 1/20/3
f 16/21/4 15/22/4 27/23/4 39/24/4
f 39/25/5 27/26/5 26/27/5 35/28/5
f 26/29/6 25/30/6 37/31/6 36/32/6
f 38/33/7 25/34/7 24/35/7 40/36/7
f 40/37/8 24/38/8 23/39/8 32/40/8
f 23/41/9 22/42/9 34/43/9 33/44/9
f 29/45/10 22/46/10 21/47/10 28/48/10
f 12/49/11 15/50/11 14/51/11 13/52/11
f 19/53/12 20/54/12 12/55/12 11/56/12
f 24/14/3 27/11/3 20/10/3 21/17/3
f 4/57/13 1/58/13 2/59/13 3/60/13
usemtl Grass.002
f 6/61/13 7/62/13 3/60/13
f 6/63/11 14/51/11 18/64/11
f 5/65/3 19/66/3 11/67/3
f 7/62/9 30/68/9 34/43/9
f 30/69/6 18/70/6 36/32/6
f 31/71/3 40/72/3 32/73/3
f 10/74/13 5/75/13 1/58/13
f 5/75/13 6/61/13 2/59/13 1/58/13
f 9/76/13 4/57/13 8/77/13
f 5/78/11 12/49/11 13/52/11 6/63/11
f 3/60/13 2/59/13 6/61/13
f 17/79/11 18/64/11 14/51/11 15/50/11
f 11/80/11 12/49/11 5/78/11
f 16/81/11 17/79/11 15/50/11
f 17/82/6 26/29/6 36/32/6 18/70/6
f 6/63/11 13/52/11 14/51/11
f 5/65/3 10/83/3 19/66/3
f 8/77/9 7/62/9 34/43/9 22/42/9
f 18/84/14 30/85/14 7/62/14 6/86/14
f 31/87/6 30/69/6 37/31/6 25/30/6
f 32/88/9 23/41/9 31/89/9
f 29/90/9 8/77/9 22/42/9
f 8/77/13 4/57/13 3/60/13 7/62/13
f 30/68/9 33/44/9 34/43/9
f 38/91/6 31/87/6 25/30/6
f 31/89/9 23/41/9 33/44/9 30/68/9
f 35/92/6 26/29/6 17/82/6
f 39/93/3 35/94/3 17/95/3 16/96/3
f 36/32/6 37/31/6 30/69/6
f 28/97/3 9/98/3 8/99/3 29/100/3
f 31/71/3 38/101/3 40/72/3
