# Blender v2.79 (sub 0) OBJ File: ''
# www.blender.org
mtllib roadTile_024.mtl
o Mesh1_Group1_Model.023
v 2.250000 0.705000 -2.250000
v 2.715000 0.550000 -2.250000
v 0.285000 0.550000 -2.250000
v 0.750000 0.705000 -2.250000
v 2.250000 0.705000 -0.750000
v 2.715000 0.550000 -0.750000
v 3.000000 0.455000 -0.750000
v 3.000000 0.455000 -2.250000
v 0.750000 0.705000 -0.750000
v 0.000000 0.455000 -2.250000
v 0.000000 0.455000 -0.750000
v 0.285000 0.550000 -0.750000
v 0.000000 0.550000 -2.250000
v 0.000000 0.550000 -3.000000
v 0.000000 0.000000 -3.000000
v 0.000000 0.000000 0.000000
v 0.000000 0.550000 0.000000
v 0.000000 0.550000 -0.750000
v 0.000000 0.300000 -0.750000
v 0.000000 0.300000 -2.250000
v 3.000000 0.000000 -3.000000
v 3.000000 0.550000 -3.000000
v 3.000000 0.000000 -0.000000
v 3.000000 0.550000 0.000000
v 3.000000 0.550000 -2.250000
v 3.000000 0.300000 -2.250000
v 3.000000 0.300000 -0.750000
v 3.000000 0.550000 -0.750000
vt -2.715000 0.550000
vt -0.750000 0.705000
vt -2.250000 0.705000
vt 0.000000 0.550000
vt 0.000000 0.455000
vt 0.285000 0.550000
vt -3.000000 0.550000
vt -3.000000 0.455000
vt -2.715000 0.550000
vt 2.715000 0.550000
vt 0.000000 0.455000
vt 3.000000 0.455000
vt 0.750000 0.705000
vt 2.250000 0.705000
vt -0.000000 0.550000
vt -0.285000 0.550000
vt -0.285000 0.550000
vt -3.000000 0.455000
vt 3.000000 0.550000
vt 2.715000 0.550000
vt 3.000000 0.455000
vt 2.250000 0.750000
vt 2.250000 2.250000
vt 0.750000 2.250000
vt 0.750000 0.750000
vt -0.750000 0.444300
vt -0.750000 0.934453
vt -2.250000 0.934453
vt -2.250000 0.444300
vt -0.750000 0.143884
vt -2.250000 0.143884
vt 0.285000 0.550000
vt 2.250000 0.455000
vt 0.750000 0.455000
vt 0.750000 0.300000
vt 2.250000 0.300000
vt 0.750000 -2.401750
vt 0.750000 -2.702170
vt 2.250000 -2.702170
vt 2.250000 -2.401750
vt 2.250000 -1.911600
vt 0.750000 -1.911600
vt -0.750000 0.455000
vt -2.250000 0.455000
vt -2.250000 0.300000
vt -0.750000 0.300000
vt -3.000000 0.000000
vt 0.000000 0.000000
vt 0.000000 0.000000
vt 3.000000 0.000000
vt 3.000000 0.000000
vt 3.000000 0.750000
vt 2.715000 0.750000
vt 2.715000 2.250000
vt 3.000000 2.250000
vt 3.000000 3.000000
vt 0.000000 0.550000
vt -3.000000 0.550000
vt -3.000000 0.000000
vt -0.000000 0.000000
vt -0.000000 0.550000
vt -2.250000 0.550000
vt -3.000000 0.550000
vt 0.000000 0.550000
vt -0.750000 0.550000
vt 3.000000 0.550000
vt -3.000000 0.000000
vt -0.000000 3.000000
vt -3.000000 3.000000
vt 3.000000 -0.000000
vt 3.000000 0.550000
vt 0.750000 0.550000
vt 0.285000 2.250000
vt 0.000000 3.000000
vt 2.250000 0.550000
vt 0.000000 0.750000
vt 3.000000 0.750000
vt 3.000000 2.250000
vt 0.000000 2.250000
vt 0.285000 0.750000
vt 0.000000 0.750000
vt 0.000000 0.000000
vt 0.000000 2.250000
vn 0.0000 0.0000 -1.0000
vn 0.0000 0.0000 1.0000
vn 0.1602 0.9871 0.0000
vn -0.1602 0.9871 0.0000
vn -0.3162 0.9487 0.0000
vn 1.0000 0.0000 0.0000
vn 0.3162 0.9487 0.0000
vn -1.0000 0.0000 -0.0000
vn 0.0000 1.0000 0.0000
vn 0.0000 -1.0000 -0.0000
usemtl Alternate_Dirt.010
s 1
f 2/1/1 4/2/1 1/3/1
f 13/4/2 10/5/2 3/6/2
f 28/7/1 7/8/1 6/9/1
f 6/10/2 11/11/2 7/12/2
f 9/13/2 6/10/2 5/14/2
f 18/15/1 12/16/1 11/11/1
f 3/17/1 8/18/1 10/5/1
f 25/19/2 2/20/2 8/21/2
f 2/1/1 3/17/1 4/2/1
f 5/22/3 1/23/3 4/24/4 9/25/4
f 12/26/5 9/27/4 4/28/4 3/29/5
f 11/30/5 12/26/5 3/29/5 10/31/5
f 6/10/2 12/32/2 11/11/2
f 9/13/2 12/32/2 6/10/2
f 8/33/6 7/34/6 27/35/6 26/36/6
f 6/37/7 7/38/7 8/39/7 2/40/7
f 3/17/1 2/1/1 8/18/1
f 6/37/7 2/40/7 1/41/3 5/42/3
f 11/43/8 10/44/8 20/45/8 19/46/8
usemtl Grass.012
f 15/47/8 16/48/8 19/46/8
f 23/49/6 21/50/6 26/36/6
f 24/51/9 28/52/9 6/53/9
f 2/54/9 25/55/9 22/56/9
f 17/57/8 11/43/8 19/46/8 16/48/8
f 22/58/1 21/59/1 15/60/1 14/61/1
f 13/62/8 14/63/8 10/44/8
f 24/64/6 23/49/6 27/35/6 7/34/6
f 18/65/8 11/43/8 17/57/8
f 22/66/6 8/33/6 26/36/6 21/50/6
f 19/46/8 20/45/8 15/47/8
f 23/67/10 16/48/10 15/68/10 21/69/10
f 17/57/2 16/48/2 23/70/2 24/71/2
f 28/72/6 24/64/6 7/34/6
f 3/73/9 2/54/9 22/56/9 14/74/9
f 25/75/6 8/33/6 22/66/6
f 14/63/8 15/47/8 20/45/8 10/44/8
f 26/36/6 27/35/6 23/49/6
f 11/76/9 7/77/9 8/78/9 10/79/9
f 12/80/9 18/81/9 17/82/9
f 6/53/9 12/80/9 17/82/9 24/51/9
f 14/74/9 13/83/9 3/73/9
