# Blender v2.79 (sub 0) OBJ File: ''
# www.blender.org
mtllib roadTile_031.mtl
o Mesh1_Group1_Model.030
v 3.000000 0.000000 -0.000000
v 1.500000 0.000000 0.000000
v 0.000000 0.000000 -0.375000
v 0.000000 0.000000 -2.625000
v 1.500000 0.000000 -3.000000
v 3.000000 0.000000 -3.000000
v 1.500000 0.630000 0.000000
v 1.500000 0.550000 0.000000
v 3.000000 0.630000 0.000000
v 0.000000 0.630000 -0.375000
v 0.000000 0.550000 -0.375000
v 0.000000 0.630000 -0.750000
v 3.000000 0.630000 -0.750000
v 0.000000 0.600000 -0.750000
v 0.000000 0.300000 -0.750000
v 0.000000 0.300000 -2.250000
v 0.000000 0.600000 -2.250000
v 0.000000 0.630000 -2.250000
v 0.000000 0.630000 -2.625000
v 0.000000 0.550000 -2.625000
v 0.000000 0.000000 -0.000000
v 0.000000 0.550000 0.000000
v 3.000000 0.600000 -0.750000
v 3.000000 0.600000 -2.250000
v 3.000000 0.630000 -2.250000
v 3.000000 0.630000 -3.000000
v 3.000000 0.300000 -2.250000
v 3.000000 0.300000 -0.750000
v 1.500000 0.550000 -3.000000
v 1.500000 0.630000 -3.000000
v 0.000000 0.000000 -3.000000
v 0.000000 0.550000 -3.000000
vt 1.500000 0.000000
vt 3.000000 0.000000
vt 3.000000 0.750000
vt -2.625000 0.000000
vt -0.375000 0.000000
vt -2.250000 0.300000
vt -0.000000 0.000000
vt 3.000000 0.000000
vt 2.250000 0.300000
vt -1.500000 0.550000
vt -1.500000 0.630000
vt -3.000000 0.630000
vt 1.500000 3.000000
vt 0.000000 2.250000
vt 3.000000 2.250000
vt 3.000000 0.000000
vt 3.000000 0.630000
vt 1.500000 0.550000
vt 1.500000 0.000000
vt -2.625000 0.550000
vt -2.250000 0.600000
vt 1.500000 0.630000
vt -1.500000 0.000000
vt -3.000000 0.000000
vt 0.000000 0.750000
vt 0.000000 0.375000
vt -2.250000 0.630000
vt -2.625000 0.630000
vt 3.000000 0.630000
vt 2.250000 0.600000
vt -0.375000 0.550000
vt -0.750000 0.600000
vt -0.750000 0.300000
vt -3.000000 0.630000
vt -3.000000 0.600000
vt -0.000000 0.600000
vt -0.000000 0.630000
vt 0.000000 0.630000
vt 0.000000 0.600000
vt 3.000000 0.600000
vt 3.000000 0.630000
vt 0.750000 0.630000
vt -0.000000 0.630000
vt 0.750000 0.600000
vt 0.750000 0.300000
vt 2.250000 0.630000
vt -0.000000 2.625000
vt -1.500000 3.000000
vt -1.500000 0.000000
vt -0.000000 0.375000
vt -0.375000 0.630000
vt -0.750000 0.630000
vt -0.636656 0.550000
vt -0.636656 0.630000
vt -2.182820 0.630000
vt -2.182820 0.550000
vt 3.000000 3.000000
vt 0.000000 2.625000
vt -3.000000 3.000000
vt -3.000000 0.000000
vt 1.455210 0.550000
vt 1.455210 0.630000
vt -0.090951 0.630000
vt -0.090951 0.550000
vt -0.000000 0.000000
vt 0.000000 0.375000
vt 0.000000 0.000000
vt 1.500000 0.000000
vt -0.000000 3.000000
vt 0.000000 3.000000
vt 0.000000 2.625000
vt 1.500000 3.000000
vt -0.000000 0.550000
vt -0.000000 0.000000
vt -0.000000 0.550000
vt -3.000000 0.550000
vt -3.000000 0.000000
vt -3.580740 21.653500
vt -3.580740 0.000000
vt 57.291901 0.000000
vt 57.291901 21.653500
vt -85.937798 21.653500
vt -85.937798 0.000000
vt -25.065201 0.000000
vt -25.065201 21.653500
vt 3.000000 0.750000
vt 3.000000 2.250000
vt 0.000000 2.250000
vt 0.000000 0.750000
vn 0.0000 1.0000 0.0000
vn -1.0000 0.0000 0.0000
vn 1.0000 -0.0000 0.0000
vn -0.1224 -0.0000 -0.9925
vn -0.1222 0.0000 -0.9925
vn 0.0000 0.0000 -1.0000
vn 0.0000 -0.0000 1.0000
vn -0.1224 -0.0000 0.9925
vn -0.1222 -0.0000 0.9925
vn -0.0000 -1.0000 -0.0000
vn -0.2425 0.0000 -0.9701
vn -0.2425 -0.0000 0.9701
usemtl Stone.014
s 1
f 7/1/1 9/2/1 13/3/1
f 4/4/2 3/5/2 16/6/2
f 1/7/3 6/8/3 27/9/3
f 29/10/4 30/11/5 26/12/6
f 30/13/1 18/14/1 25/15/1
f 1/16/7 9/17/7 8/18/8 2/19/7
f 20/20/2 4/4/2 16/6/2 17/21/2
f 9/17/7 7/22/9 8/18/8
f 5/23/6 29/10/4 26/12/6 6/24/6
f 13/3/1 12/25/1 7/1/1
f 10/26/1 7/1/1 12/25/1
f 17/21/2 18/27/2 19/28/2 20/20/2
f 26/29/3 24/30/3 27/9/3 6/8/3
f 11/31/2 14/32/2 15/33/2 3/5/2
f 3/5/2 15/33/2 16/6/2
f 13/34/6 23/35/6 14/36/6 12/37/6
f 18/38/7 17/39/7 24/40/7 25/41/7
f 13/42/3 9/43/3 23/44/3
f 9/43/3 1/7/3 28/45/3 23/44/3
f 25/46/3 24/30/3 26/29/3
f 4/47/10 5/48/10 2/49/10 3/50/10
f 27/9/3 28/45/3 1/7/3
f 14/32/2 11/31/2 10/51/2 12/52/2
f 20/53/11 19/54/11 30/55/5 29/56/4
f 25/15/1 26/57/1 30/13/1
f 30/13/1 19/58/1 18/14/1
f 2/49/10 5/48/10 6/59/10 1/60/10
f 8/61/8 7/62/9 10/63/12 11/64/12
usemtl Grass.019
f 21/65/10 3/50/10 2/49/10
f 11/66/1 22/67/1 8/68/1
f 4/47/10 31/69/10 5/48/10
f 32/70/1 20/71/1 29/72/1
f 11/31/2 3/5/2 21/65/2 22/73/2
f 22/73/7 21/65/7 2/19/7 8/18/7
f 29/10/6 5/23/6 31/74/6 32/75/6
f 32/76/2 31/77/2 4/4/2 20/20/2
usemtl FrontColor.001
f 11/78/12 3/79/12 2/80/12 8/81/12
f 29/82/11 5/83/11 4/84/11 20/85/11
usemtl Asphalt.004
f 23/86/1 24/87/1 17/88/1 14/89/1
f 24/30/3 23/44/3 28/45/3 27/9/3
f 14/32/2 17/21/2 16/6/2 15/33/2
