# Blender v2.79 (sub 0) OBJ File: ''
# www.blender.org
mtllib roadTile_015.mtl
o Mesh1_Group1_Model.014
v 0.000000 0.550000 -3.000000
v 0.000000 0.000000 -3.000000
v 0.000000 0.000000 0.000000
v 0.000000 0.550000 0.000000
v 0.000000 0.550000 -0.750000
v 0.000000 0.455000 -0.750000
v 0.000000 0.300000 -0.750000
v 0.000000 0.300000 -2.250000
v 0.000000 0.455000 -2.250000
v 0.000000 0.550000 -2.250000
v 3.000000 0.000000 -3.000000
v 3.000000 0.550000 -3.000000
v 3.000000 0.000000 -0.000000
v 3.000000 0.550000 0.000000
v 3.000000 0.550000 -2.250000
v 3.000000 0.455000 -2.250000
v 3.000000 0.300000 -2.250000
v 3.000000 0.300000 -0.750000
v 3.000000 0.455000 -0.750000
v 3.000000 0.550000 -0.750000
v 2.250000 0.205000 -0.750000
v 0.750000 0.205000 -0.750000
v 2.250000 0.205000 -2.250000
v 0.750000 0.205000 -2.250000
vt -3.000000 0.000000
vt 0.000000 0.000000
vt -0.750000 0.300000
vt 0.000000 0.000000
vt 3.000000 0.000000
vt 2.250000 0.300000
vt -2.250000 0.550000
vt -3.000000 0.550000
vt -2.250000 0.455000
vt 3.000000 0.550000
vt 2.250000 0.455000
vt -0.750000 0.550000
vt -0.750000 0.455000
vt 0.000000 0.550000
vt 0.000000 0.550000
vt 0.750000 0.300000
vt 0.750000 0.455000
vt -2.250000 0.300000
vt -3.000000 0.000000
vt -0.000000 3.000000
vt -3.000000 3.000000
vt 3.000000 -0.000000
vt 3.000000 0.550000
vt 0.750000 0.550000
vt 2.250000 0.550000
vt 0.000000 -0.000000
vt 3.000000 0.000000
vt 3.000000 0.750000
vt 0.000000 0.750000
vt 0.000000 2.250000
vt 3.000000 2.250000
vt 3.000000 3.000000
vt 0.000000 3.000000
vt -3.000000 0.550000
vt -3.000000 0.000000
vt -0.000000 0.000000
vt -0.000000 0.550000
vt -0.750000 0.205000
vt -3.000000 0.550000
vt -2.250000 0.205000
vt 2.250000 0.205000
vt 0.000000 0.550000
vt 0.750000 0.205000
vt 0.750000 2.250000
vt 0.750000 0.750000
vt 2.250000 0.750000
vt 2.250000 2.250000
vt -3.000000 0.455000
vt -0.000000 0.455000
vt -0.000000 0.550000
vt 0.000000 0.455000
vt 3.000000 0.455000
vt 3.000000 0.550000
vt 2.250000 0.143884
vt 0.750000 0.143884
vt 0.750000 -0.646686
vt 2.250000 -0.646686
vt -2.250000 2.199360
vt -0.750000 2.199360
vt -0.750000 2.989930
vt -2.250000 2.989930
vn -1.0000 0.0000 -0.0000
vn 1.0000 -0.0000 0.0000
vn 0.0000 -1.0000 -0.0000
vn 0.0000 -0.0000 1.0000
vn 0.0000 1.0000 0.0000
vn 0.0000 0.0000 -1.0000
vn 0.1602 0.9871 0.0000
vn -0.1602 0.9871 0.0000
vn 0.3162 0.9487 0.0000
vn -0.3162 0.9487 0.0000
usemtl Grass.003
s 1
f 2/1/1 3/2/1 7/3/1
f 13/4/2 11/5/2 17/6/2
f 10/7/1 1/8/1 9/9/1
f 12/10/2 16/11/2 17/6/2 11/5/2
f 5/12/1 6/13/1 4/14/1
f 14/15/2 13/4/2 18/16/2 19/17/2
f 7/3/1 8/18/1 2/1/1
f 13/19/3 3/2/3 2/20/3 11/21/3
f 4/14/4 3/2/4 13/22/4 14/23/4
f 20/24/2 14/15/2 19/17/2
f 15/25/2 16/11/2 12/10/2
f 4/14/1 6/13/1 7/3/1 3/2/1
f 17/6/2 18/16/2 13/4/2
f 4/26/5 14/27/5 20/28/5 5/29/5
f 1/8/1 2/1/1 8/18/1 9/9/1
f 10/30/5 15/31/5 12/32/5 1/33/5
f 12/34/6 11/35/6 2/36/6 1/37/6
usemtl Alternate_Dirt.002
f 22/38/6 20/39/6 21/40/6
f 23/41/4 10/42/4 24/43/4
f 24/44/7 22/45/7 21/46/8 23/47/8
f 19/48/6 21/40/6 20/39/6
f 22/38/6 6/49/6 5/50/6
f 5/50/6 20/39/6 22/38/6
f 16/11/2 19/17/2 18/16/2 17/6/2
f 9/51/4 24/43/4 10/42/4
f 23/41/4 16/52/4 15/53/4
f 15/53/4 10/42/4 23/41/4
f 9/54/9 6/55/9 22/56/7 24/57/7
f 23/58/8 21/59/8 19/60/10 16/61/10
f 6/13/1 9/9/1 8/18/1 7/3/1
