# Blender v2.79 (sub 0) OBJ File: ''
# www.blender.org
mtllib roadTile_022.mtl
o Mesh1_Group1_Model.021
v 2.535670 0.455000 -2.506750
v 2.250000 0.455000 -3.000000
v 0.750000 0.455000 -3.000000
v 0.998188 0.455000 -1.898550
v 1.956180 0.455000 -0.971142
v 3.000000 0.455000 -0.750000
v 3.000000 0.455000 -2.250000
v 2.535670 0.550000 -2.506750
v 2.250000 0.550000 -3.000000
v 3.000000 0.550000 -2.250000
v 3.000000 0.000000 -3.000000
v 3.000000 0.550000 -3.000000
v 3.000000 0.300000 -2.250000
v 3.000000 0.300000 -0.750000
v 3.000000 0.550000 -0.750000
v 3.000000 0.550000 0.000000
v 3.000000 0.000000 0.000000
v 0.000000 0.000000 -3.000000
v 0.000000 0.550000 -3.000000
v 0.750000 0.550000 -3.000000
v 0.750000 0.300000 -3.000000
v 2.250000 0.300000 -3.000000
v 0.000000 0.000000 0.000000
v 0.000000 0.550000 0.000000
v 1.956180 0.550000 -0.971142
v 0.998188 0.550000 -1.898550
vt 0.998188 1.898550
vt 1.956180 0.971142
vt 2.535670 2.506750
vt 1.005990 0.550000
vt 1.005990 0.455000
vt 1.536570 0.455000
vt 1.536570 0.550000
vt 2.250000 0.455000
vt 0.750000 0.455000
vt 0.750000 0.300000
vt 2.250000 0.300000
vt 0.750000 3.000000
vt 2.250000 3.000000
vt -0.730004 0.550000
vt -0.730004 0.455000
vt 0.603348 0.455000
vt 0.603348 0.550000
vt -2.779420 0.550000
vt -2.779420 0.455000
vt -1.712430 0.455000
vt -1.712430 0.550000
vt 3.000000 2.250000
vt 3.000000 0.750000
vt -1.468380 0.550000
vt -1.468380 0.455000
vt -0.898378 0.455000
vt -0.898378 0.550000
vt 1.632690 0.550000
vt 1.632690 0.455000
vt 2.761760 0.455000
vt 2.761760 0.550000
vt -0.750000 0.455000
vt -2.250000 0.455000
vt -2.250000 0.300000
vt -0.750000 0.300000
vt 3.000000 0.000000
vt 0.000000 0.000000
vt -3.000000 0.000000
vt -0.000000 0.000000
vt 1.956180 0.971142
vt 0.998188 1.898550
vt 0.000000 0.000000
vt 3.000000 3.000000
vt 2.535670 2.506750
vt 3.000000 2.250000
vt -3.000000 0.550000
vt 0.000000 0.550000
vt 2.250000 0.550000
vt 3.000000 0.550000
vt 0.750000 0.550000
vt -0.000000 0.550000
vt -2.250000 0.550000
vt -0.750000 0.550000
vt 0.750000 3.000000
vt 0.000000 3.000000
vt 3.000000 0.000000
vt 3.000000 0.750000
vt -3.000000 0.550000
vt -3.000000 0.000000
vt 0.000000 0.000000
vt 0.000000 0.550000
vt 3.000000 0.000000
vt 3.000000 0.550000
vt 2.250000 3.000000
vt -0.000000 3.000000
vt -3.000000 3.000000
vt -3.000000 -0.000000
vn -0.0000 1.0000 0.0000
vn -0.4839 0.0000 0.8751
vn 1.0000 0.0000 0.0000
vn 0.6955 0.0000 -0.7185
vn 0.2073 0.0000 -0.9783
vn -0.8653 0.0000 0.5012
vn 0.9755 0.0000 -0.2198
vn 0.0000 0.0000 -1.0000
vn -1.0000 -0.0000 0.0000
vn 0.0000 -0.0000 1.0000
vn 0.0000 -1.0000 -0.0000
usemtl Alternate_Dirt.008
s 1
f 4/1/1 5/2/1 1/3/1
f 8/4/2 1/5/2 7/6/2 10/7/2
f 7/8/3 6/9/3 14/10/3 13/11/3
f 3/12/1 4/1/1 1/3/1 2/13/1
f 25/14/4 5/15/4 4/16/4 26/17/4
f 15/18/5 6/19/5 5/20/5 25/21/5
f 7/22/1 1/3/1 5/2/1 6/23/1
f 9/24/6 2/25/6 1/26/6 8/27/6
f 26/28/7 4/29/7 3/30/7 20/31/7
f 3/32/8 2/33/8 22/34/8 21/35/8
usemtl Grass.010
f 11/36/3 14/10/3 17/37/3
f 11/38/8 18/39/8 21/35/8
f 25/40/1 26/41/1 24/42/1
f 12/43/1 8/44/1 10/45/1
f 12/46/8 11/38/8 22/34/8 2/33/8
f 16/47/3 17/37/3 14/10/3 6/9/3
f 10/48/3 7/8/3 12/49/3
f 15/50/3 16/47/3 6/9/3
f 19/51/8 3/32/8 21/35/8 18/39/8
f 11/36/3 13/11/3 14/10/3
f 9/52/8 12/46/8 2/33/8
f 20/53/8 3/32/8 19/51/8
f 12/49/3 7/8/3 13/11/3 11/36/3
f 21/35/8 22/34/8 11/38/8
f 26/41/1 20/54/1 19/55/1
f 24/42/1 16/56/1 25/40/1
f 16/56/1 15/57/1 25/40/1
f 26/41/1 19/55/1 24/42/1
f 19/58/9 18/59/9 23/60/9 24/61/9
f 24/61/10 23/60/10 17/62/10 16/63/10
f 12/43/1 9/64/1 8/44/1
f 23/60/11 18/65/11 11/66/11 17/67/11
