# Blender v2.79 (sub 0) OBJ File: ''
# www.blender.org
mtllib roadTile_027.mtl
o Mesh1_Group1_Model.026
v 0.750000 0.600000 0.000000
v 0.750000 0.300000 0.000000
v 3.000000 0.300000 0.000000
v 3.000000 0.600000 0.000000
v 0.375000 0.630000 0.000000
v 0.375000 0.550000 0.000000
v 0.375000 0.000000 -0.000000
v 3.000000 0.000000 0.000000
v 0.750000 0.630000 0.000000
v 0.375000 0.630000 -3.000000
v 0.375000 0.550000 -3.000000
v 0.750000 0.630000 -3.000000
v 3.000000 0.000000 -3.000000
v 0.375000 0.000000 -3.000000
v 0.750000 0.600001 -3.000000
v 0.750000 0.300000 -3.000000
v 3.000000 0.300000 -3.000000
v 0.000000 0.000000 -0.000000
v 0.000000 0.000000 -3.000000
v 3.000000 0.600001 -3.000000
v 0.000000 0.550000 0.000000
v 0.000000 0.550000 -3.000000
vt -0.000000 0.550000
vt -0.000000 0.630000
vt -3.000000 0.630000
vt -3.000000 0.550000
vt 0.375000 0.000000
vt 0.750000 0.300000
vt 0.750000 0.600000
vt 0.375000 0.550000
vt 3.000000 0.000000
vt -0.375000 0.550000
vt -0.750000 0.600000
vt -0.750000 0.300000
vt -0.375000 0.000000
vt 3.000000 0.300000
vt 0.750000 0.000000
vt 0.750000 3.000000
vt 0.375000 3.000000
vt 0.375000 0.000000
vt -3.000000 0.300000
vt -3.000000 0.000000
vt 0.375000 0.630000
vt 0.750000 0.630000
vt -0.375000 0.630000
vt -0.750000 0.630000
vt 3.000000 0.600000
vt 3.000000 0.630000
vt 0.000000 0.630000
vt 0.000000 0.600000
vt 0.000000 0.000000
vt 3.000000 0.000000
vt 3.000000 0.300000
vt 0.000000 0.300000
vt -3.000000 0.000000
vt -0.375000 0.000000
vt -0.375000 3.000000
vt -3.000000 3.000000
vt -0.000000 3.000000
vt -0.000000 0.000000
vt 0.000000 0.550000
vt 0.000000 3.000000
vt 0.000000 0.000000
vt 0.375000 0.000000
vt 0.375000 3.000000
vt 0.000000 0.000000
vt 0.000000 0.550000
vt -3.000000 0.550000
vt -3.000000 0.000000
vt 3.000000 0.600000
vt 0.000000 0.600000
vt -3.000000 0.600000
vt 0.750000 0.000000
vt 3.000000 0.000000
vt 3.000000 3.000000
vt 0.750000 3.000000
vt 3.000000 0.600000
vn -1.0000 0.0000 0.0000
vn -0.0000 -0.0000 1.0000
vn 0.0000 0.0000 -1.0000
vn 0.0000 1.0000 0.0000
vn 1.0000 0.0000 0.0000
vn -0.0000 -1.0000 -0.0000
usemtl Stone.012
s 1
f 6/1/1 5/2/1 10/3/1 11/4/1
f 7/5/2 2/6/2 1/7/2 6/8/2
f 7/5/2 8/9/2 2/6/2
f 11/10/3 15/11/3 16/12/3 14/13/3
f 8/9/2 3/14/2 2/6/2
f 9/15/4 12/16/4 10/17/4 5/18/4
f 17/19/3 13/20/3 16/12/3
f 5/21/2 6/8/2 1/7/2 9/22/2
f 16/12/3 13/20/3 14/13/3
f 15/11/3 11/10/3 10/23/3 12/24/3
f 15/25/5 12/26/5 9/27/5 1/28/5
f 8/29/5 13/30/5 17/31/5 3/32/5
usemtl Grass.015
f 8/33/6 7/34/6 14/35/6 13/36/6
f 19/37/6 14/35/6 7/34/6 18/38/6
f 21/39/2 18/38/2 7/5/2 6/8/2
f 22/40/4 21/41/4 6/42/4 11/43/4
f 19/44/3 22/45/3 11/10/3 14/13/3
f 22/46/1 19/47/1 18/38/1 21/39/1
usemtl Asphalt.002
f 20/48/5 4/49/5 3/32/5 17/31/5
f 15/11/3 20/50/3 17/19/3 16/12/3
f 1/51/4 4/52/4 20/53/4 15/54/4
f 4/55/2 1/7/2 2/6/2 3/14/2
