# Blender v2.79 (sub 0) OBJ File: ''
# www.blender.org
mtllib roadTile_236.mtl
o Mesh1_Group1_Model.235
v 2.340000 1.260000 -2.250000
v 2.340000 1.260000 -3.000000
v 0.000000 1.260000 -3.000000
v 0.000000 1.260000 -2.250000
v 3.000000 0.600000 -2.250000
v 3.000000 0.600001 -3.000000
v 0.000000 0.600000 -2.250000
v 0.000000 0.600000 -0.750000
v 3.000000 0.600000 -0.750000
v 0.000000 0.300000 -2.250000
v 0.000000 0.300000 -0.750000
v 0.000000 0.000000 -3.000000
v 0.000000 0.000000 0.000000
v 0.000000 1.260000 0.000000
v 0.000000 1.260000 -0.750000
v 3.000000 0.000000 -3.000000
v 3.000000 0.000000 -0.000000
v 3.000000 0.600000 0.000000
v 3.000000 0.300000 -2.250000
v 3.000000 0.300000 -0.750000
v 2.340000 1.260000 -0.750000
v 2.340000 1.260000 0.000000
vt 2.340000 2.250000
vt 2.340000 3.000000
vt 0.000000 3.000000
vt 0.000000 2.250000
vt 2.250000 -0.763675
vt 2.250000 -1.697060
vt 3.000000 -1.697060
vt 3.000000 -0.763675
vt 0.000000 0.600000
vt 3.000000 0.600000
vt 2.340000 1.260000
vt 0.000000 1.260000
vt -3.000000 1.260000
vt -3.000000 0.000000
vt 0.000000 0.000000
vt 0.000000 1.260000
vt -0.750000 1.260000
vt -0.750000 0.600000
vt -0.750000 0.300000
vt -2.250000 0.300000
vt -2.250000 0.600000
vt -2.250000 1.260000
vt -3.000000 0.000000
vt -0.000000 0.000000
vt -0.000000 1.260000
vt -2.340000 1.260000
vt -3.000000 0.600000
vt -0.000000 3.000000
vt -3.000000 3.000000
vt -3.000000 0.000000
vt 0.750000 0.600000
vt 0.000000 0.600000
vt 0.000000 0.000000
vt 3.000000 0.000000
vt 3.000000 0.600000
vt 2.250000 0.600000
vt 2.250000 0.300000
vt 0.750000 0.300000
vt 0.750000 -1.697060
vt 0.750000 -0.763675
vt 0.000000 -0.763675
vt 0.000000 -1.697060
vt -0.000000 1.260000
vt -2.340000 1.260000
vt -3.000000 0.600000
vt -0.000000 0.600000
vt 0.000000 0.000000
vt 2.340000 0.000000
vt 2.340000 0.750000
vt 0.000000 0.750000
vt 3.000000 0.000000
vt 3.000000 0.600000
vt 2.340000 1.260000
vt 3.000000 2.250000
vt 0.000000 2.250000
vt 0.000000 0.750000
vt 3.000000 0.750000
vn 0.0000 1.0000 0.0000
vn 0.7071 0.7071 0.0000
vn 0.0000 -0.0000 1.0000
vn -1.0000 0.0000 -0.0000
vn 0.0000 0.0000 -1.0000
vn 0.0000 -1.0000 -0.0000
vn 1.0000 -0.0000 0.0000
usemtl Stone.192
s 1
f 1/1/1 2/2/1 3/3/1 4/4/1
f 1/5/2 5/6/2 6/7/2 2/8/2
f 7/9/3 5/10/3 1/11/3 4/12/3
f 3/13/4 12/14/4 13/15/4 14/16/4 15/17/4 8/18/4 11/19/4 10/20/4 7/21/4 4/22/4
f 16/23/5 12/24/5 3/25/5 2/26/5 6/27/5
f 13/15/6 12/28/6 16/29/6 17/30/6
f 9/31/7 18/32/7 17/33/7 16/34/7 6/35/7 5/36/7 19/37/7 20/38/7
f 9/39/2 21/40/2 22/41/2 18/42/2
f 15/43/5 21/44/5 9/45/5 8/46/5
f 14/47/1 22/48/1 21/49/1 15/50/1
f 13/15/3 17/51/3 18/52/3 22/53/3 14/16/3
usemtl Asphalt.159
f 5/54/1 7/55/1 8/56/1 9/57/1
f 7/21/4 10/20/4 11/19/4 8/18/4
f 9/31/7 20/38/7 19/37/7 5/36/7
