# Blender v2.79 (sub 0) OBJ File: ''
# www.blender.org
mtllib roadTile_197.mtl
o Mesh1_Group1_Model.196
v 2.625000 1.100000 -2.250000
v 2.625000 1.100000 -0.750000
v 0.375000 1.100000 -0.750000
v 0.375000 1.100000 -2.250000
v 2.625000 1.650000 -3.000000
v 2.625000 1.730000 -3.000000
v 2.625000 1.730000 0.000000
v 2.625000 1.650000 0.000000
v 2.625000 1.650000 -0.750000
v 2.625000 1.650000 -2.250000
v 0.750000 1.730000 -3.000000
v 0.750000 1.700001 -3.000000
v 0.750000 1.400000 -3.000000
v 2.250000 1.400000 -3.000000
v 2.250000 1.700001 -3.000000
v 2.250000 1.730000 -3.000000
v 2.625000 1.100001 -3.000000
v 0.375000 1.100001 -3.000000
v 0.375000 1.650000 -3.000000
v 0.375000 1.730000 -3.000000
v 0.750000 1.730000 0.000000
v 0.750000 1.700000 0.000000
v 0.375000 1.730000 0.000000
v 0.375000 1.650000 -2.250000
v 0.375000 1.650000 -0.750000
v 0.375000 1.650000 0.000000
v 0.000000 1.650000 -2.250000
v 0.000000 1.650000 -3.000000
v 3.000000 1.650000 -2.250000
v 0.000000 0.455000 -2.250000
v 3.000000 0.455000 -2.250000
v 3.000000 1.650000 -3.000000
v 3.000000 0.000000 -3.000000
v 0.000000 0.000000 -3.000000
v 3.000000 0.000000 -2.250000
v 3.000000 0.000000 -0.750000
v 3.000000 0.455000 -0.750000
v 3.000000 0.000000 -0.000000
v 0.000000 0.000000 -0.000000
v 0.000000 0.000000 -0.750000
v 0.000000 0.000000 -2.250000
v 3.000000 1.650000 0.000000
v 2.625000 1.100000 0.000000
v 0.375000 1.100000 0.000000
v 0.000000 1.650000 0.000000
v 3.000000 1.650000 -0.750000
v 0.000000 0.455000 -0.750000
v 0.000000 1.650000 -0.750000
v 2.250000 1.730000 0.000000
v 2.250000 1.700000 0.000000
v 2.250000 1.400000 0.000000
v 0.750000 1.400000 0.000000
vt -2.625000 2.250000
vt -2.625000 0.750000
vt -0.375000 0.750000
vt -0.375000 2.250000
vt 3.000000 1.650000
vt 3.000000 1.730000
vt -0.000000 1.730000
vt -0.000000 1.650000
vt 0.750000 1.650000
vt 0.750000 1.100000
vt 2.250000 1.100000
vt 2.250000 1.650000
vt -0.750000 1.730000
vt -0.750000 1.700000
vt -0.750000 1.400000
vt -2.250000 1.400000
vt -2.250000 1.700000
vt -2.250000 1.730000
vt -2.625000 1.730000
vt -2.625000 1.650000
vt -2.625000 1.100000
vt -0.375000 1.100000
vt -0.375000 1.650000
vt -0.375000 1.730000
vt 3.000000 1.700000
vt 3.000000 1.730000
vt -0.000000 1.730000
vt -0.000000 1.700000
vt 0.750000 3.000000
vt 0.375000 3.000000
vt 0.375000 0.000000
vt 0.750000 0.000000
vt -3.000000 1.730000
vt -3.000000 1.650000
vt -2.250000 1.650000
vt -2.250000 1.100000
vt -0.750000 1.100000
vt -0.750000 1.650000
vt 0.000000 1.650000
vt 0.000000 1.730000
vt 2.250000 1.730000
vt 2.250000 1.700000
vt 2.250000 1.400000
vt 0.750000 1.400000
vt 0.750000 1.700000
vt 0.750000 1.730000
vt 0.375000 1.730000
vt 0.375000 1.650000
vt 0.375000 1.100000
vt 2.625000 1.100000
vt 2.625000 1.650000
vt 2.625000 1.730000
vt -3.000000 1.730000
vt -3.000000 1.700000
vt 0.000000 1.700000
vt 0.000000 1.730000
vt 2.625000 3.000000
vt 2.250000 3.000000
vt 2.250000 0.000000
vt 2.625000 0.000000
vt -0.000000 2.250000
vt 0.375000 2.250000
vt 0.375000 3.000000
vt -0.000000 3.000000
vt 3.000000 1.650000
vt 2.625000 1.650000
vt 2.625000 1.100000
vt 0.375000 1.100000
vt 0.375000 1.650000
vt 0.000000 1.650000
vt 0.000000 0.455000
vt 3.000000 0.455000
vt 3.000000 3.000000
vt 2.625000 3.000000
vt 2.625000 2.250000
vt 3.000000 2.250000
vt -0.000000 1.650000
vt -3.000000 1.650000
vt -3.000000 -0.000000
vt -0.000000 -0.000000
vt 2.250000 1.650000
vt 2.250000 0.455000
vt 2.250000 0.000000
vt 3.000000 0.000000
vt 3.000000 1.650000
vt -3.000000 0.000000
vt -0.000000 0.000000
vt -0.000000 0.750000
vt -0.000000 2.250000
vt -0.000000 3.000000
vt -3.000000 3.000000
vt -3.000000 2.250000
vt -3.000000 0.750000
vt 3.000000 1.650000
vt 0.000000 1.650000
vt 3.000000 -0.000000
vt 3.000000 0.750000
vt 2.625000 0.750000
vt 2.625000 0.000000
vt 3.000000 0.000000
vt -2.625000 1.650000
vt -3.000000 1.650000
vt -3.000000 0.455000
vt -0.000000 0.455000
vt -0.000000 1.650000
vt -0.375000 1.650000
vt -0.375000 1.100000
vt -2.625000 1.100000
vt 0.000000 0.000000
vt 0.750000 0.000000
vt 0.750000 0.455000
vt 0.750000 1.650000
vt 0.000000 1.650000
vt -0.750000 1.650000
vt -0.750000 0.455000
vt -0.750000 -0.000000
vt -0.000001 0.000000
vt 0.375000 0.000000
vt 0.374999 0.750000
vt -0.000001 0.750000
vt -3.000000 0.000000
vt -2.250000 0.000000
vt -2.250000 0.455000
vt -2.250000 1.650000
vt -3.000000 1.650000
vt 0.000000 2.250000
vt 0.000000 0.750000
vt 3.000000 0.750000
vt 3.000000 2.250000
vt 2.250000 3.000000
vt 0.750000 3.000000
vt 0.750000 0.000000
vt 2.250000 0.000000
vn 0.0000 -1.0000 -0.0000
vn 1.0000 0.0000 0.0000
vn -0.0000 0.0000 -1.0000
vn 0.0000 1.0000 0.0000
vn -1.0000 -0.0000 0.0000
vn 0.0000 -0.0000 1.0000
usemtl Stone.153
s 1
f 1/1/1 2/2/1 3/3/1 4/4/1
f 5/5/2 6/6/2 7/7/2 8/8/2 9/9/2 2/10/2 1/11/2 10/12/2
f 11/13/3 12/14/3 13/15/3 14/16/3 15/17/3 16/18/3 6/19/3 5/20/3 17/21/3 18/22/3 19/23/3 20/24/3
f 12/25/2 11/26/2 21/27/2 22/28/2
f 11/29/4 20/30/4 23/31/4 21/32/4
f 20/33/5 19/34/5 24/35/5 4/36/5 3/37/5 25/38/5 26/39/5 23/40/5
f 49/41/6 50/42/6 51/43/6 52/44/6 22/45/6 21/46/6 23/47/6 26/48/6 44/49/6 43/50/6 8/51/6 7/52/6
f 16/53/5 15/54/5 50/55/5 49/56/5
f 6/57/4 16/58/4 49/59/4 7/60/4
usemtl Grass.103
f 27/61/4 24/62/4 19/63/4 28/64/4
f 29/65/6 10/66/6 1/67/6 4/68/6 24/69/6 27/70/6 30/71/6 31/72/6
f 32/73/4 5/74/4 10/75/4 29/76/4
f 28/77/3 19/23/3 18/22/3 17/21/3 5/20/3 32/78/3 33/79/3 34/80/3
f 29/81/2 31/82/2 35/83/2 33/84/2 32/85/2
f 38/86/1 39/87/1 40/88/1 41/89/1 34/90/1 33/91/1 35/92/1 36/93/1
f 42/94/6 8/51/6 43/50/6 44/49/6 26/48/6 45/95/6 39/87/6 38/96/6
f 46/97/4 9/98/4 8/99/4 42/100/4
f 9/101/3 46/102/3 37/103/3 47/104/3 48/105/3 25/106/3 3/107/3 2/108/3
f 38/109/2 36/110/2 37/111/2 46/112/2 42/113/2
f 48/114/5 47/115/5 40/116/5 39/87/5 45/95/5
f 45/117/4 26/118/4 25/119/4 48/120/4
f 34/121/5 41/122/5 30/123/5 27/124/5 28/125/5
usemtl Water.025
f 36/110/2 35/83/2 31/82/2 37/111/2
f 30/126/4 47/127/4 37/128/4 31/129/4
f 41/122/5 40/116/5 47/115/5 30/123/5
usemtl Asphalt.126
f 15/130/4 12/131/4 22/132/4 50/133/4
f 12/14/3 15/17/3 14/16/3 13/15/3
f 50/42/6 22/45/6 52/44/6 51/43/6
