# Blender v2.79 (sub 0) OBJ File: ''
# www.blender.org
mtllib roadTile_043.mtl
o Mesh1_Group1_Model.042
v 2.551440 0.630000 -2.625000
v 2.839190 0.630000 -3.000000
v 2.839190 0.600001 -3.000000
v 2.551440 0.600000 -2.625000
v 3.000000 0.630000 0.000000
v 3.000000 0.630000 -0.401164
v 2.876200 0.630000 -0.562500
v 2.688890 0.630000 -1.014710
v 2.625000 0.630000 -1.500000
v 2.688890 0.630000 -1.985290
v 2.876200 0.630000 -2.437500
v 3.000000 0.630000 -2.598840
v 3.000000 0.630000 -3.000000
v 2.326670 0.630000 -2.082340
v 2.250000 0.630000 -1.500000
v 2.326670 0.630000 -0.917657
v 2.551440 0.630000 -0.375000
v 2.839190 0.630000 0.000000
v 3.000000 0.000000 0.000000
v 3.000000 0.000000 -0.401164
v 3.000000 0.550000 -0.401164
v 0.747630 0.550000 0.000000
v 0.747630 0.000000 -0.000000
v 2.839190 0.600000 0.000000
v 2.839190 0.315000 0.000000
v 1.097070 0.315000 0.000000
v 1.097070 0.600000 0.000000
v 1.097070 0.630000 0.000000
v 0.747630 0.630000 0.000000
v 0.000000 0.550000 0.000000
v 0.000000 0.000000 -0.000000
v 0.592300 0.550000 -0.375000
v 0.000000 0.550000 -0.375000
v 0.592300 0.630000 -0.375000
v 0.877778 0.630000 -0.529429
v 0.848739 0.630000 -0.750000
v 0.000000 0.630000 -0.750000
v 0.000000 0.630000 -0.375000
v 0.877778 0.600000 -0.529429
v 0.848739 0.600000 -0.750000
v 0.877778 0.600000 -2.470570
v 0.848739 0.600000 -2.250000
v 0.000000 0.600000 -2.250000
v 0.000000 0.600000 -0.750000
v 2.551440 0.600000 -0.375000
v 2.326670 0.600000 -0.917657
v 2.250000 0.600000 -1.500000
v 2.326670 0.600000 -2.082340
v 1.097070 0.600001 -3.000000
v 0.848739 0.630000 -2.250000
v 0.877778 0.630000 -2.470570
v 0.000000 0.630000 -2.250000
v 0.747630 0.630000 -3.000000
v 0.592300 0.630000 -2.625000
v 0.000000 0.630000 -2.625000
v 1.097070 0.630000 -3.000000
v 0.592300 0.550000 -2.625000
v 0.747630 0.550000 -3.000000
v 0.000000 0.550000 -2.625000
v 0.000000 0.550000 -3.000000
v 0.000000 0.000000 -3.000000
v 0.000000 0.000000 -2.625000
v 0.000000 0.000000 -0.375000
v 0.747630 0.000000 -3.000000
v 3.000000 0.000000 -3.000000
v 3.000000 0.000000 -2.598840
v 0.000000 0.275000 -0.750000
v 0.000000 0.275000 -2.250000
v 1.097070 0.315000 -3.000000
v 2.839190 0.315000 -3.000000
v 3.000000 0.550000 -2.598840
v 2.876200 0.550000 -2.437500
v 2.688890 0.550000 -1.985290
v 2.625000 0.550000 -1.500000
v 2.688890 0.550000 -1.014710
v 2.876200 0.550000 -0.562500
vt 0.747630 0.000000
vt 3.000000 0.000000
vt 1.097070 0.315000
vt 0.592300 2.625000
vt 0.848739 2.250000
vt 0.877778 2.470570
vt -2.250000 0.275000
vt -2.625000 0.000000
vt -0.375000 0.000000
vt -3.000000 0.000000
vt -1.097070 0.315000
vt -2.839190 0.315000
vt 3.000000 0.630000
vt 2.598840 0.630000
vt 2.598840 0.550000
vt -2.814210 0.600000
vt -2.814210 0.630000
vt -3.401580 0.630000
vt -3.401580 0.600000
vt -0.375000 0.550000
vt -0.750000 0.600000
vt -0.750000 0.275000
vt 2.688890 1.985290
vt 2.876200 2.437500
vt 2.551440 2.625000
vt 2.326670 2.082340
vt 2.625000 1.500000
vt 2.250000 1.500000
vt 2.326670 0.917657
vt 2.688890 1.014710
vt 3.000000 0.401164
vt 2.551440 0.375000
vt 2.839190 0.000000
vt 3.000000 -0.000000
vt 3.000000 2.598840
vt 2.876200 0.562500
vt 0.401164 0.550000
vt 0.401164 0.630000
vt -0.000000 0.630000
vt 3.000000 0.000000
vt 2.598840 0.000000
vt -0.000000 0.000000
vt 0.401164 0.000000
vt 3.000000 0.630000
vt 2.839190 0.315000
vt 2.839190 0.630000
vt 2.839190 0.600000
vt 1.097070 0.600000
vt 0.747630 0.550000
vt 0.286106 0.550000
vt 0.286106 0.630000
vt -0.119791 0.630000
vt -0.119791 0.550000
vt 0.877778 0.529429
vt 0.848739 0.750000
vt 0.592300 0.375000
vt 3.000000 3.000000
vt 2.839190 3.000000
vt 0.747630 3.000000
vt 1.097070 3.000000
vt 3.191470 0.600000
vt 3.191470 0.630000
vt 2.618420 0.630000
vt 2.618420 0.600000
vt 0.747630 0.000000
vt 1.097070 0.000000
vt 0.000000 0.630000
vt 0.000000 0.600000
vt 0.848739 0.600000
vt 0.848739 0.630000
vt 1.144540 0.550000
vt 1.144540 0.630000
vt 0.655063 0.630000
vt 0.655063 0.550000
vt 0.000000 2.250000
vt 0.000000 2.625000
vt 0.000000 0.750000
vt 0.000000 0.375000
vt -0.592300 0.630000
vt -0.592300 0.550000
vt -0.000000 0.550000
vt -0.000000 0.630000
vt 3.352630 0.550000
vt 3.352630 0.630000
vt 2.863160 0.630000
vt 2.863160 0.550000
vt -0.747630 0.630000
vt -1.097070 0.630000
vt -1.097070 0.600000
vt -0.747630 0.550000
vt -0.375000 0.630000
vt -0.750000 0.630000
vt -2.625000 0.550000
vt -2.250000 0.600000
vt 0.000000 0.630000
vt 0.000000 0.550000
vt 0.592300 0.550000
vt 0.592300 0.630000
vt -0.000000 0.600000
vt -0.000000 0.630000
vt -0.848739 0.630000
vt -0.848739 0.600000
vt 0.629940 0.600000
vt 0.629940 0.630000
vt 0.042572 0.630000
vt 0.042572 0.600000
vt 0.747630 0.630000
vt 1.097070 0.630000
vt -2.839190 0.630000
vt -3.000000 0.630000
vt -2.839190 0.600000
vt -0.747630 0.000000
vt -0.606115 0.600000
vt -0.606115 0.630000
vt -1.193480 0.630000
vt -1.193480 0.600000
vt -3.635770 0.600000
vt -3.635770 0.630000
vt -4.108450 0.630000
vt -4.108450 0.600000
vt -3.057740 0.550000
vt -2.651850 0.550000
vt -2.651850 0.630000
vt -3.057740 0.630000
vt 2.319270 0.550000
vt 2.319270 0.630000
vt 1.829800 0.630000
vt 1.829800 0.550000
vt 2.564010 0.630000
vt 2.341530 0.630000
vt 2.341530 0.600000
vt 2.564010 0.600000
vt -0.091519 0.550000
vt -0.091519 0.630000
vt -0.580993 0.630000
vt -0.580993 0.550000
vt -1.304660 0.550000
vt -1.304660 0.630000
vt -1.508020 0.630000
vt -1.508020 0.550000
vt 0.410326 0.630000
vt 0.410326 0.600000
vt 0.632801 0.600000
vt 0.632801 0.630000
vt 0.153217 0.600000
vt 0.153217 0.630000
vt -0.419832 0.630000
vt -0.419832 0.600000
vt 1.728390 0.600000
vt 1.728390 0.630000
vt 1.255710 0.630000
vt 1.255710 0.600000
vt -2.250000 0.630000
vt -2.625000 0.630000
vt -1.780850 0.600000
vt -1.780850 0.630000
vt -2.368220 0.630000
vt -2.368220 0.600000
vt 3.888080 0.550000
vt 3.888080 0.630000
vt 3.684720 0.630000
vt 3.684720 0.550000
vt 3.000000 2.598840
vt 2.625000 1.500000
vt 3.000000 0.401164
vt -3.000000 0.401164
vt -0.747630 0.000000
vt -0.747630 3.000000
vt -3.000000 2.598840
vt -3.000000 0.550000
vt -3.000000 0.000000
vt 0.000000 0.000000
vt 0.747630 0.000000
vt 0.592300 0.375000
vt 0.000000 0.375000
vt -0.000000 0.000000
vt -0.000000 0.375000
vt -0.000000 2.625000
vt -0.000000 3.000000
vt -3.000000 0.000000
vt -3.000000 3.000000
vt 0.592300 2.625000
vt 0.747630 3.000000
vt 0.000000 3.000000
vt 0.000000 2.625000
vt -0.000000 0.550000
vt -0.000000 0.000000
vt -0.000000 0.550000
vt 2.876200 0.562500
vt 2.688890 1.014710
vt 2.876200 2.437500
vt 2.688890 1.985290
vt 2.551440 2.625000
vt 1.097070 3.000000
vt 0.877778 2.470570
vt 2.326670 2.082340
vt 2.326670 0.917657
vt 2.250000 1.500000
vt 0.848739 0.750000
vt 0.877778 0.529429
vt 1.097070 0.000000
vt 2.551440 0.375000
vt 0.848739 2.250000
vt 2.839190 3.000000
vt 2.839190 0.000000
vt 0.000000 0.750000
vt 0.000000 2.250000
vn -0.0000 -0.0000 1.0000
vn -0.0000 1.0000 0.0000
vn -1.0000 0.0000 -0.0000
vn 0.0000 0.0000 -1.0000
vn 1.0000 0.0000 0.0000
vn -0.9659 0.0000 -0.2588
vn -0.8660 0.0000 -0.5000
vn -0.9239 0.0000 0.3827
vn 0.9239 0.0000 0.3827
vn 0.9659 0.0000 0.2588
vn 0.9659 0.0000 -0.2588
vn 0.8660 0.0000 0.5000
vn -0.8660 0.0000 0.5000
vn -0.9659 0.0000 0.2588
vn -0.7934 0.0000 -0.6088
vn -0.9239 0.0000 -0.3827
vn 0.9914 0.0000 0.1305
vn 0.8660 0.0000 -0.5000
vn 0.7933 0.0000 -0.6088
vn 0.9914 0.0000 -0.1305
vn 0.9239 0.0000 -0.3827
vn -0.7934 0.0000 0.6088
vn 0.7934 0.0000 0.6088
vn -0.0000 -1.0000 -0.0000
usemtl Stone.023
s 1
f 23/1/1 19/2/1 26/3/1
f 54/4/2 50/5/2 51/6/2
f 68/7/3 62/8/3 63/9/3
f 65/10/4 69/11/4 70/12/4
f 13/13/5 12/14/5 71/15/5
f 48/16/6 14/17/6 1/18/7 4/19/7
f 63/9/3 33/20/3 44/21/3 67/22/3
f 10/23/2 11/24/2 1/25/2 14/26/2
f 9/27/2 15/28/2 16/29/2 8/30/2
f 6/31/2 17/32/2 18/33/2 5/34/2
f 11/24/2 12/35/2 1/25/2
f 17/32/2 6/31/2 7/36/2
f 7/36/2 8/30/2 16/29/2 17/32/2
f 21/37/5 6/38/5 5/39/5
f 65/40/5 13/13/5 71/15/5 66/41/5
f 19/42/5 20/43/5 21/37/5 5/39/5
f 19/2/1 5/44/1 25/45/1
f 18/46/1 24/47/1 5/44/1
f 27/48/1 22/49/1 26/3/1
f 5/44/1 24/47/1 25/45/1
f 26/3/1 22/49/1 23/1/1
f 19/2/1 25/45/1 26/3/1
f 22/50/8 29/51/8 34/52/8 32/53/8
f 35/54/2 36/55/2 34/56/2
f 12/35/2 13/57/2 2/58/2 1/25/2
f 53/59/2 54/4/2 51/6/2 56/60/2
f 49/61/9 56/62/9 51/63/10 41/64/10
f 29/65/2 28/66/2 35/54/2 34/56/2
f 52/67/1 43/68/1 42/69/1 50/70/1
f 74/71/5 9/72/5 8/73/11 75/74/11
f 52/75/2 50/5/2 54/4/2 55/76/2
f 36/55/2 37/77/2 38/78/2 34/56/2
f 54/79/4 57/80/4 59/81/4 55/82/4
f 72/83/12 11/84/12 10/85/10 73/86/10
f 53/87/4 56/88/4 49/89/4 58/90/4
f 44/21/3 33/20/3 38/91/3 37/92/3
f 59/93/3 62/8/3 68/7/3 43/94/3
f 63/9/3 67/22/3 68/7/3
f 38/95/1 33/96/1 32/97/1 34/98/1
f 44/99/4 37/100/4 36/101/4 40/102/4
f 45/103/13 17/104/13 16/105/14 46/106/14
f 29/107/1 22/49/1 27/48/1 28/108/1
f 2/109/4 13/110/4 3/111/4
f 3/111/4 13/110/4 70/12/4
f 64/112/4 58/90/4 69/11/4
f 58/90/4 49/89/4 69/11/4
f 70/12/4 13/110/4 65/10/4
f 64/112/4 69/11/4 65/10/4
f 46/113/14 16/114/14 15/115/3 47/116/3
f 14/26/2 15/28/2 9/27/2 10/23/2
f 4/117/7 1/118/7 2/119/15 3/120/15
f 58/121/16 57/122/16 54/123/16 53/124/16
f 73/125/10 10/126/10 9/127/5 74/128/5
f 51/129/10 50/130/17 42/131/17 41/132/10
f 75/133/11 8/134/11 7/135/18 76/136/18
f 76/137/18 7/138/18 6/139/19 21/140/19
f 35/141/11 39/142/11 40/143/20 36/144/20
f 39/145/11 35/146/11 28/147/21 27/148/21
f 24/149/22 18/150/22 17/151/13 45/152/13
f 52/153/3 55/154/3 59/93/3 43/94/3
f 47/155/3 15/156/3 14/157/6 48/158/6
f 71/159/23 12/160/23 11/161/12 72/162/12
usemtl Grass.030
f 71/163/2 74/164/2 21/165/2
f 20/43/5 66/41/5 71/15/5 21/37/5
f 20/166/24 23/167/24 64/168/24 66/169/24
f 60/170/3 61/171/3 62/8/3 59/93/3
f 30/172/2 22/173/2 32/174/2 33/175/2
f 23/167/24 31/176/24 63/177/24
f 62/178/24 61/179/24 64/168/24
f 20/166/24 19/180/24 23/167/24
f 64/168/24 65/181/24 66/169/24
f 57/182/2 58/183/2 60/184/2 59/185/2
f 62/178/24 64/168/24 23/167/24 63/177/24
f 31/176/3 30/186/3 33/20/3 63/9/3
f 61/187/4 60/188/4 58/90/4 64/112/4
f 76/189/2 21/165/2 75/190/2
f 71/163/2 72/191/2 73/192/2
f 73/192/2 74/164/2 71/163/2
f 75/190/2 21/165/2 74/164/2
f 23/1/1 22/49/1 30/186/1 31/176/1
usemtl Asphalt.012
f 4/193/2 49/194/2 41/195/2 48/196/2
f 46/197/2 47/198/2 40/199/2 39/200/2
f 26/3/1 25/45/1 24/47/1 27/48/1
f 46/197/2 39/200/2 27/201/2 45/202/2
f 42/203/2 47/198/2 48/196/2 41/195/2
f 3/204/2 49/194/2 4/193/2
f 42/203/2 40/199/2 47/198/2
f 27/201/2 24/205/2 45/202/2
f 70/12/4 69/11/4 49/89/4 3/111/4
f 43/94/3 68/7/3 67/22/3 44/21/3
f 44/206/2 40/199/2 42/203/2 43/207/2
