# Blender v2.79 (sub 0) OBJ File: ''
# www.blender.org
mtllib roadTile_259.mtl
o Mesh1_Group1_Model.258
v 3.000000 1.385560 -1.741110
v 3.000000 1.410000 -1.500000
v 0.000000 1.410000 -1.500000
v 0.000000 1.385560 -1.741110
v 3.000000 1.650000 -3.000000
v 3.000000 1.385560 -1.258890
v 3.000000 1.650000 0.000000
v 3.000000 1.313220 -1.027600
v 3.000000 1.195930 -0.815525
v 3.000000 1.038460 -0.631311
v 3.000000 0.847222 -0.482450
v 3.000000 0.000000 -0.000000
v 0.000000 1.650000 0.000000
v 0.000000 0.000000 -0.000000
v 0.000000 0.847222 -0.482450
v 0.000000 1.038460 -0.631311
v 0.000000 1.195930 -0.815525
v 0.000000 1.313220 -1.027600
v 0.000000 1.385560 -1.258890
v 0.000000 1.650000 -3.000000
v 0.000000 0.000000 -3.000000
v 3.000000 0.000000 -3.000000
v 0.000000 0.630000 -2.625000
v 0.000000 0.300000 -2.250000
v 0.000000 0.300000 -0.750000
v 0.000000 0.630000 -0.375000
v 3.000000 0.630000 -0.375000
v 3.000000 0.300000 -0.750000
v 3.000000 0.300000 -2.250000
v 3.000000 0.600000 -2.250000
v 3.000000 0.630000 -2.625000
v 3.000000 0.847222 -2.517550
v 3.000000 1.038460 -2.368690
v 3.000000 1.139910 -2.250000
v 3.000000 1.195930 -2.184480
v 3.000000 1.275000 -2.041500
v 3.000000 1.313220 -1.972400
v 0.000000 1.313220 -1.972400
v 3.000000 1.275000 -0.958498
v 0.000000 1.275000 -0.958498
v 3.000000 1.139910 -0.750000
v 0.000000 1.139910 -0.750000
v 0.000000 1.275000 -2.041500
v 0.000000 1.195930 -2.184480
v 0.000000 1.139910 -2.250000
v 0.000000 1.038460 -2.368690
v 0.000000 0.847222 -2.517550
v 3.000000 0.630000 -2.250000
v 0.000000 0.630000 -2.250000
v 0.000000 0.600000 -2.250000
v 0.000000 0.600000 -0.750000
v 3.000000 0.600000 -0.750000
v 3.000000 0.630000 -0.750000
v 0.000000 0.630000 -0.750000
vt 3.000000 -1.592470
vt 3.000000 -1.350130
vt 0.000000 -1.350130
vt 0.000000 -1.592470
vt 3.000000 1.650000
vt 1.500000 1.410000
vt 1.741110 1.385560
vt 1.258890 1.385560
vt 0.000000 1.650000
vt 1.027600 1.313220
vt 0.815525 1.195930
vt 0.631311 1.038460
vt 0.482450 0.847222
vt 0.000000 -0.000000
vt 0.000000 1.650000
vt 0.000000 -0.000000
vt 3.000000 -0.000000
vt 3.000000 1.650000
vt -0.482450 0.847222
vt -0.631311 1.038460
vt -0.815525 1.195930
vt -1.027600 1.313220
vt -1.258890 1.385560
vt -3.000000 1.650000
vt 3.000000 0.000000
vt 3.000000 3.000000
vt -0.000000 3.000000
vt 0.000000 0.000000
vt -0.000000 -0.000000
vt -0.000000 1.650000
vt -3.000000 1.650000
vt -3.000000 -0.000000
vt -3.000000 -0.000000
vt -2.625000 0.630000
vt -2.250000 0.300000
vt -0.750000 0.300000
vt -0.375000 0.630000
vt -3.000000 0.973302
vt -3.000000 0.730957
vt -0.000000 0.730957
vt -0.000000 0.973302
vt 0.375000 0.630000
vt 0.750000 0.300000
vt 3.000000 -0.000000
vt 0.000000 3.000000
vt -3.000000 3.000000
vt -3.000000 0.000000
vt 2.250000 0.300000
vt 2.250000 0.600000
vt 2.625000 0.630000
vt 2.517550 0.847222
vt 2.368690 1.038460
vt 2.250000 1.139910
vt 2.184480 1.195930
vt 2.041500 1.275000
vt 1.972400 1.313220
vt 3.000000 -1.490490
vt 3.000000 -1.248150
vt 0.000000 -1.248150
vt 0.000000 -1.490490
vt -1.741110 1.385560
vt -1.972400 1.313220
vt -1.500000 1.410000
vt -3.000000 1.634570
vt -3.000000 1.392230
vt 0.000000 1.392230
vt 0.000000 1.634570
vt -3.000000 1.615080
vt -3.000000 1.372740
vt 0.000000 1.372740
vt 0.000000 1.615080
vt -3.000000 1.534800
vt -3.000000 1.455840
vt -0.000000 1.455840
vt -0.000000 1.534800
vt 0.958498 1.275000
vt -3.000000 1.292450
vt -0.000000 1.292450
vt -3.000000 1.396980
vt -3.000000 1.310780
vt -0.000000 1.310780
vt -0.000000 1.396980
vt 0.750000 1.139910
vt -3.000000 1.154640
vt -0.000000 1.154640
vt -3.000000 1.207240
vt -3.000000 0.964897
vt -0.000000 0.964897
vt -0.000000 1.207240
vt -0.750000 1.139910
vt -0.958498 1.275000
vt -2.041500 1.275000
vt -2.184480 1.195930
vt -2.250000 1.139910
vt -2.368690 1.038460
vt -2.517550 0.847222
vt 3.000000 -0.599168
vt 3.000000 -0.356823
vt 0.000000 -0.356823
vt 0.000000 -0.599168
vt 3.000000 -0.877864
vt 3.000000 -0.635520
vt 0.000000 -0.635520
vt 0.000000 -0.877864
vt 3.000000 -1.125770
vt 3.000000 -0.969623
vt 0.000000 -0.969623
vt 0.000000 -1.125770
vt 3.000000 -0.883421
vt 0.000000 -0.883421
vt 3.000000 -1.332780
vt 3.000000 -1.169400
vt 0.000000 -1.169400
vt 0.000000 -1.332780
vt 3.000000 -1.090440
vt 0.000000 -1.090440
vt 3.000000 2.250000
vt 3.000000 2.625000
vt 0.000000 2.625000
vt 0.000000 2.250000
vt 2.250000 0.630000
vt 3.000000 0.599997
vt 3.000000 0.629997
vt 0.000000 0.629997
vt 0.000000 0.599997
vt -2.250000 0.600000
vt -2.250000 0.630000
vt 0.750000 0.600000
vt 0.750000 0.630000
vt -3.000000 0.629999
vt -3.000000 0.599999
vt -0.000000 0.599999
vt -0.000000 0.629999
vt -0.750000 0.630000
vt -0.750000 0.600000
vt 3.000000 0.375000
vt 3.000000 0.750000
vt 0.000000 0.750000
vt 0.000000 0.375000
vt 3.000000 0.750000
vt 3.000000 2.250000
vt 0.000000 2.250000
vt 0.000000 0.750000
vn 0.0000 -0.9797 0.2007
vn 0.0000 -1.0000 0.0000
vn 1.0000 -0.0000 0.0000
vn 0.0000 -0.0000 1.0000
vn -1.0000 0.0000 0.0000
vn 0.0000 1.0000 0.0000
vn 0.0000 0.0000 -1.0000
vn 0.0000 -0.5315 -0.8470
vn 0.0000 -0.4434 -0.8963
vn 0.0000 -0.9194 0.3933
vn 0.0000 -0.9797 -0.2007
vn 0.0000 -0.9194 -0.3933
vn 0.0000 -0.8751 -0.4840
vn 0.0000 -0.8218 -0.5698
vn 0.0000 -0.7601 -0.6498
vn 0.0000 -0.6907 -0.7231
vn -1.0000 -0.0001 -0.0001
vn 0.0000 -0.4434 0.8963
vn 0.0000 -0.5315 0.8470
vn 0.0000 -0.6907 0.7231
vn 0.0000 -0.7601 0.6498
vn 0.0000 -0.8218 0.5698
vn 0.0000 -0.8751 0.4840
vn 0.6244 0.0000 -0.7811
vn -0.2364 0.0000 0.9717
usemtl Stone.215
s 1
f 1/1/1 2/2/2 3/3/2 4/4/1
f 5/5/3 2/6/3 1/7/3
f 5/5/3 6/8/3 2/6/3
f 7/9/3 6/8/3 5/5/3
f 6/8/3 7/9/3 8/10/3
f 8/10/3 7/9/3 9/11/3
f 9/11/3 7/9/3 10/12/3
f 10/12/3 7/9/3 11/13/3
f 11/13/3 7/9/3 12/14/3
f 13/15/4 14/16/4 12/17/4 7/18/4
f 13/15/5 15/19/5 14/16/5
f 15/19/5 13/15/5 16/20/5
f 16/20/5 13/15/5 17/21/5
f 17/21/5 13/15/5 18/22/5
f 18/22/5 13/15/5 19/23/5
f 19/23/5 13/15/5 20/24/5
f 7/25/6 5/26/6 20/27/6 13/28/6
f 21/29/7 20/30/7 5/31/7 22/32/7
f 21/33/5 23/34/5 20/24/5
f 21/33/5 24/35/5 23/34/5
f 21/33/5 25/36/5 24/35/5
f 14/16/5 25/36/5 21/33/5
f 25/36/5 14/16/5 26/37/5
f 14/16/5 15/19/5 26/37/5
f 11/38/8 27/39/9 26/40/9 15/41/8
f 11/13/3 12/14/3 27/42/3
f 12/14/3 28/43/3 27/42/3
f 28/43/3 12/14/3 22/44/3
f 14/16/2 21/45/2 22/46/2 12/47/2
f 28/43/3 22/44/3 29/48/3
f 29/48/3 22/44/3 30/49/3
f 30/49/3 22/44/3 31/50/3
f 5/5/3 31/50/3 22/44/3
f 5/5/3 32/51/3 31/50/3
f 5/5/3 33/52/3 32/51/3
f 5/5/3 34/53/3 33/52/3
f 5/5/3 35/54/3 34/53/3
f 5/5/3 36/55/3 35/54/3
f 5/5/3 37/56/3 36/55/3
f 5/5/3 1/7/3 37/56/3
f 37/57/10 1/58/1 4/59/1 38/60/10
f 4/61/5 20/24/5 38/62/5
f 3/63/5 20/24/5 4/61/5
f 19/23/5 20/24/5 3/63/5
f 2/64/2 6/65/11 19/66/11 3/67/2
f 6/68/11 8/69/12 18/70/12 19/71/11
f 8/72/12 39/73/13 40/74/13 18/75/12
f 8/10/3 9/11/3 39/76/3
f 39/73/13 9/77/14 17/78/14 40/74/13
f 9/79/14 41/80/15 42/81/15 17/82/14
f 9/11/3 10/12/3 41/83/3
f 41/80/15 10/84/16 16/85/16 42/81/15
f 10/86/16 11/87/8 15/88/8 16/89/16
f 16/20/5 17/21/5 42/90/5
f 17/21/5 18/22/5 40/91/17
f 38/62/5 20/24/5 43/92/5
f 43/92/5 20/24/5 44/93/5
f 44/93/5 20/24/5 45/94/5
f 45/94/5 20/24/5 46/95/5
f 46/95/5 20/24/5 47/96/5
f 47/96/5 20/24/5 23/34/5
f 31/97/18 32/98/19 47/99/19 23/100/18
f 32/101/19 33/102/20 46/103/20 47/104/19
f 33/105/20 34/106/21 45/107/21 46/108/20
f 34/106/21 35/109/22 44/110/22 45/107/21
f 35/111/22 36/112/23 43/113/23 44/114/22
f 36/112/23 37/115/10 38/116/10 43/113/23
f 48/117/6 31/118/6 23/119/6 49/120/6
f 31/50/3 48/121/3 30/49/3
f 30/122/4 48/123/4 49/124/4 50/125/4
f 23/34/5 50/126/5 49/127/5
f 50/126/5 23/34/5 24/35/5
f 52/128/24 53/129/3 28/43/3
f 53/130/7 52/131/7 51/132/7 54/133/7
f 25/36/5 54/134/5 51/135/25
f 25/36/5 26/37/5 54/134/5
f 27/136/6 53/137/6 54/138/6 26/139/6
f 27/42/3 28/43/3 53/129/3
usemtl Asphalt.176
f 51/135/25 50/126/5 24/35/5 25/36/5
f 52/140/6 30/141/6 50/142/6 51/143/6
f 30/49/3 52/128/24 28/43/3 29/48/3
