# Blender v2.79 (sub 0) OBJ File: ''
# www.blender.org
mtllib roadTile_288.mtl
o Mesh1_Group1_Model.287
v 1.188890 0.630000 -2.514710
v 1.267730 0.630000 -2.282470
v 1.267730 0.600000 -2.282470
v 1.188890 0.600000 -2.514710
v 3.000000 0.630000 0.000000
v 3.000000 0.630000 -1.125000
v 2.755260 0.630000 -1.141040
v 2.514710 0.630000 -1.188890
v 2.282470 0.630000 -1.267730
v 2.062500 0.630000 -1.376200
v 1.858570 0.630000 -1.512460
v 1.674170 0.630000 -1.674170
v 1.512460 0.630000 -1.858570
v 1.376200 0.630000 -2.062500
v 1.141040 0.630000 -2.755260
v 1.125000 0.630000 -3.000000
v 0.000000 0.630000 -3.000000
v 0.000000 0.630000 0.000000
v 3.000000 0.000000 0.000000
v 3.000000 0.000000 -3.000000
v 3.000000 0.630000 -3.000000
v 3.000000 0.630000 -1.875000
v 3.000000 0.600000 -1.875000
v 3.000000 0.300000 -1.875000
v 3.000000 0.300000 -1.125000
v 3.000000 0.600000 -1.125000
v 0.000000 0.000000 -3.000000
v 0.000000 0.000000 -0.000000
v 1.125000 0.600001 -3.000000
v 1.125000 0.300000 -3.000000
v 1.875000 0.300000 -3.000000
v 1.875000 0.600001 -3.000000
v 1.875000 0.630000 -3.000000
v 1.141040 0.600001 -2.755260
v 1.376200 0.600000 -2.062500
v 1.512460 0.600000 -1.858570
v 1.674170 0.600000 -1.674170
v 1.858570 0.600000 -1.512460
v 2.062500 0.600000 -1.376200
v 2.282470 0.600000 -1.267730
v 2.514710 0.600000 -1.188890
v 2.755260 0.600000 -1.141040
v 2.853160 0.600000 -1.884620
v 2.708830 0.600000 -1.913330
v 2.569480 0.600000 -1.960640
v 2.437500 0.600000 -2.025720
v 2.315140 0.600000 -2.107480
v 2.204500 0.600000 -2.204500
v 2.107480 0.600000 -2.315140
v 2.025720 0.600000 -2.437500
v 1.960640 0.600000 -2.569480
v 1.913330 0.600000 -2.708830
v 1.884620 0.600001 -2.853160
v 2.853160 0.630000 -1.884620
v 1.884620 0.630000 -2.853160
v 1.913330 0.630000 -2.708830
v 1.960640 0.630000 -2.569480
v 2.025720 0.630000 -2.437500
v 2.107480 0.630000 -2.315140
v 2.204500 0.630000 -2.204500
v 2.315140 0.630000 -2.107480
v 2.437500 0.630000 -2.025720
v 2.569480 0.630000 -1.960640
v 2.708830 0.630000 -1.913330
vt 1.999100 0.630000
vt 1.753840 0.630000
vt 1.753840 0.600000
vt 1.999100 0.600000
vt 3.000000 -0.000000
vt 3.000000 1.125000
vt 2.755260 1.141040
vt 2.514710 1.188890
vt 2.282470 1.267730
vt 2.062500 1.376200
vt 1.858570 1.512460
vt 1.674170 1.674170
vt 1.512460 1.858570
vt 1.376200 2.062500
vt 1.267730 2.282470
vt 1.188890 2.514710
vt 1.141040 2.755260
vt 1.125000 3.000000
vt 0.000000 3.000000
vt -0.000000 0.000000
vt 0.000000 0.000000
vt 3.000000 0.000000
vt 3.000000 0.630000
vt 1.875000 0.630000
vt 1.875000 0.600000
vt 1.875000 0.300000
vt 1.125000 0.300000
vt 1.125000 0.600000
vt 1.125000 0.630000
vt 0.000000 0.630000
vt -0.000000 3.000000
vt -3.000000 3.000000
vt -3.000000 -0.000000
vt 0.000000 0.000000
vt -1.125000 0.600000
vt -1.125000 0.300000
vt -1.875000 0.300000
vt -1.875000 0.600000
vt -1.875000 0.630000
vt -3.000000 0.630000
vt -3.000000 0.000000
vt 0.000000 0.000000
vt 0.000000 0.630000
vt -1.125000 0.630000
vt 2.920000 0.630000
vt 2.674740 0.630000
vt 2.674740 0.600000
vt 2.920000 0.600000
vt 2.479720 0.630000
vt 2.234450 0.630000
vt 2.234450 0.600000
vt 2.479720 0.600000
vt 1.486380 0.630000
vt 1.241120 0.630000
vt 1.241120 0.600000
vt 1.486380 0.600000
vt 0.950329 0.630000
vt 0.705067 0.630000
vt 0.705067 0.600000
vt 0.950329 0.600000
vt 0.400113 0.630000
vt 0.154851 0.630000
vt 0.154851 0.600000
vt 0.400113 0.600000
vt -0.154851 0.630000
vt -0.400113 0.630000
vt -0.400113 0.600000
vt -0.154851 0.600000
vt -0.705067 0.630000
vt -0.950329 0.630000
vt -0.950329 0.600000
vt -0.705067 0.600000
vt -1.241120 0.630000
vt -1.486380 0.630000
vt -1.486380 0.600000
vt -1.241120 0.600000
vt -1.753840 0.630000
vt -1.999100 0.630000
vt -1.999100 0.600000
vt -1.753840 0.600000
vt -2.234450 0.630000
vt -2.479720 0.630000
vt -2.479720 0.600000
vt -2.234450 0.600000
vt -2.674740 0.630000
vt -2.920000 0.630000
vt -2.920000 0.600000
vt -2.674740 0.600000
vt 2.870950 0.630000
vt 2.723790 0.630000
vt 2.723790 0.600000
vt 2.870950 0.600000
vt 3.000000 3.000000
vt 1.875000 3.000000
vt 1.884620 2.853160
vt 1.913330 2.708830
vt 1.960640 2.569480
vt 2.025720 2.437500
vt 2.107480 2.315140
vt 2.204500 2.204500
vt 2.315140 2.107480
vt 2.437500 2.025720
vt 2.569480 1.960640
vt 2.708830 1.913330
vt 2.853160 1.884620
vt 3.000000 1.875000
vt -2.723790 0.630000
vt -2.870950 0.630000
vt -2.870950 0.600000
vt -2.723790 0.600000
vt -2.283510 0.630000
vt -2.430660 0.630000
vt -2.430660 0.600000
vt -2.283510 0.600000
vt -1.802890 0.630000
vt -1.950050 0.630000
vt -1.950050 0.600000
vt -1.802890 0.600000
vt -1.290170 0.630000
vt -1.437330 0.630000
vt -1.437330 0.600000
vt -1.290170 0.600000
vt -0.754120 0.630000
vt -0.901277 0.630000
vt -0.901277 0.600000
vt -0.754120 0.600000
vt -0.203903 0.630000
vt -0.351060 0.630000
vt -0.351060 0.600000
vt -0.203903 0.600000
vt 0.351060 0.630000
vt 0.203903 0.630000
vt 0.203903 0.600000
vt 0.351060 0.600000
vt 0.901277 0.630000
vt 0.754120 0.630000
vt 0.754120 0.600000
vt 0.901277 0.600000
vt 1.437330 0.630000
vt 1.290170 0.630000
vt 1.290170 0.600000
vt 1.437330 0.600000
vt 1.950050 0.630000
vt 1.802890 0.630000
vt 1.802890 0.600000
vt 1.950050 0.600000
vt 2.430660 0.630000
vt 2.283510 0.630000
vt 2.283510 0.600000
vt 2.430660 0.600000
vt -3.000000 0.630000
vt -3.000000 0.000000
vt -0.000000 0.630000
vt 3.000000 0.000000
vt 3.000000 0.630000
vt 1.875000 3.000000
vt 1.125000 3.000000
vt 1.141040 2.755260
vt 1.188890 2.514710
vt 1.267730 2.282470
vt 1.376200 2.062500
vt 1.512460 1.858570
vt 1.674170 1.674170
vt 1.858570 1.512460
vt 2.062500 1.376200
vt 2.282470 1.267730
vt 2.514710 1.188890
vt 2.755260 1.141040
vt 3.000000 1.125000
vt 3.000000 1.875000
vt 2.853160 1.884620
vt 2.708830 1.913330
vt 2.569480 1.960640
vt 2.437500 2.025720
vt 2.315140 2.107480
vt 2.204500 2.204500
vt 2.107480 2.315140
vt 2.025720 2.437500
vt 1.960640 2.569480
vt 1.913330 2.708830
vt 1.884620 2.853160
vn 0.9659 0.0000 -0.2588
vn 0.9239 0.0000 -0.3827
vn -0.0000 1.0000 0.0000
vn 1.0000 -0.0000 0.0000
vn 0.0000 -1.0000 -0.0000
vn 0.0000 0.0000 -1.0000
vn 0.9979 0.0000 -0.0654
vn 0.9914 0.0000 -0.1305
vn 0.8660 0.0000 -0.5000
vn 0.7934 0.0000 -0.6088
vn 0.7071 0.0000 -0.7071
vn 0.6088 0.0000 -0.7934
vn 0.5000 0.0000 -0.8660
vn 0.3827 0.0000 -0.9239
vn 0.2588 0.0000 -0.9659
vn 0.1305 0.0000 -0.9914
vn 0.0654 0.0000 -0.9979
vn -0.0654 0.0000 0.9979
vn -0.1305 0.0000 0.9914
vn -0.9914 0.0000 0.1305
vn -0.9979 0.0000 0.0654
vn -0.9659 0.0000 0.2588
vn -0.9239 0.0000 0.3827
vn -0.8660 0.0000 0.5000
vn -0.7934 0.0000 0.6087
vn -0.7071 0.0000 0.7071
vn -0.6087 0.0000 0.7934
vn -0.5000 0.0000 0.8660
vn -0.3827 0.0000 0.9239
vn -0.2588 0.0000 0.9659
vn -1.0000 0.0000 -0.0000
vn -0.0000 -0.0000 1.0000
usemtl Stone.244
s 1
f 1/1/1 2/2/2 3/3/2 4/4/1
f 5/5/3 6/6/3 7/7/3 8/8/3 9/9/3 10/10/3 11/11/3 12/12/3 13/13/3 14/14/3 2/15/3 1/16/3 15/17/3 16/18/3 17/19/3 18/20/3
f 19/21/4 20/22/4 21/23/4 22/24/4 23/25/4 24/26/4 25/27/4 26/28/4 6/29/4 5/30/4
f 27/31/5 20/32/5 19/33/5 28/34/5
f 29/35/6 30/36/6 31/37/6 32/38/6 33/39/6 21/40/6 20/41/6 27/42/6 17/43/6 16/44/6
f 16/45/7 15/46/8 34/47/8 29/48/7
f 15/49/8 1/50/1 4/51/1 34/52/8
f 2/53/2 14/54/9 35/55/9 3/56/2
f 14/57/9 13/58/10 36/59/10 35/60/9
f 13/61/10 12/62/11 37/63/11 36/64/10
f 12/65/11 11/66/12 38/67/12 37/68/11
f 11/69/12 10/70/13 39/71/13 38/72/12
f 10/73/13 9/74/14 40/75/14 39/76/13
f 9/77/14 8/78/15 41/79/15 40/80/14
f 8/81/15 7/82/16 42/83/16 41/84/15
f 7/85/16 6/86/17 26/87/17 42/88/16
f 22/89/18 54/90/19 43/91/19 23/92/18
f 21/93/3 33/94/3 55/95/3 56/96/3 57/97/3 58/98/3 59/99/3 60/100/3 61/101/3 62/102/3 63/103/3 64/104/3 54/105/3 22/106/3
f 55/107/20 33/108/21 32/109/21 53/110/20
f 56/111/22 55/112/20 53/113/20 52/114/22
f 57/115/23 56/116/22 52/117/22 51/118/23
f 58/119/24 57/120/23 51/121/23 50/122/24
f 59/123/25 58/124/24 50/125/24 49/126/25
f 60/127/26 59/128/25 49/129/25 48/130/26
f 61/131/27 60/132/26 48/133/26 47/134/27
f 62/135/28 61/136/27 47/137/27 46/138/28
f 63/139/29 62/140/28 46/141/28 45/142/29
f 64/143/30 63/144/29 45/145/29 44/146/30
f 54/147/19 64/148/30 44/149/30 43/150/19
f 17/151/31 27/152/31 28/34/31 18/153/31
f 18/153/32 28/34/32 19/154/32 5/155/32
usemtl Asphalt.197
f 32/38/6 31/37/6 30/36/6 29/35/6
f 32/156/3 29/157/3 34/158/3 4/159/3 3/160/3 35/161/3 36/162/3 37/163/3 38/164/3 39/165/3 40/166/3 41/167/3 42/168/3 26/169/3 23/170/3 43/171/3 44/172/3 45/173/3 46/174/3 47/175/3 48/176/3 49/177/3 50/178/3 51/179/3 52/180/3 53/181/3
f 26/28/4 25/27/4 24/26/4 23/25/4
