# Blender v2.79 (sub 0) OBJ File: ''
# www.blender.org
mtllib roadTile_182.mtl
o Mesh1_Group1_Model.181
v 0.000000 0.000000 0.000000
v 0.000000 0.000000 -0.375000
v 0.000000 0.000000 -2.625000
v 0.000000 0.000000 -3.000000
v 3.000000 0.000000 -3.000000
v 3.000000 0.000000 -2.625000
v 3.000000 0.000000 -0.375000
v 3.000000 0.000000 -0.000000
v 0.000000 0.550000 0.000000
v 0.000000 0.550000 -0.375000
v 3.000000 0.550000 0.000000
v 3.000000 0.550000 -0.375000
v 3.000000 0.550000 -2.625000
v 3.000000 1.260000 -2.625000
v 3.000000 1.260000 -2.250000
v 3.000000 0.600000 -2.250000
v 3.000000 0.300000 -2.250000
v 3.000000 0.300000 -0.750000
v 3.000000 0.600000 -0.750000
v 3.000000 1.260000 -0.750000
v 3.000000 1.260000 -0.375000
v 3.000000 0.550000 -3.000000
v 0.000000 0.550000 -3.000000
v 0.000000 0.550000 -2.625000
v 0.000000 1.260000 -0.375000
v 0.000000 1.260000 -0.750000
v 0.000000 0.600000 -0.750000
v 0.000000 0.300000 -0.750000
v 0.000000 0.300000 -2.250000
v 0.000000 0.600000 -2.250000
v 0.000000 1.260000 -2.250000
v 0.000000 1.260000 -2.625000
vt 0.375000 0.000000
vt 2.625000 0.000000
vt 2.625000 0.550000
vt 2.625000 1.260000
vt 2.250000 1.260000
vt 2.250000 0.600000
vt 2.250000 0.300000
vt 0.750000 0.300000
vt 0.750000 0.600000
vt 0.750000 1.260000
vt 0.375000 1.260000
vt 0.375000 0.550000
vt -2.625000 0.000000
vt -0.375000 0.000000
vt -0.375000 0.550000
vt -0.375000 1.260000
vt -0.750000 1.260000
vt -0.750000 0.600000
vt -0.750000 0.300000
vt -2.250000 0.300000
vt -2.250000 0.600000
vt -2.250000 1.260000
vt -2.625000 1.260000
vt -2.625000 0.550000
vt 3.000000 1.260000
vt 0.000000 1.260000
vt 0.000000 0.550000
vt 3.000000 0.550000
vt 0.000000 0.750000
vt 0.000000 0.375000
vt 3.000000 0.375000
vt 3.000000 0.750000
vt -3.000000 0.600000
vt -0.000000 0.600000
vt -0.000000 1.260000
vt -3.000000 1.260000
vt 0.000000 0.600000
vt 3.000000 0.600000
vt 3.000000 1.260000
vt 0.000000 1.260000
vt 3.000000 2.250000
vt 3.000000 2.625000
vt 0.000000 2.625000
vt 0.000000 2.250000
vt -0.000000 1.260000
vt -3.000000 1.260000
vt -3.000000 0.550000
vt -0.000000 0.550000
vt 0.000000 0.000000
vt -0.000000 0.375000
vt -0.000000 2.625000
vt -0.000000 3.000000
vt -3.000000 3.000000
vt -3.000000 2.625000
vt -3.000000 0.375000
vt -3.000000 0.000000
vt 0.000000 0.550000
vt 3.000000 0.000000
vt 3.000000 0.375000
vt 0.000000 0.375000
vt 0.000000 0.000000
vt 0.000000 0.000000
vt 0.000000 0.550000
vt 3.000000 0.550000
vt 3.000000 0.000000
vt 0.000000 3.000000
vt 0.000000 2.625000
vt 3.000000 2.625000
vt 3.000000 3.000000
vt -3.000000 0.000000
vt -3.000000 0.550000
vt -3.000000 0.000000
vt -0.000000 0.000000
vt -0.000000 0.550000
vt -3.000000 0.550000
vt 3.000000 -0.000000
vt 3.000000 0.550000
vt 3.000000 2.250000
vt 0.000000 2.250000
vt 0.000000 0.750000
vt 3.000000 0.750000
vn 1.0000 0.0000 0.0000
vn -1.0000 0.0000 -0.0000
vn 0.0000 -0.0000 1.0000
vn 0.0000 1.0000 0.0000
vn 0.0000 0.0000 -1.0000
vn 0.0000 -1.0000 -0.0000
usemtl Stone.144
s 1
f 7/1/1 6/2/1 13/3/1 14/4/1 15/5/1 16/6/1 17/7/1 18/8/1 19/9/1 20/10/1 21/11/1 12/12/1
f 3/13/2 2/14/2 10/15/2 25/16/2 26/17/2 27/18/2 28/19/2 29/20/2 30/21/2 31/22/2 32/23/2 24/24/2
f 21/25/3 25/26/3 10/27/3 12/28/3
f 26/29/4 25/30/4 21/31/4 20/32/4
f 19/33/5 27/34/5 26/35/5 20/36/5
f 30/37/3 16/38/3 15/39/3 31/40/3
f 15/41/4 14/42/4 32/43/4 31/44/4
f 32/45/5 14/46/5 13/47/5 24/48/5
usemtl Grass.088
f 1/49/6 2/50/6 3/51/6 4/52/6 5/53/6 6/54/6 7/55/6 8/56/6
f 9/57/2 10/15/2 2/14/2 1/49/2
f 11/58/4 12/59/4 10/60/4 9/61/4
f 8/62/1 7/1/1 12/12/1 11/63/1
f 22/64/1 13/3/1 6/2/1 5/65/1
f 23/66/4 24/67/4 13/68/4 22/69/4
f 4/70/2 3/13/2 24/24/2 23/71/2
f 5/72/5 4/73/5 23/74/5 22/75/5
f 1/49/3 8/76/3 11/77/3 9/57/3
usemtl Asphalt.117
f 16/78/4 30/79/4 27/80/4 19/81/4
f 30/21/2 29/20/2 28/19/2 27/18/2
f 19/9/1 18/8/1 17/7/1 16/6/1
