# Blender v2.79 (sub 0) OBJ File: ''
# www.blender.org
mtllib roadTile_048.mtl
o Mesh1_Group1_Model.047
v 2.839190 0.315000 0.000000
v 2.839190 0.600000 0.000000
v 1.097070 0.600000 0.000000
v 1.097070 0.315000 0.000000
v 0.747630 0.550000 0.000000
v 0.747630 0.000000 -0.000000
v 3.000000 0.000000 0.000000
v 3.000000 0.630000 0.000000
v 2.839190 0.630000 0.000000
v 1.097070 0.630000 0.000000
v 0.747630 0.630000 0.000000
v 0.000000 0.550000 0.000000
v 0.000000 0.000000 -0.000000
v 0.563243 0.550000 -0.445149
v 0.424370 0.550000 -1.500000
v 0.563243 0.550000 -2.554850
v 0.747630 0.550000 -3.000000
v 0.000000 0.550000 -3.000000
v 0.563243 0.630000 -0.445149
v 1.097070 0.630000 -3.000000
v 0.747630 0.630000 -3.000000
v 0.563243 0.630000 -2.554850
v 0.424370 0.630000 -1.500000
v 0.877778 0.630000 -0.529429
v 0.750000 0.630000 -1.500000
v 0.877778 0.630000 -2.470570
v 3.000000 0.000000 -3.000000
v 0.747630 0.000000 -3.000000
v 1.097070 0.600001 -3.000000
v 1.097070 0.315000 -3.000000
v 2.839190 0.315000 -3.000000
v 2.839190 0.600001 -3.000000
v 2.839190 0.630000 -3.000000
v 3.000000 0.630000 -3.000000
v 0.000000 0.000000 -3.000000
v 3.000000 0.000000 -2.598840
v 3.000000 0.000000 -0.401164
v 3.000000 0.630000 -2.598840
v 3.000000 0.550000 -2.598840
v 3.000000 0.630000 -0.401164
v 2.876200 0.630000 -0.562500
v 2.688890 0.630000 -1.014710
v 2.625000 0.630000 -1.500000
v 2.688890 0.630000 -1.985290
v 2.876200 0.630000 -2.437500
v 2.551440 0.630000 -2.625000
v 2.326670 0.630000 -2.082340
v 2.250000 0.630000 -1.500000
v 2.326670 0.630000 -0.917657
v 2.551440 0.630000 -0.375000
v 3.000000 0.550000 -0.401164
v 2.876200 0.550000 -2.437500
v 2.688890 0.550000 -1.985290
v 2.625000 0.550000 -1.500000
v 2.688890 0.550000 -1.014710
v 2.876200 0.550000 -0.562500
v 2.551440 0.600000 -2.625000
v 0.877778 0.600000 -2.470570
v 0.750000 0.600000 -1.500000
v 0.877778 0.600000 -0.529429
v 2.551440 0.600000 -0.375000
v 2.326670 0.600000 -0.917657
v 2.250000 0.600000 -1.500000
v 2.326670 0.600000 -2.082340
vt 0.747630 0.000000
vt 3.000000 0.000000
vt 1.097070 0.315000
vt -3.000000 0.000000
vt -1.097070 0.315000
vt -2.839190 0.315000
vt 3.000000 0.630000
vt 2.598840 0.630000
vt 2.598840 0.550000
vt -0.000000 0.000000
vt 0.401164 0.000000
vt 0.401164 0.550000
vt -0.000000 0.630000
vt 3.000000 0.630000
vt 2.839190 0.315000
vt 2.839190 0.630000
vt 2.839190 0.600000
vt 1.097070 0.600000
vt 0.747630 0.550000
vt -0.747630 0.630000
vt -1.097070 0.630000
vt -1.097070 0.600000
vt -0.747630 0.550000
vt 0.877778 0.529429
vt 0.563243 0.445149
vt 0.747630 0.000000
vt 1.097070 0.000000
vt 2.876200 0.562500
vt 2.688890 1.014710
vt 2.326670 0.917657
vt 2.551440 0.375000
vt 3.000000 0.401164
vt 2.839190 0.000000
vt 3.000000 -0.000000
vt 0.750000 1.500000
vt 0.424370 1.500000
vt 0.747630 0.630000
vt 1.097070 0.630000
vt -2.839190 0.630000
vt -3.000000 0.630000
vt -2.839190 0.600000
vt -0.747630 0.000000
vt 0.747630 3.000000
vt 0.563243 2.554850
vt 0.877778 2.470570
vt 1.097070 3.000000
vt 2.326670 2.082340
vt 2.250000 1.500000
vt 2.625000 1.500000
vt 2.688890 1.985290
vt 3.000000 2.598840
vt 3.000000 3.000000
vt 2.839190 3.000000
vt 2.551440 2.625000
vt 2.876200 2.437500
vt 0.401164 0.630000
vt 3.000000 0.000000
vt 2.598840 0.000000
vt 3.888080 0.550000
vt 3.888080 0.630000
vt 3.684720 0.630000
vt 3.684720 0.550000
vt 3.352630 0.550000
vt 3.352630 0.630000
vt 2.863160 0.630000
vt 2.863160 0.550000
vt 2.319270 0.550000
vt 2.319270 0.630000
vt 1.829800 0.630000
vt 1.829800 0.550000
vt 1.144540 0.550000
vt 1.144540 0.630000
vt 0.655063 0.630000
vt 0.655063 0.550000
vt -0.091519 0.550000
vt -0.091519 0.630000
vt -0.580993 0.630000
vt -0.580993 0.550000
vt -1.304660 0.550000
vt -1.304660 0.630000
vt -1.508020 0.630000
vt -1.508020 0.550000
vt -3.635770 0.600000
vt -3.635770 0.630000
vt -4.108450 0.630000
vt -4.108450 0.600000
vt 2.564010 0.600000
vt 2.564010 0.630000
vt 1.585060 0.630000
vt 1.585060 0.600000
vt -0.606115 0.600000
vt -0.606115 0.630000
vt -1.193480 0.630000
vt -1.193480 0.600000
vt 1.389270 0.600000
vt 1.389270 0.630000
vt 0.410326 0.630000
vt 0.410326 0.600000
vt 0.153217 0.600000
vt 0.153217 0.630000
vt -0.419832 0.630000
vt -0.419832 0.600000
vt 1.728390 0.600000
vt 1.728390 0.630000
vt 1.255710 0.630000
vt 1.255710 0.600000
vt 0.629940 0.600000
vt 0.629940 0.630000
vt 0.042572 0.630000
vt 0.042572 0.600000
vt -1.780850 0.600000
vt -1.780850 0.630000
vt -2.368220 0.630000
vt -2.368220 0.600000
vt 0.286106 0.550000
vt 0.286106 0.630000
vt -0.195720 0.630000
vt -0.195720 0.550000
vt -2.814210 0.600000
vt -2.814210 0.630000
vt -3.401580 0.630000
vt -3.401580 0.600000
vt -2.575920 0.550000
vt -2.575920 0.630000
vt -3.057740 0.630000
vt -3.057740 0.550000
vt -1.542560 0.550000
vt -1.542560 0.630000
vt -2.606510 0.630000
vt -2.606510 0.550000
vt 3.191470 0.600000
vt 3.191470 0.630000
vt 2.618420 0.630000
vt 2.618420 0.600000
vt -0.367823 0.550000
vt -0.367823 0.630000
vt -1.431780 0.630000
vt -1.431780 0.550000
vt 0.424370 1.500000
vt 0.563243 2.554850
vt 0.000000 3.000000
vt 3.000000 2.598840
vt 2.625000 1.500000
vt 3.000000 0.401164
vt 0.000000 0.550000
vt -0.000000 0.000000
vt -0.000000 3.000000
vt -0.747630 3.000000
vt -0.747630 0.000000
vt 0.000000 0.000000
vt 0.747630 0.000000
vt 0.563243 0.445149
vt 0.747630 3.000000
vt -3.000000 0.550000
vt -3.000000 -0.000000
vt -3.000000 3.000000
vt -3.000000 2.598840
vt -3.000000 0.401164
vt -3.000000 0.000000
vt -0.000000 0.000000
vt -0.000000 0.550000
vt 2.876200 0.562500
vt 2.688890 1.014710
vt 2.876200 2.437500
vt 2.688890 1.985290
vt 2.326670 2.082340
vt 2.551440 2.625000
vt 1.097070 3.000000
vt 0.877778 2.470570
vt 0.877778 0.529429
vt 2.326670 0.917657
vt 2.250000 1.500000
vt 0.750000 1.500000
vt 2.839190 3.000000
vt 1.097070 0.000000
vt 2.551440 0.375000
vt 2.839190 0.000000
vn -0.0000 -0.0000 1.0000
vn 0.0000 0.0000 -1.0000
vn 1.0000 0.0000 0.0000
vn 0.0000 1.0000 0.0000
vn 0.7934 0.0000 0.6088
vn 0.8660 0.0000 0.5000
vn 0.9659 0.0000 0.2588
vn 0.9659 0.0000 -0.2588
vn 0.8660 0.0000 -0.5000
vn 0.7933 0.0000 -0.6088
vn -0.8660 0.0000 -0.5000
vn -0.7934 0.0000 -0.6088
vn -0.9659 0.0000 0.2588
vn -1.0000 0.0000 -0.0000
vn 0.9239 0.0000 -0.3827
vn -0.7934 0.0000 0.6088
vn -0.8660 0.0000 0.5000
vn -0.9659 0.0000 -0.2588
vn -0.9239 0.0000 0.3827
vn -0.9239 0.0000 -0.3827
vn 0.9239 0.0000 0.3827
vn 0.0000 -1.0000 -0.0000
usemtl Stone.028
s 1
f 6/1/1 7/2/1 4/3/1
f 27/4/2 30/5/2 31/6/2
f 34/7/3 38/8/3 39/9/3
f 7/10/3 37/11/3 51/12/3 8/13/3
f 7/2/1 8/14/1 1/15/1
f 9/16/1 2/17/1 8/14/1
f 3/18/1 5/19/1 4/3/1
f 8/14/1 2/17/1 1/15/1
f 4/3/1 5/19/1 6/1/1
f 7/2/1 1/15/1 4/3/1
f 21/20/2 20/21/2 29/22/2 17/23/2
f 24/24/4 19/25/4 11/26/4 10/27/4
f 41/28/4 42/29/4 49/30/4 50/31/4
f 40/32/4 50/31/4 9/33/4 8/34/4
f 19/25/4 24/24/4 25/35/4 23/36/4
f 11/37/1 5/19/1 3/18/1 10/38/1
f 33/39/2 34/40/2 32/41/2
f 32/41/2 34/40/2 31/6/2
f 28/42/2 17/23/2 30/5/2
f 17/23/2 29/22/2 30/5/2
f 31/6/2 34/40/2 27/4/2
f 28/42/2 30/5/2 27/4/2
f 21/43/4 22/44/4 26/45/4 20/46/4
f 47/47/4 48/48/4 43/49/4 44/50/4
f 38/51/4 34/52/4 33/53/4 46/54/4
f 44/50/4 45/55/4 46/54/4 47/47/4
f 43/49/4 48/48/4 49/30/4 42/29/4
f 45/55/4 38/51/4 46/54/4
f 50/31/4 40/32/4 41/28/4
f 51/12/3 40/56/3 8/13/3
f 27/57/3 34/7/3 39/9/3 36/58/3
f 39/59/5 38/60/5 45/61/6 52/62/6
f 52/63/6 45/64/6 44/65/7 53/66/7
f 53/67/7 44/68/7 43/69/3 54/70/3
f 54/71/3 43/72/3 42/73/8 55/74/8
f 55/75/8 42/76/8 41/77/9 56/78/9
f 56/79/9 41/80/9 40/81/10 51/82/10
f 57/83/11 46/84/11 33/85/12 32/86/12
f 22/44/4 23/36/4 25/35/4 26/45/4
f 58/87/7 26/88/7 25/89/3 59/90/3
f 62/91/13 49/92/13 48/93/14 63/94/14
f 59/95/3 25/96/3 24/97/8 60/98/8
f 60/99/8 24/100/8 10/101/15 3/102/15
f 2/103/16 9/104/16 50/105/17 61/106/17
f 61/107/17 50/108/17 49/109/13 62/110/13
f 63/111/14 48/112/14 47/113/18 64/114/18
f 5/115/19 11/116/19 19/117/13 14/118/13
f 64/119/18 47/120/18 46/121/11 57/122/11
f 16/123/18 22/124/18 21/125/20 17/126/20
f 15/127/14 23/128/14 22/129/18 16/130/18
f 29/131/21 20/132/21 26/133/7 58/134/7
f 14/135/13 19/136/13 23/137/14 15/138/14
usemtl Grass.035
f 15/139/4 16/140/4 18/141/4
f 39/142/4 54/143/4 51/144/4
f 6/1/1 5/19/1 12/145/1 13/146/1
f 35/147/22 28/148/22 6/149/22 13/146/22
f 12/150/4 5/151/4 14/152/4
f 12/150/4 14/152/4 15/139/4
f 16/140/4 17/153/4 18/141/4
f 12/150/4 15/139/4 18/141/4
f 13/146/14 12/145/14 18/154/14 35/155/14
f 28/148/22 27/156/22 36/157/22
f 37/158/22 7/159/22 6/149/22
f 35/160/2 18/161/2 17/23/2 28/42/2
f 37/11/3 36/58/3 39/9/3 51/12/3
f 56/162/4 51/144/4 55/163/4
f 39/142/4 52/164/4 53/165/4
f 53/165/4 54/143/4 39/142/4
f 55/163/4 51/144/4 54/143/4
f 37/158/22 6/149/22 28/148/22 36/157/22
usemtl Asphalt.017
f 64/166/4 57/167/4 29/168/4 58/169/4
f 60/170/4 62/171/4 63/172/4 59/173/4
f 31/6/2 30/5/2 29/22/2 32/41/2
f 57/167/4 32/174/4 29/168/4
f 62/171/4 60/170/4 3/175/4 61/176/4
f 63/172/4 64/166/4 58/169/4 59/173/4
f 3/175/4 2/177/4 61/176/4
f 4/3/1 1/15/1 2/17/1 3/18/1
