# Blender v2.79 (sub 0) OBJ File: ''
# www.blender.org
mtllib roadTile_041.mtl
o Mesh1_Group1_Model.040
v 2.535450 0.630000 -1.564940
v 2.377780 0.630000 -2.029430
v 2.377780 0.600000 -2.029430
v 2.535450 0.600000 -1.564940
v 3.000000 0.630000 -0.754448
v 3.000000 0.630000 -1.468970
v 2.881910 0.630000 -1.708440
v 2.740000 0.630000 -2.126490
v 2.653870 0.630000 -2.559470
v 2.625000 0.630000 -3.000000
v 2.250000 0.630000 -3.000000
v 2.282080 0.630000 -2.510530
v 2.752400 0.630000 -1.125000
v 3.000000 0.600000 -0.754448
v 3.000000 0.300000 -0.754448
v 3.000000 0.300000 0.000000
v 3.000000 0.000000 -0.000000
v 3.000000 0.000000 -1.468970
v 3.000000 0.550000 -1.468970
v 3.000000 0.600000 0.000000
v 1.703930 0.600000 0.000000
v 1.703930 0.300000 0.000000
v 2.752400 0.600000 -1.125000
v 2.282080 0.600000 -2.510530
v 2.250000 0.600001 -3.000000
v 0.750000 0.600001 -3.000000
v 0.794914 0.600000 -2.314740
v 0.928889 0.600000 -1.641200
v 1.149630 0.600000 -0.990912
v 1.453370 0.600000 -0.375000
v 0.750000 0.630000 -3.000000
v 0.750000 0.275000 -3.000000
v 2.250000 0.275000 -3.000000
v 2.625000 0.550000 -3.000000
v 2.625000 0.000000 -3.000000
v 0.375000 0.000000 -3.000000
v 0.375000 0.550000 -3.000000
v 0.375000 0.630000 -3.000000
v 0.794914 0.630000 -2.314740
v 0.423123 0.630000 -2.265790
v 0.566667 0.630000 -1.544140
v 0.803178 0.630000 -0.847406
v 1.128610 0.630000 -0.187500
v 1.253890 0.630000 0.000000
v 1.703930 0.630000 0.000000
v 1.453370 0.630000 -0.375000
v 1.149630 0.630000 -0.990912
v 0.928889 0.630000 -1.641200
v 0.423123 0.550000 -2.265790
v 0.000000 0.550000 0.000000
v 1.253890 0.550000 0.000000
v 1.128610 0.550000 -0.187500
v 0.803178 0.550000 -0.847406
v 0.566667 0.550000 -1.544140
v 0.000000 0.550000 -3.000000
v 0.000000 0.000000 0.000000
v 1.253890 0.000000 -0.000000
v 0.000000 0.000000 -3.000000
v 3.000000 0.000000 -3.000000
v 3.000000 0.550000 -3.000000
v 2.653870 0.550000 -2.559470
v 2.740000 0.550000 -2.126490
v 2.881910 0.550000 -1.708440
vt -2.250000 0.275000
vt -2.625000 -0.000000
vt -0.375000 -0.000000
vt 2.752400 1.125000
vt 3.000000 0.754448
vt 3.000000 1.468970
vt 1.253890 0.000000
vt 1.703930 0.000000
vt 1.453370 0.375000
vt 1.128610 0.187500
vt 2.653870 2.559470
vt 2.625000 3.000000
vt 2.250000 3.000000
vt 2.282080 2.510530
vt 1.149630 0.990912
vt 0.928889 1.641200
vt 0.566667 1.544140
vt 0.803178 0.847406
vt -0.750000 0.600000
vt -0.375000 0.550000
vt -0.375000 0.630000
vt -0.750000 0.630000
vt 1.253890 0.630000
vt 1.253890 0.550000
vt 1.703930 0.600000
vt 1.703930 0.630000
vt 0.754448 0.300000
vt 0.000000 0.300000
vt 0.000000 0.000000
vt 1.468970 0.000000
vt 2.881910 1.708440
vt 2.535450 1.564940
vt -1.526550 0.600000
vt -1.526550 0.630000
vt -2.017080 0.630000
vt -2.017080 0.600000
vt 2.740000 2.126490
vt 2.377780 2.029430
vt 0.375000 3.000000
vt 0.423123 2.265790
vt 0.794914 2.314740
vt 0.750000 3.000000
vt 0.208376 0.600000
vt 0.208376 0.630000
vt -0.282148 0.630000
vt -0.282148 0.600000
vt 1.468970 0.550000
vt 1.468970 0.630000
vt 0.754448 0.630000
vt 0.754448 0.600000
vt -2.355900 0.600000
vt -2.355900 0.630000
vt -2.846420 0.630000
vt -2.846420 0.600000
vt 2.944520 0.600000
vt 2.944520 0.630000
vt 2.257790 0.630000
vt 2.257790 0.600000
vt -2.250000 0.600000
vt -2.250000 0.630000
vt -2.625000 0.630000
vt -2.625000 0.550000
vt -0.750000 0.275000
vt -2.233270 0.550000
vt -2.233270 0.630000
vt -2.969050 0.630000
vt -2.969050 0.550000
vt 1.703930 0.300000
vt 1.253890 0.000000
vt 1.992550 0.550000
vt 1.992550 0.630000
vt 1.551080 0.630000
vt 1.551080 0.550000
vt 1.039410 0.600000
vt 1.039410 0.630000
vt 0.593751 0.630000
vt 0.593751 0.600000
vt 1.132890 0.550000
vt 1.132890 0.630000
vt 0.691418 0.630000
vt 0.691418 0.550000
vt 0.257622 0.550000
vt 0.257622 0.630000
vt -0.009384 0.630000
vt -0.009384 0.550000
vt -0.495646 0.600000
vt -0.495646 0.630000
vt -0.946655 0.630000
vt -0.946655 0.600000
vt 3.000000 0.000000
vt 3.000000 0.300000
vt 0.380253 0.600000
vt 0.380253 0.630000
vt -0.306480 0.630000
vt -0.306480 0.600000
vt 1.255520 0.600000
vt 1.255520 0.630000
vt 0.568787 0.630000
vt 0.568787 0.600000
vt 2.115180 0.600000
vt 2.115180 0.630000
vt 1.428450 0.630000
vt 1.428450 0.600000
vt 0.696624 0.550000
vt 0.696624 0.630000
vt 0.471120 0.630000
vt 0.471120 0.550000
vt 0.331007 0.550000
vt 0.331007 0.630000
vt -0.404779 0.630000
vt -0.404779 0.550000
vt -0.544261 0.550000
vt -0.544261 0.630000
vt -1.280050 0.630000
vt -1.280050 0.550000
vt -1.403920 0.550000
vt -1.403920 0.630000
vt -2.139710 0.630000
vt -2.139710 0.550000
vt 2.821890 0.550000
vt 2.821890 0.630000
vt 2.380420 0.630000
vt 2.380420 0.550000
vt -0.666892 0.600000
vt -0.666892 0.630000
vt -1.157420 0.630000
vt -1.157420 0.600000
vt 0.000000 0.000000
vt 0.566667 1.544140
vt 0.423123 2.265790
vt 2.653870 2.559470
vt 2.740000 2.126490
vt 3.000000 3.000000
vt -0.375000 3.000000
vt -1.253890 0.000000
vt -0.000000 -0.000000
vt 0.000000 3.000000
vt 0.000000 0.550000
vt 1.253890 0.000000
vt 1.128610 0.187500
vt 0.803178 0.847406
vt 0.375000 3.000000
vt 0.000000 3.000000
vt -3.000000 0.550000
vt -3.000000 0.000000
vt -0.000000 -0.000000
vt -0.000000 0.550000
vt -3.000000 0.000000
vt -3.000000 1.468970
vt -2.625000 3.000000
vt -3.000000 3.000000
vt -3.000000 0.550000
vt -3.000000 -0.000000
vt 3.000000 1.468970
vt 2.881910 1.708440
vt 2.625000 3.000000
vt 3.000000 0.000000
vt 3.000000 0.550000
vt 0.000000 0.600000
vt 3.000000 0.600000
vt 3.000000 0.000000
vt 3.000000 0.754448
vt 1.703930 0.000000
vt 2.535450 1.564940
vt 2.377780 2.029430
vt 0.928889 1.641200
vt 1.149630 0.990912
vt 2.752400 1.125000
vt 1.453370 0.375000
vt 0.750000 3.000000
vt 0.794914 2.314740
vt 2.282080 2.510530
vt 2.250000 3.000000
vn -0.0000 0.0000 -1.0000
vn -0.0000 1.0000 0.0000
vn 0.0000 -0.0000 1.0000
vn 1.0000 0.0000 0.0000
vn -0.9659 0.0000 0.2588
vn -0.9914 0.0000 0.1305
vn -0.8660 0.0000 0.5000
vn -0.9239 0.0000 0.3827
vn -0.9979 0.0000 0.0654
vn 0.9979 0.0000 -0.0654
vn 0.9914 0.0000 -0.1305
vn 0.9659 0.0000 -0.2588
vn -0.8315 0.0000 0.5556
vn 0.9239 0.0000 -0.3827
vn 0.8969 0.0000 -0.4423
vn 0.8660 0.0000 -0.5000
vn 0.8315 0.0000 -0.5556
vn 0.0000 -1.0000 -0.0000
vn -1.0000 0.0000 0.0000
usemtl Stone.022
s 1
f 33/1/1 35/2/1 36/3/1
f 13/4/2 5/5/2 6/6/2
f 44/7/2 45/8/2 46/9/2 43/10/2
f 9/11/2 10/12/2 11/13/2 12/14/2
f 47/15/2 48/16/2 41/17/2 42/18/2
f 26/19/1 37/20/1 38/21/1 31/22/1
f 44/23/3 51/24/3 21/25/3 45/26/3
f 15/27/4 16/28/4 17/29/4
f 17/29/4 18/30/4 15/27/4
f 6/6/2 7/31/2 1/32/2 13/4/2
f 3/33/5 2/34/5 12/35/6 24/36/6
f 1/32/2 7/31/2 8/37/2 2/38/2
f 38/39/2 40/40/2 39/41/2 31/42/2
f 48/16/2 39/41/2 40/40/2 41/17/2
f 23/43/7 13/44/7 1/45/8 4/46/8
f 19/47/4 6/48/4 5/49/4 14/50/4
f 24/51/6 12/52/6 11/53/9 25/54/9
f 26/55/10 31/56/10 39/57/11 27/58/11
f 25/59/1 11/60/1 10/61/1 34/62/1
f 34/62/1 35/2/1 33/1/1 25/59/1
f 36/3/1 32/63/1 33/1/1
f 49/64/6 40/65/6 38/66/9 37/67/9
f 12/14/2 2/38/2 8/37/2 9/11/2
f 42/18/2 43/10/2 46/9/2 47/15/2
f 22/68/3 21/25/3 51/24/3 57/69/3
f 19/47/4 14/50/4 15/27/4 18/30/4
f 37/20/1 26/19/1 32/63/1 36/3/1
f 61/70/11 9/71/11 8/72/12 62/73/12
f 14/74/13 5/75/13 13/76/7 23/77/7
f 62/78/12 8/79/12 7/80/14 63/81/14
f 63/82/14 7/83/14 6/84/15 19/85/15
f 30/86/16 46/87/16 45/88/17 21/89/17
f 57/69/3 17/90/3 22/68/3
f 17/90/3 16/91/3 22/68/3
f 29/92/14 47/93/14 46/94/16 30/95/16
f 28/96/12 48/97/12 47/98/14 29/99/14
f 27/100/11 39/101/11 48/102/12 28/103/12
f 51/104/13 44/105/13 43/106/7 52/107/7
f 52/108/7 43/109/7 42/110/8 53/111/8
f 53/112/8 42/113/8 41/114/5 54/115/5
f 54/116/5 41/117/5 40/118/6 49/119/6
f 34/120/10 10/121/10 9/122/11 61/123/11
f 4/124/8 1/125/8 2/126/5 3/127/5
usemtl Grass.028
f 50/128/2 54/129/2 49/130/2
f 61/131/2 62/132/2 60/133/2
f 36/134/18 57/135/18 56/136/18 58/137/18
f 57/69/3 51/24/3 50/138/3 56/136/3
f 50/128/2 51/139/2 52/140/2
f 50/128/2 52/140/2 53/141/2
f 37/142/2 55/143/2 49/130/2
f 49/130/2 55/143/2 50/128/2
f 50/128/2 53/141/2 54/129/2
f 55/144/19 58/145/19 56/136/19 50/138/19
f 58/146/1 55/147/1 37/20/1 36/3/1
f 17/148/18 57/135/18 18/149/18
f 35/150/18 59/151/18 18/149/18
f 60/152/1 59/153/1 35/2/1 34/62/1
f 19/154/2 60/133/2 63/155/2
f 34/156/2 61/131/2 60/133/2
f 62/132/2 63/155/2 60/133/2
f 59/157/4 60/158/4 19/47/4 18/30/4
f 36/134/18 35/150/18 18/149/18 57/135/18
usemtl Asphalt.011
f 14/50/4 20/159/4 16/28/4 15/27/4
f 16/91/3 20/160/3 21/25/3 22/68/3
f 20/161/2 14/162/2 21/163/2
f 4/164/2 3/165/2 28/166/2 29/167/2
f 23/168/2 4/164/2 29/167/2 30/169/2
f 26/170/2 27/171/2 24/172/2 25/173/2
f 3/165/2 24/172/2 27/171/2 28/166/2
f 14/162/2 23/168/2 30/169/2 21/163/2
f 32/63/1 26/19/1 25/59/1 33/1/1
