# Blender v2.79 (sub 0) OBJ File: ''
# www.blender.org
mtllib roadTile_174.mtl
o Mesh1_Group1_Model.173
v 0.000000 0.000000 -0.000000
v 0.750000 0.000000 -0.000000
v 0.750000 0.455000 0.000000
v 0.750000 0.550000 0.000000
v 0.000000 0.550000 0.000000
v 3.000000 0.000000 -3.000000
v 3.000000 0.000000 0.000000
v 0.000000 0.000000 -3.000000
v 0.750000 0.000000 -3.000000
v 3.000000 0.455000 -3.000000
v 3.000000 0.455000 0.000000
v 0.750000 0.455000 -3.000000
v 0.000000 0.550000 -3.000000
v 0.750000 0.550000 -3.000000
vt -0.000000 0.000000
vt 0.750000 0.000000
vt 0.750000 0.455000
vt 0.750000 0.550000
vt 0.000000 0.550000
vt -3.000000 3.000000
vt -3.000000 0.000000
vt -0.750000 0.000000
vt -0.000000 3.000000
vt -0.750000 3.000000
vt -0.750000 0.455000
vt -0.750000 0.000000
vt 0.000000 0.000000
vt 0.000000 0.550000
vt -0.750000 0.550000
vt -3.000000 0.000000
vt -3.000000 0.550000
vt 0.000000 0.000000
vt 0.750000 0.000000
vt 0.750000 3.000000
vt 0.000000 3.000000
vt 3.000000 0.550000
vt 0.000000 0.550000
vt 0.000000 0.455000
vt 3.000000 0.455000
vt 3.000000 0.455000
vt 0.000000 0.455000
vt 0.000000 0.000000
vt 3.000000 0.000000
vt 3.000000 0.000000
vt 3.000000 3.000000
vt 0.750000 3.000000
vt 0.750000 0.000000
vt -3.000000 0.000000
vt -3.000000 0.455000
vt 3.000000 0.000000
vt 3.000000 0.455000
vn -0.0000 -0.0000 1.0000
vn -0.0000 -1.0000 -0.0000
vn 0.0000 0.0000 -1.0000
vn -1.0000 0.0000 -0.0000
vn 0.0000 1.0000 0.0000
vn 1.0000 0.0000 0.0000
usemtl Grass.080
s 1
f 1/1/1 2/2/1 3/3/1 4/4/1 5/5/1
f 6/6/2 7/7/2 2/8/2 1/1/2 8/9/2 9/10/2
f 12/11/3 9/12/3 8/13/3 13/14/3 14/15/3
f 8/16/4 1/1/4 5/5/4 13/17/4
f 5/18/5 4/19/5 14/20/5 13/21/5
f 14/22/6 4/23/6 3/24/6 12/25/6
usemtl Water.012
f 10/26/6 11/27/6 7/28/6 6/29/6
f 11/30/5 10/31/5 12/32/5 3/33/5
f 6/34/3 9/12/3 12/11/3 10/35/3
f 7/36/1 11/37/1 3/3/1 2/2/1
