# Blender v2.79 (sub 0) OBJ File: ''
# www.blender.org
mtllib roadTile_064.mtl
o Mesh1_Group1_Model.063
v 0.000000 0.000000 -0.000000
v 0.000000 0.630000 0.000000
v 0.000000 0.630000 -3.000000
v 0.000000 0.000000 -3.000000
v 3.000000 0.000000 0.000000
v 3.000000 0.630000 0.000000
v 3.000000 0.000000 -3.000000
v 3.000000 0.630000 -3.000000
v 3.000000 0.630000 -1.875000
v 3.000000 0.600000 -1.875000
v 3.000000 0.300000 -1.875000
v 3.000000 0.300000 -1.125000
v 3.000000 0.600000 -1.125000
v 3.000000 0.630000 -1.125000
v 1.125000 0.630000 -1.125000
v 1.125000 0.630000 -1.875000
v 1.125000 0.600000 -1.125000
v 1.125000 0.600000 -1.875000
vt 0.000000 -0.000000
vt 3.000000 -0.000000
vt 1.125000 0.300000
vt 0.000000 3.000000
vt 1.125000 1.125000
vt 1.125000 1.875000
vt 3.000000 0.630000
vt -0.000000 0.630000
vt -0.000000 0.000000
vt 3.000000 0.000000
vt -0.000000 3.000000
vt -3.000000 3.000000
vt -3.000000 0.000000
vt -0.000000 0.630000
vt -3.000000 0.630000
vt -3.000000 0.000000
vt -0.000000 0.000000
vt 0.000000 0.630000
vt 1.125000 0.600000
vt 1.875000 0.630000
vt 1.875000 0.600000
vt 3.000000 0.630000
vt 1.125000 0.630000
vt 1.875000 0.300000
vt 0.000000 0.000000
vt 3.000000 0.000000
vt 3.000000 1.125000
vt 3.000000 1.875000
vt 3.000000 3.000000
vt 3.000000 0.600000
vt 3.000000 0.630000
vt 1.125000 0.630000
vt 1.125000 0.600000
vt -3.000000 0.630000
vt -3.000000 0.600000
vt -1.125000 0.600000
vt -1.125000 0.630000
vt -3.000000 -0.000000
vt -3.000000 0.630000
vt -44.291302 24.803101
vt -73.818901 24.803101
vt -73.818901 23.622000
vt -44.291302 23.622000
vt 3.000000 1.125000
vt 3.000000 1.875000
vt 1.125000 1.875000
vt 1.125000 1.125000
vn 1.0000 -0.0000 0.0000
vn -0.0000 1.0000 0.0000
vn -0.0000 -0.0000 1.0000
vn 0.0000 -1.0000 -0.0000
vn 0.0000 0.0000 -1.0000
vn -1.0000 0.0000 -0.0000
usemtl Stone.044
s 1
f 5/1/1 7/2/1 12/3/1
f 3/4/2 15/5/2 16/6/2
f 6/7/3 2/8/3 1/9/3 5/10/3
f 1/9/4 4/11/4 7/12/4 5/13/4
f 3/14/5 8/15/5 7/16/5 4/17/5
f 6/18/1 5/1/1 12/3/1 13/19/1
f 9/20/1 10/21/1 8/22/1
f 14/23/1 6/18/1 13/19/1
f 7/2/1 11/24/1 12/3/1
f 2/25/2 6/26/2 15/5/2
f 6/26/2 14/27/2 15/5/2
f 9/28/2 8/29/2 16/6/2
f 2/25/2 15/5/2 3/4/2
f 16/6/2 8/29/2 3/4/2
f 10/30/3 9/31/3 16/32/3 18/33/3
f 8/22/1 10/21/1 11/24/1 7/2/1
f 14/34/5 13/35/5 17/36/5 15/37/5
f 4/38/6 1/9/6 2/8/6 3/39/6
usemtl FrontColor.005
f 15/40/6 16/41/6 18/42/6 17/43/6
usemtl Asphalt.033
f 13/44/2 10/45/2 18/46/2 17/47/2
f 10/21/1 13/19/1 12/3/1 11/24/1
