# Blender v2.79 (sub 0) OBJ File: ''
# www.blender.org
mtllib roadTile_087.mtl
o Mesh1_Group1_Model.086
v 0.000000 0.630000 0.000000
v 0.937500 0.630000 0.000000
v 0.937500 0.630000 -0.937500
v 0.000000 0.630000 -0.937500
v 0.000000 0.000000 0.000000
v 3.000000 0.000000 -0.000000
v 3.000000 0.630000 0.000000
v 2.062500 0.630000 0.000000
v 2.062500 0.570000 0.000000
v 1.875000 0.570000 0.000000
v 1.875000 0.630000 0.000000
v 1.125000 0.630000 0.000000
v 1.125000 0.570000 0.000000
v 0.937500 0.570000 0.000000
v 0.000000 0.000000 -3.000000
v 0.000000 0.570000 -0.937500
v 0.000000 0.570000 -1.125000
v 0.000000 0.630000 -1.125000
v 0.000000 0.630000 -1.875000
v 0.000000 0.570000 -1.875000
v 0.000000 0.570000 -2.062500
v 0.000000 0.630000 -2.062500
v 0.000000 0.630000 -3.000000
v 3.000000 0.000000 -3.000000
v 3.000000 0.630000 -3.000000
v 0.937500 0.630000 -3.000000
v 0.937500 0.570000 -3.000000
v 1.125000 0.570000 -3.000000
v 1.125000 0.630000 -3.000000
v 1.875000 0.630000 -3.000000
v 1.875000 0.570000 -3.000000
v 2.062500 0.570000 -3.000000
v 2.062500 0.630000 -3.000000
v 3.000000 0.630000 -2.062500
v 3.000000 0.570000 -2.062500
v 3.000000 0.570000 -1.875000
v 3.000000 0.630000 -1.875000
v 3.000000 0.630000 -1.125000
v 3.000000 0.570000 -1.125000
v 3.000000 0.570000 -0.937500
v 3.000000 0.630000 -0.937500
v 2.062500 0.630000 -2.062500
v 2.062500 0.570000 -2.062500
v 2.062500 0.570000 -0.937500
v 1.875000 0.570000 -1.125000
v 1.875000 0.570000 -0.937500
v 1.125000 0.570000 -1.125000
v 1.125000 0.570000 -0.937500
v 1.125000 0.570000 -1.875000
v 1.125000 0.630000 -1.125000
v 1.125000 0.630000 -1.875000
v 1.875000 0.630000 -1.125000
v 1.875000 0.630000 -1.875000
v 1.875000 0.570000 -1.875000
v 1.875000 0.570000 -2.062500
v 1.125000 0.570000 -2.062500
v 1.125000 0.630000 -2.062500
v 1.875000 0.630000 -2.062500
v 0.937500 0.570000 -1.125000
v 0.937500 0.570000 -0.937500
v 0.937500 0.630000 -1.125000
v 0.937500 0.630000 -1.875000
v 0.937500 0.570000 -1.875000
v 0.937500 0.570000 -2.062500
v 0.937500 0.630000 -2.062500
v 1.125000 0.630000 -0.937500
v 1.875000 0.630000 -0.937500
v 2.062500 0.630000 -0.937500
v 2.062500 0.570000 -1.125000
v 2.062500 0.570000 -1.875000
v 2.062500 0.630000 -1.125000
v 2.062500 0.630000 -1.875000
vt 0.000000 0.000000
vt 1.125000 0.570000
vt 0.937500 0.570000
vt -1.125000 0.570000
vt -1.875000 0.570000
vt -3.000000 0.000000
vt -1.875000 0.570000
vt -2.062500 0.570000
vt 3.000000 -0.000000
vt 1.875000 0.570000
vt 1.125000 0.570000
vt 0.000000 0.937500
vt 0.000000 0.000000
vt 0.937500 0.000000
vt 0.937500 0.937500
vt 1.125000 0.630000
vt 1.875000 0.570000
vt 1.875000 0.630000
vt 3.000000 0.000000
vt -0.000000 0.000000
vt -0.000000 0.630000
vt -0.937500 0.630000
vt -0.937500 0.570000
vt -1.125000 0.630000
vt -1.875000 0.630000
vt 2.062500 0.570000
vt 0.000000 0.630000
vt -0.937500 0.630000
vt -0.937500 0.570000
vt 3.000000 0.630000
vt 2.062500 0.630000
vt 2.062500 0.570000
vt -3.000000 3.000000
vt -3.000000 0.000000
vt 0.000000 3.000000
vt -2.062500 0.570000
vt -3.000000 0.000000
vt -1.875000 0.630000
vt -1.125000 0.570000
vt -1.125000 0.630000
vt 3.000000 0.630000
vt 2.062500 0.630000
vt -2.062500 0.630000
vt -3.000000 0.630000
vt 1.875000 0.630000
vt 1.125000 0.630000
vt 0.937500 0.630000
vt 0.937500 0.570000
vt 0.937500 0.630000
vt -0.000000 0.630000
vt -0.000000 -0.000000
vt 3.000000 2.062500
vt 3.000000 3.000000
vt 2.062500 3.000000
vt 2.062500 2.062500
vt 1.125000 1.875000
vt 1.125000 1.125000
vt 1.875000 1.125000
vt 1.875000 1.875000
vt 1.125000 3.000000
vt 1.125000 2.062500
vt 1.875000 2.062500
vt 1.875000 3.000000
vt 0.000000 1.875000
vt 0.000000 1.125000
vt 0.937500 1.125000
vt 0.937500 1.875000
vt 0.000000 3.000000
vt 0.000000 2.062500
vt 0.937500 2.062500
vt 0.937500 3.000000
vt 1.125000 0.937500
vt 1.125000 0.000000
vt 1.875000 0.000000
vt 1.875000 0.937500
vt -3.000000 0.630000
vt -2.062500 0.630000
vt 3.000000 0.000000
vt 3.000000 0.937500
vt 2.062500 0.937500
vt 2.062500 -0.000000
vt 3.000000 1.125000
vt 3.000000 1.875000
vt 2.062500 1.875000
vt 2.062500 1.125000
vt 2.062500 3.000000
vt 2.062500 0.937500
vt 2.062500 2.062500
vt 2.062500 0.000000
vt 1.875000 1.125000
vt 1.875000 0.000000
vt 1.875000 0.937500
vt 1.125000 2.062500
vt 1.125000 1.875000
vt 1.875000 1.875000
vt 1.875000 2.062500
vt 1.125000 0.937500
vt 1.125000 1.125000
vt 2.062500 1.875000
vt 3.000000 1.875000
vt 3.000000 2.062500
vt 1.125000 3.000000
vt 1.875000 3.000000
vt 1.125000 0.000000
vt 0.937500 1.125000
vt 0.937500 0.000000
vt 0.937500 0.937500
vt 0.937500 2.062500
vt 0.937500 1.875000
vt 0.937500 3.000000
vt 2.062500 1.125000
vt 0.000000 2.062500
vt 0.000000 1.875000
vt 0.000000 0.570000
vt 0.000000 0.630000
vt -0.937500 0.630000
vt -0.937500 0.570000
vt -2.062500 0.570000
vt -2.062500 0.630000
vt -3.000000 0.630000
vt -3.000000 0.570000
vt -1.125000 0.570000
vt -1.125000 0.630000
vt -1.875000 0.630000
vt -1.875000 0.570000
vt 1.875000 0.570000
vt 1.875000 0.630000
vt 1.125000 0.630000
vt 1.125000 0.570000
vt 1.875000 0.570000
vt 1.875000 0.630000
vt 1.125000 0.630000
vt 1.125000 0.570000
vt -2.062500 0.570000
vt -2.062500 0.630000
vt -3.000000 0.630000
vt -3.000000 0.570000
vt 1.875000 0.570000
vt 1.875000 0.630000
vt 1.125000 0.630000
vt 1.125000 0.570000
vt 3.000000 0.570000
vt 3.000000 0.630000
vt 2.062500 0.630000
vt 2.062500 0.570000
vt -0.000000 0.570000
vt -0.000000 0.630000
vt -0.937500 0.630000
vt -0.937500 0.570000
vt 0.937500 0.570000
vt 0.937500 0.630000
vt -0.000000 0.630000
vt -0.000000 0.570000
vt 0.937500 0.570000
vt 0.937500 0.630000
vt 0.000000 0.630000
vt 0.000000 0.570000
vt 1.875000 0.570000
vt 1.875000 0.630000
vt 1.125000 0.630000
vt 1.125000 0.570000
vt -0.000000 0.570000
vt -0.000000 0.630000
vt -0.937500 0.630000
vt -0.937500 0.570000
vt 0.937500 0.570000
vt 0.937500 0.630000
vt 0.000000 0.630000
vt 0.000000 0.570000
vt 3.000000 0.570000
vt 3.000000 0.630000
vt 2.062500 0.630000
vt 2.062500 0.570000
vt 0.000000 0.570000
vt 0.000000 0.630000
vt -0.937500 0.630000
vt -0.937500 0.570000
vt 0.937500 0.570000
vt 0.937500 0.630000
vt -0.000000 0.630000
vt -0.000000 0.570000
vt -1.125000 0.570000
vt -1.125000 0.630000
vt -1.875000 0.630000
vt -1.875000 0.570000
vt -1.125000 0.570000
vt -1.125000 0.630000
vt -1.875000 0.630000
vt -1.875000 0.570000
vt -2.062500 0.570000
vt -2.062500 0.630000
vt -3.000000 0.630000
vt -3.000000 0.570000
vt -1.125000 0.570000
vt -1.125000 0.630000
vt -1.875000 0.630000
vt -1.875000 0.570000
vt -2.062500 0.570000
vt -2.062500 0.630000
vt -3.000000 0.630000
vt -3.000000 0.570000
vt 3.000000 0.570000
vt 3.000000 0.630000
vt 2.062500 0.630000
vt 2.062500 0.570000
vt 3.000000 0.937500
vt 3.000000 1.125000
vt 0.000000 1.125000
vt 0.000000 0.937500
vt 3.000000 0.570000
vt 3.000000 0.630000
vt 2.062500 0.630000
vt 2.062500 0.570000
vn 0.0000 -0.0000 1.0000
vn -1.0000 -0.0000 0.0000
vn 0.0000 0.0000 -1.0000
vn 1.0000 0.0000 0.0000
vn 0.0000 1.0000 0.0000
vn 0.0000 -1.0000 -0.0000
vn -0.5455 0.2728 -0.7924
vn -0.0101 0.2149 -0.9766
vn -0.0001 1.0000 0.0000
vn 0.2208 0.1105 -0.9690
vn -0.0202 0.2163 -0.9761
vn 0.4000 0.2000 -0.8944
vn -0.6112 0.3055 -0.7302
vn 0.5716 0.2858 -0.7692
vn 0.4569 0.2284 -0.8597
vn 0.2133 0.1067 -0.9711
vn -0.6076 0.3038 -0.7338
vn 0.5757 0.2879 -0.7653
usemtl Stone.067
s 1
f 5/1/1 13/2/1 14/3/1
f 5/1/2 17/4/2 20/5/2
f 24/6/3 31/7/3 32/8/3
f 24/9/4 36/10/4 39/11/4
f 4/12/5 1/13/5 2/14/5 3/15/5
f 12/16/1 13/2/1 10/17/1 11/18/1
f 5/1/1 6/19/1 10/17/1
f 15/20/3 23/21/3 26/22/3 27/23/3
f 17/4/2 18/24/2 19/25/2 20/5/2
f 6/19/1 9/26/1 10/17/1
f 5/1/1 10/17/1 13/2/1
f 1/27/2 4/28/2 16/29/2 5/1/2
f 25/30/4 34/31/4 35/32/4 24/9/4
f 24/33/6 6/34/6 5/1/6 15/35/6
f 21/36/2 15/37/2 20/5/2
f 20/5/2 15/37/2 5/1/2
f 5/1/2 16/29/2 17/4/2
f 30/38/3 31/7/3 28/39/3 29/40/3
f 6/19/1 7/41/1 8/42/1 9/26/1
f 24/6/3 15/20/3 28/39/3
f 21/36/2 22/43/2 23/44/2 15/37/2
f 36/10/4 37/45/4 38/46/4 39/11/4
f 15/20/3 27/23/3 28/39/3
f 24/6/3 28/39/3 31/7/3
f 1/27/1 5/1/1 14/3/1 2/47/1
f 40/48/4 41/49/4 7/50/4 6/51/4
f 34/52/5 25/53/5 33/54/5 42/55/5
f 40/48/4 6/51/4 39/11/4
f 39/11/4 6/51/4 24/9/4
f 24/9/4 35/32/4 36/10/4
f 51/56/5 50/57/5 52/58/5 53/59/5
f 29/60/5 57/61/5 58/62/5 30/63/5
f 19/64/5 18/65/5 61/66/5 62/67/5
f 23/68/5 22/69/5 65/70/5 26/71/5
f 66/72/5 12/73/5 11/74/5 67/75/5
f 25/76/3 24/6/3 32/8/3 33/77/3
f 7/78/5 41/79/5 68/80/5 8/81/5
f 38/82/5 37/83/5 72/84/5 71/85/5
usemtl Grey_Asphalt.002
f 32/86/5 44/87/7 43/88/8
f 32/86/5 9/89/5 44/87/7
f 45/90/9 9/89/5 32/86/5
f 45/90/9 10/91/5 9/89/5
f 45/90/9 46/92/10 10/91/5
f 56/93/11 49/94/12 54/95/13 55/96/9
f 48/97/7 47/98/14 49/94/12
f 55/96/9 54/95/13 45/90/9
f 43/88/8 70/99/15 36/100/5 35/101/5
f 56/93/11 48/97/7 49/94/12
f 48/97/7 56/93/11 28/102/5
f 55/96/9 32/86/5 31/103/5
f 32/86/5 55/96/9 45/90/9
f 28/102/5 13/104/5 48/97/7
f 59/105/9 13/104/5 28/102/5
f 59/105/9 14/106/5 13/104/5
f 59/105/9 60/107/16 14/106/5
f 47/98/14 48/97/7 46/92/10 45/90/9
f 64/108/9 63/109/17 59/105/9
f 64/108/9 28/102/5 27/110/5
f 28/102/5 64/108/9 59/105/9
f 44/87/7 69/111/18 70/99/15
f 21/112/5 20/113/5 63/109/17 64/108/9
f 70/99/15 43/88/8 44/87/7
f 9/114/2 8/115/2 68/116/2 44/117/2
f 43/118/2 42/119/2 33/120/2 32/121/2
f 47/122/2 50/123/2 51/124/2 49/125/2
f 45/126/1 52/127/1 50/128/1 47/129/1
f 54/130/4 53/131/4 52/132/4 45/133/4
f 56/134/2 57/135/2 29/136/2 28/137/2
f 55/138/1 58/139/1 57/140/1 56/141/1
f 31/142/4 30/143/4 58/144/4 55/145/4
f 16/146/3 4/147/3 3/148/3 60/149/3
f 60/150/4 3/151/4 2/152/4 14/153/4
f 59/154/1 61/155/1 18/156/1 17/157/1
f 63/158/4 62/159/4 61/160/4 59/161/4
f 20/162/3 19/163/3 62/164/3 63/165/3
f 64/166/1 65/167/1 22/168/1 21/169/1
f 27/170/4 26/171/4 65/172/4 64/173/4
f 13/174/2 12/175/2 66/176/2 48/177/2
f 46/178/4 67/179/4 11/180/4 10/181/4
f 48/182/3 66/183/3 67/184/3 46/185/3
f 49/186/3 51/187/3 53/188/3 54/189/3
f 44/190/3 68/191/3 41/192/3 40/193/3
f 69/194/2 71/195/2 72/196/2 70/197/2
f 70/198/3 72/199/3 37/200/3 36/201/3
f 35/202/1 34/203/1 42/204/1 43/205/1
f 40/206/5 39/207/5 69/111/18 44/87/7
f 17/208/5 16/209/5 60/107/16 59/105/9
f 39/210/1 38/211/1 71/212/1 69/213/1
