# Blender v2.79 (sub 0) OBJ File: ''
# www.blender.org
mtllib roadTile_077.mtl
o Mesh1_Group1_Model.076
v 3.000000 0.630000 -3.000000
v 1.500000 0.630000 -3.000000
v 0.000000 0.630000 -2.625000
v 0.000000 0.630000 -2.250000
v 3.000000 0.630000 -2.250000
v 3.000000 0.000000 -3.000000
v 1.500000 0.000000 -3.000000
v 3.000000 0.000000 -0.000000
v 1.500000 0.000000 0.000000
v 0.000000 0.000000 -0.375000
v 0.000000 0.000000 -2.625000
v 1.500000 0.630000 0.000000
v 3.000000 0.630000 0.000000
v 0.000000 0.630000 -0.375000
v 0.000000 0.630000 -0.750000
v 3.000000 0.630000 -0.750000
v 0.000000 0.600000 -0.750000
v 0.000000 0.300000 -0.750000
v 0.000000 0.300000 -2.250000
v 0.000000 0.600000 -2.250000
v 3.000000 0.600000 -0.750000
v 3.000000 0.600000 -2.250000
v 3.000000 0.300000 -2.250000
v 3.000000 0.300000 -0.750000
vt 1.500000 3.000000
vt 0.000000 2.250000
vt 3.000000 2.250000
vt 1.500000 0.000000
vt 3.000000 0.000000
vt 3.000000 0.750000
vt -2.625000 0.000000
vt -0.375000 0.000000
vt -2.250000 0.300000
vt -0.000000 0.000000
vt 3.000000 0.000000
vt 2.250000 0.300000
vt 3.000000 3.000000
vt -0.000000 2.625000
vt 3.000000 0.630000
vt 1.500000 0.630000
vt 1.500000 0.000000
vt 3.000000 0.000000
vt -0.375000 0.630000
vt -0.750000 0.600000
vt -0.750000 0.300000
vt 1.455210 0.000000
vt 1.455210 0.630000
vt -0.090951 0.630000
vt -0.090951 0.000000
vt -3.000000 0.630000
vt -3.000000 0.600000
vt -0.000000 0.600000
vt -0.000000 0.630000
vt 0.000000 0.750000
vt 0.000000 0.375000
vt -2.625000 0.630000
vt -2.250000 0.600000
vt -0.750000 0.630000
vt -2.250000 0.630000
vt -0.000000 0.630000
vt 0.750000 0.300000
vt 0.750000 0.600000
vt 0.000000 0.630000
vt 0.000000 0.600000
vt 3.000000 0.600000
vt 3.000000 0.630000
vt 0.750000 0.630000
vt 0.000000 2.625000
vt -1.500000 3.000000
vt -1.500000 0.000000
vt -0.000000 0.375000
vt 2.250000 0.630000
vt 2.250000 0.600000
vt 3.000000 0.630000
vt -3.000000 0.630000
vt -3.000000 0.000000
vt -1.500000 0.000000
vt -1.500000 0.630000
vt -3.000000 3.000000
vt -3.000000 0.000000
vt -0.636656 0.000000
vt -0.636656 0.630000
vt -2.182820 0.630000
vt -2.182820 0.000000
vt 3.000000 0.750000
vt 3.000000 2.250000
vt 0.000000 2.250000
vt 0.000000 0.750000
vn 0.0000 1.0000 0.0000
vn -1.0000 0.0000 0.0000
vn 1.0000 -0.0000 0.0000
vn 0.0000 -0.0000 1.0000
vn -0.1222 -0.0000 0.9925
vn -0.2425 -0.0000 0.9701
vn 0.0000 0.0000 -1.0000
vn -0.0000 -1.0000 -0.0000
vn -0.1222 0.0000 -0.9925
vn -0.2425 0.0000 -0.9701
usemtl Stone.057
s 1
f 2/1/1 4/2/1 5/3/1
f 12/4/1 13/5/1 16/6/1
f 11/7/2 10/8/2 19/9/2
f 8/10/3 6/11/3 23/12/3
f 5/3/1 1/13/1 2/1/1
f 2/1/1 3/14/1 4/2/1
f 13/15/4 12/16/5 9/17/5 8/18/4
f 14/19/2 17/20/2 18/21/2 10/8/2
f 9/22/5 12/23/5 14/24/6 10/25/6
f 16/26/7 21/27/7 17/28/7 15/29/7
f 16/6/1 15/30/1 12/4/1
f 14/31/1 12/4/1 15/30/1
f 3/32/2 11/7/2 19/9/2 20/33/2
f 15/34/2 17/20/2 14/19/2
f 4/35/2 3/32/2 20/33/2
f 10/8/2 18/21/2 19/9/2
f 13/36/3 8/10/3 24/37/3 21/38/3
f 4/39/4 20/40/4 22/41/4 5/42/4
f 16/43/3 13/36/3 21/38/3
f 11/44/8 7/45/8 9/46/8 10/47/8
f 5/48/3 22/49/3 1/50/3
f 1/50/3 22/49/3 23/12/3 6/11/3
f 23/12/3 24/37/3 8/10/3
f 1/51/7 6/52/7 7/53/9 2/54/9
f 9/46/8 7/45/8 6/55/8 8/56/8
f 11/57/10 3/58/10 2/59/9 7/60/9
usemtl Asphalt.046
f 21/61/1 22/62/1 20/63/1 17/64/1
f 22/49/3 21/38/3 24/37/3 23/12/3
f 17/20/2 20/33/2 19/9/2 18/21/2
