# Blender v2.79 (sub 0) OBJ File: ''
# www.blender.org
mtllib roadTile_071.mtl
o Mesh1_Group1_Model.070
v 3.000000 0.600001 -3.000000
v 0.750000 0.600001 -3.000000
v 0.750000 0.600000 -2.250000
v 0.000000 0.600000 -2.250000
v 0.000000 0.600000 0.000000
v 3.000000 0.600000 0.000000
v 3.000000 0.300000 -3.000000
v 0.750000 0.300000 -3.000000
v 3.000000 0.000000 -3.000000
v 0.000000 0.000000 -3.000000
v 0.000000 0.630000 -3.000000
v 0.750000 0.630000 -3.000000
v 3.000000 0.300000 0.000000
v 3.000000 0.000000 0.000000
v 0.000000 0.300000 0.000000
v 0.000000 0.300000 -2.250000
v 0.000000 0.000000 -0.000000
v 0.000000 0.630000 -2.250000
v 0.750000 0.630000 -2.250000
vt 0.000000 0.000000
vt 3.000000 0.000000
vt 3.000000 0.300000
vt 0.000000 0.300000
vt -0.750000 0.630000
vt -0.750000 0.600000
vt 0.000000 0.630000
vt -0.750000 0.300000
vt -3.000000 0.300000
vt -3.000000 0.000000
vt -3.000000 0.000000
vt -2.250000 0.300000
vt -2.250000 0.600000
vt -3.000000 0.630000
vt 0.000000 0.000000
vt -0.000000 3.000000
vt -3.000000 3.000000
vt -3.000000 0.000000
vt -0.000000 0.000000
vt -2.250000 0.630000
vt -0.000000 0.300000
vt 3.000000 0.000000
vt 3.000000 0.300000
vt -0.000000 0.630000
vt -0.000000 0.600000
vt 0.750000 0.600000
vt 0.750000 0.630000
vt 2.250000 0.630000
vt 2.250000 0.600000
vt 3.000000 0.600000
vt 3.000000 0.630000
vt 0.750000 3.000000
vt 0.000000 3.000000
vt 0.000000 2.250000
vt 0.750000 2.250000
vt 0.750000 2.250000
vt 0.000000 2.250000
vt 0.000000 0.000000
vt 3.000000 3.000000
vt 0.750000 3.000000
vt 3.000000 0.600000
vt 0.000000 0.600000
vt 3.000000 0.600000
vt 0.000000 0.600000
vt 3.000000 0.000000
vt -3.000000 0.600000
vn 1.0000 0.0000 0.0000
vn 0.0000 0.0000 -1.0000
vn -1.0000 0.0000 -0.0000
vn -0.0000 -1.0000 -0.0000
vn -0.0000 -0.0000 1.0000
vn 0.0000 1.0000 0.0000
usemtl Stone.051
s 1
f 14/1/1 9/2/1 7/3/1 13/4/1
f 12/5/2 2/6/2 11/7/2
f 8/8/2 7/9/2 9/10/2
f 10/11/3 16/12/3 4/13/3 11/14/3
f 8/8/2 9/10/2 10/15/2
f 11/7/2 2/6/2 8/8/2 10/15/2
f 10/16/4 9/17/4 14/18/4 17/19/4
f 18/20/3 11/14/3 4/13/3
f 10/11/3 17/19/3 16/12/3
f 17/19/3 15/21/3 16/12/3
f 14/22/5 13/23/5 15/21/5 17/19/5
f 18/24/5 4/25/5 3/26/5 19/27/5
f 19/28/1 3/29/1 2/30/1 12/31/1
f 12/32/6 11/33/6 18/34/6 19/35/6
usemtl Asphalt.040
f 3/36/6 4/37/6 5/38/6
f 1/39/6 2/40/6 3/36/6
f 1/41/1 6/42/1 13/4/1 7/3/1
f 6/43/5 5/44/5 15/21/5 13/23/5
f 3/36/6 5/38/6 6/45/6 1/39/6
f 1/46/2 7/9/2 8/8/2 2/6/2
f 15/21/3 5/44/3 4/13/3 16/12/3
