# Blender v2.79 (sub 0) OBJ File: ''
# www.blender.org
mtllib roadTile_188.mtl
o Mesh1_Group1_Model.187
v 3.000000 0.550000 -2.250000
v 2.625000 0.550000 -2.250000
v 2.625000 0.455000 -2.250000
v 3.000000 0.455000 -2.250000
v 3.000000 0.550000 -3.000000
v 2.625000 0.550000 -3.000000
v 3.000000 0.000000 -3.000000
v 2.625000 0.000000 -3.000000
v 3.000000 0.000000 -0.000000
v 2.625000 0.000000 -0.000000
v 3.000000 0.000000 -2.250000
v 3.000000 0.000000 -0.750000
v 3.000000 0.550000 0.000000
v 2.625000 0.550000 0.000000
v 3.000000 0.550000 -0.750000
v 2.625000 0.550000 -0.750000
v 3.000000 0.455000 -0.750000
v 2.625000 0.455000 -0.750000
v 2.625000 0.630000 0.000000
v 2.625000 0.630000 -3.000000
v 2.250000 0.630000 0.000000
v 2.250000 0.600000 0.000000
v 2.250000 0.300000 0.000000
v 0.750000 0.300000 0.000000
v 0.750000 0.600000 0.000000
v 0.750000 0.630000 0.000000
v 0.375000 0.630000 0.000000
v 0.375000 0.550000 0.000000
v 0.375000 0.000000 -0.000000
v 0.375000 0.000000 -3.000000
v 0.375000 0.550000 -3.000000
v 0.375000 0.630000 -3.000000
v 0.750000 0.630000 -3.000000
v 0.750000 0.600001 -3.000000
v 0.750000 0.300000 -3.000000
v 2.250000 0.300000 -3.000000
v 2.250000 0.600001 -3.000000
v 2.250000 0.630000 -3.000000
v 0.375000 0.550000 -0.750000
v 0.375000 0.455000 -0.750000
v 0.375000 0.455000 -2.250000
v 0.375000 0.550000 -2.250000
v 0.000000 0.000000 0.000000
v 0.000000 0.550000 0.000000
v 0.000000 0.000000 -3.000000
v 0.000000 0.000000 -0.750000
v 0.000000 0.000000 -2.250000
v 0.000000 0.550000 -3.000000
v 0.000000 0.550000 -2.250000
v 0.000000 0.455000 -2.250000
v 0.000000 0.455000 -0.750000
v 0.000000 0.550000 -0.750000
vt -0.000000 0.630000
vt -0.000000 0.550000
vt 0.750000 0.550000
vt 0.750000 0.455000
vt 2.250000 0.455000
vt 2.250000 0.550000
vt 3.000000 0.550000
vt 3.000000 0.630000
vt 2.625000 0.000000
vt 2.625000 0.550000
vt 2.625000 0.630000
vt 2.250000 0.630000
vt 2.250000 0.600000
vt 2.250000 0.300000
vt 0.750000 0.300000
vt 0.750000 0.600000
vt 0.750000 0.630000
vt 0.375000 0.630000
vt 0.375000 0.550000
vt 0.375000 0.000000
vt 3.000000 0.000000
vt -0.000000 0.000000
vt -0.375000 0.000000
vt -0.375000 0.550000
vt -0.375000 0.630000
vt -0.750000 0.630000
vt -0.750000 0.600000
vt -0.750000 0.300000
vt -2.250000 0.300000
vt -2.250000 0.600000
vt -2.250000 0.630000
vt -2.625000 0.630000
vt -2.625000 0.550000
vt -2.625000 0.000000
vt 0.000000 0.000000
vt 0.000000 0.550000
vt -0.750000 0.550000
vt -0.750000 0.455000
vt -2.250000 0.455000
vt -2.250000 0.550000
vt -3.000000 0.550000
vt -3.000000 0.000000
vt -3.000000 0.630000
vt 0.000000 0.630000
vt 0.750000 3.000000
vt 0.375000 3.000000
vt 0.375000 0.000000
vt 0.750000 0.000000
vt -0.000000 0.600000
vt 3.000000 0.600000
vt 3.000000 0.630000
vt -0.000000 0.630000
vt -3.000000 0.600000
vt 0.000000 0.600000
vt 0.000000 0.630000
vt -3.000000 0.630000
vt 2.250000 0.000000
vt 2.625000 0.000000
vt 2.625000 3.000000
vt 2.250000 3.000000
vt -2.625000 0.000000
vt -0.375000 0.000000
vt -0.375000 3.000000
vt -2.625000 3.000000
vt 3.000000 0.550000
vt 2.625000 0.550000
vt 2.625000 0.455000
vt 3.000000 0.455000
vt 3.000000 3.000000
vt 2.625000 3.000000
vt 2.625000 2.250000
vt 3.000000 2.250000
vt -3.000000 -0.000000
vt -3.000000 0.550000
vt -3.000000 0.000000
vt -3.000000 3.000000
vt -3.000000 2.250000
vt -3.000000 0.750000
vt 3.000000 0.550000
vt 3.000000 0.000000
vt 3.000000 0.750000
vt 2.625000 0.750000
vt 2.625000 0.000000
vt 3.000000 0.000000
vt -3.000000 0.455000
vt -2.625000 0.455000
vt -2.625000 0.550000
vt -3.000000 0.550000
vt 0.000000 0.000000
vt 0.000000 0.550000
vt -0.000000 3.000000
vt -0.000000 0.750000
vt -0.000000 2.250000
vt -0.000000 0.550000
vt -0.000000 0.000000
vt 0.000000 2.250000
vt 0.375000 2.250000
vt 0.375000 3.000000
vt -0.000000 3.000000
vt 0.000000 0.455000
vt 0.375000 0.455000
vt 0.375000 0.550000
vt 0.000000 0.550000
vt -0.000000 0.550000
vt -0.375000 0.550000
vt -0.375000 0.455000
vt -0.000000 0.455000
vt 0.000000 -0.000000
vt 0.375000 0.000000
vt 0.375000 0.750000
vt 0.000000 0.750000
vt -0.750000 0.550000
vt -0.750000 0.455000
vt -0.750000 0.000000
vt -3.000000 0.000000
vt -2.250000 0.000000
vt -2.250000 0.455000
vt -2.250000 0.550000
vt -3.000000 0.550000
vt 2.250000 0.550000
vt 2.250000 0.455000
vt 2.250000 0.000000
vt 3.000000 0.000000
vt 3.000000 0.550000
vt -0.000000 0.000000
vt 0.750000 0.000000
vt 0.750000 0.455000
vt 0.750000 0.550000
vt -0.000000 0.550000
vt 3.000000 2.250000
vt 2.625000 2.250000
vt 2.625000 0.750000
vt 3.000000 0.750000
vt 0.000000 0.750000
vt 0.375000 0.750000
vt 0.375000 2.250000
vt 0.000000 2.250000
vt 0.750000 3.000000
vt 0.750000 0.000000
vt 2.250000 0.000000
vt 2.250000 3.000000
vn 1.0000 0.0000 0.0000
vn 0.0000 -0.0000 1.0000
vn 0.0000 0.0000 -1.0000
vn -1.0000 0.0000 0.0000
vn 0.0000 1.0000 0.0000
vn 0.0000 -1.0000 -0.0000
usemtl Stone.148
s 1
f 19/1/1 14/2/1 16/3/1 18/4/1 3/5/1 2/6/1 6/7/1 20/8/1
f 10/9/2 14/10/2 19/11/2 21/12/2 22/13/2 23/14/2 24/15/2 25/16/2 26/17/2 27/18/2 28/19/2 29/20/2
f 8/21/1 6/7/1 2/6/1 3/5/1 18/4/1 16/3/1 14/2/1 10/22/1
f 30/23/3 31/24/3 32/25/3 33/26/3 34/27/3 35/28/3 36/29/3 37/30/3 38/31/3 20/32/3 6/33/3 8/34/3
f 29/35/4 28/36/4 39/37/4 40/38/4 41/39/4 42/40/4 31/41/4 30/42/4
f 32/43/4 31/41/4 42/40/4 41/39/4 40/38/4 39/37/4 28/36/4 27/44/4
f 33/45/5 32/46/5 27/47/5 26/48/5
f 25/49/1 34/50/1 33/51/1 26/52/1
f 37/53/4 22/54/4 21/55/4 38/56/4
f 21/57/5 19/58/5 20/59/5 38/60/5
f 10/61/6 29/62/6 30/63/6 8/64/6
usemtl Grass.094
f 1/65/2 2/66/2 3/67/2 4/68/2
f 5/69/5 6/70/5 2/71/5 1/72/5
f 7/73/3 8/34/3 6/33/3 5/74/3
f 9/75/6 10/61/6 8/64/6 7/76/6 11/77/6 12/78/6
f 13/79/2 14/10/2 10/9/2 9/80/2
f 15/81/5 16/82/5 14/83/5 13/84/5
f 17/85/3 18/86/3 16/87/3 15/88/3
f 43/89/2 29/20/2 28/19/2 44/90/2
f 45/91/6 30/63/6 29/62/6 43/89/6 46/92/6 47/93/6
f 48/94/3 31/24/3 30/23/3 45/95/3
f 49/96/5 42/97/5 31/98/5 48/99/5
f 50/100/2 41/101/2 42/102/2 49/103/2
f 52/104/3 39/105/3 40/106/3 51/107/3
f 44/108/5 28/109/5 39/110/5 52/111/5
f 52/112/4 51/113/4 46/114/4 43/89/4 44/90/4
f 45/115/4 47/116/4 50/117/4 49/118/4 48/119/4
f 1/120/1 4/121/1 11/122/1 7/123/1 5/124/1
f 9/125/1 12/126/1 17/127/1 15/128/1 13/129/1
usemtl Water.020
f 4/130/5 3/131/5 18/132/5 17/133/5
f 51/134/5 40/135/5 41/136/5 50/137/5
f 47/116/4 46/114/4 51/113/4 50/117/4
f 12/126/1 11/122/1 4/121/1 17/127/1
usemtl Asphalt.121
f 34/138/5 25/139/5 22/140/5 37/141/5
f 24/15/2 23/14/2 22/13/2 25/16/2
f 36/29/3 35/28/3 34/27/3 37/30/3
