# Blender v2.79 (sub 0) OBJ File: ''
# www.blender.org
mtllib roadTile_254.mtl
o Mesh1_Group1_Model.253
v 0.000000 1.700000 -1.875000
v 0.000000 1.400000 -1.875000
v 0.000000 1.400000 -0.375000
v 0.000000 1.700000 -0.375000
v 0.000000 1.730000 -2.250000
v 0.000000 1.100000 -2.250000
v 0.000000 1.100000 -1.875000
v 0.000000 1.100000 -0.375000
v 0.000000 1.100000 0.000000
v 0.000000 1.730000 0.000000
v 0.000000 1.730000 -0.375000
v 0.000000 1.730000 -1.875000
v 3.000000 1.730000 -2.250000
v 3.000000 0.000000 -2.250000
v 3.000000 1.730000 -1.875000
v 3.000000 0.000000 -1.875000
v 3.000000 1.700000 -1.875000
v 3.000000 1.400000 -1.875000
v 3.000000 1.400000 -0.375000
v 3.000000 1.700000 -0.375000
v 3.000000 1.730000 -0.375000
v 3.000000 1.730000 0.000000
v 3.000000 0.000000 -0.000000
v 3.000000 0.000000 -0.375000
v 3.000000 1.100000 -0.375000
v 3.000000 1.100000 -1.875000
vt -2.250000 1.730000
vt -2.250000 1.100000
vt -1.875000 1.100000
vt -0.375000 1.100000
vt 0.000000 1.100000
vt -0.000000 1.730000
vt -0.375000 1.730000
vt -0.375000 1.700000
vt -0.375000 1.400000
vt -1.875000 1.400000
vt -1.875000 1.700000
vt -1.875000 1.730000
vt -0.000000 1.730000
vt -3.000000 1.730000
vt -3.000000 0.000000
vt -0.000000 1.100000
vt 3.000000 1.875000
vt 3.000000 2.250000
vt 0.000000 2.250000
vt 0.000000 1.875000
vt 1.875000 -0.000000
vt 2.250000 -0.000000
vt 2.250000 1.730000
vt 1.875000 1.730000
vt 1.875000 1.700000
vt 1.875000 1.400000
vt 0.375000 1.400000
vt 0.375000 1.700000
vt 0.375000 1.730000
vt 0.000000 1.730000
vt 0.000000 -0.000000
vt 0.375000 -0.000000
vt 0.375000 1.100000
vt 1.875000 1.100000
vt -1.875000 0.378680
vt -2.250000 0.378680
vt -2.250000 -2.816630
vt -1.875000 -2.816630
vt 0.000000 1.100000
vt 3.000000 0.000000
vt 3.000000 1.100000
vt -3.000000 0.375000
vt -0.000000 0.375000
vt -0.000000 1.875000
vt -3.000000 1.875000
vt -3.000000 0.000000
vt -0.000000 1.100000
vt -3.000000 1.100000
vt -0.375000 -2.816630
vt -0.000000 -2.816630
vt -0.000000 0.378680
vt -0.375000 0.378680
vt 0.000000 0.375000
vt 0.000000 0.000000
vt 3.000000 0.000000
vt 3.000000 0.375000
vt -3.000000 1.700000
vt -0.000000 1.700000
vt -0.000000 1.730000
vt -3.000000 1.730000
vt 0.000000 1.700000
vt 3.000000 1.700000
vt 3.000000 1.730000
vt 0.000000 1.730000
vt 118.110001 68.110199
vt 0.000000 68.110199
vt 0.000000 43.307098
vt 118.110001 0.000000
vt 3.000000 1.875000
vt 0.000000 1.875000
vt 0.000000 0.375000
vt 3.000000 0.375000
vn -1.0000 0.0000 -0.0000
vn 0.0000 0.0000 -1.0000
vn 0.0000 1.0000 0.0000
vn 1.0000 0.0000 0.0000
vn -0.3443 -0.9389 0.0000
vn 0.0000 -0.0000 1.0000
vn 0.0000 -1.0000 -0.0000
usemtl Stone.210
s 1
f 5/1/1 6/2/1 7/3/1 8/4/1 9/5/1 10/6/1 11/7/1 4/8/1 3/9/1 2/10/1 1/11/1 12/12/1
f 5/13/2 13/14/2 14/15/2 6/16/2
f 15/17/3 13/18/3 5/19/3 12/20/3
f 16/21/4 14/22/4 13/23/4 15/24/4 17/25/4 18/26/4 19/27/4 20/28/4 21/29/4 22/30/4 23/31/4 24/32/4 25/33/4 26/34/4
f 7/35/5 6/36/5 14/37/5 16/38/5
f 7/39/6 16/40/6 26/41/6
f 25/42/7 8/43/7 7/44/7 26/45/7
f 24/46/2 8/47/2 25/48/2
f 24/49/5 23/50/5 9/51/5 8/52/5
f 11/53/3 10/54/3 22/55/3 21/56/3
f 20/57/2 4/58/2 11/59/2 21/60/2
f 1/61/6 17/62/6 15/63/6 12/64/6
usemtl FrontColor.011
f 22/65/6 10/66/6 9/67/6 23/68/6
usemtl Asphalt.171
f 1/11/1 2/10/1 3/9/1 4/8/1
f 17/69/3 1/70/3 4/71/3 20/72/3
f 20/28/4 19/27/4 18/26/4 17/25/4
