# Blender v2.79 (sub 0) OBJ File: ''
# www.blender.org
mtllib roadTile_045.mtl
o Mesh1_Group1_Model.044
v 0.750000 1.730000 -0.750000
v 0.750000 0.600000 -0.750000
v 0.750000 0.600001 -3.000000
v 0.750000 1.730000 -3.000000
v 3.000000 0.600000 -0.750000
v 3.000000 1.730000 -0.750000
v 3.000000 0.600001 -3.000000
v 3.000000 0.300000 -3.000000
v 0.750000 0.300000 -3.000000
v 3.000000 0.300000 -0.750000
v 3.000000 1.730000 -0.375000
v 3.000000 1.650000 -0.375000
v 3.000000 0.000000 -0.375000
v 3.000000 0.000000 -3.000000
v 0.375000 1.730000 -3.000000
v 0.375000 1.730000 -0.375000
v 0.375000 0.000000 -3.000000
v 0.375000 1.650000 -3.000000
v 3.000000 0.000000 0.000000
v 0.000000 0.000000 -0.000000
v 0.000000 0.000000 -3.000000
v 3.000000 1.650000 0.000000
v 0.375000 1.650000 -0.375000
v 0.000000 1.650000 -3.000000
v 0.000000 1.650000 0.000000
vt 0.375000 0.000000
vt 3.000000 0.000000
vt 0.750000 0.300000
vt 3.000000 0.375000
vt 3.000000 0.750000
vt 0.750000 0.750000
vt -0.375000 0.000000
vt -0.750000 0.600000
vt -0.750000 0.300000
vt -3.000000 1.730000
vt -3.000000 0.600000
vt -0.750000 0.600000
vt -0.750000 1.730000
vt 0.750000 0.600000
vt 0.750000 1.730000
vt 0.375000 1.650000
vt 0.375000 1.730000
vt 3.000000 0.300000
vt 0.750000 3.000000
vt 0.375000 3.000000
vt 0.375000 0.375000
vt -3.000000 0.300000
vt -3.000000 0.000000
vt -0.375000 1.650000
vt -0.375000 1.730000
vt -0.750000 1.730000
vt 3.000000 1.650000
vt 3.000000 1.730000
vt 0.375000 1.730000
vt 0.375000 1.650000
vt -0.375000 1.650000
vt -0.375000 1.730000
vt -3.000000 1.730000
vt -3.000000 1.650000
vt 3.000000 1.730000
vt 0.750000 1.730000
vt 0.750000 0.600000
vt 3.000000 0.600000
vt -0.000000 0.000000
vt -0.000000 3.000000
vt -0.375000 3.000000
vt 0.375000 0.375000
vt 0.000000 3.000000
vt 0.000000 0.000000
vt 3.000000 1.650000
vt -0.000000 1.650000
vt 3.000000 0.000000
vt -3.000000 -0.000000
vt -3.000000 0.375000
vt 3.000000 0.000000
vt 3.000000 0.375000
vt 0.375000 3.000000
vt -3.000000 0.000000
vt -3.000000 1.650000
vt -3.000000 3.000000
vt 0.000000 1.650000
vt 0.000000 0.000000
vt -0.000000 0.000000
vt -0.000000 1.650000
vt 3.000000 0.750000
vt 3.000000 3.000000
vt 0.750000 3.000000
vt 0.750000 0.750000
vt -3.000000 0.600000
vt 3.000000 0.600000
vn 1.0000 -0.0000 0.0000
vn 0.0000 1.0000 0.0000
vn -0.0000 0.0000 -1.0000
vn 0.0000 0.0000 1.0000
vn -1.0000 0.0000 0.0000
vn 0.0000 -1.0000 -0.0000
usemtl Stone.025
s 1
f 13/1/1 14/2/1 10/3/1
f 11/4/2 6/5/2 1/6/2
f 17/7/3 3/8/3 9/9/3
f 6/10/3 5/11/3 2/12/3 1/13/3
f 5/14/1 6/15/1 12/16/1
f 11/17/1 12/16/1 6/15/1
f 10/3/1 5/14/1 13/1/1
f 14/2/1 8/18/1 10/3/1
f 5/14/1 12/16/1 13/1/1
f 1/6/2 4/19/2 15/20/2
f 16/21/2 11/4/2 1/6/2
f 1/6/2 15/20/2 16/21/2
f 8/22/3 14/23/3 9/9/3
f 18/24/3 15/25/3 4/26/3
f 9/9/3 14/23/3 17/7/3
f 4/26/3 3/8/3 18/24/3
f 17/7/3 18/24/3 3/8/3
f 12/27/4 11/28/4 16/29/4 23/30/4
f 23/31/5 16/32/5 15/33/5 18/34/5
f 4/35/1 1/36/1 2/37/1 3/38/1
usemtl Grass.032
f 20/39/6 21/40/6 17/41/6
f 23/42/2 24/43/2 25/44/2
f 22/45/4 25/46/4 20/39/4 19/47/4
f 19/48/6 20/39/6 13/49/6
f 22/50/2 12/51/2 23/42/2
f 23/42/2 18/52/2 24/43/2
f 25/44/2 22/50/2 23/42/2
f 21/53/5 20/39/5 25/46/5 24/54/5
f 13/49/6 20/39/6 17/41/6 14/55/6
f 22/56/1 19/57/1 13/1/1 12/16/1
f 21/58/3 24/59/3 18/24/3 17/7/3
usemtl Asphalt.014
f 5/60/2 7/61/2 3/62/2 2/63/2
f 3/8/3 7/64/3 8/22/3 9/9/3
f 7/65/1 5/14/1 10/3/1 8/18/1
