# Blender v2.79 (sub 0) OBJ File: ''
# www.blender.org
mtllib roadTile_179.mtl
o Mesh1_Group1_Model.178
v 3.000000 1.650000 0.000000
v 3.000000 1.650000 -0.375000
v 0.000000 1.650000 -0.375000
v 0.000000 1.650000 0.000000
v 3.000000 0.000000 -0.000000
v 3.000000 0.000000 -0.375000
v 0.000000 0.000000 0.000000
v 0.000000 0.000000 -0.375000
v 0.000000 0.000000 -2.625000
v 0.000000 0.000000 -3.000000
v 3.000000 0.000000 -3.000000
v 3.000000 0.000000 -2.625000
v 0.000000 1.730000 -0.375000
v 0.000000 1.730000 -0.750000
v 0.000000 1.400000 -0.750000
v 0.000000 1.400000 -2.250000
v 0.000000 1.730000 -2.250000
v 0.000000 1.730000 -2.625000
v 0.000000 1.650000 -2.625000
v 3.000000 1.730000 -0.375000
v 3.000000 1.730000 -0.750000
v 3.000000 1.650000 -2.625000
v 3.000000 1.730000 -2.625000
v 3.000000 1.730000 -2.250000
v 3.000000 0.600000 -2.250000
v 3.000000 0.300000 -2.250000
v 3.000000 0.300000 -0.750000
v 3.000000 0.600000 -0.750000
v 3.000000 1.650000 -3.000000
v 0.000000 1.650000 -3.000000
vt -2.625000 0.000000
vt -0.375000 0.000000
vt -0.375000 1.650000
vt -0.375000 1.730000
vt -0.750000 1.730000
vt -0.750000 1.400000
vt -2.250000 1.400000
vt -2.250000 1.730000
vt -2.625000 1.730000
vt -2.625000 1.650000
vt 3.000000 1.730000
vt 0.000000 1.730000
vt 0.000000 1.650000
vt 3.000000 1.650000
vt 0.000000 0.750000
vt 0.000000 0.375000
vt 3.000000 0.375000
vt 3.000000 0.750000
vt 0.375000 0.000000
vt 2.625000 0.000000
vt 2.625000 1.650000
vt 2.625000 1.730000
vt 2.250000 1.730000
vt 2.250000 0.600000
vt 2.250000 0.300000
vt 0.750000 0.300000
vt 0.750000 0.600000
vt 0.750000 1.730000
vt 0.375000 1.730000
vt 0.375000 1.650000
vt -0.000000 1.730000
vt -3.000000 1.730000
vt -3.000000 1.650000
vt -0.000000 1.650000
vt 3.000000 2.250000
vt 3.000000 2.625000
vt 0.000000 2.625000
vt 0.000000 2.250000
vt 3.000000 1.730000
vt 0.000000 1.730000
vt 3.000000 0.600000
vt -3.000000 1.730000
vt -3.000000 0.600000
vt -0.000000 1.730000
vt 3.000000 0.000000
vt 3.000000 0.375000
vt 0.000000 0.375000
vt 0.000000 0.000000
vt 0.000000 0.000000
vt 0.000000 1.650000
vt 0.000000 0.000000
vt -0.000000 0.375000
vt -0.000000 2.625000
vt -0.000000 3.000000
vt -3.000000 3.000000
vt -3.000000 2.625000
vt -3.000000 0.375000
vt -3.000000 0.000000
vt 0.000000 1.650000
vt 3.000000 1.650000
vt 3.000000 0.000000
vt 0.000000 3.000000
vt 0.000000 2.625000
vt 3.000000 2.625000
vt 3.000000 3.000000
vt -3.000000 0.000000
vt -3.000000 1.650000
vt -3.000000 0.000000
vt -0.000000 0.000000
vt -0.000000 1.650000
vt -3.000000 1.650000
vt 3.000000 -0.000000
vt 3.000000 1.650000
vt 0.750000 0.609809
vt 0.750000 -2.595950
vt 2.250000 -2.595950
vt 2.250000 0.609809
vn -1.0000 0.0000 -0.0000
vn 0.0000 0.0000 1.0000
vn 0.0000 1.0000 0.0000
vn 1.0000 0.0000 0.0000
vn 0.0000 0.0000 -1.0000
vn 0.0000 -1.0000 -0.0000
vn 0.3525 0.9358 0.0000
usemtl Stone.141
s 1
f 9/1/1 8/2/1 3/3/1 13/4/1 14/5/1 15/6/1 16/7/1 17/8/1 18/9/1 19/10/1
f 20/11/2 13/12/2 3/13/2 2/14/2
f 14/15/3 13/16/3 20/17/3 21/18/3
f 6/19/4 12/20/4 22/21/4 23/22/4 24/23/4 25/24/4 26/25/4 27/26/4 28/27/4 21/28/4 20/29/4 2/30/4
f 18/31/5 23/32/5 22/33/5 19/34/5
f 24/35/3 23/36/3 18/37/3 17/38/3
f 24/39/2 17/40/2 25/41/2
f 21/42/5 28/43/5 14/44/5
usemtl Grass.085
f 1/45/3 2/46/3 3/47/3 4/48/3
f 5/49/4 6/19/4 2/30/4 1/50/4
f 7/51/6 8/52/6 9/53/6 10/54/6 11/55/6 12/56/6 6/57/6 5/58/6
f 4/59/1 3/3/1 8/2/1 7/51/1
f 29/60/4 22/21/4 12/20/4 11/61/4
f 30/62/3 19/63/3 22/64/3 29/65/3
f 10/66/1 9/1/1 19/10/1 30/67/1
f 11/68/5 10/69/5 30/70/5 29/71/5
f 7/51/2 5/72/2 1/73/2 4/59/2
usemtl Asphalt.114
f 14/74/7 28/75/7 25/76/7 17/77/7
f 28/27/4 27/26/4 26/25/4 25/24/4
f 14/5/1 17/8/1 16/7/1 15/6/1
