# Blender v2.79 (sub 0) OBJ File: ''
# www.blender.org
mtllib roadTile_252.mtl
o Mesh1_Group1_Model.251
v 0.750000 0.455000 -3.000000
v 0.750000 0.630000 -3.000000
v 0.750000 0.630000 0.000000
v 0.750000 0.455000 0.000000
v 0.750000 0.000000 -3.000000
v 0.375000 0.000000 -3.000000
v 0.375000 0.550000 -3.000000
v 0.375000 0.630000 -3.000000
v 3.000000 0.000000 -3.000000
v 3.000000 0.000000 0.000000
v 0.750000 0.000000 -0.000000
v 0.375000 0.000000 -0.000000
v 0.000000 0.000000 -0.000000
v 0.000000 0.000000 -3.000000
v 3.000000 0.455000 -3.000000
v 3.000000 0.455000 0.000000
v 0.375000 0.630000 0.000000
v 0.375000 0.550000 0.000000
v 0.000000 0.550000 0.000000
v 0.000000 0.550000 -3.000000
vt 3.000000 0.455000
vt 3.000000 0.630000
vt 0.000000 0.630000
vt 0.000000 0.455000
vt -0.750000 0.000000
vt -0.375000 0.000000
vt -0.375000 0.550000
vt -0.375000 0.630000
vt -0.750000 0.630000
vt -0.750000 0.455000
vt 0.375000 0.630000
vt 0.375000 0.550000
vt 0.375000 0.000000
vt 0.750000 0.000000
vt 0.750000 0.455000
vt 0.750000 0.630000
vt -3.000000 0.550000
vt -0.000000 0.550000
vt -0.000000 0.630000
vt -3.000000 0.630000
vt 0.750000 3.000000
vt 0.375000 3.000000
vt 0.375000 0.000000
vt 0.750000 0.000000
vt -3.000000 3.000000
vt -3.000000 0.000000
vt -0.750000 0.000000
vt -0.375000 0.000000
vt -0.000000 0.000000
vt -0.000000 3.000000
vt -0.375000 3.000000
vt -0.750000 3.000000
vt 0.000000 0.000000
vt 0.375000 0.000000
vt 0.375000 3.000000
vt 0.000000 3.000000
vt 0.000000 0.550000
vt -3.000000 0.000000
vt -3.000000 0.550000
vt 0.000000 0.550000
vt 0.000000 0.000000
vt 3.000000 0.455000
vt 0.000000 0.455000
vt 0.000000 0.000000
vt 3.000000 0.000000
vt 3.000000 0.000000
vt 3.000000 3.000000
vt 0.750000 3.000000
vt 0.750000 0.000000
vt -3.000000 0.000000
vt -3.000000 0.455000
vt 3.000000 0.000000
vt 3.000000 0.455000
vn 1.0000 0.0000 0.0000
vn 0.0000 0.0000 -1.0000
vn -0.0000 -0.0000 1.0000
vn -1.0000 0.0000 0.0000
vn 0.0000 1.0000 0.0000
vn -0.0000 -1.0000 -0.0000
usemtl Stone.208
s 1
f 1/1/1 2/2/1 3/3/1 4/4/1
f 5/5/2 6/6/2 7/7/2 8/8/2 2/9/2 1/10/2
f 17/11/3 18/12/3 12/13/3 11/14/3 4/15/3 3/16/3
f 7/17/4 18/18/4 17/19/4 8/20/4
f 2/21/5 8/22/5 17/23/5 3/24/5
usemtl Grass.118
f 9/25/6 10/26/6 11/27/6 12/28/6 13/29/6 14/30/6 6/31/6 5/32/6
f 19/33/5 18/34/5 7/35/5 20/36/5
f 13/29/3 12/13/3 18/12/3 19/37/3
f 14/38/4 13/29/4 19/37/4 20/39/4
f 20/40/2 7/7/2 6/6/2 14/41/2
usemtl Water.039
f 15/42/1 16/43/1 10/44/1 9/45/1
f 16/46/5 15/47/5 1/48/5 4/49/5
f 9/50/2 5/5/2 1/10/2 15/51/2
f 10/52/3 16/53/3 4/15/3 11/14/3
