# Blender v2.79 (sub 0) OBJ File: ''
# www.blender.org
mtllib roadTile_242.mtl
o Mesh1_Group1_Model.241
v 2.625000 0.000000 -0.000000
v 0.000000 0.000000 0.000000
v 0.000000 0.000000 -0.375000
v 0.000000 0.000000 -0.750000
v 0.000000 0.000000 -2.250000
v 0.000000 0.000000 -2.625000
v 0.000000 0.000000 -3.000000
v 2.625000 0.000000 -3.000000
v 3.000000 0.000000 -3.000000
v 3.000000 0.000000 -0.000000
v 2.625000 0.550000 0.000000
v 0.000000 0.550000 0.000000
v 2.625000 0.630000 0.000000
v 3.000000 0.455000 0.000000
v 3.000000 0.630000 0.000000
v 2.621790 0.550000 -0.048947
v 2.621790 0.630000 -0.048947
v 2.298950 0.550000 -0.371792
v 2.250000 0.550000 -0.375000
v 0.000000 0.550000 -0.375000
v 2.612220 0.550000 -0.097057
v 2.596450 0.550000 -0.143506
v 2.574760 0.550000 -0.187500
v 2.547510 0.550000 -0.228286
v 2.515170 0.550000 -0.265165
v 2.478290 0.550000 -0.297508
v 2.437500 0.550000 -0.324760
v 2.393510 0.550000 -0.346455
v 2.347060 0.550000 -0.362222
v 2.298950 0.630000 -0.371792
v 2.250000 0.630000 -0.375000
v 2.347060 0.630000 -0.362222
v 2.393510 0.630000 -0.346455
v 2.437500 0.630000 -0.324760
v 2.478290 0.630000 -0.297508
v 2.515170 0.630000 -0.265165
v 2.547510 0.630000 -0.228286
v 2.574760 0.630000 -0.187500
v 2.596450 0.630000 -0.143506
v 2.612220 0.630000 -0.097057
v 2.347890 0.630000 -0.743584
v 2.250000 0.630000 -0.750000
v 0.000000 0.630000 -0.750000
v 0.000000 0.630000 -0.375000
v 2.993580 0.630000 -0.097894
v 2.974440 0.630000 -0.194114
v 2.942910 0.630000 -0.287013
v 2.899520 0.630000 -0.375000
v 2.845020 0.630000 -0.456571
v 2.780330 0.630000 -0.530330
v 2.706570 0.630000 -0.595015
v 2.625000 0.630000 -0.649519
v 2.537010 0.630000 -0.692910
v 2.444110 0.630000 -0.724444
v 2.250000 0.455000 -0.750000
v 2.347890 0.455000 -0.743584
v 0.000000 0.455000 -0.750000
v 3.000000 0.455000 -3.000000
v 2.993580 0.455000 -2.902110
v 2.974440 0.455000 -2.805890
v 2.942910 0.455000 -2.712990
v 2.899520 0.455000 -2.625000
v 2.845020 0.455000 -2.543430
v 2.780330 0.455000 -2.469670
v 2.706570 0.455000 -2.404980
v 2.625000 0.455000 -2.350480
v 2.537010 0.455000 -2.307090
v 2.444110 0.455000 -2.275560
v 2.347890 0.455000 -2.256420
v 2.250000 0.455000 -2.250000
v 0.000000 0.455000 -2.250000
v 2.444110 0.455000 -0.724444
v 2.537010 0.455000 -0.692910
v 2.625000 0.455000 -0.649519
v 2.706570 0.455000 -0.595015
v 2.780330 0.455000 -0.530330
v 2.845020 0.455000 -0.456571
v 2.899520 0.455000 -0.375000
v 2.942910 0.455000 -0.287013
v 2.974440 0.455000 -0.194114
v 2.993580 0.455000 -0.097895
v 2.625000 0.550000 -3.000000
v 2.625000 0.630000 -3.000000
v 3.000000 0.630000 -3.000000
v 0.000000 0.550000 -3.000000
v 0.000000 0.550000 -2.625000
v 2.250000 0.550000 -2.625000
v 2.298950 0.550000 -2.628210
v 2.347060 0.550000 -2.637780
v 2.393510 0.550000 -2.653550
v 2.437500 0.550000 -2.675240
v 2.478290 0.550000 -2.702490
v 2.515170 0.550000 -2.734830
v 2.547510 0.550000 -2.771710
v 2.574760 0.550000 -2.812500
v 2.596450 0.550000 -2.856490
v 2.612220 0.550000 -2.902940
v 2.621790 0.550000 -2.951050
v 0.000000 0.630000 -2.625000
v 2.250000 0.630000 -2.625000
v 0.000000 0.630000 -2.250000
v 2.250000 0.630000 -2.250000
v 2.347890 0.630000 -2.256420
v 2.444110 0.630000 -2.275560
v 2.537010 0.630000 -2.307090
v 2.625000 0.630000 -2.350480
v 2.706570 0.630000 -2.404980
v 2.780330 0.630000 -2.469670
v 2.845020 0.630000 -2.543430
v 2.899520 0.630000 -2.625000
v 2.942910 0.630000 -2.712990
v 2.974440 0.630000 -2.805890
v 2.993580 0.630000 -2.902110
v 2.298950 0.630000 -2.628210
v 2.621790 0.630000 -2.951050
v 2.612220 0.630000 -2.902940
v 2.596450 0.630000 -2.856490
v 2.574760 0.630000 -2.812500
v 2.547510 0.630000 -2.771710
v 2.515170 0.630000 -2.734830
v 2.478290 0.630000 -2.702490
v 2.437500 0.630000 -2.675240
v 2.393510 0.630000 -2.653550
v 2.347060 0.630000 -2.637780
vt 2.625000 0.630000
vt 2.625000 0.550000
vt 2.625000 0.000000
vt 3.000000 0.000000
vt 3.000000 0.455000
vt 3.000000 0.630000
vt 0.122631 0.550000
vt 0.171683 0.550000
vt 0.171683 0.630000
vt 0.122631 0.630000
vt 2.220660 0.550000
vt 2.269710 0.550000
vt 2.269710 0.630000
vt 2.220660 0.630000
vt 2.182240 0.550000
vt 2.231290 0.550000
vt 2.231290 0.630000
vt 2.182240 0.630000
vt 2.106070 0.550000
vt 2.155120 0.550000
vt 2.155120 0.630000
vt 2.106070 0.630000
vt 1.993440 0.550000
vt 2.042490 0.550000
vt 2.042490 0.630000
vt 1.993440 0.630000
vt 1.846280 0.550000
vt 1.895330 0.550000
vt 1.895330 0.630000
vt 1.846280 0.630000
vt 1.667110 0.550000
vt 1.716170 0.550000
vt 1.716170 0.630000
vt 1.667110 0.630000
vt 1.459000 0.550000
vt 1.508050 0.550000
vt 1.508050 0.630000
vt 1.459000 0.630000
vt 1.225510 0.550000
vt 1.274560 0.550000
vt 1.274560 0.630000
vt 1.225510 0.630000
vt 0.970623 0.550000
vt 1.019680 0.550000
vt 1.019680 0.630000
vt 0.970623 0.630000
vt 0.698713 0.550000
vt 0.747765 0.550000
vt 0.747765 0.630000
vt 0.698713 0.630000
vt 0.414427 0.550000
vt 0.463479 0.550000
vt 0.463479 0.630000
vt 0.414427 0.630000
vt 2.347890 0.743584
vt 2.250000 0.750000
vt 0.000000 0.750000
vt 0.000000 0.375000
vt 2.250000 0.375000
vt 2.298950 0.371792
vt 2.347060 0.362222
vt 2.393510 0.346455
vt 2.437500 0.324760
vt 2.478290 0.297508
vt 2.515170 0.265165
vt 2.547510 0.228286
vt 2.574760 0.187500
vt 2.596450 0.143506
vt 2.612220 0.097057
vt 2.621790 0.048947
vt 2.625000 0.000000
vt 3.000000 0.000000
vt 2.993580 0.097895
vt 2.974440 0.194114
vt 2.942910 0.287013
vt 2.899520 0.375000
vt 2.845020 0.456571
vt 2.780330 0.530330
vt 2.706570 0.595015
vt 2.625000 0.649519
vt 2.537010 0.692910
vt 2.444110 0.724444
vt -2.196130 0.455000
vt -2.196130 0.630000
vt -2.294230 0.630000
vt -2.294230 0.455000
vt -2.250000 0.630000
vt -2.250000 0.455000
vt -0.000000 0.455000
vt -0.000000 0.630000
vt -3.000000 -0.000000
vt -2.625000 -0.000000
vt -2.625000 0.550000
vt -2.625000 0.630000
vt -3.000000 0.630000
vt -3.000000 0.455000
vt -2.250000 0.550000
vt -0.000000 0.550000
vt -0.000000 0.630000
vt -2.250000 0.630000
vt -2.625000 0.630000
vt -2.625000 0.550000
vt -2.625000 0.000000
vt -2.250000 0.000000
vt -2.250000 0.455000
vt -2.250000 0.630000
vt -0.750000 0.000000
vt -0.375000 0.000000
vt -0.375000 0.550000
vt -0.375000 0.630000
vt -0.750000 0.630000
vt -0.750000 0.455000
vt 0.000000 0.550000
vt 2.250000 0.550000
vt 2.250000 0.630000
vt 0.000000 0.630000
vt 0.000000 0.455000
vt 2.250000 0.455000
vt 2.250000 0.630000
vt 0.000000 0.630000
vt 2.490440 0.455000
vt 2.490440 0.630000
vt 2.392340 0.630000
vt 2.392340 0.455000
vt 2.841090 0.455000
vt 2.841090 0.630000
vt 2.742990 0.630000
vt 2.742990 0.455000
vt 3.143960 0.455000
vt 3.143960 0.630000
vt 3.045860 0.630000
vt 3.045860 0.455000
vt 3.393880 0.455000
vt 3.393880 0.630000
vt 3.295780 0.630000
vt 3.295780 0.455000
vt 3.586570 0.455000
vt 3.586570 0.630000
vt 3.488460 0.630000
vt 3.488460 0.455000
vt 3.718730 0.455000
vt 3.718730 0.630000
vt 3.620620 0.630000
vt 3.620620 0.455000
vt 3.788100 0.455000
vt 3.788100 0.630000
vt 3.690000 0.630000
vt 3.690000 0.455000
vt 3.793490 0.455000
vt 3.793490 0.630000
vt 3.695390 0.630000
vt 3.695390 0.455000
vt 3.734820 0.455000
vt 3.734820 0.630000
vt 3.636720 0.630000
vt 3.636720 0.455000
vt 3.613080 0.455000
vt 3.613080 0.630000
vt 3.514980 0.630000
vt 3.514980 0.455000
vt 3.430360 0.455000
vt 3.430360 0.630000
vt 3.332260 0.630000
vt 3.332260 0.455000
vt 3.189790 0.455000
vt 3.189790 0.630000
vt 3.091680 0.630000
vt 3.091680 0.455000
vt 2.298950 2.628210
vt 2.250000 2.625000
vt 0.000000 2.625000
vt 0.000000 2.250000
vt 2.250000 2.250000
vt 2.347890 2.256420
vt 2.444110 2.275560
vt 2.537010 2.307090
vt 2.625000 2.350480
vt 2.706570 2.404980
vt 2.780330 2.469670
vt 2.845020 2.543430
vt 2.899520 2.625000
vt 2.942910 2.712990
vt 2.974440 2.805890
vt 2.993580 2.902110
vt 3.000000 3.000000
vt 2.625000 3.000000
vt 2.621790 2.951050
vt 2.612220 2.902940
vt 2.596450 2.856490
vt 2.574760 2.812500
vt 2.547510 2.771710
vt 2.515170 2.734830
vt 2.478290 2.702490
vt 2.437500 2.675240
vt 2.393510 2.653550
vt 2.347060 2.637780
vt -2.465920 0.550000
vt -2.416870 0.550000
vt -2.416870 0.630000
vt -2.465920 0.630000
vt -2.816560 0.550000
vt -2.767510 0.550000
vt -2.767510 0.630000
vt -2.816560 0.630000
vt -3.119440 0.550000
vt -3.070390 0.550000
vt -3.070390 0.630000
vt -3.119440 0.630000
vt -3.369360 0.550000
vt -3.320300 0.550000
vt -3.320300 0.630000
vt -3.369360 0.630000
vt -3.562040 0.550000
vt -3.512990 0.550000
vt -3.512990 0.630000
vt -3.562040 0.630000
vt -3.694200 0.550000
vt -3.645150 0.550000
vt -3.645150 0.630000
vt -3.694200 0.630000
vt -3.763570 0.550000
vt -3.714520 0.550000
vt -3.714520 0.630000
vt -3.763570 0.630000
vt -3.768970 0.550000
vt -3.719920 0.550000
vt -3.719920 0.630000
vt -3.768970 0.630000
vt -3.710290 0.550000
vt -3.661240 0.550000
vt -3.661240 0.630000
vt -3.710290 0.630000
vt -3.588560 0.550000
vt -3.539500 0.550000
vt -3.539500 0.630000
vt -3.588560 0.630000
vt -3.405840 0.550000
vt -3.356780 0.550000
vt -3.356780 0.630000
vt -3.405840 0.630000
vt -3.165260 0.550000
vt -3.116210 0.550000
vt -3.116210 0.630000
vt -3.165260 0.630000
vt -2.157710 0.455000
vt -2.157710 0.630000
vt -2.255820 0.630000
vt -2.255820 0.455000
vt -2.081540 0.455000
vt -2.081540 0.630000
vt -2.179650 0.630000
vt -2.179650 0.455000
vt -1.968910 0.455000
vt -1.968910 0.630000
vt -2.067020 0.630000
vt -2.067020 0.455000
vt -1.821750 0.455000
vt -1.821750 0.630000
vt -1.919860 0.630000
vt -1.919860 0.455000
vt -1.642590 0.455000
vt -1.642590 0.630000
vt -1.740690 0.630000
vt -1.740690 0.455000
vt -1.434480 0.455000
vt -1.434480 0.630000
vt -1.532580 0.630000
vt -1.532580 0.455000
vt -1.200980 0.455000
vt -1.200980 0.630000
vt -1.299090 0.630000
vt -1.299090 0.455000
vt -0.946097 0.455000
vt -0.946097 0.630000
vt -1.044200 0.630000
vt -1.044200 0.455000
vt -0.674186 0.455000
vt -0.674186 0.630000
vt -0.772291 0.630000
vt -0.772291 0.455000
vt -0.389901 0.455000
vt -0.389901 0.630000
vt -0.488006 0.630000
vt -0.488006 0.455000
vt -0.098105 0.455000
vt -0.098105 0.630000
vt -0.196209 0.630000
vt -0.196209 0.455000
vt -2.625000 0.000000
vt -0.000000 0.000000
vt -0.000000 0.375000
vt -0.000000 0.750000
vt -0.000000 2.250000
vt -0.000000 2.625000
vt -0.000000 3.000000
vt -2.625000 3.000000
vt -3.000000 3.000000
vt -3.000000 0.000000
vt 0.000000 0.550000
vt 2.298950 0.371792
vt 2.250000 0.375000
vt 0.000000 0.375000
vt 0.000000 0.000000
vt 2.625000 0.000000
vt 2.621790 0.048947
vt 2.612220 0.097057
vt 2.596450 0.143506
vt 2.574760 0.187500
vt 2.547510 0.228286
vt 2.515170 0.265165
vt 2.478290 0.297508
vt 2.437500 0.324760
vt 2.393510 0.346455
vt 2.347060 0.362222
vt -0.000000 0.550000
vt -0.000000 -0.000000
vt 0.000000 2.625000
vt 2.250000 2.625000
vt 2.298950 2.628210
vt 2.347060 2.637780
vt 2.393510 2.653550
vt 2.437500 2.675240
vt 2.478290 2.702490
vt 2.515170 2.734830
vt 2.547510 2.771710
vt 2.574760 2.812500
vt 2.596450 2.856490
vt 2.612220 2.902940
vt 2.621790 2.951050
vt 2.625000 3.000000
vt 0.000000 3.000000
vt -3.000000 0.000000
vt -3.000000 0.550000
vt 3.000000 0.000000
vt 3.000000 3.000000
vt 2.993580 2.902110
vt 2.974440 2.805890
vt 2.942910 2.712990
vt 2.899520 2.625000
vt 2.845020 2.543430
vt 2.780330 2.469670
vt 2.706570 2.404980
vt 2.625000 2.350480
vt 2.537010 2.307090
vt 2.444110 2.275560
vt 2.347890 2.256420
vt 2.250000 2.250000
vt 0.000000 2.250000
vt 0.000000 0.750000
vt 2.250000 0.750000
vt 2.347890 0.743584
vt 2.444110 0.724444
vt 2.537010 0.692910
vt 2.625000 0.649519
vt 2.706570 0.595015
vt 2.780330 0.530330
vt 2.845020 0.456571
vt 2.899520 0.375000
vt 2.942910 0.287013
vt 2.974440 0.194114
vt 2.993580 0.097895
vt -0.000000 0.000000
vt 3.000000 0.000000
vt 3.000000 0.455000
vt -0.000000 0.455000
vn -0.0000 -0.0000 1.0000
vn -0.9914 0.0000 0.1305
vn -0.9979 0.0000 0.0654
vn -0.0327 0.0000 0.9995
vn -0.1305 0.0000 0.9914
vn -0.2588 0.0000 0.9659
vn -0.3827 0.0000 0.9239
vn -0.5000 0.0000 0.8660
vn -0.6087 0.0000 0.7934
vn -0.7071 0.0000 0.7071
vn -0.7934 0.0000 0.6087
vn -0.8661 0.0000 0.4999
vn -0.9239 0.0000 0.3827
vn -0.9659 0.0000 0.2588
vn -0.0000 1.0000 0.0000
vn 0.0327 0.0000 -0.9995
vn 0.1305 0.0000 -0.9914
vn 0.0000 0.0000 -1.0000
vn -0.0327 0.0000 -0.9995
vn -1.0000 0.0000 0.0000
vn 0.0327 0.0000 0.9995
vn 0.1305 0.0000 0.9914
vn 0.2588 0.0000 0.9659
vn 0.3827 0.0000 0.9239
vn 0.5000 0.0000 0.8660
vn 0.6088 0.0000 0.7934
vn 0.7071 0.0000 0.7071
vn 0.7934 0.0000 0.6088
vn 0.8660 0.0000 0.5000
vn 0.9239 0.0000 0.3827
vn 0.9659 0.0000 0.2588
vn 0.9914 0.0000 0.1305
vn 0.9979 0.0000 0.0654
vn -0.1305 0.0000 -0.9914
vn -0.2588 0.0000 -0.9659
vn -0.3827 0.0000 -0.9239
vn -0.4999 0.0000 -0.8661
vn -0.6087 0.0000 -0.7934
vn -0.7071 0.0000 -0.7071
vn -0.7934 0.0000 -0.6087
vn -0.8661 0.0000 -0.4999
vn -0.9239 0.0000 -0.3827
vn -0.9659 0.0000 -0.2588
vn -0.9914 0.0000 -0.1305
vn -0.9979 0.0000 -0.0654
vn 0.2588 0.0000 -0.9659
vn 0.3827 0.0000 -0.9239
vn 0.5000 0.0000 -0.8660
vn 0.6088 0.0000 -0.7934
vn 0.7071 -0.0000 -0.7071
vn 0.7934 -0.0000 -0.6088
vn 0.8660 -0.0000 -0.5000
vn 0.9239 -0.0000 -0.3827
vn 0.9659 -0.0000 -0.2588
vn 0.9914 -0.0000 -0.1305
vn 0.9979 -0.0000 -0.0654
vn 0.0000 -1.0000 -0.0000
vn 1.0000 0.0000 0.0000
usemtl Stone.198
s 1
f 13/1/1 11/2/1 1/3/1 10/4/1 14/5/1 15/6/1
f 16/7/2 11/8/3 13/9/3 17/10/2
f 19/11/4 18/12/5 30/13/5 31/14/4
f 18/15/5 29/16/6 32/17/6 30/18/5
f 29/19/6 28/20/7 33/21/7 32/22/6
f 28/23/7 27/24/8 34/25/8 33/26/7
f 27/27/8 26/28/9 35/29/9 34/30/8
f 26/31/9 25/32/10 36/33/10 35/34/9
f 25/35/10 24/36/11 37/37/11 36/38/10
f 24/39/11 23/40/12 38/41/12 37/42/11
f 23/43/12 22/44/13 39/45/13 38/46/12
f 22/47/13 21/48/14 40/49/14 39/50/13
f 21/51/14 16/52/2 17/53/2 40/54/14
f 41/55/15 42/56/15 43/57/15 44/58/15 31/59/15 30/60/15 32/61/15 33/62/15 34/63/15 35/64/15 36/65/15 37/66/15 38/67/15 39/68/15 40/69/15 17/70/15 13/71/15 15/72/15 45/73/15 46/74/15 47/75/15 48/76/15 49/77/15 50/78/15 51/79/15 52/80/15 53/81/15 54/82/15
f 55/83/16 42/84/16 41/85/17 56/86/17
f 42/87/16 55/88/16 57/89/18 43/90/18
f 9/91/18 8/92/18 82/93/18 83/94/18 84/95/18 58/96/18
f 87/97/19 86/98/18 99/99/18 100/100/19
f 99/101/20 86/102/20 6/103/20 5/104/20 71/105/20 101/106/20
f 4/107/20 3/108/20 20/109/20 44/110/20 43/111/20 57/112/20
f 20/113/1 19/114/4 31/115/4 44/116/1
f 71/117/1 70/118/21 102/119/21 101/120/1
f 69/121/22 103/122/22 102/123/21 70/124/21
f 68/125/23 104/126/23 103/127/22 69/128/22
f 67/129/24 105/130/24 104/131/23 68/132/23
f 66/133/25 106/134/25 105/135/24 67/136/24
f 65/137/26 107/138/26 106/139/25 66/140/25
f 64/141/27 108/142/27 107/143/26 65/144/26
f 63/145/28 109/146/28 108/147/27 64/148/27
f 62/149/29 110/150/29 109/151/28 63/152/28
f 61/153/30 111/154/30 110/155/29 62/156/29
f 60/157/31 112/158/31 111/159/30 61/160/30
f 59/161/32 113/162/32 112/163/31 60/164/31
f 58/165/33 84/166/33 113/167/32 59/168/32
f 114/169/15 100/170/15 99/171/15 101/172/15 102/173/15 103/174/15 104/175/15 105/176/15 106/177/15 107/178/15 108/179/15 109/180/15 110/181/15 111/182/15 112/183/15 113/184/15 84/185/15 83/186/15 115/187/15 116/188/15 117/189/15 118/190/15 119/191/15 120/192/15 121/193/15 122/194/15 123/195/15 124/196/15
f 88/197/34 87/198/19 100/199/19 114/200/34
f 89/201/35 88/202/34 114/203/34 124/204/35
f 90/205/36 89/206/35 124/207/35 123/208/36
f 91/209/37 90/210/36 123/211/36 122/212/37
f 92/213/38 91/214/37 122/215/37 121/216/38
f 93/217/39 92/218/38 121/219/38 120/220/39
f 94/221/40 93/222/39 120/223/39 119/224/40
f 95/225/41 94/226/40 119/227/40 118/228/41
f 96/229/42 95/230/41 118/231/41 117/232/42
f 97/233/43 96/234/42 117/235/42 116/236/43
f 98/237/44 97/238/43 116/239/43 115/240/44
f 82/241/45 98/242/44 115/243/44 83/244/45
f 56/245/17 41/246/17 54/247/46 72/248/46
f 72/249/46 54/250/46 53/251/47 73/252/47
f 73/253/47 53/254/47 52/255/48 74/256/48
f 74/257/48 52/258/48 51/259/49 75/260/49
f 75/261/49 51/262/49 50/263/50 76/264/50
f 76/265/50 50/266/50 49/267/51 77/268/51
f 77/269/51 49/270/51 48/271/52 78/272/52
f 78/273/52 48/274/52 47/275/53 79/276/53
f 79/277/53 47/278/53 46/279/54 80/280/54
f 80/281/54 46/282/54 45/283/55 81/284/55
f 81/285/55 45/286/55 15/287/56 14/288/56
usemtl Grass.114
f 1/289/57 2/290/57 3/291/57 4/292/57 5/293/57 6/294/57 7/295/57 8/296/57 9/297/57 10/298/57
f 2/290/1 1/3/1 11/2/1 12/299/1
f 18/300/15 19/301/15 20/302/15 12/303/15 11/304/15 16/305/15 21/306/15 22/307/15 23/308/15 24/309/15 25/310/15 26/311/15 27/312/15 28/313/15 29/314/15
f 85/315/18 82/93/18 8/92/18 7/316/18
f 86/317/15 87/318/15 88/319/15 89/320/15 90/321/15 91/322/15 92/323/15 93/324/15 94/325/15 95/326/15 96/327/15 97/328/15 98/329/15 82/330/15 85/331/15
f 7/332/20 6/103/20 86/102/20 85/333/20
f 12/299/20 20/109/20 3/108/20 2/290/20
usemtl Water.035
f 14/334/15 58/335/15 59/336/15 60/337/15 61/338/15 62/339/15 63/340/15 64/341/15 65/342/15 66/343/15 67/344/15 68/345/15 69/346/15 70/347/15 71/348/15 57/349/15 55/350/15 56/351/15 72/352/15 73/353/15 74/354/15 75/355/15 76/356/15 77/357/15 78/358/15 79/359/15 80/360/15 81/361/15
f 10/362/58 9/363/58 58/364/58 14/365/58
f 5/104/20 4/107/20 57/112/20 71/105/20
