# Blender v2.79 (sub 0) OBJ File: ''
# www.blender.org
mtllib roadTile_111.mtl
o Mesh1_Group1_Model.110
v 0.768845 0.600000 -1.856160
v 1.027000 0.600000 -2.082550
v 1.027000 0.000000 -2.082550
v 0.768845 0.000000 -1.856160
v 2.625000 0.600000 -2.250000
v 2.625000 0.600000 -2.625000
v 2.282370 0.600000 -2.602540
v 1.945600 0.600000 -2.535560
v 1.620460 0.600000 -2.425180
v 1.312500 0.600000 -2.273320
v 0.542447 0.600000 -1.598000
v 0.351683 0.600000 -1.312500
v 0.199816 0.600000 -1.004540
v 0.089445 0.600000 -0.679400
v 0.022457 0.600000 -0.342631
v 0.000000 0.600000 0.000000
v 0.375000 0.600000 0.000000
v 0.394249 0.600000 -0.293684
v 0.451667 0.600000 -0.582343
v 0.546271 0.600000 -0.861038
v 0.676443 0.600000 -1.125000
v 0.839955 0.600000 -1.369710
v 1.034010 0.600000 -1.590990
v 1.255290 0.600000 -1.785050
v 1.500000 0.600000 -1.948560
v 1.763960 0.600000 -2.078730
v 2.042660 0.600000 -2.173330
v 2.331320 0.600000 -2.230750
v 2.625000 0.000000 -0.000000
v 2.625000 0.000000 -2.625000
v 2.625000 0.300000 -2.250000
v 2.625000 0.300000 0.000000
v 0.000000 0.000000 -0.000000
v 0.022457 0.000000 -0.342631
v 0.089445 0.000000 -0.679400
v 0.199816 0.000000 -1.004540
v 0.351683 0.000000 -1.312500
v 0.542447 0.000000 -1.598000
v 1.312500 0.000000 -2.273320
v 1.620460 0.000000 -2.425180
v 1.945600 0.000000 -2.535560
v 2.282370 0.000000 -2.602540
v 0.375000 0.300000 0.000000
v 2.625000 0.600000 0.000000
vt -0.542447 1.598000
vt -0.768845 1.856160
vt -2.625000 0.000000
vt 2.625000 -0.000000
vt 2.625000 0.300000
vt 0.375000 0.300000
vt -0.340429 0.000000
vt -0.340429 0.600000
vt -0.683795 0.600000
vt -0.683795 0.000000
vt 0.839955 1.369710
vt 0.542447 1.598000
vt 0.351683 1.312500
vt 0.676443 1.125000
vt 0.451667 0.582343
vt 0.546271 0.861038
vt 0.199816 1.004540
vt 0.089445 0.679400
vt 0.000000 0.600000
vt 0.000000 -0.000000
vt 0.375000 0.600000
vt 2.625000 2.625000
vt 2.282370 2.602540
vt 2.331320 2.230750
vt 2.625000 2.250000
vt 1.027000 2.082550
vt 1.255290 1.785050
vt 1.500000 1.948560
vt 1.312500 2.273320
vt 1.034010 1.590990
vt 0.768845 1.856160
vt 0.022457 0.342631
vt 0.394249 0.293684
vt 2.042660 2.173330
vt 1.945600 2.535560
vt 0.000000 0.000000
vt 0.375000 0.000000
vt 1.763960 2.078730
vt 1.620460 2.425180
vt 0.000000 0.300000
vt 0.000000 -0.000000
vt 2.250000 0.300000
vt 2.625000 -0.000000
vt -2.625000 2.625000
vt -2.282370 2.602540
vt -0.022457 0.342631
vt -0.089445 0.679400
vt -0.199816 1.004540
vt -0.351683 1.312500
vt -1.027000 2.082550
vt -1.312500 2.273320
vt -1.620460 2.425180
vt -1.945600 2.535560
vt 2.625000 0.600000
vt 2.250000 0.600000
vt -1.286690 0.000000
vt -1.286690 0.600000
vt -1.630060 0.600000
vt -1.630060 0.000000
vt -2.402880 0.000000
vt -2.402880 0.600000
vt -2.746240 0.600000
vt -2.746240 0.000000
vt -1.801900 0.000000
vt -1.801900 0.600000
vt -2.145260 0.600000
vt -2.145260 0.000000
vt -0.989325 0.000000
vt -0.989325 0.600000
vt -1.332690 0.600000
vt -1.332690 0.000000
vt -2.447700 0.000000
vt -2.447700 0.600000
vt -2.791060 0.600000
vt -2.791060 -0.000000
vt -1.559100 0.000000
vt -1.559100 0.600000
vt -1.902470 0.600000
vt -1.902470 0.000000
vt -2.010920 0.000000
vt -2.010920 0.600000
vt -2.354290 0.600000
vt -2.354290 0.000000
vt -2.182610 0.000000
vt -2.182610 0.600000
vt -2.525970 0.600000
vt -2.525970 0.000000
vt -2.314010 0.000000
vt -2.314010 0.600000
vt -2.657370 0.600000
vt -2.657370 0.000000
vt -0.672095 0.000000
vt -0.672095 0.600000
vt -1.015460 0.600000
vt -1.015460 0.000000
vt -0.343366 0.000000
vt -0.343366 0.600000
vt 2.625000 0.000000
vt 2.625000 0.600000
vt 0.000000 0.600000
vn 0.0000 -1.0000 -0.0000
vn 0.0000 -0.0000 1.0000
vn -0.9914 0.0000 -0.1305
vn -0.9659 0.0000 -0.2588
vn 0.0000 1.0000 0.0000
vn 1.0000 0.0000 0.0000
vn -0.8660 0.0000 -0.5000
vn -0.7934 0.0000 -0.6088
vn -0.2588 0.0000 -0.9659
vn -0.1305 0.0000 -0.9914
vn -0.7071 0.0000 -0.7071
vn -0.6088 0.0000 -0.7934
vn -0.9239 0.0000 -0.3827
vn -0.0654 0.0000 -0.9979
vn -0.5000 0.0000 -0.8660
vn -0.3827 0.0000 -0.9239
vn -0.9979 0.0000 -0.0654
usemtl Stone.091
s 1
f 38/1/1 4/2/1 29/3/1
f 29/4/2 32/5/2 43/6/2
f 34/7/3 15/8/3 14/9/4 35/10/4
f 22/11/5 11/12/5 12/13/5 21/14/5
f 19/15/5 20/16/5 13/17/5 14/18/5
f 16/19/2 33/20/2 43/6/2 17/21/2
f 6/22/5 7/23/5 28/24/5 5/25/5
f 2/26/5 24/27/5 25/28/5 10/29/5
f 22/11/5 23/30/5 1/31/5 11/12/5
f 15/32/5 18/33/5 19/15/5 14/18/5
f 27/34/5 28/24/5 7/23/5 8/35/5
f 18/33/5 15/32/5 16/36/5 17/37/5
f 20/16/5 21/14/5 12/13/5 13/17/5
f 26/38/5 27/34/5 8/35/5 9/39/5
f 25/28/5 26/38/5 9/39/5 10/29/5
f 32/40/6 29/41/6 31/42/6
f 31/42/6 29/41/6 30/43/6
f 30/44/1 29/3/1 42/45/1
f 33/20/1 34/46/1 29/3/1
f 35/47/1 36/48/1 29/3/1
f 37/49/1 38/1/1 29/3/1
f 4/2/1 3/50/1 29/3/1
f 39/51/1 40/52/1 29/3/1
f 41/53/1 42/45/1 29/3/1
f 29/3/1 34/46/1 35/47/1
f 36/48/1 37/49/1 29/3/1
f 3/50/1 39/51/1 29/3/1
f 41/53/1 29/3/1 40/52/1
f 6/54/6 5/55/6 31/42/6 30/43/6
f 33/20/2 29/4/2 43/6/2
f 37/56/7 12/57/7 11/58/8 38/59/8
f 41/60/9 8/61/9 7/62/10 42/63/10
f 1/31/5 23/30/5 24/27/5 2/26/5
f 4/64/11 1/65/11 2/66/12 3/67/12
f 36/68/13 13/69/13 12/70/7 37/71/7
f 42/72/10 7/73/10 6/74/14 30/75/14
f 38/76/8 11/77/8 1/78/11 4/79/11
f 3/80/12 2/81/12 10/82/15 39/83/15
f 39/84/15 10/85/15 9/86/16 40/87/16
f 40/88/16 9/89/16 8/90/9 41/91/9
f 35/92/4 14/93/4 13/94/13 36/95/13
f 34/96/3 33/20/17 16/19/17 15/97/3
usemtl Asphalt.065
f 24/27/5 23/30/5 44/98/5
f 44/99/2 17/21/2 43/6/2 32/5/2
f 17/37/5 44/98/5 18/33/5
f 5/25/5 28/24/5 44/98/5
f 27/34/5 26/38/5 44/98/5
f 25/28/5 24/27/5 44/98/5
f 23/30/5 22/11/5 44/98/5
f 21/14/5 20/16/5 44/98/5
f 19/15/5 18/33/5 44/98/5
f 44/98/5 28/24/5 27/34/5
f 26/38/5 25/28/5 44/98/5
f 22/11/5 21/14/5 44/98/5
f 19/15/5 44/98/5 20/16/5
f 5/55/6 44/100/6 32/40/6 31/42/6
