# Blender v2.79 (sub 0) OBJ File: ''
# www.blender.org
mtllib roadTile_117.mtl
o Mesh1_Group1_Model.116
v 2.625000 0.600000 0.000000
v 2.625000 0.600001 -3.000000
v 0.375000 0.600001 -3.000000
v 0.375000 0.600000 0.000000
v 2.625000 0.300000 0.000000
v 2.625000 0.300000 -3.000000
v 0.375000 0.300000 0.000000
v 0.000000 1.730000 0.000000
v 0.000000 0.000000 -0.000000
v 2.625000 0.000000 0.000000
v 0.375000 1.730000 0.000000
v 0.000000 1.730000 -3.000000
v 0.000000 0.000000 -3.000000
v 0.375000 1.730000 -3.000000
v 2.625000 0.000000 -3.000000
v 0.375000 0.300000 -3.000000
vt -0.000000 0.000000
vt 0.375000 0.600000
vt 0.000000 1.730000
vt 0.000000 0.000000
vt -0.375000 0.600000
vt -0.375000 0.300000
vt -3.000000 1.730000
vt -3.000000 0.000000
vt 0.375000 1.730000
vt 2.625000 0.000000
vt 0.375000 0.300000
vt 2.625000 0.300000
vt 0.375000 0.000000
vt 0.375000 3.000000
vt 0.000000 3.000000
vt -0.000000 0.000000
vt -0.000000 3.000000
vt -2.625000 3.000000
vt -2.625000 -0.000000
vt -2.625000 0.300000
vt -2.625000 0.000000
vt 0.000000 1.730000
vt -0.375000 1.730000
vt 3.000000 0.600000
vt 3.000000 1.730000
vt 0.000000 1.730000
vt 0.000000 0.600000
vt 0.000000 0.000000
vt 3.000000 0.000000
vt 3.000000 0.300000
vt 0.000000 0.300000
vt 3.000000 0.600000
vt 0.000000 0.600000
vt 2.625000 0.600000
vt 0.375000 0.000000
vt 2.625000 0.000000
vt 2.625000 3.000000
vt 0.375000 3.000000
vt -2.625000 0.600000
vn -0.0000 -0.0000 1.0000
vn 0.0000 0.0000 -1.0000
vn -1.0000 0.0000 -0.0000
vn 0.0000 1.0000 0.0000
vn -0.0000 -1.0000 -0.0000
vn 1.0000 -0.0000 0.0000
usemtl Stone.097
s 1
f 9/1/1 4/2/1 8/3/1
f 13/4/2 3/5/2 16/6/2
f 9/1/3 8/3/3 12/7/3 13/8/3
f 11/9/1 8/3/1 4/2/1
f 9/1/1 10/10/1 7/11/1
f 7/11/1 4/2/1 9/1/1
f 10/10/1 5/12/1 7/11/1
f 11/13/4 14/14/4 12/15/4 8/16/4
f 13/17/5 15/18/5 10/19/5 9/1/5
f 6/20/2 15/21/2 16/6/2
f 13/4/2 12/22/2 3/5/2
f 14/23/2 3/5/2 12/22/2
f 16/6/2 15/21/2 13/4/2
f 3/24/6 14/25/6 11/26/6 4/27/6
f 10/28/6 15/29/6 6/30/6 5/31/6
usemtl Asphalt.071
f 2/32/6 1/33/6 5/31/6 6/30/6
f 1/34/1 4/2/1 7/11/1 5/12/1
f 4/35/4 1/36/4 2/37/4 3/38/4
f 3/5/2 2/39/2 6/20/2 16/6/2
