# Blender v2.79 (sub 0) OBJ File: ''
# www.blender.org
mtllib roadTile_086.mtl
o Mesh1_Group1_Model.085
v 3.000000 0.630000 -2.062500
v 2.877630 0.630000 -2.070520
v 2.877630 0.570000 -2.070520
v 3.000000 0.570000 -2.062500
v 3.000000 0.630000 -3.000000
v 2.062500 0.630000 -3.000000
v 2.070520 0.630000 -2.877630
v 2.094440 0.630000 -2.757360
v 2.133860 0.630000 -2.641230
v 2.188100 0.630000 -2.531250
v 2.256230 0.630000 -2.429290
v 2.337090 0.630000 -2.337090
v 2.429290 0.630000 -2.256230
v 2.531250 0.630000 -2.188100
v 2.641230 0.630000 -2.133860
v 2.757360 0.630000 -2.094440
v 3.000000 0.000000 -3.000000
v 0.000000 0.000000 -3.000000
v 0.000000 0.630000 -3.000000
v 0.937500 0.630000 -3.000000
v 0.937500 0.570000 -3.000000
v 1.125000 0.570000 -3.000000
v 1.125000 0.630000 -3.000000
v 1.875000 0.630000 -3.000000
v 1.875000 0.570000 -3.000000
v 2.062500 0.570000 -3.000000
v 3.000000 0.000000 -0.000000
v 3.000000 0.570000 -1.875000
v 3.000000 0.630000 -1.875000
v 3.000000 0.630000 -1.125000
v 3.000000 0.570000 -1.125000
v 3.000000 0.570000 -0.937500
v 3.000000 0.630000 -0.937500
v 3.000000 0.630000 0.000000
v 0.000000 0.000000 0.000000
v 0.000000 0.630000 0.000000
v 2.730790 0.630000 -0.955145
v 2.466190 0.630000 -1.007780
v 2.210720 0.630000 -1.094500
v 1.968750 0.630000 -1.213820
v 1.744430 0.630000 -1.363710
v 1.541590 0.630000 -1.541590
v 1.363710 0.630000 -1.744430
v 1.213820 0.630000 -1.968750
v 1.094500 0.630000 -2.210720
v 1.007780 0.630000 -2.466190
v 0.955145 0.630000 -2.730790
v 2.730790 0.570000 -0.955145
v 0.955145 0.570000 -2.730790
v 1.007780 0.570000 -2.466190
v 1.094500 0.570000 -2.210720
v 1.213820 0.570000 -1.968750
v 1.363710 0.570000 -1.744430
v 1.541590 0.570000 -1.541590
v 1.744430 0.570000 -1.363710
v 1.968750 0.570000 -1.213820
v 2.210720 0.570000 -1.094500
v 2.466190 0.570000 -1.007780
v 2.755260 0.570000 -1.141040
v 2.514710 0.570000 -1.188890
v 2.282470 0.570000 -1.267730
v 2.062500 0.570000 -1.376200
v 1.858570 0.570000 -1.512460
v 1.674170 0.570000 -1.674170
v 1.512460 0.570000 -1.858570
v 1.376200 0.570000 -2.062500
v 1.267730 0.570000 -2.282470
v 1.188890 0.570000 -2.514710
v 1.141040 0.570000 -2.755260
v 2.755260 0.630000 -1.141040
v 1.141040 0.630000 -2.755260
v 1.188890 0.630000 -2.514710
v 1.267730 0.630000 -2.282470
v 1.376200 0.630000 -2.062500
v 1.512460 0.630000 -1.858570
v 1.674170 0.630000 -1.674170
v 1.858570 0.630000 -1.512460
v 2.062500 0.630000 -1.376200
v 2.282470 0.630000 -1.267730
v 2.514710 0.630000 -1.188890
v 2.853160 0.630000 -1.884620
v 2.708830 0.630000 -1.913330
v 2.569480 0.630000 -1.960640
v 2.437500 0.630000 -2.025720
v 2.315140 0.630000 -2.107480
v 2.204500 0.630000 -2.204500
v 2.107480 0.630000 -2.315140
v 2.025720 0.630000 -2.437500
v 1.960640 0.630000 -2.569480
v 1.913330 0.630000 -2.708830
v 1.884620 0.630000 -2.853160
v 2.853160 0.570000 -1.884620
v 1.884620 0.570000 -2.853160
v 1.913330 0.570000 -2.708830
v 1.960640 0.570000 -2.569480
v 2.025720 0.570000 -2.437500
v 2.107480 0.570000 -2.315140
v 2.204500 0.570000 -2.204500
v 2.315140 0.570000 -2.107480
v 2.437500 0.570000 -2.025720
v 2.569480 0.570000 -1.960640
v 2.708830 0.570000 -1.913330
v 2.757360 0.570000 -2.094440
v 2.641230 0.570000 -2.133860
v 2.531250 0.570000 -2.188100
v 2.429290 0.570000 -2.256230
v 2.337090 0.570000 -2.337090
v 2.256230 0.570000 -2.429290
v 2.188100 0.570000 -2.531250
v 2.133860 0.570000 -2.641230
v 2.094440 0.570000 -2.757360
v 2.070520 0.570000 -2.877630
vt 2.256230 2.429290
vt 2.337090 2.337090
vt 3.000000 3.000000
vt -3.000000 0.000000
vt -1.875000 0.570000
vt -2.062500 0.570000
vt 3.000000 -0.000000
vt 1.875000 0.570000
vt 1.125000 0.570000
vt 1.541590 1.541590
vt 1.363710 1.744430
vt 0.000000 -0.000000
vt 3.000000 2.062500
vt 2.877630 2.070520
vt 2.062500 3.000000
vt 2.070520 2.877630
vt 2.094440 2.757360
vt 2.133860 2.641230
vt 2.188100 2.531250
vt 2.429290 2.256230
vt 2.531250 2.188100
vt 2.641230 2.133860
vt 2.757360 2.094440
vt 3.000000 0.630000
vt 2.062500 0.630000
vt 2.062500 0.570000
vt -0.000000 0.000000
vt -1.125000 0.570000
vt 0.937500 0.570000
vt 0.937500 0.630000
vt 0.000000 0.630000
vt -0.000000 -0.000000
vt -0.937500 0.570000
vt -0.000000 0.630000
vt -0.937500 0.630000
vt -3.000000 3.000000
vt -3.000000 0.000000
vt -0.000000 -0.000000
vt 0.000000 3.000000
vt 3.000000 0.630000
vt 0.000000 0.630000
vt 3.000000 0.000000
vt -3.000000 0.630000
vt -3.000000 0.000000
vt 3.000000 0.000000
vt 2.210720 1.094500
vt 3.000000 0.937500
vt 2.730790 0.955145
vt 0.937500 3.000000
vt -0.000000 3.000000
vt 0.955145 2.730790
vt 1.007780 2.466190
vt 2.466190 1.007780
vt 1.094500 2.210720
vt 1.968750 1.213820
vt 1.744430 1.363710
vt 1.213820 1.968750
vt 2.708830 1.913330
vt 2.569480 1.960640
vt 2.282470 1.267730
vt 2.514710 1.188890
vt 2.755260 1.141040
vt 2.853160 1.884620
vt -1.875000 0.630000
vt -1.125000 0.630000
vt 2.315140 2.107480
vt 1.858570 1.512460
vt 2.062500 1.376200
vt 2.437500 2.025720
vt 3.000000 1.125000
vt 3.000000 1.875000
vt 1.267730 2.282470
vt 1.376200 2.062500
vt 2.025720 2.437500
vt 1.960640 2.569480
vt 1.913330 2.708830
vt 1.884620 2.853160
vt 1.141040 2.755260
vt 1.188890 2.514710
vt 1.125000 3.000000
vt 1.875000 3.000000
vt 1.674170 1.674170
vt 2.204500 2.204500
vt 2.107480 2.315140
vt 1.512460 1.858570
vt -3.000000 0.630000
vt -2.062500 0.630000
vt 1.875000 0.630000
vt 1.125000 0.630000
vt -2.662470 0.570000
vt -2.662470 0.630000
vt -2.932260 0.630000
vt -2.932260 0.570000
vt -2.222190 0.570000
vt -2.222190 0.630000
vt -2.491980 0.630000
vt -2.491980 0.570000
vt -2.736050 0.570000
vt -2.736050 0.630000
vt -2.858680 0.630000
vt -2.858680 0.570000
vt 2.011370 0.570000
vt 2.011370 0.630000
vt 1.741580 0.630000
vt 1.741580 0.570000
vt 2.755260 1.141040
vt 2.730790 0.955145
vt 3.000000 0.937500
vt 3.000000 1.125000
vt 2.514710 1.188890
vt 2.282470 1.267730
vt 2.210720 1.094500
vt 2.466190 1.007780
vt 1.858570 1.512460
vt 1.744430 1.363710
vt 1.968750 1.213820
vt 2.062500 1.376200
vt 1.512460 1.858570
vt 1.376200 2.062500
vt 1.213820 1.968750
vt 1.363710 1.744430
vt 1.267730 2.282470
vt 1.188890 2.514710
vt 1.007780 2.466190
vt 1.094500 2.210720
vt 1.875000 3.000000
vt 1.884620 2.853160
vt 2.070520 2.877630
vt 2.062500 3.000000
vt 2.094440 2.757360
vt 1.913330 2.708830
vt 1.674170 1.674170
vt 1.541590 1.541590
vt 2.491980 0.570000
vt 2.491980 0.630000
vt 2.222190 0.630000
vt 2.222190 0.570000
vt -2.295770 0.570000
vt -2.295770 0.630000
vt -2.418400 0.630000
vt -2.418400 0.570000
vt -1.741580 0.570000
vt -1.741580 0.630000
vt -2.011370 0.630000
vt -2.011370 0.570000
vt 0.962592 0.570000
vt 0.962592 0.630000
vt 0.692804 0.630000
vt 0.692804 0.570000
vt 0.412376 0.570000
vt 0.412376 0.630000
vt 0.142588 0.630000
vt 0.142588 0.570000
vt -0.142588 0.570000
vt -0.142588 0.630000
vt -0.412376 0.630000
vt -0.412376 0.570000
vt -0.692804 0.570000
vt -0.692804 0.630000
vt -0.962592 0.630000
vt -0.962592 0.570000
vt -1.228860 0.570000
vt -1.228860 0.630000
vt -1.498650 0.630000
vt -1.498650 0.570000
vt 2.479720 0.570000
vt 2.479720 0.630000
vt 2.234450 0.630000
vt 2.234450 0.570000
vt 2.920000 0.570000
vt 2.920000 0.630000
vt 2.674740 0.630000
vt 2.674740 0.570000
vt 1.437330 0.570000
vt 1.437330 0.630000
vt 1.290170 0.630000
vt 1.290170 0.570000
vt 2.757360 2.094440
vt 2.641230 2.133860
vt 2.569480 1.960640
vt 2.708830 1.913330
vt 2.188100 2.531250
vt 2.133860 2.641230
vt 1.960640 2.569480
vt 2.025720 2.437500
vt -1.815160 0.570000
vt -1.815160 0.630000
vt -1.937790 0.630000
vt -1.937790 0.570000
vt -2.674740 0.570000
vt -2.674740 0.630000
vt -2.920000 0.630000
vt -2.920000 0.570000
vt -1.241120 0.570000
vt -1.241120 0.630000
vt -1.486380 0.630000
vt -1.486380 0.570000
vt 2.429290 2.256230
vt 2.337090 2.337090
vt 2.204500 2.204500
vt 2.315140 2.107480
vt -2.234450 0.570000
vt -2.234450 0.630000
vt -2.479720 0.630000
vt -2.479720 0.570000
vt 2.858680 0.570000
vt 2.858680 0.630000
vt 2.736050 0.630000
vt 2.736050 0.570000
vt -0.705067 0.570000
vt -0.705067 0.630000
vt -0.950329 0.630000
vt -0.950329 0.570000
vt -0.154851 0.570000
vt -0.154851 0.630000
vt -0.400113 0.630000
vt -0.400113 0.570000
vt 0.950329 0.570000
vt 0.950329 0.630000
vt 0.705067 0.630000
vt 0.705067 0.570000
vt 1.486380 0.570000
vt 1.486380 0.630000
vt 1.241120 0.630000
vt 1.241120 0.570000
vt 1.937790 0.570000
vt 1.937790 0.630000
vt 1.815160 0.630000
vt 1.815160 0.570000
vt 1.999100 0.570000
vt 1.999100 0.630000
vt 1.753840 0.630000
vt 1.753840 0.570000
vt 2.877630 2.070520
vt 2.853160 1.884620
vt 3.000000 1.875000
vt 3.000000 2.062500
vt 2.437500 2.025720
vt 2.531250 2.188100
vt 2.107480 2.315140
vt 2.256230 2.429290
vt 0.937500 3.000000
vt 0.955145 2.730790
vt 1.141040 2.755260
vt 1.125000 3.000000
vt -2.723790 0.570000
vt -2.723790 0.630000
vt -2.870950 0.630000
vt -2.870950 0.570000
vt -2.283510 0.570000
vt -2.283510 0.630000
vt -2.430660 0.630000
vt -2.430660 0.570000
vt 2.870950 0.570000
vt 2.870950 0.630000
vt 2.723790 0.630000
vt 2.723790 0.570000
vt 1.950050 0.570000
vt 1.950050 0.630000
vt 1.802890 0.630000
vt 1.802890 0.570000
vt 2.932260 0.570000
vt 2.932260 0.630000
vt 2.662470 0.630000
vt 2.662470 0.570000
vt 0.901277 0.570000
vt 0.901277 0.630000
vt 0.754120 0.630000
vt 0.754120 0.570000
vt 0.351061 0.570000
vt 0.351061 0.630000
vt 0.203903 0.630000
vt 0.203903 0.570000
vt -0.203903 0.570000
vt -0.203903 0.630000
vt -0.351061 0.630000
vt -0.351061 0.570000
vt -0.754120 0.570000
vt -0.754120 0.630000
vt -0.901277 0.630000
vt -0.901277 0.570000
vt -1.290170 0.570000
vt -1.290170 0.630000
vt -1.437330 0.630000
vt -1.437330 0.570000
vt -1.753840 0.570000
vt -1.753840 0.630000
vt -1.999100 0.630000
vt -1.999100 0.570000
vt -1.802890 0.570000
vt -1.802890 0.630000
vt -1.950050 0.630000
vt -1.950050 0.570000
vt 2.430660 0.570000
vt 2.430660 0.630000
vt 2.283510 0.630000
vt 2.283510 0.570000
vt 2.418400 0.570000
vt 2.418400 0.630000
vt 2.295770 0.630000
vt 2.295770 0.570000
vt 1.425070 0.570000
vt 1.425070 0.630000
vt 1.302440 0.630000
vt 1.302440 0.570000
vt 0.889014 0.570000
vt 0.889014 0.630000
vt 0.766383 0.630000
vt 0.766383 0.570000
vt 0.338797 0.570000
vt 0.338797 0.630000
vt 0.216167 0.630000
vt 0.216167 0.570000
vt -0.216167 0.570000
vt -0.216167 0.630000
vt -0.338797 0.630000
vt -0.338797 0.570000
vt -1.302440 0.570000
vt -1.302440 0.630000
vt -1.425070 0.630000
vt -1.425070 0.570000
vt 1.498650 0.570000
vt 1.498650 0.630000
vt 1.228860 0.630000
vt 1.228860 0.570000
vt -0.766383 0.570000
vt -0.766383 0.630000
vt -0.889014 0.630000
vt -0.889014 0.570000
vt 0.400113 0.570000
vt 0.400113 0.630000
vt 0.154851 0.630000
vt 0.154851 0.570000
vn 0.0000 1.0000 0.0000
vn 0.0000 0.0000 -1.0000
vn 1.0000 0.0000 0.0000
vn 0.0000 -1.0000 -0.0000
vn 0.0000 -0.0000 1.0000
vn -1.0000 -0.0000 0.0000
vn 0.1305 0.0000 -0.9914
vn 0.0654 0.0000 -0.9979
vn 0.2588 0.0000 -0.9659
vn -0.9914 0.0000 0.1305
vn -0.9979 0.0000 0.0654
vn 0.9659 0.0000 -0.2588
vn 0.9239 0.0000 -0.3827
vn 0.9914 0.0000 -0.1305
vn -0.9659 0.0000 0.2588
vn 0.3827 0.0000 -0.9239
vn 0.8660 0.0000 -0.5000
vn 0.7934 0.0000 -0.6088
vn 0.7071 0.0000 -0.7071
vn 0.6088 0.0000 -0.7934
vn 0.5000 0.0000 -0.8660
vn -0.1305 0.0000 0.9914
vn -0.2588 0.0000 0.9659
vn -0.0654 0.0000 0.9979
vn -0.9239 0.0000 0.3827
vn -0.8660 0.0000 0.5000
vn -0.7934 0.0000 0.6088
vn -0.7071 0.0000 0.7071
vn -0.5000 0.0000 0.8660
vn -0.6088 0.0000 0.7934
vn -0.3827 0.0000 0.9239
vn 0.9979 0.0000 -0.0654
vn 0.7934 0.0000 -0.6087
vn 0.6087 0.0000 -0.7934
vn -0.6088 0.0000 0.7933
vn -0.7933 0.0000 0.6088
usemtl Stone.066
s 1
f 11/1/1 12/2/1 5/3/1
f 17/4/2 25/5/2 26/6/2
f 17/7/3 28/8/3 31/9/3
f 42/10/1 43/11/1 36/12/1
f 1/13/1 5/3/1 2/14/1
f 6/15/1 7/16/1 5/3/1
f 8/17/1 9/18/1 5/3/1
f 10/19/1 11/1/1 5/3/1
f 12/2/1 13/20/1 5/3/1
f 14/21/1 15/22/1 5/3/1
f 16/23/1 2/14/1 5/3/1
f 5/3/1 7/16/1 8/17/1
f 9/18/1 10/19/1 5/3/1
f 13/20/1 14/21/1 5/3/1
f 16/23/1 5/3/1 15/22/1
f 5/24/3 1/25/3 4/26/3 17/7/3
f 17/4/2 18/27/2 22/28/2
f 32/29/3 33/30/3 34/31/3 27/32/3
f 18/27/2 21/33/2 22/28/2
f 17/4/2 22/28/2 25/5/2
f 18/27/2 19/34/2 20/35/2 21/33/2
f 17/36/4 27/37/4 35/38/4 18/39/4
f 32/29/3 27/32/3 31/9/3
f 31/9/3 27/32/3 17/7/3
f 17/7/3 4/26/3 28/8/3
f 34/40/5 36/41/5 35/38/5 27/42/5
f 19/43/6 18/44/6 35/38/6 36/41/6
f 36/12/1 34/45/1 39/46/1
f 34/45/1 33/47/1 37/48/1
f 20/49/1 19/50/1 47/51/1
f 47/51/1 19/50/1 46/52/1
f 34/45/1 37/48/1 38/53/1
f 34/45/1 38/53/1 39/46/1
f 46/52/1 19/50/1 45/54/1
f 45/54/1 19/50/1 36/12/1
f 36/12/1 39/46/1 40/55/1
f 36/12/1 40/55/1 41/56/1
f 44/57/1 45/54/1 36/12/1
f 43/11/1 44/57/1 36/12/1
f 36/12/1 41/56/1 42/10/1
f 82/58/1 83/59/1 79/60/1 80/61/1
f 70/62/1 81/63/1 82/58/1 80/61/1
f 24/64/2 25/5/2 22/28/2 23/65/2
f 85/66/1 77/67/1 78/68/1 84/69/1
f 81/63/1 70/62/1 30/70/1 29/71/1
f 73/72/1 74/73/1 88/74/1 89/75/1
f 90/76/1 91/77/1 71/78/1 72/79/1
f 23/80/1 71/78/1 91/77/1 24/81/1
f 89/75/1 90/76/1 72/79/1 73/72/1
f 76/82/1 86/83/1 87/84/1 75/85/1
f 83/59/1 84/69/1 78/68/1 79/60/1
f 85/66/1 86/83/1 76/82/1 77/67/1
f 75/85/1 87/84/1 88/74/1 74/73/1
f 5/86/2 17/4/2 26/6/2 6/87/2
f 28/8/3 29/88/3 30/89/3 31/9/3
usemtl Grey_Asphalt.001
f 48/90/7 37/91/7 33/92/8 32/93/8
f 58/94/9 38/95/9 37/96/7 48/97/7
f 112/98/10 7/99/10 6/100/11 26/101/11
f 50/102/12 46/103/12 45/104/13 51/105/13
f 59/106/1 48/107/1 32/108/1 31/109/1
f 60/110/1 61/111/1 57/112/1 58/113/1
f 63/114/1 55/115/1 56/116/1 62/117/1
f 65/118/1 66/119/1 52/120/1 53/121/1
f 67/122/1 68/123/1 50/124/1 51/125/1
f 25/126/1 93/127/1 112/128/1 26/129/1
f 111/130/1 112/128/1 93/127/1 94/131/1
f 55/115/1 63/114/1 64/132/1 54/133/1
f 48/107/1 59/106/1 60/110/1 58/113/1
f 61/111/1 62/117/1 56/116/1 57/112/1
f 49/134/14 47/135/14 46/136/12 50/137/12
f 111/138/15 8/139/15 7/140/10 112/141/10
f 57/142/16 39/143/16 38/144/9 58/145/9
f 52/146/17 44/147/17 43/148/18 53/149/18
f 53/150/18 43/151/18 42/152/19 54/153/19
f 54/154/19 42/155/19 41/156/20 55/157/20
f 55/158/20 41/159/20 40/160/21 56/161/21
f 56/162/21 40/163/21 39/164/16 57/165/16
f 59/166/22 70/167/22 80/168/23 60/169/23
f 31/170/24 30/171/24 70/172/22 59/173/22
f 95/174/13 89/175/13 88/176/17 96/177/17
f 66/119/1 67/122/1 51/125/1 52/120/1
f 103/178/1 104/179/1 101/180/1 102/181/1
f 109/182/1 110/183/1 95/184/1 96/185/1
f 110/186/25 9/187/25 8/188/15 111/189/15
f 69/190/10 71/191/10 23/192/11 22/193/11
f 66/194/26 74/195/26 73/196/25 67/197/25
f 106/198/1 107/199/1 98/200/1 99/201/1
f 68/202/15 72/203/15 71/204/10 69/205/10
f 4/206/24 1/207/24 2/208/22 3/209/22
f 65/210/27 75/211/27 74/212/26 66/213/26
f 64/214/28 76/215/28 75/216/27 65/217/27
f 62/218/29 78/219/29 77/220/30 63/221/30
f 61/222/31 79/223/31 78/224/29 62/225/29
f 103/226/23 16/227/23 15/228/31 104/229/31
f 60/230/23 80/231/23 79/232/31 61/233/31
f 3/234/1 92/235/1 28/236/1 4/237/1
f 106/198/1 99/201/1 100/238/1 105/239/1
f 97/240/1 98/200/1 107/199/1 108/241/1
f 64/132/1 65/118/1 53/121/1 54/133/1
f 97/240/1 108/241/1 109/182/1 96/185/1
f 21/242/1 49/243/1 69/244/1 22/245/1
f 110/183/1 111/130/1 94/131/1 95/184/1
f 92/235/1 3/234/1 103/178/1 102/181/1
f 104/179/1 105/239/1 100/238/1 101/180/1
f 68/123/1 69/244/1 49/243/1 50/124/1
f 92/246/7 81/247/7 29/248/8 28/249/8
f 102/250/9 82/251/9 81/252/7 92/253/7
f 25/254/32 24/255/32 91/256/14 93/257/14
f 94/258/12 90/259/12 89/260/13 95/261/13
f 21/262/32 20/263/32 47/264/14 49/265/14
f 96/266/17 88/267/17 87/268/33 97/269/33
f 97/270/33 87/271/33 86/272/19 98/273/19
f 98/274/19 86/275/19 85/276/34 99/277/34
f 99/278/34 85/279/34 84/280/21 100/281/21
f 100/282/21 84/283/21 83/284/16 101/285/16
f 67/286/25 73/287/25 72/288/15 68/289/15
f 101/290/16 83/291/16 82/292/9 102/293/9
f 93/294/14 91/295/14 90/296/12 94/297/12
f 3/298/22 2/299/22 16/300/23 103/301/23
f 104/302/31 15/303/31 14/304/29 105/305/29
f 105/306/29 14/307/29 13/308/35 106/309/35
f 106/310/35 13/311/35 12/312/28 107/313/28
f 107/314/28 12/315/28 11/316/36 108/317/36
f 109/318/26 10/319/26 9/320/25 110/321/25
f 51/322/13 45/323/13 44/324/17 52/325/17
f 108/326/36 11/327/36 10/328/26 109/329/26
f 63/330/30 77/331/30 76/332/28 64/333/28
