# Blender v2.79 (sub 0) OBJ File: ''
# www.blender.org
mtllib roadTile_089.mtl
o Mesh1_Group1_Model.088
v 0.000000 0.630000 -3.000000
v 0.000000 1.730000 0.000000
v 0.750000 1.730000 0.000000
v 0.750000 0.630000 -3.000000
v 0.000000 0.000000 -0.000000
v 0.000000 0.000000 -3.000000
v 3.000000 0.300000 0.000000
v 0.750000 0.300000 0.000000
v 0.750000 0.600000 0.000000
v 3.000000 0.000000 0.000000
v 3.000000 0.600000 0.000000
v 3.000000 0.300000 -3.000000
v 3.000000 0.600001 -3.000000
v 3.000000 0.000000 -3.000000
v 0.750000 0.600001 -3.000000
v 0.750000 0.300000 -3.000000
vt -0.750000 0.300000
vt -3.000000 0.000000
vt 0.000000 0.000000
vt 0.000000 0.600000
vt 3.000000 0.600000
vt 3.000000 0.630000
vt 0.000000 1.730000
vt 3.000000 0.000000
vt 3.000000 0.300000
vt 0.750000 0.300000
vt -0.000000 0.000000
vt 0.750000 0.600000
vt 0.000000 0.000000
vt 3.000000 0.000000
vt 3.000000 0.300000
vt 0.000000 0.300000
vt 0.000000 1.730000
vt 0.750000 1.730000
vt -0.750000 0.630000
vt -0.750000 0.600000
vt 0.000000 0.630000
vt -3.000000 0.300000
vt -3.000000 0.630000
vt -3.000000 0.000000
vt -0.750000 -2.599750
vt 0.000000 -2.599750
vt -0.000000 0.595561
vt -0.750000 0.595561
vt -0.000000 3.000000
vt -3.000000 3.000000
vt -3.000000 0.000000
vt 3.000000 0.600000
vt 3.000000 0.600000
vt 0.000000 0.600000
vt 0.750000 0.000000
vt 3.000000 0.000000
vt 3.000000 3.000000
vt 0.750000 3.000000
vt -3.000000 0.600000
vn 0.0000 0.0000 -1.0000
vn 1.0000 0.0000 0.0000
vn -0.0000 -0.0000 1.0000
vn -1.0000 0.0000 -0.0000
vn 0.0000 0.9389 -0.3443
vn -0.0000 -1.0000 -0.0000
vn 0.0000 1.0000 0.0000
usemtl Stone.069
s 1
f 16/1/1 14/2/1 6/3/1
f 9/4/2 15/5/2 4/6/2 3/7/2
f 10/8/3 7/9/3 8/10/3
f 5/11/3 10/8/3 8/10/3
f 8/10/3 9/12/3 5/11/3
f 10/13/2 14/14/2 12/15/2 7/16/2
f 2/17/3 5/11/3 9/12/3 3/18/3
f 4/19/1 15/20/1 1/21/1
f 12/22/1 14/2/1 16/1/1
f 1/21/1 15/20/1 16/1/1 6/3/1
f 1/23/4 6/24/4 5/11/4 2/17/4
f 4/25/5 1/26/5 2/27/5 3/28/5
f 6/29/6 14/30/6 10/31/6 5/11/6
usemtl Asphalt.053
f 11/32/3 9/12/3 8/10/3 7/9/3
f 13/33/2 11/34/2 7/16/2 12/15/2
f 9/35/7 11/36/7 13/37/7 15/38/7
f 15/20/1 13/39/1 12/22/1 16/1/1
