# Blender v2.79 (sub 0) OBJ File: ''
# www.blender.org
mtllib roadTile_270.mtl
o Mesh1_Group1_Model.269
v 0.000000 1.730000 -0.750000
v 0.000000 1.700000 -0.750000
v 0.000000 1.400000 -0.750000
v 0.000000 1.400000 -2.250000
v 0.000000 1.700000 -2.250000
v 0.000000 1.730000 -2.250000
v 0.000000 1.730000 -3.000000
v 0.000000 1.100001 -3.000000
v 0.000000 1.100000 0.000000
v 0.000000 1.730000 0.000000
v 3.000000 0.600000 -0.750000
v 3.000000 0.630000 -0.750000
v 3.000000 0.600000 -2.250000
v 3.000000 0.630000 -2.250000
v 3.000000 0.300000 -2.250000
v 3.000000 0.300000 -0.750000
v 3.000000 0.630000 0.000000
v 3.000000 0.000000 -0.000000
v 3.000000 0.000000 -3.000000
v 3.000000 0.630000 -3.000000
vt -0.750000 1.730000
vt -0.750000 1.700000
vt -0.750000 1.400000
vt -2.250000 1.400000
vt -2.250000 1.700000
vt -2.250000 1.730000
vt -3.000000 1.730000
vt -3.000000 1.100000
vt 0.000000 1.100000
vt 0.000000 1.730000
vt -3.000000 0.600000
vt -0.000000 1.700000
vt -0.000000 1.730000
vt -3.000000 0.630000
vt 0.000000 1.700000
vt 3.000000 0.600000
vt 3.000000 0.630000
vt 0.000000 1.730000
vt 2.250000 0.630000
vt 2.250000 0.600000
vt 2.250000 0.300000
vt 0.750000 0.300000
vt 0.750000 0.600000
vt 0.750000 0.630000
vt 0.000000 0.630000
vt 0.000000 0.000000
vt 3.000000 0.000000
vt 3.000000 0.630000
vt 0.750000 0.595561
vt -0.000000 0.595561
vt -0.000000 -2.599750
vt 0.750000 -2.599750
vt 3.000000 -0.000000
vt 3.000000 0.630000
vt 0.000000 0.378680
vt -3.000000 0.378680
vt -3.000000 -2.816630
vt -0.000000 -2.816630
vt -3.000000 0.000000
vt -0.000000 1.100000
vt -0.000000 1.730000
vt -3.000000 0.630000
vt 2.250000 -2.599750
vt 3.000000 -2.599750
vt 3.000000 0.595561
vt 2.250000 0.595561
vt 2.250000 -2.610080
vt 2.250000 0.585233
vt 0.750000 0.585233
vt 0.750000 -2.610080
vn -1.0000 -0.0000 0.0000
vn 0.0000 0.0000 -1.0000
vn 0.0000 0.0000 1.0000
vn 1.0000 0.0000 0.0000
vn 0.3443 0.9389 0.0000
vn -0.3443 -0.9389 -0.0000
usemtl Stone.226
s 1
f 1/1/1 2/2/1 3/3/1 4/4/1 5/5/1 6/6/1 7/7/1 8/8/1 9/9/1 10/10/1
f 11/11/2 2/12/2 1/13/2 12/14/2
f 5/15/3 13/16/3 14/17/3 6/18/3
f 14/19/4 13/20/4 15/21/4 16/22/4 11/23/4 12/24/4 17/25/4 18/26/4 19/27/4 20/28/4
f 1/29/5 10/30/5 17/31/5 12/32/5
f 9/9/3 18/33/3 17/34/3 10/10/3
f 9/35/6 8/36/6 19/37/6 18/38/6
f 19/39/2 8/40/2 7/41/2 20/42/2
f 14/43/5 20/44/5 7/45/5 6/46/5
usemtl Asphalt.184
f 13/47/5 5/48/5 2/49/5 11/50/5
f 13/20/4 11/23/4 16/22/4 15/21/4
f 2/2/1 5/5/1 4/4/1 3/3/1
