# Blender v2.79 (sub 0) OBJ File: ''
# www.blender.org
mtllib roadTile_211.mtl
o Mesh1_Group1_Model.210
v 3.000000 1.700000 -0.375000
v 0.000000 1.700000 -0.375000
v 0.000000 1.730000 -0.375000
v 3.000000 1.730000 -0.375000
v 3.000000 1.700000 -1.875000
v 0.000000 1.700000 -1.875000
v 3.000000 1.730000 -1.875000
v 0.000000 1.730000 -1.875000
v 3.000000 1.730000 0.000000
v 3.000000 0.000000 -0.000000
v 3.000000 0.000000 -2.250000
v 3.000000 1.730000 -2.250000
v 3.000000 1.400000 -1.875000
v 3.000000 1.400000 -0.375000
v 0.000000 1.730000 0.000000
v 0.000000 1.100000 0.000000
v 2.370000 0.000000 -0.000000
v 0.000000 1.730000 -2.250000
v 0.000000 1.100000 -2.250000
v 0.000000 1.400000 -0.375000
v 0.000000 1.400000 -1.875000
v 2.370000 0.000000 -2.250000
vt -3.000000 1.700000
vt -0.000000 1.700000
vt -0.000000 1.730000
vt -3.000000 1.730000
vt 0.000000 1.700000
vt 3.000000 1.700000
vt 3.000000 1.730000
vt 0.000000 1.730000
vt 0.000000 1.730000
vt 0.000000 0.000000
vt 2.250000 0.000000
vt 2.250000 1.730000
vt 1.875000 1.730000
vt 1.875000 1.700000
vt 1.875000 1.400000
vt 0.375000 1.400000
vt 0.375000 1.700000
vt 0.375000 1.730000
vt 0.000000 1.730000
vt 0.000000 1.100000
vt 2.370000 -0.000000
vt 3.000000 0.000000
vt 3.000000 1.730000
vt -2.250000 1.730000
vt -2.250000 1.100000
vt -0.375000 1.730000
vt -0.375000 1.700000
vt -0.375000 1.400000
vt -1.875000 1.400000
vt -1.875000 1.700000
vt -1.875000 1.730000
vt -2.370000 0.000000
vt -0.000000 1.100000
vt -0.000000 1.730000
vt -3.000000 1.730000
vt -3.000000 0.000000
vt -2.250000 0.463099
vt -2.250000 -2.149730
vt -0.000000 -2.149730
vt 0.000000 0.463099
vt -3.000000 0.000000
vt -2.370000 0.000000
vt -2.370000 2.250000
vt -3.000000 2.250000
vt 3.000000 1.875000
vt 3.000000 2.250000
vt 0.000000 2.250000
vt 0.000000 1.875000
vt 0.000000 0.375000
vt 0.000000 0.000000
vt 3.000000 0.000000
vt 3.000000 0.375000
vt 3.000000 1.875000
vt 0.000000 1.875000
vt 0.000000 0.375000
vt 3.000000 0.375000
vn 0.0000 0.0000 -1.0000
vn 0.0000 0.0000 1.0000
vn 1.0000 -0.0000 0.0000
vn -1.0000 0.0000 -0.0000
vn -0.4210 -0.9071 -0.0000
vn 0.0000 -1.0000 -0.0000
vn 0.0000 1.0000 0.0000
usemtl Stone.167
s 1
f 1/1/1 2/2/1 3/3/1 4/4/1
f 6/5/2 5/6/2 7/7/2 8/8/2
f 9/9/3 10/10/3 11/11/3 12/12/3 7/13/3 5/14/3 13/15/3 14/16/3 1/17/3 4/18/3
f 15/19/2 16/20/2 17/21/2 10/22/2 9/23/2
f 18/24/4 19/25/4 16/20/4 15/19/4 3/26/4 2/27/4 20/28/4 21/29/4 6/30/4 8/31/4
f 22/32/1 19/33/1 18/34/1 12/35/1 11/36/1
f 19/37/5 22/38/5 17/39/5 16/40/5
f 10/41/6 17/42/6 22/43/6 11/44/6
f 7/45/7 12/46/7 18/47/7 8/48/7
f 3/49/7 15/50/7 9/51/7 4/52/7
usemtl Asphalt.138
f 5/53/7 6/54/7 2/55/7 1/56/7
f 6/30/4 21/29/4 20/28/4 2/27/4
f 1/17/3 14/16/3 13/15/3 5/14/3
