# Blender v2.79 (sub 0) OBJ File: ''
# www.blender.org
mtllib roadTile_241.mtl
o Mesh1_Group1_Model.240
v 0.000000 0.000000 0.000000
v 3.000000 0.000000 -0.000000
v 3.000000 1.260000 0.000000
v 0.000000 1.260000 0.000000
v 0.000000 0.000000 -3.000000
v 3.000000 0.000000 -3.000000
v 0.000000 1.260000 -3.000000
v 0.000000 1.260000 -0.750000
v 0.000000 0.600000 -0.750000
v 0.000000 0.300000 -0.750000
v 0.000000 0.300000 -2.250000
v 0.000000 0.600000 -2.250000
v 0.000000 1.260000 -2.250000
v 3.000000 1.260000 -3.000000
v 3.000000 1.260000 -2.250000
v 3.000000 0.600000 -2.250000
v 3.000000 0.300000 -2.250000
v 3.000000 0.300000 -0.750000
v 3.000000 0.600000 -0.750000
v 3.000000 1.260000 -0.750000
vt 0.000000 0.000000
vt 3.000000 -0.000000
vt 3.000000 1.260000
vt 0.000000 1.260000
vt -0.000000 3.000000
vt -3.000000 3.000000
vt -3.000000 0.000000
vt -3.000000 1.260000
vt -3.000000 0.000000
vt -0.750000 1.260000
vt -0.750000 0.600000
vt -0.750000 0.300000
vt -2.250000 0.300000
vt -2.250000 0.600000
vt -2.250000 1.260000
vt -3.000000 0.000000
vt -0.000000 0.000000
vt -0.000000 1.260000
vt -3.000000 1.260000
vt 3.000000 2.250000
vt 3.000000 3.000000
vt 0.000000 3.000000
vt 0.000000 2.250000
vt 0.000000 1.260000
vt 0.000000 0.000000
vt 3.000000 0.000000
vt 3.000000 1.260000
vt 2.250000 1.260000
vt 2.250000 0.600000
vt 2.250000 0.300000
vt 0.750000 0.300000
vt 0.750000 0.600000
vt 0.750000 1.260000
vt 0.000000 0.600000
vt 3.000000 0.600000
vt 3.000000 1.260000
vt 0.000000 1.260000
vt -3.000000 0.600000
vt -0.000000 0.600000
vt -0.000000 1.260000
vt -3.000000 1.260000
vt 0.000000 0.750000
vt 0.000000 0.000000
vt 3.000000 0.000000
vt 3.000000 0.750000
vt 3.000000 2.250000
vt 0.000000 2.250000
vt 0.000000 0.750000
vt 3.000000 0.750000
vn 0.0000 -0.0000 1.0000
vn 0.0000 -1.0000 -0.0000
vn -1.0000 0.0000 -0.0000
vn 0.0000 0.0000 -1.0000
vn 0.0000 1.0000 0.0000
vn 1.0000 0.0000 0.0000
usemtl Stone.197
s 1
f 1/1/1 2/2/1 3/3/1 4/4/1
f 1/1/2 5/5/2 6/6/2 2/7/2
f 7/8/3 5/9/3 1/1/3 4/4/3 8/10/3 9/11/3 10/12/3 11/13/3 12/14/3 13/15/3
f 6/16/4 5/17/4 7/18/4 14/19/4
f 15/20/5 14/21/5 7/22/5 13/23/5
f 3/24/6 2/25/6 6/26/6 14/27/6 15/28/6 16/29/6 17/30/6 18/31/6 19/32/6 20/33/6
f 12/34/1 16/35/1 15/36/1 13/37/1
f 19/38/4 9/39/4 8/40/4 20/41/4
f 8/42/5 4/43/5 3/44/5 20/45/5
usemtl Asphalt.164
f 16/46/5 12/47/5 9/48/5 19/49/5
f 12/14/3 11/13/3 10/12/3 9/11/3
f 19/32/6 18/31/6 17/30/6 16/29/6
