# Blender v2.79 (sub 0) OBJ File: ''
# www.blender.org
mtllib roadTile_225.mtl
o Mesh1_Group1_Model.224
v 0.000000 1.730000 -0.375000
v 0.000000 1.730000 -1.875000
v 0.000000 1.400000 -1.875000
v 0.000000 1.400000 -0.375000
v 3.000000 0.600000 -0.375000
v 3.000000 0.600000 -1.875000
v 3.000000 1.730000 -0.375000
v 3.000000 0.000000 -0.000000
v 3.000000 0.000000 -2.250000
v 3.000000 1.730000 -2.250000
v 3.000000 1.730000 -1.875000
v 3.000000 0.300000 -1.875000
v 3.000000 0.300000 -0.375000
v 3.000000 1.730000 0.000000
v 0.000000 0.000000 0.000000
v 0.000000 0.000000 -2.250000
v 0.000000 1.730000 0.000000
v 0.000000 1.730000 -2.250000
vt -3.000000 1.730000
vt -3.000000 0.600000
vt -0.000000 1.730000
vt 0.000000 0.000000
vt 2.250000 0.000000
vt 2.250000 1.730000
vt 1.875000 1.730000
vt 1.875000 0.600000
vt 1.875000 0.300000
vt 0.375000 0.300000
vt 0.375000 0.600000
vt 0.375000 1.730000
vt 0.000000 1.730000
vt -3.000000 2.250000
vt -3.000000 0.000000
vt 0.000000 -0.000000
vt -0.000000 2.250000
vt 3.000000 1.730000
vt 0.000000 1.730000
vt 3.000000 0.000000
vt 0.000000 0.375000
vt 0.000000 0.000000
vt 3.000000 0.000000
vt 3.000000 0.375000
vt -2.250000 0.000000
vt -0.375000 1.730000
vt -0.375000 1.400000
vt -1.875000 1.400000
vt -1.875000 1.730000
vt -2.250000 1.730000
vt 3.000000 1.875000
vt 3.000000 2.250000
vt 0.000000 2.250000
vt 0.000000 1.875000
vt -0.000000 1.730000
vt -3.000000 1.730000
vt -3.000000 0.000000
vt -0.000000 0.000000
vt 3.000000 1.730000
vt 0.000000 1.730000
vt 3.000000 0.600000
vt 0.375000 0.609809
vt 0.375000 -2.595950
vt 1.875000 -2.595950
vt 1.875000 0.609809
vn 0.0000 0.0000 -1.0000
vn 1.0000 0.0000 0.0000
vn 0.0000 -1.0000 -0.0000
vn 0.0000 -0.0000 1.0000
vn 0.0000 1.0000 0.0000
vn -1.0000 0.0000 -0.0000
vn 0.3525 0.9358 0.0000
usemtl Stone.181
s 1
f 7/1/1 5/2/1 1/3/1
f 8/4/2 9/5/2 10/6/2 11/7/2 6/8/2 12/9/2 13/10/2 5/11/2 7/12/2 14/13/2
f 9/14/3 8/15/3 15/16/3 16/17/3
f 14/18/4 17/19/4 15/16/4 8/20/4
f 1/21/5 17/22/5 14/23/5 7/24/5
f 16/25/6 15/16/6 17/19/6 1/26/6 4/27/6 3/28/6 2/29/6 18/30/6
f 11/31/5 10/32/5 18/33/5 2/34/5
f 18/35/1 10/36/1 9/37/1 16/38/1
f 11/39/4 2/40/4 6/41/4
usemtl Asphalt.150
f 1/26/6 2/29/6 3/28/6 4/27/6
f 1/42/7 5/43/7 6/44/7 2/45/7
f 5/11/2 13/10/2 12/9/2 6/8/2
