# Blender v2.79 (sub 0) OBJ File: ''
# www.blender.org
mtllib roadTile_070.mtl
o Mesh1_Group1_Model.069
v 2.205090 0.600000 -2.314740
v 2.071110 0.600000 -1.641200
v 2.071110 0.630000 -1.641200
v 2.205090 0.630000 -2.314740
v 0.000000 0.600000 0.000000
v 1.296070 0.600000 0.000000
v 1.546630 0.600000 -0.375000
v 1.850370 0.600000 -0.990912
v 2.250000 0.600001 -3.000000
v 0.000000 0.600001 -3.000000
v 0.000000 0.300000 0.000000
v 1.296070 0.300000 0.000000
v 0.000000 0.300000 -3.000000
v 2.250000 0.300000 -3.000000
v 3.000000 0.000000 -3.000000
v 0.000000 0.000000 -3.000000
v 2.250000 0.630000 -3.000000
v 3.000000 0.630000 -3.000000
v 3.000000 0.000000 -0.000000
v 0.000000 0.000000 0.000000
v 3.000000 0.630000 0.000000
v 1.850370 0.630000 -0.990912
v 1.546630 0.630000 -0.375000
v 1.296070 0.630000 0.000000
vt 2.071110 1.641200
vt 1.850370 0.990912
vt 3.000000 0.000000
vt -2.219840 0.630000
vt -2.219840 0.600000
vt -1.533110 0.600000
vt -1.533110 0.630000
vt -3.000000 -0.000000
vt 0.000000 -0.000000
vt -2.250000 0.300000
vt 0.000000 0.300000
vt -2.250000 0.630000
vt -3.000000 0.630000
vt -2.250000 0.600000
vt 0.000000 0.630000
vt 0.000000 -0.000000
vt 3.000000 -0.000000
vt 3.000000 0.630000
vt -3.140730 0.630000
vt -3.140730 0.600000
vt -2.454000 0.600000
vt -2.454000 0.630000
vt 3.000000 3.000000
vt 2.250000 3.000000
vt 2.205090 2.314740
vt 1.546630 0.375000
vt 1.296070 0.000000
vt -1.707120 0.630000
vt -1.707120 0.600000
vt -1.020390 0.600000
vt -1.020390 0.630000
vt 3.000000 0.630000
vt 1.296070 0.600000
vt 1.296070 0.300000
vt 3.000000 0.000000
vt -1.171060 0.630000
vt -1.171060 0.600000
vt -0.720056 0.600000
vt -0.720056 0.630000
vt -2.700450 0.630000
vt -2.700450 0.600000
vt -2.013720 0.600000
vt -2.013720 0.630000
vt 0.000000 0.300000
vt 0.000000 -0.000000
vt 1.296070 0.630000
vt -3.000000 0.000000
vt -3.000000 0.300000
vt 0.000000 118.110001
vt -118.110001 118.110001
vt -118.110001 0.000000
vt 2.071110 1.641200
vt 2.205090 2.314740
vt -0.000000 3.000000
vt 0.000000 0.600000
vt 0.000000 -0.000000
vt 1.850370 0.990912
vt 1.296070 0.000000
vt 1.546630 0.375000
vt 2.250000 3.000000
vt -3.000000 0.600000
vt 0.000000 0.600000
vn 0.0000 1.0000 0.0000
vn -0.9659 0.0000 -0.2588
vn -0.9239 0.0000 -0.3827
vn 0.0000 0.0000 -1.0000
vn 1.0000 0.0000 0.0000
vn -0.9979 0.0000 -0.0654
vn -0.9914 0.0000 -0.1305
vn -0.8660 -0.0000 -0.5000
vn 0.0000 -0.0000 1.0000
vn -0.8315 -0.0000 -0.5556
vn -1.0000 0.0000 0.0000
vn 0.0000 -1.0000 -0.0000
usemtl Stone.050
s 1
f 3/1/1 22/2/1 21/3/1
f 3/4/2 2/5/2 8/6/3 22/7/3
f 15/8/4 16/9/4 14/10/4
f 16/9/4 13/11/4 14/10/4
f 17/12/4 18/13/4 9/14/4
f 21/15/5 19/16/5 15/17/5 18/18/5
f 17/19/6 9/20/6 1/21/7 4/22/7
f 21/3/1 18/23/1 3/1/1
f 18/23/1 17/24/1 4/25/1
f 23/26/1 24/27/1 21/3/1
f 22/2/1 23/26/1 21/3/1
f 18/23/1 4/25/1 3/1/1
f 22/28/3 8/29/3 7/30/8 23/31/8
f 21/32/9 6/33/9 12/34/9 19/35/9
f 23/36/8 7/37/8 6/38/10 24/39/10
f 4/40/7 1/41/7 2/42/2 3/43/2
f 12/34/9 11/44/9 20/45/9
f 20/45/9 19/35/9 12/34/9
f 21/32/9 24/46/9 6/33/9
f 15/8/4 14/10/4 9/14/4 18/13/4
f 16/47/11 20/45/11 11/44/11 13/48/11
usemtl FrontColor.006
f 20/45/12 16/49/12 15/50/12 19/51/12
usemtl Asphalt.039
f 2/52/1 1/53/1 10/54/1
f 6/33/9 5/55/9 11/44/9 12/34/9
f 10/54/1 5/56/1 8/57/1
f 6/58/1 7/59/1 5/56/1
f 8/57/1 2/52/1 10/54/1
f 1/53/1 9/60/1 10/54/1
f 5/56/1 7/59/1 8/57/1
f 5/55/11 10/61/11 13/48/11 11/44/11
f 10/62/4 9/14/4 14/10/4 13/11/4
