# Blender v2.79 (sub 0) OBJ File: ''
# www.blender.org
mtllib roadTile_258.mtl
o Mesh1_Group1_Model.257
v 0.000000 0.000000 -0.000000
v 0.000000 0.000000 -3.000000
v 3.000000 0.000000 -3.000000
v 3.000000 0.000000 -0.000000
v 0.000000 1.650000 0.000000
v 0.000000 1.650000 -0.750000
v 0.000000 0.600000 -0.750000
v 0.000000 0.300000 -0.750000
v 0.000000 0.300000 -2.250000
v 0.000000 0.600000 -2.250000
v 0.000000 1.650000 -2.250000
v 0.000000 1.650000 -3.000000
v 3.000000 0.630000 0.000000
v 3.000000 0.630000 -0.750000
v 3.000000 0.630000 -3.000000
v 3.000000 0.630000 -2.250000
v 3.000000 0.600000 -2.250000
v 3.000000 0.300000 -2.250000
v 3.000000 0.300000 -0.750000
v 3.000000 0.600000 -0.750000
vt -0.000000 0.000000
vt 0.000000 3.000000
vt -3.000000 3.000000
vt -3.000000 0.000000
vt -0.000000 1.650000
vt -0.750000 1.650000
vt -0.750000 0.600000
vt -0.750000 0.300000
vt -2.250000 0.300000
vt -2.250000 0.600000
vt -2.250000 1.650000
vt -3.000000 1.650000
vt -3.000000 0.000000
vt 0.750000 0.531139
vt 0.000000 0.531139
vt -0.000000 -2.637520
vt 0.750000 -2.637520
vt 3.000000 -0.000000
vt 3.000000 0.630000
vt 3.000000 0.630000
vt 2.250000 0.630000
vt 2.250000 0.600000
vt 2.250000 0.300000
vt 0.750000 0.300000
vt 0.750000 0.600000
vt 0.750000 0.630000
vt -0.000000 0.630000
vt 0.000000 -0.000000
vt 3.000000 -0.000000
vt 3.000000 0.531139
vt 2.250000 0.531139
vt 2.250000 -2.637520
vt 3.000000 -2.637520
vt 3.000000 0.630000
vt 0.000000 1.650000
vt 0.000000 0.600000
vt 3.000000 0.600000
vt -0.000000 0.600000
vt -0.000000 1.650000
vt -3.000000 0.630000
vt -3.000000 0.600000
vt -0.000000 -0.000000
vt -0.000000 1.650000
vt -3.000000 0.630000
vt -3.000000 -0.000000
vt 3.000000 0.750000
vt 3.000000 2.250000
vt 0.000000 2.250000
vt 0.000000 0.750000
vn 0.0000 -1.0000 -0.0000
vn -1.0000 0.0000 0.0000
vn 0.3219 0.9468 0.0000
vn 0.0000 -0.0000 1.0000
vn 1.0000 0.0000 0.0000
vn 0.0000 0.0000 -1.0000
vn 0.0000 1.0000 0.0000
usemtl Stone.214
s 1
f 1/1/1 2/2/1 3/3/1 4/4/1
f 5/5/2 6/6/2 7/7/2 8/8/2 9/9/2 10/10/2 11/11/2 12/12/2 2/13/2 1/1/2
f 6/14/3 5/15/3 13/16/3 14/17/3
f 4/18/4 13/19/4 5/5/4 1/1/4
f 15/20/5 16/21/5 17/22/5 18/23/5 19/24/5 20/25/5 14/26/5 13/27/5 4/28/5 3/29/5
f 12/30/3 11/31/3 16/32/3 15/33/3
f 16/34/4 11/35/4 10/36/4 17/37/4
f 7/38/6 6/39/6 14/40/6 20/41/6
f 2/42/6 12/43/6 15/44/6 3/45/6
usemtl Asphalt.175
f 20/46/7 17/47/7 10/48/7 7/49/7
f 17/22/5 20/25/5 19/24/5 18/23/5
f 7/7/2 10/10/2 9/9/2 8/8/2
