# Blender v2.79 (sub 0) OBJ File: ''
# www.blender.org
mtllib roadTile_091.mtl
o Mesh1_Group1_Model.090
v 0.750000 1.730000 -3.000000
v 0.000000 1.730000 -3.000000
v 0.000000 1.730000 0.000000
v 3.000000 1.730000 0.000000
v 3.000000 1.730000 -0.750000
v 0.750000 1.730000 -0.750000
v 3.000000 0.000000 -3.000000
v 0.000000 0.000000 -3.000000
v 0.750000 0.600001 -3.000000
v 0.750000 0.300000 -3.000000
v 3.000000 0.300000 -3.000000
v 3.000000 0.000000 0.000000
v 0.000000 0.000000 -0.000000
v 3.000000 0.300000 -0.750000
v 3.000000 0.600000 -0.750000
v 3.000000 0.600001 -3.000000
v 0.750000 0.600000 -0.750000
vt 3.000000 -0.000000
vt 3.000000 0.750000
vt 0.750000 0.750000
vt 0.000000 -0.000000
vt -0.750000 0.600000
vt -0.750000 0.300000
vt 0.750000 3.000000
vt 0.000000 3.000000
vt -0.000000 0.000000
vt -3.000000 0.300000
vt -3.000000 0.000000
vt 0.000000 1.730000
vt 0.000000 0.000000
vt 0.750000 0.600000
vt 0.750000 1.730000
vt 3.000000 0.000000
vt 3.000000 0.300000
vt 0.750000 0.300000
vt -0.750000 1.730000
vt 0.000000 1.730000
vt -3.000000 1.730000
vt -3.000000 0.600000
vt -0.750000 0.600000
vt -0.750000 1.730000
vt 3.000000 1.730000
vt -0.000000 1.730000
vt -0.000000 0.000000
vt 3.000000 0.000000
vt -0.000000 3.000000
vt -3.000000 3.000000
vt -3.000000 -0.000000
vt 3.000000 1.730000
vt 0.750000 1.730000
vt 0.750000 0.600000
vt 3.000000 0.600000
vt -3.000000 1.730000
vt -3.000000 0.000000
vt 3.000000 0.600000
vt -3.000000 0.600000
vt 3.000000 0.750000
vt 3.000000 3.000000
vt 0.750000 3.000000
vt 0.750000 0.750000
vn 0.0000 1.0000 0.0000
vn 0.0000 0.0000 -1.0000
vn 1.0000 -0.0000 0.0000
vn -0.0000 -0.0000 1.0000
vn -0.0000 -1.0000 -0.0000
vn -1.0000 0.0000 -0.0000
usemtl Stone.071
s 1
f 4/1/1 5/2/1 6/3/1
f 8/4/2 9/5/2 10/6/2
f 6/3/1 1/7/1 2/8/1
f 3/9/1 4/1/1 6/3/1
f 6/3/1 2/8/1 3/9/1
f 11/10/2 7/11/2 10/6/2
f 4/12/3 12/13/3 15/14/3 5/15/3
f 10/6/2 7/11/2 8/4/2
f 7/16/3 11/17/3 14/18/3
f 12/13/3 7/16/3 14/18/3
f 14/18/3 15/14/3 12/13/3
f 1/19/2 9/5/2 8/4/2 2/20/2
f 5/21/2 15/22/2 17/23/2 6/24/2
f 4/25/4 3/26/4 13/27/4 12/28/4
f 8/29/5 7/30/5 12/31/5 13/27/5
f 1/32/3 6/33/3 17/34/3 9/35/3
f 13/27/6 3/26/6 2/36/6 8/37/6
usemtl Asphalt.055
f 16/38/3 15/14/3 14/18/3 11/17/3
f 9/5/2 16/39/2 11/10/2 10/6/2
f 15/40/1 16/41/1 9/42/1 17/43/1
