# Blender v2.79 (sub 0) OBJ File: ''
# www.blender.org
mtllib roadTile_205.mtl
o Mesh1_Group1_Model.204
v 0.000000 0.000000 -2.250000
v 0.000000 0.000000 -0.750000
v 0.000000 0.455000 -0.750000
v 0.000000 0.455000 -2.250000
v 3.000000 0.000000 -0.000000
v 0.000000 0.000000 0.000000
v 0.000000 0.000000 -0.375000
v 0.000000 0.000000 -2.625000
v 0.000000 0.000000 -3.000000
v 3.000000 0.000000 -3.000000
v 3.000000 0.000000 -2.625000
v 3.000000 0.000000 -2.250000
v 3.000000 0.000000 -0.750000
v 3.000000 0.000000 -0.375000
v 0.000000 1.650000 0.000000
v 3.000000 1.650000 0.000000
v 0.000000 1.650000 -0.375000
v 3.000000 1.650000 -0.375000
v 3.000000 0.455000 -0.750000
v 3.000000 1.730000 -0.750000
v 3.000000 1.730000 -0.375000
v 0.000000 1.730000 -0.750000
v 0.000000 1.730000 -0.375000
v 3.000000 0.455000 -2.250000
v 3.000000 1.650000 -2.625000
v 3.000000 1.730000 -2.625000
v 3.000000 1.730000 -2.250000
v 3.000000 1.650000 -3.000000
v 0.000000 1.650000 -3.000000
v 0.000000 1.650000 -2.625000
v 0.000000 1.730000 -2.250000
v 0.000000 1.730000 -2.625000
vt 0.750000 0.455000
vt 0.750000 1.730000
vt 0.375000 1.730000
vt 0.375000 1.650000
vt 0.375000 0.000000
vt 0.750000 0.000000
vt -0.000000 0.455000
vt -0.000000 1.730000
vt -3.000000 1.730000
vt -3.000000 0.455000
vt -0.750000 0.000000
vt -0.375000 0.000000
vt -0.375000 1.650000
vt -0.375000 1.730000
vt -0.750000 1.730000
vt -0.750000 0.455000
vt 0.000000 1.650000
vt 3.000000 1.650000
vt 3.000000 1.730000
vt 0.000000 1.730000
vt 0.000000 0.750000
vt 0.000000 0.375000
vt 3.000000 0.375000
vt 3.000000 0.750000
vt 2.250000 0.000000
vt 2.625000 0.000000
vt 2.625000 1.650000
vt 2.625000 1.730000
vt 2.250000 1.730000
vt 2.250000 0.455000
vt -2.250000 0.455000
vt -2.250000 1.730000
vt -2.625000 1.730000
vt -2.625000 1.650000
vt -2.625000 0.000000
vt -2.250000 0.000000
vt 3.000000 0.455000
vt 3.000000 1.730000
vt 0.000000 1.730000
vt 0.000000 0.455000
vt 3.000000 2.250000
vt 3.000000 2.625000
vt 0.000000 2.625000
vt 0.000000 2.250000
vt -3.000000 1.650000
vt -0.000000 1.650000
vt -0.000000 1.730000
vt -3.000000 1.730000
vt -3.000000 0.000000
vt -0.000000 0.000000
vt -0.000000 0.375000
vt -0.000000 0.750000
vt -0.000000 2.250000
vt -0.000000 2.625000
vt -0.000000 3.000000
vt -3.000000 3.000000
vt -3.000000 2.625000
vt -3.000000 2.250000
vt -3.000000 0.750000
vt -3.000000 0.375000
vt 0.000000 1.650000
vt 3.000000 0.000000
vt 3.000000 1.650000
vt 3.000000 0.000000
vt 3.000000 0.375000
vt 0.000000 0.375000
vt 0.000000 -0.000000
vt 0.000000 0.000000
vt 0.000000 1.650000
vt 3.000000 1.650000
vt 3.000000 0.000000
vt 0.000000 3.000000
vt 0.000000 2.625000
vt 3.000000 2.625000
vt 3.000000 3.000000
vt -3.000000 0.000000
vt -3.000000 1.650000
vt -3.000000 1.650000
vt -3.000000 0.000000
vt -0.000000 0.000000
vt -0.000000 1.650000
vt 0.000000 2.250000
vt 0.000000 0.750000
vt 3.000000 0.750000
vt 3.000000 2.250000
vn 1.0000 0.0000 0.0000
vn 0.0000 0.0000 -1.0000
vn -1.0000 -0.0000 0.0000
vn 0.0000 0.0000 1.0000
vn 0.0000 1.0000 0.0000
vn -0.0000 -1.0000 -0.0000
usemtl Stone.161
s 1
f 19/1/1 20/2/1 21/3/1 18/4/1 14/5/1 13/6/1
f 3/7/2 22/8/2 20/9/2 19/10/2
f 2/11/3 7/12/3 17/13/3 23/14/3 22/15/3 3/16/3
f 17/17/4 18/18/4 21/19/4 23/20/4
f 22/21/5 23/22/5 21/23/5 20/24/5
f 12/25/1 11/26/1 25/27/1 26/28/1 27/29/1 24/30/1
f 4/31/3 31/32/3 32/33/3 30/34/3 8/35/3 1/36/3
f 24/37/4 27/38/4 31/39/4 4/40/4
f 27/41/5 26/42/5 32/43/5 31/44/5
f 25/45/2 30/46/2 32/47/2 26/48/2
usemtl Grass.104
f 5/49/6 6/50/6 7/51/6 2/52/6 1/53/6 8/54/6 9/55/6 10/56/6 11/57/6 12/58/6 13/59/6 14/60/6
f 15/61/4 6/50/4 5/62/4 16/63/4
f 15/61/3 17/13/3 7/12/3 6/50/3
f 16/64/5 18/65/5 17/66/5 15/67/5
f 5/68/1 14/5/1 18/4/1 16/69/1
f 28/70/1 25/27/1 11/26/1 10/71/1
f 29/72/5 30/73/5 25/74/5 28/75/5
f 9/76/3 8/35/3 30/34/3 29/77/3
f 28/78/2 10/79/2 9/80/2 29/81/2
usemtl Water.026
f 1/36/3 2/11/3 3/16/3 4/31/3
f 4/82/5 3/83/5 19/84/5 24/85/5
f 13/6/1 12/25/1 24/30/1 19/1/1
