# Blender v2.79 (sub 0) OBJ File: ''
# www.blender.org
mtllib roadTile_078.mtl
o Mesh1_Group1_Model.077
v 3.000000 0.600000 -2.250000
v 3.000000 0.300000 -2.250000
v 3.000000 0.300000 -0.750000
v 3.000000 0.600000 -0.750000
v 3.000000 0.630000 -0.750000
v 3.000000 0.630000 0.000000
v 3.000000 0.000000 -0.000000
v 3.000000 0.000000 -3.000000
v 3.000000 0.630000 -3.000000
v 3.000000 0.630000 -2.250000
v 0.000000 0.600000 -0.750000
v 1.125000 0.600000 -0.750000
v 1.125000 0.600000 0.000000
v 1.875000 0.600000 0.000000
v 1.875000 0.600000 -0.750000
v 0.000000 0.600000 -2.250000
v 1.125000 0.630000 -0.750000
v 0.000000 0.630000 -0.750000
v 1.125000 0.630000 0.000000
v 0.000000 0.630000 0.000000
v 0.000000 0.000000 -3.000000
v 0.000000 0.000000 0.000000
v 0.000000 0.300000 -0.750000
v 0.000000 0.300000 -2.250000
v 0.000000 0.630000 -2.250000
v 0.000000 0.630000 -3.000000
v 1.875000 0.630000 0.000000
v 1.875000 0.300000 0.000000
v 1.125000 0.300000 0.000000
v 1.875000 0.630000 -0.750000
vt 0.750000 0.300000
vt 0.000000 0.000000
vt 3.000000 0.000000
vt -3.000000 0.000000
vt 0.000000 0.000000
vt -2.250000 0.300000
vt 1.875000 0.300000
vt 1.125000 0.300000
vt 2.250000 0.630000
vt 2.250000 0.600000
vt 3.000000 0.630000
vt 2.250000 0.300000
vt 0.000000 0.630000
vt -0.750000 0.600000
vt -0.750000 0.300000
vt 0.750000 0.600000
vt 0.750000 0.630000
vt 0.000000 0.630000
vt -0.000000 0.630000
vt -1.125000 0.630000
vt -1.125000 0.600000
vt -0.000000 0.600000
vt 3.000000 0.630000
vt 1.875000 0.600000
vt 3.000000 -0.000000
vt 0.000000 0.000000
vt 1.125000 0.000000
vt 1.125000 0.750000
vt 0.000000 0.750000
vt -3.000000 3.000000
vt -3.000000 0.000000
vt 0.000000 3.000000
vt -0.750000 0.630000
vt -2.250000 0.630000
vt -3.000000 0.630000
vt -2.250000 0.600000
vt 3.000000 0.000000
vt 3.000000 0.750000
vt 1.875000 0.750000
vt 1.875000 0.000000
vt 1.125000 0.600000
vt 1.875000 0.630000
vt 1.125000 0.630000
vt -3.000000 0.630000
vt -3.000000 0.600000
vt -1.875000 0.600000
vt -1.875000 0.630000
vt -0.000000 0.600000
vt -0.000000 0.630000
vt -0.750000 0.630000
vt -0.750000 0.600000
vt -0.000000 0.630000
vt -3.000000 0.630000
vt -3.000000 0.000000
vt -0.000000 0.000000
vt -0.000000 3.000000
vt 0.000000 2.250000
vt 3.000000 2.250000
vt 3.000000 3.000000
vt 0.000000 0.630000
vt 0.000000 0.600000
vt 3.000000 0.600000
vt 3.000000 0.630000
vt 0.750000 0.600000
vt 0.750000 0.630000
vt -0.000000 0.630000
vt -0.000000 0.600000
vt 0.000000 2.250000
vt 0.000000 0.750000
vt 1.125000 0.750000
vt 1.875000 0.750000
vt 3.000000 0.750000
vt 3.000000 2.250000
vt 1.875000 0.000000
vt 1.125000 0.000000
vn 1.0000 -0.0000 0.0000
vn -1.0000 0.0000 0.0000
vn 0.0000 -0.0000 1.0000
vn 0.0000 0.0000 -1.0000
vn 0.0000 1.0000 0.0000
vn 0.0000 -1.0000 -0.0000
usemtl Stone.058
s 1
f 3/1/1 7/2/1 8/3/1
f 21/4/2 22/5/2 24/6/2
f 22/5/3 28/7/3 29/8/3
f 10/9/1 1/10/1 9/11/1
f 8/3/1 9/11/1 1/10/1 2/12/1
f 20/13/2 11/14/2 23/15/2 22/5/2
f 4/16/1 5/17/1 6/18/1
f 8/3/1 2/12/1 3/1/1
f 18/19/4 17/20/4 12/21/4 11/22/4
f 6/23/3 14/24/3 28/7/3 7/25/3
f 20/26/5 19/27/5 17/28/5 18/29/5
f 8/30/6 7/31/6 22/5/6 21/32/6
f 18/33/2 11/14/2 20/13/2
f 25/34/2 26/35/2 16/36/2
f 6/18/1 7/2/1 3/1/1 4/16/1
f 22/5/2 23/15/2 24/6/2
f 6/37/5 5/38/5 30/39/5 27/40/5
f 20/13/3 22/5/3 29/8/3 13/41/3
f 27/42/3 14/24/3 6/23/3
f 19/43/3 20/13/3 13/41/3
f 26/35/2 21/4/2 24/6/2 16/36/2
f 7/25/3 28/7/3 22/5/3
f 5/44/4 4/45/4 15/46/4 30/47/4
f 14/48/2 27/49/2 30/50/2 15/51/2
f 26/52/4 9/53/4 8/54/4 21/55/4
f 26/56/5 25/57/5 10/58/5 9/59/5
f 25/60/3 16/61/3 1/62/3 10/63/3
f 12/64/1 17/65/1 19/66/1 13/67/1
usemtl Asphalt.047
f 16/68/5 11/69/5 12/70/5
f 15/71/5 4/72/5 1/73/5
f 14/74/5 15/71/5 12/70/5 13/75/5
f 12/70/5 15/71/5 1/73/5 16/68/5
f 14/24/3 13/41/3 29/8/3 28/7/3
f 1/10/1 4/16/1 3/1/1 2/12/1
f 11/14/2 16/36/2 24/6/2 23/15/2
