# Blender v2.79 (sub 0) OBJ File: ''
# www.blender.org
mtllib roadTile_037.mtl
o Mesh1_Group1_Model.036
v 3.000000 0.000000 -3.000000
v 3.000000 0.000000 -0.000000
v 0.000000 0.000000 0.000000
v 0.000000 0.000000 -3.000000
v 3.000000 1.650000 0.000000
v 3.000000 0.550000 -3.000000
v 0.000000 1.650000 0.000000
v 0.000000 1.650000 -3.000000
vt 0.000000 1.650000
vt 0.000000 -0.000000
vt 3.000000 -0.000000
vt 3.000000 1.650000
vt -0.000000 -0.000000
vt -0.000000 1.650000
vt -3.000000 0.550000
vt -3.000000 -0.000000
vt -3.000000 1.650000
vt -3.000000 0.000000
vt 3.000000 0.550000
vt -0.000000 1.650000
vt -0.000000 0.000000
vt 3.000000 0.000000
vt -2.121320 -1.123640
vt -0.000000 -3.513200
vt 0.000000 3.000000
vt 0.000000 0.000000
vt 0.000000 3.000000
vt -3.000000 3.000000
vt -3.000000 0.000000
vn 0.0000 -0.0000 1.0000
vn 0.0000 0.0000 -1.0000
vn -1.0000 0.0000 0.0000
vn 1.0000 0.0000 0.0000
vn 0.1775 0.9680 -0.1775
vn -0.0000 -1.0000 -0.0000
usemtl Grass.024
s 1
f 7/1/1 3/2/1 2/3/1 5/4/1
f 4/5/2 8/6/2 6/7/2 1/8/2
f 8/9/3 4/10/3 3/2/3 7/1/3
f 6/11/4 5/12/4 2/13/4 1/14/4
f 5/15/5 6/16/5 8/17/5 7/18/5
f 4/19/6 1/20/6 2/21/6 3/2/6
