# Blender v2.79 (sub 0) OBJ File: ''
# www.blender.org
mtllib roadTile_115.mtl
o Mesh1_Group1_Model.114
v 0.000000 0.600000 -1.746110
v 0.000000 0.300000 -1.746110
v 0.000000 0.300000 -0.450043
v 0.000000 0.600000 -0.450043
v 1.296070 0.600000 -1.746110
v 1.296070 0.300000 -1.746110
v 1.746110 0.000000 -1.746110
v 0.000000 0.000000 -1.746110
v 1.296070 0.630000 -1.746110
v 1.746110 0.630000 -1.746110
v 1.462610 0.000000 -1.321830
v 0.977476 0.000000 -0.768634
v 0.424283 0.000000 -0.283497
v 0.000000 0.000000 0.000000
v 1.462610 0.630000 -1.321830
v 0.000000 0.630000 -0.450043
v 0.000000 0.630000 0.000000
v 0.424283 0.630000 -0.283497
v 0.977476 0.630000 -0.768634
v 1.165110 0.630000 -1.550110
v 0.712311 0.630000 -1.033800
v 0.195998 0.630000 -0.581004
v 0.195998 0.600000 -0.581004
v 0.712311 0.600000 -1.033800
v 1.165110 0.600000 -1.550110
vt -1.462610 1.321830
vt -0.977476 0.768634
vt -0.000000 1.746110
vt -2.171890 0.630000
vt -2.171890 0.600000
vt -1.936170 0.600000
vt -1.936170 0.630000
vt -1.746110 0.000000
vt -0.000000 -0.000000
vt -1.296070 0.300000
vt -0.000000 0.300000
vt -1.296070 0.630000
vt -1.746110 0.630000
vt -1.296070 0.600000
vt -0.000000 0.000000
vt -0.424283 0.283497
vt -1.746110 1.746110
vt 0.424283 0.283497
vt 0.977476 0.768634
vt 0.712311 1.033800
vt 0.195998 0.581004
vt 1.296070 1.746110
vt 1.165110 1.550110
vt 1.462610 1.321830
vt 1.746110 1.746110
vt 0.000000 0.000000
vt -0.000000 0.450043
vt -0.000000 0.630000
vt -0.450043 0.600000
vt -0.450043 0.300000
vt -1.746110 0.300000
vt -1.746110 0.000000
vt -0.450043 0.630000
vt -1.933640 0.630000
vt -1.933640 0.600000
vt -1.246910 0.600000
vt -1.246910 0.630000
vt 1.911640 0.000000
vt 2.421920 0.000000
vt 2.421920 0.630000
vt 1.911640 0.630000
vt 1.222380 0.000000
vt 1.958170 0.000000
vt 1.958170 0.630000
vt 1.222380 0.630000
vt -0.485755 0.630000
vt -0.485755 0.600000
vt -0.250030 0.600000
vt -0.250030 0.630000
vt -1.217170 0.630000
vt -1.217170 0.600000
vt -0.530442 0.600000
vt -0.530442 0.630000
vt 0.510281 0.000000
vt 0.510281 0.630000
vt 0.505915 0.000000
vt 1.241700 0.000000
vt 1.241700 0.630000
vt 0.505915 0.630000
vt 0.195998 0.581004
vt 0.712311 1.033800
vt 0.000000 1.746110
vt -0.000000 0.600000
vt -1.746110 0.600000
vt 1.296070 1.746110
vt 1.165110 1.550110
vt 0.000000 0.450043
vn 0.0000 -1.0000 -0.0000
vn -0.8315 0.0000 -0.5556
vn -0.7934 0.0000 -0.6088
vn 0.0000 0.0000 -1.0000
vn -0.0000 1.0000 0.0000
vn -1.0000 -0.0000 0.0000
vn -0.7071 0.0000 -0.7071
vn 0.7934 -0.0000 0.6088
vn 0.8315 0.0000 0.5556
vn 0.7071 -0.0000 0.7071
vn -0.6088 0.0000 -0.7934
vn -0.5556 0.0000 -0.8315
vn 0.5556 -0.0000 0.8315
vn 0.6088 -0.0000 0.7934
usemtl Stone.095
s 1
f 11/1/1 12/2/1 8/3/1
f 9/4/2 5/5/2 25/6/3 20/7/3
f 7/8/4 8/9/4 6/10/4
f 8/9/4 2/11/4 6/10/4
f 9/12/4 10/13/4 5/14/4
f 14/15/1 8/3/1 13/16/1
f 7/17/1 11/1/1 8/3/1
f 12/2/1 13/16/1 8/3/1
f 18/18/5 19/19/5 21/20/5 22/21/5
f 9/22/5 20/23/5 15/24/5 10/25/5
f 17/26/5 18/18/5 22/21/5 16/27/5
f 17/28/6 4/29/6 3/30/6 14/15/6
f 15/24/5 20/23/5 21/20/5 19/19/5
f 2/31/6 8/32/6 3/30/6
f 6/10/4 5/14/4 10/13/4 7/8/4
f 16/33/6 4/29/6 17/28/6
f 3/30/6 8/32/6 14/15/6
f 20/34/3 25/35/3 24/36/7 21/37/7
f 11/38/8 7/39/9 10/40/9 15/41/8
f 12/42/10 11/43/8 15/44/8 19/45/10
f 22/46/11 23/47/11 4/48/12 16/49/12
f 21/50/7 24/51/7 23/52/11 22/53/11
f 14/15/13 13/54/14 18/55/14 17/28/13
f 13/56/14 12/57/10 19/58/10 18/59/14
usemtl Asphalt.069
f 23/60/5 24/61/5 1/62/5
f 1/63/4 5/14/4 6/10/4 2/11/4
f 4/29/6 1/64/6 2/31/6 3/30/6
f 5/65/5 1/62/5 25/66/5
f 4/67/5 23/60/5 1/62/5
f 24/61/5 25/66/5 1/62/5
