# Blender v2.79 (sub 0) OBJ File: ''
# www.blender.org
mtllib roadTile_268.mtl
o Mesh1_Group1_Model.267
v 3.000000 1.700000 -0.750000
v 3.000000 1.400000 -0.750000
v 3.000000 1.400000 -2.250000
v 3.000000 1.700000 -2.250000
v 3.000000 1.730000 0.000000
v 3.000000 0.000000 -0.000000
v 3.000000 0.000000 -3.000000
v 3.000000 1.730000 -3.000000
v 3.000000 1.730000 -2.250000
v 3.000000 1.730000 -0.750000
v 0.000000 1.100000 0.000000
v 0.000000 1.730000 0.000000
v 0.000000 1.100001 -3.000000
v 0.000000 1.730000 -3.000000
v 0.000000 1.730000 -0.750000
v 0.000000 1.700000 -0.750000
v 0.000000 1.400000 -0.750000
v 0.000000 1.400000 -2.250000
v 0.000000 1.700000 -2.250000
v 0.000000 1.730000 -2.250000
vt 0.000000 1.730000
vt 0.000000 -0.000000
vt 3.000000 -0.000000
vt 3.000000 1.730000
vt 2.250000 1.730000
vt 2.250000 1.700000
vt 2.250000 1.400000
vt 0.750000 1.400000
vt 0.750000 1.700000
vt 0.750000 1.730000
vt 0.000000 1.100000
vt 3.000000 -0.000000
vt 3.000000 1.730000
vt 0.000000 1.730000
vt 0.000000 0.378680
vt -3.000000 0.378680
vt -3.000000 -2.816630
vt -0.000000 -2.816630
vt -3.000000 1.730000
vt -3.000000 1.100000
vt -0.750000 1.730000
vt -0.750000 1.700000
vt -0.750000 1.400000
vt -2.250000 1.400000
vt -2.250000 1.700000
vt -2.250000 1.730000
vt -3.000000 -0.000000
vt -0.000000 1.100000
vt -0.000000 1.730000
vt -3.000000 1.730000
vt 3.000000 2.250000
vt 3.000000 3.000000
vt 0.000000 3.000000
vt 0.000000 2.250000
vt 0.000000 1.700000
vt 3.000000 1.700000
vt 3.000000 1.730000
vt 0.000000 1.730000
vt -3.000000 1.700000
vt -0.000000 1.700000
vt -0.000000 1.730000
vt -3.000000 1.730000
vt 0.000000 0.750000
vt 0.000000 0.000000
vt 3.000000 0.000000
vt 3.000000 0.750000
vt 3.000000 2.250000
vt 0.000000 2.250000
vt 0.000000 0.750000
vt 3.000000 0.750000
vn 1.0000 -0.0000 0.0000
vn 0.0000 -0.0000 1.0000
vn -0.3443 -0.9389 -0.0000
vn -1.0000 0.0000 -0.0000
vn 0.0000 0.0000 -1.0000
vn 0.0000 1.0000 0.0000
usemtl Stone.224
s 1
f 5/1/1 6/2/1 7/3/1 8/4/1 9/5/1 4/6/1 3/7/1 2/8/1 1/9/1 10/10/1
f 11/11/2 6/12/2 5/13/2 12/14/2
f 11/15/3 13/16/3 7/17/3 6/18/3
f 14/19/4 13/20/4 11/11/4 12/14/4 15/21/4 16/22/4 17/23/4 18/24/4 19/25/4 20/26/4
f 7/27/5 13/28/5 14/29/5 8/30/5
f 9/31/6 8/32/6 14/33/6 20/34/6
f 19/35/2 4/36/2 9/37/2 20/38/2
f 1/39/5 16/40/5 15/41/5 10/42/5
f 15/43/6 12/44/6 5/45/6 10/46/6
usemtl Asphalt.182
f 1/9/1 2/8/1 3/7/1 4/6/1
f 4/47/6 19/48/6 16/49/6 1/50/6
f 19/25/4 18/24/4 17/23/4 16/22/4
