# Blender v2.79 (sub 0) OBJ File: ''
# www.blender.org
mtllib roadTile_301.mtl
o Mesh1_Group1_Model.300
v 0.754448 0.630000 0.000000
v 1.468970 0.630000 0.000000
v 1.312500 0.630000 -0.077164
v 0.945430 0.630000 -0.322432
v 0.613515 0.630000 -0.613515
v 0.322432 0.630000 -0.945430
v 0.077164 0.630000 -1.312500
v 0.000000 0.630000 -1.468970
v 0.000000 0.630000 -0.754448
v 0.024925 0.630000 -0.717145
v 0.348350 0.630000 -0.348350
v 0.717145 0.630000 -0.024925
v 0.754448 0.600000 0.000000
v 0.754448 0.000000 0.000000
v 1.468970 0.000000 -0.000000
v 0.717145 0.600000 -0.024925
v 0.348350 0.600000 -0.348350
v 0.024925 0.600000 -0.717145
v 0.000000 0.600000 -0.754448
v 0.000000 0.000000 -1.468970
v 0.000000 0.000000 -0.754448
v 0.077164 0.000000 -1.312500
v 0.322432 0.000000 -0.945430
v 0.613515 0.000000 -0.613515
v 0.945430 0.000000 -0.322432
v 1.312500 0.000000 -0.077164
v 0.000000 0.000000 0.000000
v 0.000000 0.600000 0.000000
vt 0.754448 -0.000000
vt 1.468970 0.000000
vt 1.312500 0.077164
vt 0.945430 0.322432
vt 0.613515 0.613515
vt 0.322432 0.945430
vt 0.077164 1.312500
vt -0.000000 1.468970
vt 0.000000 0.754448
vt 0.024925 0.717145
vt 0.348350 0.348350
vt 0.717145 0.024925
vt 1.468970 0.630000
vt 0.754448 0.630000
vt 0.754448 0.600000
vt 0.754448 0.000000
vt 1.468970 0.000000
vt 0.627300 0.630000
vt 0.582436 0.630000
vt 0.582436 0.600000
vt 0.627300 0.600000
vt 0.522744 0.630000
vt 0.032220 0.630000
vt 0.032220 0.600000
vt 0.522744 0.600000
vt -0.032220 0.630000
vt -0.522744 0.630000
vt -0.522744 0.600000
vt -0.032220 0.600000
vt -0.582436 0.630000
vt -0.627300 0.630000
vt -0.627300 0.600000
vt -0.582436 0.600000
vt -0.754448 0.630000
vt -1.468970 0.630000
vt -1.468970 0.000000
vt -0.754448 0.000000
vt -0.754448 0.600000
vt 1.317480 0.630000
vt 1.143020 0.630000
vt 1.143020 0.000000
vt 1.317480 0.000000
vt 1.048430 0.630000
vt 0.606963 0.630000
vt 0.606963 0.000000
vt 1.048430 0.000000
vt 0.498218 0.630000
vt 0.056746 0.630000
vt 0.056746 0.000000
vt 0.498218 0.000000
vt -0.056746 0.630000
vt -0.498218 0.630000
vt -0.498218 0.000000
vt -0.056746 0.000000
vt -0.606963 0.630000
vt -1.048430 0.630000
vt -1.048430 0.000000
vt -0.606963 0.000000
vt -1.143020 0.630000
vt -1.317480 0.630000
vt -1.317480 0.000000
vt -1.143020 0.000000
vt -0.754448 -0.000000
vt -0.000000 -0.000000
vt -0.000000 0.754448
vt 0.000000 1.468970
vt -0.077164 1.312500
vt -0.322432 0.945430
vt -0.613515 0.613515
vt -0.945430 0.322432
vt -1.312500 0.077164
vt -1.468970 0.000000
vt 0.000000 0.600000
vt 0.024925 0.717145
vt 0.000000 0.754448
vt 0.000000 0.000000
vt 0.754448 0.000000
vt 0.717145 0.024925
vt 0.348350 0.348350
vn -0.0000 1.0000 0.0000
vn 0.0000 -0.0000 1.0000
vn -0.5556 0.0000 0.8315
vn -0.6088 0.0000 0.7934
vn -0.7071 0.0000 0.7071
vn -0.7934 0.0000 0.6088
vn -0.8315 0.0000 0.5556
vn -1.0000 -0.0000 0.0000
vn 0.8969 0.0000 -0.4423
vn 0.8660 0.0000 -0.5000
vn 0.7934 0.0000 -0.6088
vn 0.7071 0.0000 -0.7071
vn 0.6088 0.0000 -0.7934
vn 0.5000 0.0000 -0.8660
vn 0.4423 0.0000 -0.8969
vn -0.0000 -1.0000 -0.0000
usemtl Stone.257
s 1
f 1/1/1 2/2/1 3/3/1 4/4/1 5/5/1 6/6/1 7/7/1 8/8/1 9/9/1 10/10/1 11/11/1 12/12/1
f 2/13/2 1/14/2 13/15/2 14/16/2 15/17/2
f 1/18/3 12/19/4 16/20/4 13/21/3
f 12/22/4 11/23/5 17/24/5 16/25/4
f 11/26/5 10/27/6 18/28/6 17/29/5
f 10/30/6 9/31/7 19/32/7 18/33/6
f 9/34/8 8/35/8 20/36/8 21/37/8 19/38/8
f 8/39/9 7/40/10 22/41/10 20/42/9
f 7/43/10 6/44/11 23/45/11 22/46/10
f 6/47/11 5/48/12 24/49/12 23/50/11
f 5/51/12 4/52/13 25/53/13 24/54/12
f 4/55/13 3/56/14 26/57/14 25/58/13
f 3/59/14 2/60/15 15/61/15 26/62/14
f 14/63/16 27/64/16 21/65/16 20/66/16 22/67/16 23/68/16 24/69/16 25/70/16 26/71/16 15/72/16
usemtl Asphalt.210
f 14/16/2 13/15/2 28/73/2 27/64/2
f 18/74/1 19/75/1 28/76/1 13/77/1 16/78/1 17/79/1
f 27/64/8 28/73/8 19/38/8 21/37/8
