# Blender v2.79 (sub 0) OBJ File: ''
# www.blender.org
mtllib roadTile_261.mtl
o Mesh1_Group1_Model.260
v 3.000000 0.630000 -1.875000
v 3.000000 0.630000 -2.250000
v 0.000000 1.730000 -2.250000
v 0.000000 1.730000 -1.875000
v 3.000000 0.630000 0.000000
v 3.000000 0.000000 -0.000000
v 3.000000 0.000000 -2.250000
v 3.000000 0.600000 -1.875000
v 3.000000 0.300000 -1.875000
v 3.000000 0.300000 -0.375000
v 3.000000 0.600000 -0.375000
v 3.000000 0.630000 -0.375000
v 1.500000 0.000000 -0.000000
v 0.000000 1.730000 0.000000
v 0.000000 1.100000 0.000000
v 1.500000 0.550000 0.000000
v 1.500000 0.000000 -2.250000
v 1.500000 0.550000 -2.250000
v 0.000000 1.100000 -2.250000
v 0.000000 1.730000 -0.375000
v 0.000000 1.700000 -0.375000
v 0.000000 1.400000 -0.375000
v 0.000000 1.400000 -1.875000
v 0.000000 1.700000 -1.875000
vt 1.875000 -2.599750
vt 2.250000 -2.599750
vt 2.250000 0.595561
vt 1.875000 0.595561
vt 0.000000 0.630000
vt 0.000000 -0.000000
vt 2.250000 0.000000
vt 2.250000 0.630000
vt 1.875000 0.630000
vt 1.875000 0.600000
vt 1.875000 0.300000
vt 0.375000 0.300000
vt 0.375000 0.600000
vt 0.375000 0.630000
vt 1.500000 -0.000000
vt 3.000000 0.000000
vt 3.000000 0.630000
vt 0.000000 1.730000
vt 0.000000 1.100000
vt 1.500000 0.550000
vt -1.500000 0.000000
vt -1.500000 2.250000
vt -3.000000 2.250000
vt -3.000000 0.000000
vt -0.000000 0.000000
vt -0.000000 0.550000
vt -2.250000 0.550000
vt -2.250000 0.000000
vt -0.000000 -1.218970
vt -0.000000 0.378680
vt -2.250000 0.378680
vt -2.250000 -1.218970
vt -2.250000 1.730000
vt -2.250000 1.100000
vt -0.375000 1.730000
vt -0.375000 1.700000
vt -0.375000 1.400000
vt -1.875000 1.400000
vt -1.875000 1.700000
vt -1.875000 1.730000
vt -1.500000 0.550000
vt -0.000000 1.100000
vt -0.000000 1.730000
vt -3.000000 0.630000
vt -3.000000 0.000000
vt -1.500000 0.000000
vt 0.375000 0.595561
vt 0.000000 0.595561
vt 0.000000 -2.599750
vt 0.375000 -2.599750
vt -3.000000 0.600000
vt -0.000000 1.700000
vt -0.000000 1.730000
vt -3.000000 0.630000
vt 0.000000 1.700000
vt 3.000000 0.600000
vt 3.000000 0.630000
vt 0.000000 1.730000
vt 1.875000 -2.610080
vt 1.875000 0.585233
vt 0.375000 0.585233
vt 0.375000 -2.610080
vn 0.3443 0.9389 0.0000
vn 1.0000 0.0000 0.0000
vn 0.0000 -0.0000 1.0000
vn -0.0000 -1.0000 -0.0000
vn -1.0000 -0.0000 0.0000
vn -0.3443 -0.9389 -0.0000
vn -0.0000 0.0000 -1.0000
usemtl Stone.217
s 1
f 1/1/1 2/2/1 3/3/1 4/4/1
f 5/5/2 6/6/2 7/7/2 2/8/2 1/9/2 8/10/2 9/11/2 10/12/2 11/13/2 12/14/2
f 13/15/3 6/16/3 5/17/3 14/18/3 15/19/3 16/20/3
f 13/21/4 17/22/4 7/23/4 6/24/4
f 13/25/5 16/26/5 18/27/5 17/28/5
f 16/29/6 15/30/6 19/31/6 18/32/6
f 3/33/5 19/34/5 15/19/5 14/18/5 20/35/5 21/36/5 22/37/5 23/38/5 24/39/5 4/40/5
f 18/41/7 19/42/7 3/43/7 2/44/7 7/45/7 17/46/7
f 20/47/1 14/48/1 5/49/1 12/50/1
f 11/51/7 21/52/7 20/53/7 12/54/7
f 24/55/3 8/56/3 1/57/3 4/58/3
usemtl Asphalt.178
f 8/59/1 24/60/1 21/61/1 11/62/1
f 21/36/5 24/39/5 23/38/5 22/37/5
f 8/10/2 11/13/2 10/12/2 9/11/2
