# Blender v2.79 (sub 0) OBJ File: ''
# www.blender.org
mtllib roadTile_144.mtl
o Mesh1_Group1_Model.143
v 3.000000 0.000000 -3.000000
v 3.000000 0.600001 -3.000000
v 3.000000 0.600000 -1.703930
v 3.000000 0.000000 -1.703930
v 1.703930 0.600001 -3.000000
v 1.703930 0.000000 -3.000000
v 2.804000 0.600000 -1.834890
v 1.834890 0.600001 -2.804000
v 2.287690 0.600000 -2.287690
v 2.804000 0.630000 -1.834890
v 3.000000 0.630000 -1.703930
v 1.703930 0.630000 -3.000000
v 1.253890 0.630000 -3.000000
v 1.537390 0.630000 -2.575720
v 2.022520 0.630000 -2.022520
v 2.575720 0.630000 -1.537390
v 3.000000 0.630000 -1.253890
v 2.287690 0.630000 -2.287690
v 1.834890 0.630000 -2.804000
v 1.253890 0.000000 -3.000000
v 1.253890 0.550000 -3.000000
v 3.000000 0.000000 -0.000000
v 0.000000 0.000000 0.000000
v 0.000000 0.000000 -3.000000
v 3.000000 0.000000 -1.253890
v 3.000000 0.550000 0.000000
v 0.000000 0.550000 0.000000
v 3.000000 0.550000 -1.253890
v 2.575720 0.550000 -1.537390
v 2.022520 0.550000 -2.022520
v 1.537390 0.550000 -2.575720
v 0.000000 0.550000 -3.000000
vt -1.312030 0.630000
vt -1.547750 0.630000
vt -1.547750 0.600000
vt -1.312030 0.600000
vt 1.703930 3.000000
vt 1.253890 3.000000
vt 1.537390 2.575720
vt 2.022520 2.022520
vt 2.575720 1.537390
vt 3.000000 1.253890
vt 3.000000 1.703930
vt 2.804000 1.834890
vt 2.287690 2.287690
vt 1.834890 2.804000
vt -1.253890 0.630000
vt -1.703930 0.630000
vt -1.703930 0.600000
vt -1.703930 0.000000
vt -1.253890 0.000000
vt -1.253890 0.550000
vt 1.547750 0.630000
vt 1.312030 0.630000
vt 1.312030 0.600000
vt 1.547750 0.600000
vt 0.898330 0.630000
vt 0.211598 0.630000
vt 0.211598 0.600000
vt 0.898330 0.600000
vt -0.211598 0.630000
vt -0.898330 0.630000
vt -0.898330 0.600000
vt -0.211598 0.600000
vt 1.797780 0.630000
vt 1.287500 0.630000
vt 1.287500 0.550000
vt 1.797780 0.550000
vt 0.922857 0.630000
vt 0.187071 0.630000
vt 0.187071 0.550000
vt 0.922857 0.550000
vt -0.187071 0.630000
vt -0.922857 0.630000
vt -0.922857 0.550000
vt -0.187071 0.550000
vt -1.287500 0.630000
vt -1.797780 0.630000
vt -1.797780 0.550000
vt -1.287500 0.550000
vt 1.703930 0.630000
vt 1.253890 0.630000
vt 1.253890 0.550000
vt 1.253890 0.000000
vt 1.703930 0.000000
vt 1.703930 0.600000
vt -3.000000 0.000000
vt -0.000000 -0.000000
vt -0.000000 3.000000
vt -1.253890 3.000000
vt -1.703930 3.000000
vt -3.000000 3.000000
vt -3.000000 1.703930
vt -3.000000 1.253890
vt 3.000000 0.000000
vt 3.000000 0.550000
vt 0.000000 0.550000
vt -0.000000 0.550000
vt -0.000000 0.000000
vt 3.000000 0.000000
vt 3.000000 1.253890
vt 2.575720 1.537390
vt 2.022520 2.022520
vt 1.537390 2.575720
vt 1.253890 3.000000
vt 0.000000 3.000000
vt 0.000000 0.000000
vt -0.000000 0.000000
vt -0.000000 0.550000
vt -3.000000 0.550000
vt -3.000000 0.000000
vt 3.000000 0.000000
vt 3.000000 0.600000
vt -3.000000 0.600000
vt -3.000000 0.000000
vt 2.804000 1.834890
vt 3.000000 1.703930
vt 3.000000 3.000000
vt 1.703930 3.000000
vt 1.834890 2.804000
vt 2.287690 2.287690
vn 0.6088 0.0000 -0.7934
vn 0.5556 0.0000 -0.8315
vn 0.0000 1.0000 0.0000
vn 0.0000 0.0000 -1.0000
vn 0.8315 0.0000 -0.5556
vn 0.7934 0.0000 -0.6088
vn 0.7071 0.0000 -0.7071
vn -0.5556 0.0000 0.8315
vn -0.6088 0.0000 0.7934
vn -0.7071 0.0000 0.7071
vn -0.7934 0.0000 0.6088
vn -0.8315 0.0000 0.5556
vn 1.0000 0.0000 0.0000
vn 0.0000 -1.0000 -0.0000
vn 0.0000 -0.0000 1.0000
vn -1.0000 -0.0000 0.0000
usemtl Stone.123
s 1
f 10/1/1 11/2/2 3/3/2 7/4/1
f 12/5/3 13/6/3 14/7/3 15/8/3 16/9/3 17/10/3 11/11/3 10/12/3 18/13/3 19/14/3
f 13/15/4 12/16/4 5/17/4 6/18/4 20/19/4 21/20/4
f 12/21/5 19/22/6 8/23/6 5/24/5
f 19/25/6 18/26/7 9/27/7 8/28/6
f 18/29/7 10/30/1 7/31/1 9/32/7
f 17/33/8 16/34/9 29/35/9 28/36/8
f 16/37/9 15/38/10 30/39/10 29/40/9
f 15/41/10 14/42/11 31/43/11 30/44/10
f 14/45/11 13/46/12 21/47/12 31/48/11
f 11/49/13 17/50/13 28/51/13 25/52/13 4/53/13 3/54/13
usemtl Grass.050
f 22/55/14 23/56/14 24/57/14 20/58/14 6/59/14 1/60/14 4/61/14 25/62/14
f 23/56/15 22/63/15 26/64/15 27/65/15
f 28/51/13 26/66/13 22/67/13 25/52/13
f 26/68/3 28/69/3 29/70/3 30/71/3 31/72/3 21/73/3 32/74/3 27/75/3
f 20/19/4 24/76/4 32/77/4 21/20/4
f 27/65/16 32/78/16 24/79/16 23/56/16
usemtl Asphalt.096
f 1/80/13 2/81/13 3/54/13 4/53/13
f 5/17/4 2/82/4 1/83/4 6/18/4
f 7/84/3 3/85/3 2/86/3 5/87/3 8/88/3 9/89/3
