# Blender v2.79 (sub 0) OBJ File: ''
# www.blender.org
mtllib roadTile_220.mtl
o Mesh1_Group1_Model.219
v 0.000000 1.650000 0.000000
v 0.000000 1.275000 -0.750000
v 0.000000 0.600000 -0.750000
v 0.000000 1.650000 -3.000000
v 0.935000 1.650000 -3.000000
v 0.935000 1.650000 0.000000
v 0.000000 0.000000 -3.000000
v 3.000000 0.630000 -3.000000
v 3.000000 0.000000 -3.000000
v 0.000000 0.300000 -2.250000
v 0.000000 0.300000 -0.750000
v 0.000000 0.000000 0.000000
v 3.000000 0.000000 -0.000000
v 3.000000 0.630000 0.000000
v 3.000000 0.630000 -2.250000
v 3.000000 0.600000 -2.250000
v 3.000000 0.300000 -2.250000
v 3.000000 0.300000 -0.750000
v 3.000000 0.600000 -0.750000
v 3.000000 0.630000 -0.750000
v 1.271220 1.483930 -0.750000
v 1.271220 1.483930 -2.250000
v 0.000000 1.275000 -2.250000
v 0.000000 0.600000 -2.250000
vt -0.000000 1.650000
vt -0.750000 1.275000
vt -0.750000 0.600000
vt -3.000000 1.650000
vt 0.935000 3.000000
vt -0.000000 3.000000
vt 0.000000 0.000000
vt 0.935000 0.000000
vt -0.000000 -0.000000
vt -0.000000 1.650000
vt -0.935000 1.650000
vt -3.000000 0.630000
vt -3.000000 -0.000000
vt -3.000000 0.000000
vt -2.250000 0.300000
vt -0.750000 0.300000
vt 0.000000 0.000000
vt 3.000000 -0.000000
vt 3.000000 0.630000
vt 0.935000 1.650000
vt 0.000000 3.000000
vt -3.000000 3.000000
vt -3.000000 0.000000
vt 3.000000 -0.000000
vt 3.000000 0.630000
vt 2.250000 0.630000
vt 2.250000 0.600000
vt 2.250000 0.300000
vt 0.750000 0.300000
vt 0.750000 0.600000
vt 0.750000 0.630000
vt 0.000000 0.630000
vt 0.000000 -0.000000
vt 0.750000 -2.410760
vt 0.750000 -0.482580
vt 2.250000 -0.482580
vt 2.250000 -2.410760
vt 3.000000 -2.410760
vt 3.000000 -0.107580
vt 0.000000 -0.107580
vt 0.000000 -2.410760
vt -0.000000 1.275000
vt -1.271220 1.483930
vt -3.000000 0.630000
vt -3.000000 0.600000
vt -0.000000 0.600000
vt 0.750000 1.495050
vt 0.750000 0.206772
vt 2.250000 0.206772
vt 2.250000 1.495050
vt -2.250000 1.275000
vt -2.250000 0.600000
vt 1.271220 1.483930
vt 0.000000 1.275000
vt 0.000000 0.600000
vt 3.000000 0.600000
vt 3.000000 0.630000
vt 3.000000 0.750000
vt 3.000000 2.250000
vt 0.000000 2.250000
vt 0.000000 0.750000
vn -1.0000 -0.0000 0.0000
vn 0.0000 1.0000 0.0000
vn -0.0000 0.0000 -1.0000
vn 0.0000 -0.0000 1.0000
vn 0.0000 -1.0000 -0.0000
vn 1.0000 0.0000 0.0000
vn 0.4429 0.8966 0.0000
vn 0.1622 -0.9868 -0.0000
usemtl Stone.176
s 1
f 1/1/1 2/2/1 3/3/1
f 2/2/1 1/1/1 4/4/1
f 5/5/2 4/6/2 1/7/2 6/8/2
f 7/9/3 4/10/3 5/11/3 8/12/3 9/13/3
f 7/14/1 10/15/1 4/4/1
f 7/14/1 11/16/1 10/15/1
f 12/17/1 11/16/1 7/14/1
f 11/16/1 12/17/1 1/1/1
f 1/1/4 12/17/4 13/18/4 14/19/4 6/20/4
f 12/17/5 7/21/5 9/22/5 13/23/5
f 9/24/6 8/25/6 15/26/6 16/27/6 17/28/6 18/29/6 19/30/6 20/31/6 14/32/6 13/33/6
f 20/34/7 21/35/7 22/36/7 15/37/7 8/38/7 5/39/7 6/40/7 14/41/7
f 2/42/3 21/43/3 20/44/3 19/45/3 3/46/3
f 21/47/8 2/48/8 23/49/8 22/50/8
f 2/2/1 4/4/1 23/51/1
f 23/51/1 4/4/1 24/52/1
f 24/52/1 4/4/1 10/15/1
f 22/53/4 23/54/4 24/55/4 16/56/4 15/57/4
f 11/16/1 1/1/1 3/3/1
usemtl Asphalt.145
f 3/3/1 24/52/1 10/15/1 11/16/1
f 19/58/2 16/59/2 24/60/2 3/61/2
f 16/27/6 19/30/6 18/29/6 17/28/6
