# Blender v2.79 (sub 0) OBJ File: ''
# www.blender.org
mtllib roadTile_105.mtl
o Mesh1_Group1_Model.104
v 0.000000 0.570000 -1.125000
v 0.000000 0.570000 -0.937500
v 3.000000 0.570000 -0.937500
v 3.000000 0.570000 -1.125000
v 0.000000 0.600001 -3.000000
v 0.000000 0.300000 -3.000000
v 0.000000 0.300000 0.000000
v 0.000000 0.600000 0.000000
v 0.000000 0.600000 -0.937500
v 0.000000 0.600000 -1.125000
v 0.000000 0.600000 -1.875000
v 0.000000 0.570000 -1.875000
v 0.000000 0.570000 -2.062500
v 0.000000 0.600000 -2.062500
v 2.250000 0.600001 -3.000000
v 2.250000 0.300000 -3.000000
v 2.250000 0.600000 -2.062500
v 3.000000 0.570000 -2.062500
v 3.000000 0.630000 -2.062500
v 2.250000 0.630000 -2.062500
v 3.000000 0.570000 -1.875000
v 3.000000 0.630000 -1.875000
v 2.250000 0.600000 -1.875000
v 2.250000 0.630000 -1.875000
v 3.000000 0.000000 0.000000
v 3.000000 0.000000 -3.000000
v 3.000000 0.630000 -3.000000
v 3.000000 0.630000 -1.125000
v 3.000000 0.630000 -0.937500
v 3.000000 0.630000 0.000000
v 0.000000 0.000000 -3.000000
v 0.000000 0.000000 -0.000000
v 2.250000 0.630000 -3.000000
v 2.250000 0.300000 0.000000
v 2.250000 0.630000 0.000000
v 2.250000 0.600000 0.000000
v 2.250000 0.600000 -0.937500
v 2.250000 0.630000 -0.937500
v 2.250000 0.630000 -1.125000
v 2.250000 0.600000 -1.125000
vt 3.000000 0.000000
vt 1.875000 0.570000
vt 1.125000 0.570000
vt -3.000000 0.630000
vt -3.000000 0.600000
vt -2.062500 0.600000
vt -2.062500 0.630000
vt 3.000000 0.630000
vt 2.250000 0.600000
vt 2.250000 0.300000
vt 3.000000 0.000000
vt -1.125000 0.600000
vt -1.125000 0.630000
vt -1.875000 0.630000
vt -1.875000 0.600000
vt 0.937500 0.570000
vt 0.937500 0.630000
vt 0.000000 0.630000
vt 0.000000 0.000000
vt -0.000000 0.000000
vt -0.000000 3.000000
vt -3.000000 3.000000
vt -3.000000 0.000000
vt 2.062500 0.570000
vt 3.000000 3.000000
vt 2.250000 3.000000
vt 2.250000 2.062500
vt 3.000000 2.062500
vt -3.000000 0.000000
vt 0.000000 0.000000
vt -2.250000 0.300000
vt 3.000000 0.630000
vt 2.062500 0.630000
vt 0.000000 0.300000
vt -2.250000 0.630000
vt -3.000000 0.630000
vt -2.250000 0.600000
vt 0.000000 0.300000
vt 2.250000 0.630000
vt -0.000000 0.600000
vt -0.000000 0.630000
vt -0.937500 0.630000
vt -0.937500 0.600000
vt -3.000000 0.000000
vt -3.000000 0.300000
vt 1.875000 0.630000
vt 1.125000 0.630000
vt 3.000000 1.875000
vt 2.250000 1.875000
vt 2.250000 1.125000
vt 3.000000 1.125000
vt 2.250000 0.000000
vt 3.000000 -0.000000
vt 3.000000 0.937500
vt 2.250000 0.937500
vt -1.875000 0.570000
vt -2.062500 0.570000
vt -1.125000 0.570000
vt -3.000000 0.600000
vt -2.062500 0.600000
vt -0.000000 0.600000
vt -0.937500 0.570000
vt 2.250000 2.062500
vt 2.250000 3.000000
vt 0.000000 3.000000
vt 0.000000 2.062500
vt 0.000000 0.000000
vt 2.250000 0.000000
vt 2.250000 0.937500
vt 0.000000 0.937500
vt 2.250000 1.875000
vt 0.000000 1.875000
vt 0.000000 1.125000
vt 2.250000 1.125000
vt 0.000000 0.600000
vt -0.937500 0.600000
vt -1.875000 0.600000
vt -1.125000 0.600000
vt 0.000000 0.570000
vt 0.000000 0.600000
vt -2.250000 0.600000
vt 0.000000 2.062500
vt 0.000000 1.875000
vt 3.000000 1.875000
vt 3.000000 2.062500
vt 2.250000 0.600000
vt 0.000000 0.600000
vt 0.000000 0.570000
vt -3.000000 0.630000
vt -3.000000 0.570000
vt -2.250000 0.600000
vt -2.250000 0.630000
vt 3.000000 0.570000
vt 3.000000 0.630000
vt 2.250000 0.630000
vt -3.000000 0.570000
vt 3.000000 0.630000
vt 2.250000 0.630000
vt 2.250000 0.600000
vt 3.000000 0.570000
vt 3.000000 1.125000
vt 0.000000 1.125000
vt 0.000000 0.937500
vt 3.000000 0.937500
vt -0.000000 0.570000
vt -0.000000 0.600000
vt -0.000000 0.600000
vt -0.000000 0.570000
vt -3.000000 0.630000
vt -2.250000 0.630000
vn 1.0000 0.0000 0.0000
vn -1.0000 0.0000 0.0000
vn -0.0000 -0.0000 1.0000
vn 0.0000 -1.0000 -0.0000
vn 0.0000 1.0000 0.0000
vn 0.0000 0.0000 -1.0000
usemtl Stone.085
s 1
f 26/1/1 21/2/1 4/3/1
f 33/4/2 15/5/2 17/6/2 20/7/2
f 30/8/3 36/9/3 34/10/3 25/11/3
f 40/12/2 39/13/2 24/14/2 23/15/2
f 3/16/1 29/17/1 30/18/1 25/19/1
f 32/20/4 31/21/4 26/22/4 25/23/4
f 3/16/1 25/19/1 4/3/1
f 4/3/1 25/19/1 26/1/1
f 26/1/1 18/24/1 21/2/1
f 27/25/5 33/26/5 20/27/5 19/28/5
f 26/29/6 31/30/6 16/31/6
f 27/32/1 19/33/1 18/24/1 26/1/1
f 31/30/6 6/34/6 16/31/6
f 33/35/6 27/36/6 15/37/6
f 34/10/3 7/38/3 32/20/3
f 27/36/6 26/29/6 16/31/6 15/37/6
f 35/39/3 36/9/3 30/8/3
f 34/10/3 32/20/3 25/11/3
f 36/40/2 35/41/2 38/42/2 37/43/2
f 31/44/2 32/20/2 7/38/2 6/45/2
f 21/2/1 22/46/1 28/47/1 4/3/1
f 22/48/5 24/49/5 39/50/5 28/51/5
f 35/52/5 30/53/5 29/54/5 38/55/5
usemtl Asphalt.059
f 6/45/2 12/56/2 13/57/2
f 6/45/2 7/38/2 1/58/2
f 5/59/2 6/45/2 13/57/2 14/60/2
f 16/31/6 6/34/6 5/61/6 15/37/6
f 7/38/2 2/62/2 1/58/2
f 6/45/2 1/58/2 12/56/2
f 17/63/5 15/64/5 5/65/5 14/66/5
f 8/67/5 36/68/5 37/69/5 9/70/5
f 23/71/5 11/72/5 10/73/5 40/74/5
f 7/38/2 8/75/2 9/76/2 2/62/2
f 36/9/3 8/75/3 7/38/3 34/10/3
f 11/77/2 12/56/2 1/58/2 10/78/2
usemtl Grey_Asphalt.017
f 12/79/6 11/80/6 23/81/6
f 13/82/5 12/83/5 21/84/5 18/85/5
f 17/86/3 14/87/3 13/88/3
f 29/89/6 3/90/6 37/91/6 38/92/6
f 17/86/3 13/88/3 18/93/3
f 19/94/3 20/95/3 17/86/3 18/93/3
f 21/96/6 12/79/6 23/81/6
f 28/97/3 39/98/3 40/99/3 4/100/3
f 4/101/5 1/102/5 2/103/5 3/104/5
f 3/90/6 2/105/6 37/91/6
f 2/105/6 9/106/6 37/91/6
f 40/99/3 10/107/3 1/108/3
f 22/109/6 21/96/6 23/81/6 24/110/6
f 40/99/3 1/108/3 4/100/3
