# Blender v2.79 (sub 0) OBJ File: ''
# www.blender.org
mtllib roadTile_255.mtl
o Mesh1_Group1_Model.254
v 3.000000 0.630000 -1.875000
v 3.000000 0.630000 -2.250000
v 0.000000 1.730000 -2.250000
v 0.000000 1.730000 -1.875000
v 3.000000 0.630000 0.000000
v 3.000000 0.000000 -0.000000
v 3.000000 0.000000 -2.250000
v 3.000000 0.600000 -1.875000
v 3.000000 0.300000 -1.875000
v 3.000000 0.300000 -0.375000
v 3.000000 0.600000 -0.375000
v 3.000000 0.630000 -0.375000
v 0.000000 1.730000 0.000000
v 0.000000 1.100000 0.000000
v 1.500000 0.000000 -0.000000
v 0.000000 1.730000 -0.375000
v 0.000000 1.100000 -2.250000
v 0.000000 1.700000 -0.375000
v 0.000000 1.400000 -0.375000
v 0.000000 1.400000 -1.875000
v 0.000000 1.700000 -1.875000
v 1.500000 0.000000 -2.250000
vt 1.875000 -2.599750
vt 2.250000 -2.599750
vt 2.250000 0.595561
vt 1.875000 0.595561
vt 0.000000 0.630000
vt 0.000000 -0.000000
vt 2.250000 0.000000
vt 2.250000 0.630000
vt 1.875000 0.630000
vt 1.875000 0.600000
vt 1.875000 0.300000
vt 0.375000 0.300000
vt 0.375000 0.600000
vt 0.375000 0.630000
vt 3.000000 0.630000
vt 0.000000 1.730000
vt 0.000000 1.100000
vt 1.500000 0.000000
vt 3.000000 -0.000000
vt 0.375000 0.595561
vt 0.000000 0.595561
vt 0.000000 -2.599750
vt 0.375000 -2.599750
vt -2.250000 1.730000
vt -2.250000 1.100000
vt -0.375000 1.730000
vt -0.375000 1.700000
vt -0.375000 1.400000
vt -1.875000 1.400000
vt -1.875000 1.700000
vt -1.875000 1.730000
vt -3.000000 0.630000
vt -3.000000 0.000000
vt -1.500000 0.000000
vt -0.000000 1.100000
vt -0.000000 1.730000
vt -1.500000 0.000000
vt -1.500000 2.250000
vt -3.000000 2.250000
vt -3.000000 0.000000
vt -0.000000 -1.209610
vt 0.000000 0.650500
vt -2.250000 0.650500
vt -2.250000 -1.209610
vt -3.000000 0.600000
vt -0.000000 1.700000
vt -0.000000 1.730000
vt -3.000000 0.630000
vt 0.000000 1.700000
vt 3.000000 0.600000
vt 3.000000 0.630000
vt 0.000000 1.730000
vt 1.875000 -2.610080
vt 1.875000 0.585233
vt 0.375000 0.585233
vt 0.375000 -2.610080
vn 0.3443 0.9389 -0.0000
vn 1.0000 0.0000 0.0000
vn 0.0000 -0.0000 1.0000
vn -1.0000 -0.0000 -0.0000
vn -0.0000 0.0000 -1.0000
vn -0.0000 -1.0000 -0.0000
vn -0.5914 -0.8064 -0.0000
usemtl Stone.211
s 1
f 1/1/1 2/2/1 3/3/1 4/4/1
f 5/5/2 6/6/2 7/7/2 2/8/2 1/9/2 8/10/2 9/11/2 10/12/2 11/13/2 12/14/2
f 5/15/3 13/16/3 14/17/3 15/18/3 6/19/3
f 16/20/1 13/21/1 5/22/1 12/23/1
f 3/24/4 17/25/4 14/17/4 13/16/4 16/26/4 18/27/4 19/28/4 20/29/4 21/30/4 4/31/4
f 2/32/5 7/33/5 22/34/5 17/35/5 3/36/5
f 15/37/6 22/38/6 7/39/6 6/40/6
f 15/41/7 14/42/7 17/43/7 22/44/7
f 11/45/5 18/46/5 16/47/5 12/48/5
f 21/49/3 8/50/3 1/51/3 4/52/3
usemtl Asphalt.172
f 8/53/1 21/54/1 18/55/1 11/56/1
f 18/27/4 21/30/4 20/29/4 19/28/4
f 8/10/2 11/13/2 10/12/2 9/11/2
