# Blender v2.79 (sub 0) OBJ File: ''
# www.blender.org
mtllib roadTile_276.mtl
o Mesh1_Group1_Model.275
v 0.000000 1.730000 -2.250000
v 0.000000 1.100000 -2.250000
v 0.000000 1.100000 0.000000
v 0.000000 1.730000 0.000000
v 0.000000 1.730000 -0.375000
v 0.000000 1.700000 -0.375000
v 0.000000 1.400000 -0.375000
v 0.000000 1.400000 -1.875000
v 0.000000 1.700000 -1.875000
v 0.000000 1.730000 -1.875000
v 3.000000 0.630000 -2.250000
v 3.000000 0.000000 -2.250000
v 3.000000 0.630000 -1.875000
v 3.000000 0.630000 0.000000
v 3.000000 0.000000 -0.000000
v 3.000000 0.600000 -1.875000
v 3.000000 0.300000 -1.875000
v 3.000000 0.300000 -0.375000
v 3.000000 0.600000 -0.375000
v 3.000000 0.630000 -0.375000
vt -2.250000 1.730000
vt -2.250000 1.100000
vt -0.000000 1.100000
vt -0.000000 1.730000
vt -0.375000 1.730000
vt -0.375000 1.700000
vt -0.375000 1.400000
vt -1.875000 1.400000
vt -1.875000 1.700000
vt -1.875000 1.730000
vt -0.000000 1.730000
vt -3.000000 0.630000
vt -3.000000 0.000000
vt -0.000000 1.100000
vt 1.875000 -2.599750
vt 2.250000 -2.599750
vt 2.250000 0.595561
vt 1.875000 0.595561
vt 0.000000 0.630000
vt 0.000000 -0.000000
vt 2.250000 0.000000
vt 2.250000 0.630000
vt 1.875000 0.630000
vt 1.875000 0.600000
vt 1.875000 0.300000
vt 0.375000 0.300000
vt 0.375000 0.600000
vt 0.375000 0.630000
vt 3.000000 -0.000000
vt 3.000000 0.630000
vt -0.000000 -2.816630
vt -0.000000 0.378680
vt -2.250000 0.378680
vt -2.250000 -2.816630
vt 0.375000 0.595561
vt 0.000000 0.595561
vt 0.000000 -2.599750
vt 0.375000 -2.599750
vt -3.000000 0.600000
vt -0.000000 1.700000
vt -0.000000 1.730000
vt -3.000000 0.630000
vt 0.000000 1.700000
vt 3.000000 0.600000
vt 3.000000 0.630000
vt 0.000000 1.730000
vt 1.875000 -2.610080
vt 1.875000 0.585233
vt 0.375000 0.585233
vt 0.375000 -2.610080
vn -1.0000 -0.0000 -0.0000
vn -0.0000 0.0000 -1.0000
vn 0.3443 0.9389 0.0000
vn 1.0000 0.0000 0.0000
vn 0.0000 -0.0000 1.0000
vn -0.3443 -0.9389 -0.0000
usemtl Stone.232
s 1
f 1/1/1 2/2/1 3/3/1 4/4/1 5/5/1 6/6/1 7/7/1 8/8/1 9/9/1 10/10/1
f 1/11/2 11/12/2 12/13/2 2/14/2
f 13/15/3 11/16/3 1/17/3 10/18/3
f 14/19/4 15/20/4 12/21/4 11/22/4 13/23/4 16/24/4 17/25/4 18/26/4 19/27/4 20/28/4
f 4/4/5 3/3/5 15/29/5 14/30/5
f 15/31/6 3/32/6 2/33/6 12/34/6
f 5/35/3 4/36/3 14/37/3 20/38/3
f 19/39/2 6/40/2 5/41/2 20/42/2
f 9/43/5 16/44/5 13/45/5 10/46/5
usemtl Asphalt.188
f 16/47/3 9/48/3 6/49/3 19/50/3
f 6/6/1 9/9/1 8/8/1 7/7/1
f 16/24/4 19/27/4 18/26/4 17/25/4
