# Blender v2.79 (sub 0) OBJ File: ''
# www.blender.org
mtllib roadTile_204.mtl
o Mesh1_Group1_Model.203
v 0.000000 1.700000 -2.250000
v 0.000000 1.400000 -2.250000
v 0.000000 1.400000 -0.750000
v 0.000000 1.700000 -0.750000
v 0.000000 1.730000 -3.000000
v 0.000000 1.100001 -3.000000
v 0.000000 1.100000 0.000000
v 0.000000 1.730000 0.000000
v 0.000000 1.730000 -0.750000
v 0.000000 1.730000 -2.250000
v 2.370000 0.000000 -3.000000
v 1.270000 1.100001 -3.000000
v 3.000000 1.730000 -3.000000
v 3.000000 0.000000 -3.000000
v 2.370000 0.000000 -0.000000
v 1.270000 1.100000 0.000000
v 3.000000 0.000000 -0.000000
v 3.000000 1.730000 0.000000
v 3.000000 1.730000 -2.250000
v 3.000000 1.700000 -2.250000
v 3.000000 1.400000 -2.250000
v 3.000000 1.400000 -0.750000
v 3.000000 1.700000 -0.750000
v 3.000000 1.730000 -0.750000
vt -3.000000 1.730000
vt -3.000000 1.100000
vt 0.000000 1.100000
vt 0.000000 1.730000
vt -0.750000 1.730000
vt -0.750000 1.700000
vt -0.750000 1.400000
vt -2.250000 1.400000
vt -2.250000 1.700000
vt -2.250000 1.730000
vt -2.370000 0.000000
vt -1.270000 1.100000
vt -0.000000 1.100000
vt -0.000000 1.730000
vt -3.000000 1.730000
vt -3.000000 0.000000
vt -3.000000 -0.120208
vt -3.000000 -1.675840
vt -0.000000 -1.675840
vt -0.000000 -0.120208
vt -3.000000 0.000000
vt -2.370000 0.000000
vt -2.370000 3.000000
vt -3.000000 3.000000
vt 1.270000 1.100000
vt 2.370000 -0.000000
vt 3.000000 0.000000
vt 3.000000 1.730000
vt -0.000000 3.000000
vt -1.270000 3.000000
vt -1.270000 0.000000
vt 0.000000 0.000000
vt 0.000000 1.730000
vt 0.000000 0.000000
vt 3.000000 0.000000
vt 3.000000 1.730000
vt 2.250000 1.730000
vt 2.250000 1.700000
vt 2.250000 1.400000
vt 0.750000 1.400000
vt 0.750000 1.700000
vt 0.750000 1.730000
vt 3.000000 2.250000
vt 3.000000 3.000000
vt 0.000000 3.000000
vt 0.000000 2.250000
vt 0.000000 1.700000
vt 3.000000 1.700000
vt 3.000000 1.730000
vt 0.000000 1.730000
vt -3.000000 1.700000
vt -0.000000 1.700000
vt -0.000000 1.730000
vt -3.000000 1.730000
vt 0.000000 0.750000
vt 0.000000 0.000000
vt 3.000000 0.000000
vt 3.000000 0.750000
vt 3.000000 2.250000
vt 0.000000 2.250000
vt 0.000000 0.750000
vt 3.000000 0.750000
vn -1.0000 0.0000 -0.0000
vn 0.0000 0.0000 -1.0000
vn -0.7071 -0.7071 -0.0000
vn 0.0000 -1.0000 -0.0000
vn 0.0000 -0.0000 1.0000
vn 1.0000 -0.0000 0.0000
vn 0.0000 1.0000 0.0000
usemtl Stone.160
s 1
f 5/1/1 6/2/1 7/3/1 8/4/1 9/5/1 4/6/1 3/7/1 2/8/1 1/9/1 10/10/1
f 11/11/2 12/12/2 6/13/2 5/14/2 13/15/2 14/16/2
f 12/17/3 11/18/3 15/19/3 16/20/3
f 17/21/4 15/22/4 11/23/4 14/24/4
f 8/4/5 7/3/5 16/25/5 15/26/5 17/27/5 18/28/5
f 6/29/4 12/30/4 16/31/4 7/32/4
f 18/33/6 17/34/6 14/35/6 13/36/6 19/37/6 20/38/6 21/39/6 22/40/6 23/41/6 24/42/6
f 19/43/7 13/44/7 5/45/7 10/46/7
f 1/47/5 20/48/5 19/49/5 10/50/5
f 23/51/2 4/52/2 9/53/2 24/54/2
f 9/55/7 8/56/7 18/57/7 24/58/7
usemtl Asphalt.133
f 1/9/1 2/8/1 3/7/1 4/6/1
f 20/59/7 1/60/7 4/61/7 23/62/7
f 23/41/6 22/40/6 21/39/6 20/38/6
