# Blender v2.79 (sub 0) OBJ File: ''
# www.blender.org
mtllib roadTile_052.mtl
o Mesh1_Group1_Model.051
v 0.000000 0.600001 -3.000000
v 0.000000 0.300000 -3.000000
v 0.000000 0.300000 -1.703930
v 0.000000 0.600000 -1.703930
v 1.296070 0.600001 -3.000000
v 1.296070 0.300000 -3.000000
v 1.746110 0.000000 -3.000000
v 0.000000 0.000000 -3.000000
v 1.296070 0.630000 -3.000000
v 1.746110 0.630000 -3.000000
v 1.746110 0.550000 -3.000000
v 3.000000 0.000000 -0.000000
v 0.000000 0.000000 0.000000
v 0.000000 0.000000 -1.253890
v 3.000000 0.000000 -3.000000
v 3.000000 0.550000 0.000000
v 0.000000 0.550000 0.000000
v 3.000000 0.550000 -3.000000
v 1.462610 0.550000 -2.575720
v 0.977476 0.550000 -2.022520
v 0.424283 0.550000 -1.537390
v 0.000000 0.550000 -1.253890
v 1.462610 0.630000 -2.575720
v 0.000000 0.630000 -1.703930
v 0.000000 0.630000 -1.253890
v 0.424283 0.630000 -1.537390
v 0.977476 0.630000 -2.022520
v 1.165110 0.630000 -2.804000
v 0.712311 0.630000 -2.287690
v 0.195998 0.630000 -1.834890
v 0.195998 0.600000 -1.834890
v 0.712311 0.600000 -2.287690
v 1.165110 0.600001 -2.804000
vt -2.043920 0.630000
vt -2.043920 0.600000
vt -1.357190 0.600000
vt -1.357190 0.630000
vt -1.746110 0.000000
vt -0.000000 -0.000000
vt -1.296070 0.300000
vt -0.000000 0.300000
vt -1.253890 0.630000
vt -1.703930 0.630000
vt -1.703930 0.600000
vt -1.253890 0.550000
vt 2.954210 0.550000
vt 3.464500 0.550000
vt 3.464500 0.630000
vt 2.954210 0.630000
vt -1.746110 0.630000
vt -1.746110 0.550000
vt -1.296070 0.600000
vt -1.296070 0.630000
vt -1.253890 0.000000
vt -1.703930 0.300000
vt 1.296070 3.000000
vt 1.165110 2.804000
vt 1.462610 2.575720
vt 1.746110 3.000000
vt 0.000000 1.253890
vt 0.424283 1.537390
vt 0.195998 1.834890
vt -0.000000 1.703930
vt 0.712311 2.287690
vt 0.977476 2.022520
vt -3.000000 0.300000
vt -3.000000 0.000000
vt -3.214460 0.630000
vt -3.214460 0.600000
vt -2.978740 0.600000
vt -2.978740 0.630000
vt 1.332660 0.550000
vt 2.068450 0.550000
vt 2.068450 0.630000
vt 1.332660 0.630000
vt 2.165110 0.550000
vt 2.900890 0.550000
vt 2.900890 0.630000
vt 2.165110 0.630000
vt -1.182380 0.630000
vt -1.182380 0.600000
vt -0.946655 0.600000
vt -0.946655 0.630000
vt -2.876370 0.630000
vt -2.876370 0.600000
vt -2.189630 0.600000
vt -2.189630 0.630000
vt 0.696624 0.550000
vt 1.206910 0.550000
vt 1.206910 0.630000
vt 0.696624 0.630000
vt -0.000000 1.253890
vt -0.000000 3.000000
vt -1.746110 3.000000
vt 0.977476 2.022520
vt 0.424283 1.537390
vt 3.000000 0.000000
vt -3.000000 3.000000
vt -3.000000 0.000000
vt -0.000000 -0.000000
vt 0.000000 0.550000
vt 0.000000 0.000000
vt 3.000000 0.000000
vt 3.000000 0.550000
vt -3.000000 0.000000
vt -3.000000 0.550000
vt 3.000000 3.000000
vt 1.462610 2.575720
vt 1.746110 3.000000
vt 0.000000 1.253890
vt 0.000000 -0.000000
vt 0.000000 0.550000
vt 3.000000 -0.000000
vt 3.000000 0.550000
vt 0.195998 1.834890
vt 0.712311 2.287690
vt 0.000000 3.000000
vt -0.000000 0.600000
vt -3.000000 0.600000
vt 1.296070 3.000000
vt 1.165110 2.804000
vt 0.000000 1.703930
vn -0.7071 0.0000 -0.7071
vn -0.6088 0.0000 -0.7934
vn 0.0000 0.0000 -1.0000
vn -1.0000 0.0000 0.0000
vn 0.7934 0.0000 0.6088
vn 0.8315 0.0000 0.5556
vn 0.0000 1.0000 0.0000
vn -0.8315 0.0000 -0.5556
vn -0.7934 0.0000 -0.6088
vn 0.6088 0.0000 0.7934
vn 0.7071 0.0000 0.7071
vn -0.5556 0.0000 -0.8315
vn 0.5556 0.0000 0.8315
vn 0.0000 -1.0000 -0.0000
vn 1.0000 0.0000 0.0000
vn 0.0000 -0.0000 1.0000
usemtl Stone.032
s 1
f 29/1/1 32/2/1 31/3/2 30/4/2
f 7/5/3 8/6/3 6/7/3
f 8/6/3 2/8/3 6/7/3
f 25/9/4 24/10/4 4/11/4 22/12/4
f 19/13/5 11/14/6 10/15/6 23/16/5
f 10/17/3 11/18/3 5/19/3 9/20/3
f 14/21/4 22/12/4 4/11/4 3/22/4
f 9/23/7 28/24/7 23/25/7 10/26/7
f 25/27/7 26/28/7 30/29/7 24/30/7
f 23/25/7 28/24/7 29/31/7 27/32/7
f 2/33/4 8/34/4 3/22/4
f 26/28/7 27/32/7 29/31/7 30/29/7
f 3/22/4 8/34/4 14/21/4
f 6/7/3 5/19/3 11/18/3 7/5/3
f 9/35/8 5/36/8 33/37/9 28/38/9
f 21/39/10 20/40/11 27/41/11 26/42/10
f 20/43/11 19/44/5 23/45/5 27/46/11
f 30/47/2 31/48/2 4/49/12 24/50/12
f 28/51/9 33/52/9 32/53/1 29/54/1
f 22/55/13 21/56/10 26/57/10 25/58/13
usemtl Grass.039
f 14/59/14 8/60/14 7/61/14
f 20/62/7 21/63/7 16/64/7
f 15/65/14 12/66/14 7/61/14
f 13/67/14 14/59/14 12/66/14
f 7/61/14 12/66/14 14/59/14
f 16/68/15 12/69/15 15/70/15 18/71/15
f 15/72/3 7/5/3 11/18/3 18/73/3
f 16/64/7 18/74/7 19/75/7
f 18/74/7 11/76/7 19/75/7
f 22/77/7 17/78/7 21/63/7
f 21/63/7 17/78/7 16/64/7
f 16/64/7 19/75/7 20/62/7
f 14/21/4 13/67/4 17/79/4 22/12/4
f 13/67/16 12/80/16 16/81/16 17/79/16
usemtl Asphalt.021
f 31/82/7 32/83/7 1/84/7
f 1/85/3 5/19/3 6/7/3 2/8/3
f 4/11/4 1/86/4 2/33/4 3/22/4
f 5/87/7 1/84/7 33/88/7
f 4/89/7 31/82/7 1/84/7
f 32/83/7 33/88/7 1/84/7
