# Blender v2.79 (sub 0) OBJ File: ''
# www.blender.org
mtllib roadTile_275.mtl
o Mesh1_Group1_Model.274
v 3.000000 0.000000 -0.000000
v 3.000000 0.000000 -2.250000
v 3.000000 0.630000 -2.250000
v 3.000000 0.630000 -1.875000
v 3.000000 0.600000 -1.875000
v 3.000000 0.300000 -1.875000
v 3.000000 0.300000 -0.375000
v 3.000000 0.600000 -0.375000
v 3.000000 0.630000 -0.375000
v 3.000000 0.630000 0.000000
v 0.000000 0.000000 0.000000
v 0.000000 0.000000 -2.250000
v 0.000000 0.630000 0.000000
v 0.000000 0.630000 -0.375000
v 0.000000 0.600000 -0.375000
v 0.000000 0.300000 -0.375000
v 0.000000 0.300000 -1.875000
v 0.000000 0.600000 -1.875000
v 0.000000 0.630000 -1.875000
v 0.000000 0.630000 -2.250000
vt 0.000000 0.000000
vt 2.250000 0.000000
vt 2.250000 0.630000
vt 1.875000 0.630000
vt 1.875000 0.600000
vt 1.875000 0.300000
vt 0.375000 0.300000
vt 0.375000 0.600000
vt 0.375000 0.630000
vt 0.000000 0.630000
vt -3.000000 2.250000
vt -3.000000 0.000000
vt 0.000000 0.000000
vt -0.000000 2.250000
vt 3.000000 0.630000
vt 0.000000 0.630000
vt 3.000000 0.000000
vt 0.000000 0.375000
vt 0.000000 0.000000
vt 3.000000 0.000000
vt 3.000000 0.375000
vt -2.250000 0.000000
vt -0.375000 0.630000
vt -0.375000 0.600000
vt -0.375000 0.300000
vt -1.875000 0.300000
vt -1.875000 0.600000
vt -1.875000 0.630000
vt -2.250000 0.630000
vt -3.000000 0.600000
vt -0.000000 0.600000
vt -0.000000 0.630000
vt -3.000000 0.630000
vt 0.000000 0.600000
vt 3.000000 0.600000
vt 3.000000 0.630000
vt 0.000000 0.630000
vt 3.000000 1.875000
vt 3.000000 2.250000
vt 0.000000 2.250000
vt 0.000000 1.875000
vt -0.000000 0.630000
vt -3.000000 0.630000
vt -3.000000 0.000000
vt -0.000000 0.000000
vt 3.000000 1.875000
vt 0.000000 1.875000
vt 0.000000 0.375000
vt 3.000000 0.375000
vn 1.0000 0.0000 0.0000
vn 0.0000 -1.0000 -0.0000
vn 0.0000 -0.0000 1.0000
vn 0.0000 1.0000 0.0000
vn -1.0000 0.0000 -0.0000
vn 0.0000 0.0000 -1.0000
usemtl Stone.231
s 1
f 1/1/1 2/2/1 3/3/1 4/4/1 5/5/1 6/6/1 7/7/1 8/8/1 9/9/1 10/10/1
f 2/11/2 1/12/2 11/13/2 12/14/2
f 10/15/3 13/16/3 11/13/3 1/17/3
f 14/18/4 13/19/4 10/20/4 9/21/4
f 12/22/5 11/13/5 13/16/5 14/23/5 15/24/5 16/25/5 17/26/5 18/27/5 19/28/5 20/29/5
f 8/30/6 15/31/6 14/32/6 9/33/6
f 18/34/3 5/35/3 4/36/3 19/37/3
f 4/38/4 3/39/4 20/40/4 19/41/4
f 20/42/6 3/43/6 2/44/6 12/45/6
usemtl Asphalt.187
f 5/46/4 18/47/4 15/48/4 8/49/4
f 18/27/5 17/26/5 16/25/5 15/24/5
f 8/8/1 7/7/1 6/6/1 5/5/1
