# Blender v2.79 (sub 0) OBJ File: ''
# www.blender.org
mtllib roadTile_059.mtl
o Mesh1_Group1_Model.058
v 0.750000 0.600000 0.000000
v 0.750000 0.300000 0.000000
v 3.000000 0.300000 0.000000
v 3.000000 0.600000 0.000000
v 0.750000 0.630000 0.000000
v 0.000000 0.630000 0.000000
v 0.000000 0.000000 -0.000000
v 3.000000 0.000000 0.000000
v 0.750000 0.630000 -3.000000
v 0.750000 0.600001 -3.000000
v 0.000000 0.630000 -3.000000
v 0.750000 0.300000 -3.000000
v 3.000000 0.300000 -3.000000
v 3.000000 0.000000 -3.000000
v 0.000000 0.000000 -3.000000
v 3.000000 0.600001 -3.000000
vt 3.000000 0.000000
vt 3.000000 0.300000
vt 0.750000 0.300000
vt 0.750000 0.600000
vt 0.750000 0.630000
vt 0.000000 0.630000
vt -0.000000 0.000000
vt 0.000000 3.000000
vt 0.000000 0.000000
vt 0.750000 0.000000
vt 0.750000 3.000000
vt -3.000000 0.630000
vt -3.000000 0.000000
vt -0.750000 0.630000
vt -0.750000 0.600000
vt 0.000000 0.630000
vt -0.750000 0.300000
vt -3.000000 0.300000
vt -3.000000 0.000000
vt 0.000000 0.000000
vt -0.000000 3.000000
vt -3.000000 3.000000
vt -3.000000 0.000000
vt 3.000000 0.600000
vt 3.000000 0.630000
vt 0.000000 0.630000
vt 0.000000 0.600000
vt 0.000000 0.000000
vt 3.000000 0.000000
vt 3.000000 0.300000
vt 0.000000 0.300000
vt 0.750000 0.000000
vt 3.000000 0.000000
vt 3.000000 3.000000
vt 0.750000 3.000000
vt 3.000000 0.600000
vt 0.000000 0.600000
vt 3.000000 0.600000
vt -3.000000 0.600000
vn -0.0000 -0.0000 1.0000
vn 0.0000 1.0000 0.0000
vn -1.0000 0.0000 -0.0000
vn 0.0000 0.0000 -1.0000
vn -0.0000 -1.0000 -0.0000
vn 1.0000 0.0000 0.0000
usemtl Stone.039
s 1
f 8/1/1 3/2/1 2/3/1
f 1/4/1 5/5/1 6/6/1
f 7/7/1 8/1/1 2/3/1
f 11/8/2 6/9/2 5/10/2 9/11/2
f 11/12/3 15/13/3 7/7/3 6/6/3
f 9/14/4 10/15/4 11/16/4
f 12/17/4 13/18/4 14/19/4
f 6/6/1 7/7/1 2/3/1 1/4/1
f 12/17/4 14/19/4 15/20/4
f 11/16/4 10/15/4 12/17/4 15/20/4
f 15/21/5 14/22/5 8/23/5 7/7/5
f 10/24/6 9/25/6 5/26/6 1/27/6
f 8/28/6 14/29/6 13/30/6 3/31/6
usemtl Asphalt.028
f 1/32/2 4/33/2 16/34/2 10/35/2
f 16/36/6 4/37/6 3/31/6 13/30/6
f 4/38/1 1/4/1 2/3/1 3/2/1
f 10/15/4 16/39/4 13/18/4 12/17/4
