# Blender v2.79 (sub 0) OBJ File: ''
# www.blender.org
mtllib roadTile_075.mtl
o Mesh1_Group1_Model.074
v 0.000000 0.630000 0.000000
v 0.000000 0.000000 0.000000
v 3.000000 0.000000 -0.000000
v 3.000000 0.630000 0.000000
v 0.000000 0.000000 -3.000000
v 0.000000 0.630000 -0.750000
v 0.000000 0.600000 -0.750000
v 0.000000 0.300000 -0.750000
v 0.000000 0.300000 -2.250000
v 0.000000 0.600000 -2.250000
v 0.000000 0.630000 -2.250000
v 0.000000 0.630000 -3.000000
v 3.000000 0.000000 -3.000000
v 3.000000 0.630000 -3.000000
v 3.000000 0.600000 -2.250000
v 3.000000 0.300000 -2.250000
v 3.000000 0.300000 -0.750000
v 3.000000 0.600000 -0.750000
v 3.000000 0.630000 -0.750000
v 3.000000 0.630000 -2.250000
v 1.875000 0.600000 -0.750000
v 1.875000 0.600000 -0.937500
v 1.875000 0.600000 -1.312500
v 1.875000 0.600000 -1.500000
v 1.875000 0.600000 -1.875000
v 1.875000 0.600000 -2.062500
v 1.125000 0.600000 -2.062500
v 1.125000 0.600000 -1.687500
v 1.125000 0.600000 -0.750000
v 1.125000 0.600000 -0.937500
v 1.875000 0.600000 -1.125000
v 1.125000 0.600000 -1.125000
v 1.125000 0.600000 -1.312500
v 1.125000 0.600000 -1.500000
v 1.875000 0.600000 -1.687500
v 1.125000 0.600000 -1.875000
vt -3.000000 -0.000000
vt 0.000000 -0.000000
vt -2.250000 0.300000
vt 0.750000 0.300000
vt -0.000000 -0.000000
vt 2.250000 0.300000
vt -1.125000 0.600000
vt -0.000000 0.630000
vt -3.000000 0.630000
vt 3.000000 0.630000
vt 0.000000 0.630000
vt 3.000000 0.000000
vt -3.000000 3.000000
vt -3.000000 0.000000
vt 0.000000 3.000000
vt -3.000000 0.630000
vt -2.250000 0.600000
vt -0.750000 0.630000
vt -0.750000 0.600000
vt -2.250000 0.630000
vt -0.000000 0.630000
vt 0.750000 0.600000
vt -0.750000 0.300000
vt -0.000000 0.630000
vt -3.000000 0.630000
vt -3.000000 0.000000
vt -0.000000 0.000000
vt 2.250000 0.630000
vt 2.250000 0.600000
vt 3.000000 0.630000
vt 3.000000 -0.000000
vt 0.750000 0.630000
vt -3.000000 0.600000
vt -1.875000 0.600000
vt -0.000000 0.600000
vt 3.000000 0.750000
vt 0.000000 0.750000
vt 0.000000 -0.000000
vt 3.000000 0.000000
vt 3.000000 0.630000
vt 0.000000 0.630000
vt 0.000000 0.600000
vt 3.000000 0.600000
vt 3.000000 3.000000
vt -0.000000 3.000000
vt 0.000000 2.250000
vt 3.000000 2.250000
vt 1.125000 0.750000
vt 1.875000 0.750000
vt 1.875000 0.937500
vt 1.125000 0.937500
vt 1.125000 1.125000
vt 1.875000 1.125000
vt 1.875000 1.312500
vt 1.125000 1.312500
vt 1.125000 1.500000
vt 1.875000 1.500000
vt 1.875000 1.687500
vt 1.125000 1.687500
vt 1.125000 1.875000
vt 1.875000 1.875000
vt 1.875000 2.062500
vt 1.125000 2.062500
vt 3.000000 2.250000
vt 3.000000 0.750000
vt 0.000000 2.250000
vt 0.000000 0.750000
vn -1.0000 0.0000 0.0000
vn 1.0000 -0.0000 0.0000
vn 0.0000 0.0000 -1.0000
vn 0.0000 -0.0000 1.0000
vn 0.0000 -1.0000 -0.0000
vn 0.0000 1.0000 0.0000
vn -0.9984 0.0563 -0.0003
vn 0.5612 0.5608 -0.6088
vn -0.9870 0.1189 -0.1085
vn -0.0003 0.0141 0.9999
vn 0.5608 0.5612 0.6088
vn 0.9943 -0.1062 0.0000
vn 0.8065 0.5785 -0.1220
usemtl Stone.055
s 1
f 5/1/1 2/2/1 9/3/1
f 17/4/2 3/5/2 16/6/2
f 29/7/3 6/8/3 19/9/3
f 4/10/4 1/11/4 2/2/4 3/12/4
f 13/13/5 3/14/5 2/2/5 5/15/5
f 12/16/1 5/1/1 9/3/1 10/17/1
f 6/18/1 7/19/1 1/11/1
f 11/20/1 12/16/1 10/17/1
f 4/21/2 3/5/2 17/4/2 18/22/2
f 2/2/1 8/23/1 9/3/1
f 12/24/3 14/25/3 13/26/3 5/27/3
f 1/11/1 7/19/1 8/23/1 2/2/1
f 20/28/2 15/29/2 14/30/2
f 13/31/2 14/30/2 15/29/2 16/6/2
f 18/22/2 19/32/2 4/21/2
f 13/31/2 16/6/2 3/5/2
f 19/9/3 18/33/3 21/34/3
f 29/7/3 7/35/3 6/8/3
f 19/9/3 21/34/3 29/7/3
f 19/36/6 6/37/6 1/38/6 4/39/6
f 20/40/4 11/41/4 10/42/4 15/43/4
f 14/44/6 12/45/6 11/46/6 20/47/6
usemtl White.001
f 29/48/6 21/49/6 22/50/6 30/51/7
f 32/52/8 31/53/9 23/54/6 33/55/10
f 34/56/11 24/57/6 35/58/12 28/59/6
f 36/60/13 25/61/6 26/62/6 27/63/6
usemtl Asphalt.044
f 15/64/6 21/49/6 18/65/6
f 15/64/6 22/50/6 21/49/6
f 15/64/6 23/54/6 22/50/6
f 15/64/6 24/57/6 23/54/6
f 15/64/6 25/61/6 24/57/6
f 15/64/6 26/62/6 25/61/6
f 15/64/6 27/63/6 26/62/6
f 10/66/6 27/63/6 15/64/6
f 28/59/6 7/67/6 29/48/6
f 31/53/9 22/50/6 23/54/6
f 36/60/13 28/59/6 35/58/12 25/61/6
f 25/61/6 35/58/12 24/57/6
f 31/53/9 32/52/8 30/51/7 22/50/6
f 28/59/6 36/60/13 27/63/6
f 28/59/6 33/55/10 34/56/11
f 28/59/6 30/51/7 33/55/10
f 28/59/6 29/48/6 30/51/7
f 33/55/10 30/51/7 32/52/8
f 7/67/6 28/59/6 27/63/6 10/66/6
f 7/19/1 10/17/1 9/3/1 8/23/1
f 24/57/6 34/56/11 33/55/10 23/54/6
f 15/29/2 18/22/2 17/4/2 16/6/2
