# Blender v2.79 (sub 0) OBJ File: ''
# www.blender.org
mtllib roadTile_053.mtl
o Mesh1_Group1_Model.052
v 3.000000 0.600001 -3.000000
v 3.000000 0.600000 -1.703930
v 3.000000 0.300000 -1.703930
v 3.000000 0.300000 -3.000000
v 0.000000 0.600001 -3.000000
v 0.000000 0.600000 -0.750000
v 0.685263 0.600000 -0.794914
v 1.358800 0.600000 -0.928889
v 2.009090 0.600000 -1.149630
v 2.625000 0.600000 -1.453370
v 0.000000 0.300000 -3.000000
v 0.000000 0.300000 -0.750000
v 0.000000 0.000000 -3.000000
v 3.000000 0.000000 -3.000000
v 0.000000 0.000000 -0.375000
v 0.000000 0.550000 -0.375000
v 0.000000 0.630000 -0.375000
v 0.000000 0.630000 -0.750000
v 3.000000 0.000000 -0.000000
v 0.000000 0.000000 0.000000
v 3.000000 0.000000 -1.253890
v 0.000000 0.550000 0.000000
v 3.000000 0.550000 0.000000
v 3.000000 0.550000 -1.253890
v 2.812500 0.550000 -1.128610
v 2.152590 0.550000 -0.803178
v 1.455860 0.550000 -0.566667
v 0.734210 0.550000 -0.423123
v 3.000000 0.630000 -1.703930
v 3.000000 0.630000 -1.253890
v 2.625000 0.630000 -1.453370
v 2.009090 0.630000 -1.149630
v 1.358800 0.630000 -0.928889
v 0.685263 0.630000 -0.794914
v 0.734210 0.630000 -0.423123
v 1.455860 0.630000 -0.566667
v 2.152590 0.630000 -0.803178
v 2.812500 0.630000 -1.128610
vt -3.000000 0.000000
vt -0.000000 0.000000
vt -0.000000 0.300000
vt -3.000000 0.300000
vt 2.965530 0.550000
vt 3.191030 0.550000
vt 3.191030 0.630000
vt 2.965530 0.630000
vt -3.000000 0.300000
vt -3.000000 0.000000
vt -0.750000 0.300000
vt -0.375000 0.000000
vt 3.000000 1.253890
vt 3.000000 1.703930
vt 2.625000 1.453370
vt 2.812500 1.128610
vt 1.253890 0.630000
vt 1.253890 0.550000
vt 1.703930 0.600000
vt 1.703930 0.630000
vt 1.253890 -0.000000
vt 3.000000 -0.000000
vt 1.703930 0.300000
vt -0.375000 0.550000
vt -0.750000 0.600000
vt 3.000000 0.300000
vt 2.009090 1.149630
vt 1.358800 0.928889
vt 1.455860 0.566667
vt 2.152590 0.803178
vt 0.802649 0.550000
vt 1.538430 0.550000
vt 1.538430 0.630000
vt 0.802649 0.630000
vt -2.272000 0.630000
vt -2.272000 0.600000
vt -1.585270 0.600000
vt -1.585270 0.630000
vt 2.285840 0.550000
vt 3.021620 0.550000
vt 3.021620 0.630000
vt 2.285840 0.630000
vt 0.685263 0.794914
vt 0.734210 0.423123
vt 0.000000 0.375000
vt -0.000000 0.750000
vt -0.375000 0.630000
vt -0.750000 0.630000
vt -2.997100 0.630000
vt -2.997100 0.600000
vt -2.310370 0.600000
vt -2.310370 0.630000
vt 0.024526 0.550000
vt 0.760311 0.550000
vt 0.760311 0.630000
vt 0.024526 0.630000
vt -1.513910 0.630000
vt -1.513910 0.600000
vt -0.827176 0.600000
vt -0.827176 0.630000
vt 1.560740 0.550000
vt 2.296530 0.550000
vt 2.296530 0.630000
vt 1.560740 0.630000
vt -0.735785 0.630000
vt -0.735785 0.600000
vt -0.049052 0.600000
vt -0.049052 0.630000
vt -3.441060 0.630000
vt -3.441060 0.600000
vt -2.990050 0.600000
vt -2.990050 0.630000
vt 3.000000 0.000000
vt 1.455860 0.566667
vt 0.734210 0.423123
vt -0.000000 0.375000
vt -0.000000 3.000000
vt -3.000000 3.000000
vt -3.000000 1.253890
vt -0.000000 0.000000
vt -3.000000 0.000000
vt 0.000000 0.550000
vt 0.000000 0.000000
vt 0.000000 0.550000
vt 3.000000 1.253890
vt 2.812500 1.128610
vt 2.152590 0.803178
vt 0.000000 0.375000
vt 0.000000 -0.000000
vt 3.000000 0.550000
vt 3.000000 0.000000
vt 2.009090 1.149630
vt 2.625000 1.453370
vt 3.000000 3.000000
vt -3.000000 0.600000
vt 0.000000 3.000000
vt -0.000000 0.750000
vt 0.685263 0.794914
vt 1.358800 0.928889
vt 3.000000 1.703930
vt -0.000000 0.600000
vt -3.000000 0.600000
vt 3.000000 0.600000
vn 0.0000 0.0000 -1.0000
vn 0.5000 0.0000 0.8660
vn 0.5556 0.0000 0.8315
vn -1.0000 -0.0000 -0.0000
vn 0.0000 1.0000 0.0000
vn 1.0000 0.0000 0.0000
vn 0.1305 0.0000 0.9914
vn 0.2588 0.0000 0.9659
vn -0.3827 0.0000 -0.9239
vn -0.2588 0.0000 -0.9659
vn 0.3827 0.0000 0.9239
vn -0.5000 0.0000 -0.8660
vn 0.0654 0.0000 0.9979
vn -0.1305 0.0000 -0.9914
vn -0.0654 0.0000 -0.9979
vn -0.5556 0.0000 -0.8315
vn 0.0000 -1.0000 -0.0000
vn 0.0000 -0.0000 1.0000
usemtl Stone.033
s 1
f 14/1/1 13/2/1 11/3/1 4/4/1
f 25/5/2 24/6/3 30/7/3 38/8/2
f 11/9/4 13/10/4 12/11/4
f 12/11/4 13/10/4 15/12/4
f 30/13/5 29/14/5 31/15/5 38/16/5
f 30/17/6 24/18/6 2/19/6 29/20/6
f 21/21/6 14/22/6 3/23/6
f 15/12/4 16/24/4 6/25/4 12/11/4
f 14/22/6 4/26/6 3/23/6
f 32/27/5 33/28/5 36/29/5 37/30/5
f 28/31/7 27/32/8 36/33/8 35/34/7
f 32/35/9 9/36/9 8/37/10 33/38/10
f 26/39/11 25/40/2 38/41/2 37/42/11
f 33/28/5 34/43/5 35/44/5 36/29/5
f 17/45/5 35/44/5 34/43/5 18/46/5
f 24/18/6 21/21/6 3/23/6 2/19/6
f 37/30/5 38/16/5 31/15/5 32/27/5
f 17/47/4 18/48/4 6/25/4 16/24/4
f 31/49/12 10/50/12 9/51/9 32/52/9
f 16/53/13 28/54/7 35/55/7 17/56/13
f 33/57/10 8/58/10 7/59/14 34/60/14
f 27/61/8 26/62/11 37/63/11 36/64/8
f 34/65/14 7/66/14 6/67/15 18/68/15
f 29/69/16 2/70/16 10/71/12 31/72/12
usemtl Grass.040
f 23/73/5 27/74/5 28/75/5
f 15/76/17 13/77/17 14/78/17 21/79/17
f 20/80/17 15/76/17 21/79/17 19/81/17
f 20/80/4 22/82/4 16/24/4 15/12/4
f 19/83/6 21/21/6 24/18/6 23/84/6
f 23/73/5 24/85/5 25/86/5
f 23/73/5 25/86/5 26/87/5
f 16/88/5 22/89/5 28/75/5
f 28/75/5 22/89/5 23/73/5
f 23/73/5 26/87/5 27/74/5
f 23/90/18 22/82/18 20/80/18 19/91/18
usemtl Asphalt.022
f 9/92/5 10/93/5 1/94/5
f 6/25/4 5/95/4 11/9/4 12/11/4
f 1/94/5 5/96/5 9/92/5
f 6/97/5 7/98/5 5/96/5
f 8/99/5 9/92/5 5/96/5
f 10/93/5 2/100/5 1/94/5
f 5/96/5 7/98/5 8/99/5
f 5/101/1 1/102/1 4/4/1 11/3/1
f 4/26/6 1/103/6 2/19/6 3/23/6
