# Blender v2.79 (sub 0) OBJ File: ''
# www.blender.org
mtllib roadTile_081.mtl
o Mesh1_Group1_Model.080
v 3.000000 0.455000 0.000000
v 1.875000 0.455000 0.000000
v 1.875000 0.000000 -0.000000
v 3.000000 0.000000 -0.000000
v 0.000000 0.455000 -3.000000
v 0.000000 0.455000 -1.875000
v 0.244737 0.455000 -1.858960
v 0.485286 0.455000 -1.811110
v 0.717531 0.455000 -1.732270
v 0.937500 0.455000 -1.623800
v 1.141430 0.455000 -1.487540
v 1.325830 0.455000 -1.325830
v 1.487540 0.455000 -1.141430
v 1.623800 0.455000 -0.937500
v 1.732270 0.455000 -0.717531
v 1.811110 0.455000 -0.485286
v 1.858960 0.455000 -0.244737
v 3.000000 0.455000 -3.000000
v 0.000000 0.000000 -3.000000
v 0.000000 0.000000 -1.875000
v 0.375000 0.000000 -0.000000
v 0.000000 0.000000 0.000000
v 0.000000 0.000000 -0.375000
v 0.000000 0.000000 -0.750000
v 3.000000 0.000000 -3.000000
v 0.750000 0.000000 -0.000000
v 0.375000 0.550000 0.000000
v 0.000000 0.550000 0.000000
v 0.375000 0.630000 0.000000
v 0.750000 0.455000 0.000000
v 0.750000 0.630000 0.000000
v 0.371792 0.550000 -0.048947
v 0.371792 0.630000 -0.048947
v 0.362222 0.550000 -0.097057
v 0.346455 0.550000 -0.143506
v 0.324760 0.550000 -0.187500
v 0.297508 0.550000 -0.228286
v 0.265165 0.550000 -0.265165
v 0.228286 0.550000 -0.297508
v 0.187500 0.550000 -0.324760
v 0.143506 0.550000 -0.346455
v 0.097057 0.550000 -0.362222
v 0.048947 0.550000 -0.371792
v 0.000000 0.550000 -0.375000
v 0.362222 0.630000 -0.097057
v 0.000000 0.630000 -0.750000
v 0.000000 0.630000 -0.375000
v 0.048947 0.630000 -0.371792
v 0.097057 0.630000 -0.362222
v 0.143506 0.630000 -0.346455
v 0.187500 0.630000 -0.324760
v 0.228286 0.630000 -0.297508
v 0.265165 0.630000 -0.265165
v 0.297508 0.630000 -0.228286
v 0.324760 0.630000 -0.187500
v 0.346455 0.630000 -0.143506
v 0.743584 0.630000 -0.097894
v 0.724444 0.630000 -0.194114
v 0.692910 0.630000 -0.287013
v 0.649519 0.630000 -0.375000
v 0.595015 0.630000 -0.456571
v 0.530330 0.630000 -0.530330
v 0.456571 0.630000 -0.595015
v 0.375000 0.630000 -0.649519
v 0.287013 0.630000 -0.692910
v 0.194114 0.630000 -0.724444
v 0.097895 0.630000 -0.743584
v 0.000000 0.455000 -0.750000
v 0.097895 0.455000 -0.743584
v 0.194114 0.455000 -0.724444
v 0.287013 0.455000 -0.692910
v 0.375000 0.455000 -0.649519
v 0.456571 0.455000 -0.595015
v 0.530330 0.455000 -0.530330
v 0.595015 0.455000 -0.456571
v 0.649519 0.455000 -0.375000
v 0.692910 0.455000 -0.287013
v 0.724444 0.455000 -0.194114
v 0.743584 0.455000 -0.097895
vt -0.049052 0.630000
vt -0.049052 0.455000
vt 0.049052 0.455000
vt 0.049052 0.630000
vt -0.024526 0.630000
vt -0.024526 0.550000
vt 0.024526 0.550000
vt 0.024526 0.630000
vt -0.375000 0.000000
vt -0.375000 0.550000
vt -0.750000 0.455000
vt -0.750000 0.000000
vt -0.024526 0.630000
vt -0.024526 0.550000
vt 0.024526 0.550000
vt 0.024526 0.630000
vt 0.750000 0.000000
vt 0.743584 0.097895
vt 0.371792 0.048947
vt 0.375000 0.000000
vt -0.750000 0.630000
vt -0.375000 0.630000
vt 0.456571 0.595015
vt 0.375000 0.649519
vt 0.187500 0.324760
vt 0.228286 0.297508
vt 0.287013 0.692910
vt 0.143506 0.346455
vt 0.530330 0.530330
vt 0.265165 0.265165
vt 0.297508 0.228286
vt 0.595015 0.456571
vt 0.097057 0.362222
vt 0.194114 0.724444
vt 0.000000 0.750000
vt 0.000000 0.375000
vt 0.048947 0.371792
vt 0.097895 0.743584
vt 0.324760 0.187500
vt 0.649519 0.375000
vt 0.375000 0.000000
vt 0.750000 0.000000
vt 0.750000 0.455000
vt 0.375000 0.550000
vt 0.750000 0.630000
vt 0.375000 0.630000
vt -0.049052 0.630000
vt -0.049052 0.455000
vt 0.049052 0.455000
vt 0.049052 0.630000
vt -0.024526 0.630000
vt -0.024526 0.550000
vt 0.024526 0.550000
vt 0.024526 0.630000
vt -0.024526 0.630000
vt -0.024526 0.550000
vt 0.024526 0.550000
vt 0.024526 0.630000
vt -0.024526 0.630000
vt -0.024526 0.550000
vt 0.024526 0.550000
vt 0.024526 0.630000
vt -0.024526 0.630000
vt -0.024526 0.550000
vt 0.024526 0.550000
vt 0.024526 0.630000
vt -0.049052 0.630000
vt -0.049052 0.455000
vt 0.049052 0.455000
vt 0.049052 0.630000
vt -0.024526 0.630000
vt -0.024526 0.550000
vt 0.024526 0.550000
vt 0.024526 0.630000
vt -0.024526 0.630000
vt -0.024526 0.550000
vt 0.024526 0.550000
vt 0.024526 0.630000
vt -0.024526 0.630000
vt -0.024526 0.550000
vt 0.024526 0.550000
vt 0.024526 0.630000
vt -0.024526 0.630000
vt -0.024526 0.550000
vt 0.024526 0.550000
vt 0.024526 0.630000
vt 0.346455 0.143506
vt 0.692910 0.287013
vt 0.362222 0.097057
vt 0.724444 0.194114
vt -0.049052 0.630000
vt -0.049052 0.455000
vt 0.049052 0.455000
vt 0.049052 0.630000
vt -0.049052 0.630000
vt -0.049052 0.455000
vt 0.049052 0.455000
vt 0.049052 0.630000
vt -0.024526 0.630000
vt -0.024526 0.550000
vt 0.024526 0.550000
vt 0.024526 0.630000
vt -0.049052 0.630000
vt -0.049052 0.455000
vt 0.049052 0.455000
vt 0.049052 0.630000
vt -0.049052 0.630000
vt -0.049052 0.455000
vt 0.049052 0.455000
vt 0.049052 0.630000
vt -0.049052 0.630000
vt -0.049052 0.455000
vt 0.049052 0.455000
vt 0.049052 0.630000
vt -0.049052 0.630000
vt -0.049052 0.455000
vt 0.049052 0.455000
vt 0.049052 0.630000
vt -0.049052 0.630000
vt -0.049052 0.455000
vt 0.049052 0.455000
vt 0.049052 0.630000
vt -0.049052 0.630000
vt -0.049052 0.455000
vt 0.049052 0.455000
vt 0.049052 0.630000
vt -0.049052 0.630000
vt -0.049052 0.455000
vt 0.049052 0.455000
vt 0.049052 0.630000
vt -0.024526 0.630000
vt -0.024526 0.550000
vt 0.024526 0.550000
vt 0.024526 0.630000
vt -0.000000 1.875000
vt -1.875000 0.000000
vt -0.750000 0.000000
vt 0.297508 0.228286
vt 0.265165 0.265165
vt 0.000000 0.000000
vt -0.375000 0.000000
vt -0.000000 -0.000000
vt -0.000000 0.375000
vt -0.000000 0.750000
vt -0.000000 3.000000
vt -3.000000 3.000000
vt -3.000000 0.000000
vt 0.000000 0.375000
vt 0.048947 0.371792
vt 0.375000 0.000000
vt 0.371792 0.048947
vt 0.362222 0.097057
vt 0.346455 0.143506
vt 0.324760 0.187500
vt 0.228286 0.297508
vt 0.187500 0.324760
vt 0.143506 0.346455
vt 0.097057 0.362222
vt 0.000000 0.550000
vt 0.287013 0.692910
vt 0.375000 0.649519
vt 0.937500 1.623800
vt 0.717531 1.732270
vt 0.692910 0.287013
vt 0.724444 0.194114
vt 1.811110 0.485286
vt 1.732270 0.717531
vt 1.325830 1.325830
vt 0.530330 0.530330
vt 0.595015 0.456571
vt 1.487540 1.141430
vt 0.456571 0.595015
vt 1.141430 1.487540
vt 0.743584 0.097895
vt 1.858960 0.244737
vt 1.875000 0.000000
vt 0.750000 0.000000
vt 1.623800 0.937500
vt 0.649519 0.375000
vt 0.194114 0.724444
vt 0.485286 1.811110
vt 0.244737 1.858960
vt 0.097895 0.743584
vt -0.000000 1.875000
vt 0.000000 0.750000
vt 1.875000 0.000000
vt 1.875000 0.455000
vt -1.875000 0.455000
vt -1.875000 0.000000
vt 3.000000 3.000000
vt -3.000000 0.455000
vt -3.000000 0.000000
vt 0.000000 3.000000
vt 3.000000 0.000000
vt 3.000000 0.455000
vt 0.000000 0.455000
vt 0.000000 0.000000
vt 3.000000 0.000000
vt 3.000000 0.000000
vt 3.000000 0.455000
vt -3.000000 -0.000000
vt -0.000000 -0.000000
vt -0.000000 0.455000
vt -3.000000 0.455000
vn 0.9239 0.0000 -0.3827
vn 0.8660 0.0000 -0.5000
vn -0.5000 0.0000 0.8660
vn -0.6088 0.0000 0.7934
vn -1.0000 -0.0000 -0.0000
vn -0.3827 0.0000 0.9239
vn 0.0000 1.0000 -0.0000
vn 0.0000 -0.0000 1.0000
vn 0.9914 0.0000 -0.1305
vn 0.9659 0.0000 -0.2588
vn -0.0654 0.0000 0.9979
vn -0.1305 0.0000 0.9914
vn -0.2588 0.0000 0.9659
vn -0.9659 0.0000 0.2588
vn -0.9914 0.0000 0.1305
vn 0.9979 0.0000 -0.0654
vn -0.7071 -0.0000 0.7071
vn -0.7934 -0.0000 0.6088
vn -0.8660 -0.0000 0.5000
vn -0.9239 -0.0000 0.3827
vn 0.1305 0.0000 -0.9914
vn 0.0654 0.0000 -0.9979
vn 0.2588 0.0000 -0.9659
vn 0.3827 0.0000 -0.9239
vn 0.6088 0.0000 -0.7934
vn 0.5000 0.0000 -0.8660
vn 0.7071 0.0000 -0.7071
vn 0.7934 0.0000 -0.6088
vn -0.9979 0.0000 0.0654
vn -0.0000 -1.0000 -0.0000
vn 1.0000 0.0000 0.0000
vn 0.0000 0.0000 -1.0000
usemtl Stone.061
s 1
f 59/1/1 77/2/1 76/3/2 60/4/2
f 51/5/3 40/6/3 39/7/4 52/8/4
f 23/9/5 44/10/5 68/11/5 24/12/5
f 50/13/6 41/14/6 40/15/3 51/16/3
f 31/17/7 57/18/7 33/19/7 29/20/7
f 46/21/5 68/11/5 44/10/5 47/22/5
f 63/23/7 64/24/7 51/25/7 52/26/7
f 51/25/7 64/24/7 65/27/7 50/28/7
f 62/29/7 53/30/7 54/31/7 61/32/7
f 49/33/7 50/28/7 65/27/7 66/34/7
f 46/35/7 47/36/7 48/37/7 67/38/7
f 55/39/7 60/40/7 61/32/7 54/31/7
f 62/29/7 63/23/7 52/26/7 53/30/7
f 21/41/8 26/42/8 30/43/8 27/44/8
f 30/43/8 31/45/8 29/46/8 27/44/8
f 57/47/9 79/48/9 78/49/10 58/50/10
f 47/51/11 44/52/11 43/53/12 48/54/12
f 48/55/12 43/56/12 42/57/13 49/58/13
f 49/59/13 42/60/13 41/61/6 50/62/6
f 45/63/14 34/64/14 32/65/15 33/66/15
f 31/67/16 30/68/16 79/69/9 57/70/9
f 53/71/17 38/72/17 37/73/18 54/74/18
f 54/75/18 37/76/18 36/77/19 55/78/19
f 55/79/19 36/80/19 35/81/20 56/82/20
f 56/83/20 35/84/20 34/85/14 45/86/14
f 60/40/7 55/39/7 56/87/7 59/88/7
f 48/37/7 49/33/7 66/34/7 67/38/7
f 56/87/7 45/89/7 58/90/7 59/88/7
f 45/89/7 33/19/7 57/18/7 58/90/7
f 67/91/21 69/92/21 68/93/22 46/94/22
f 66/95/23 70/96/23 69/97/21 67/98/21
f 52/99/4 39/100/4 38/101/17 53/102/17
f 65/103/24 71/104/24 70/105/23 66/106/23
f 63/107/25 73/108/25 72/109/26 64/110/26
f 62/111/27 74/112/27 73/113/25 63/114/25
f 61/115/28 75/116/28 74/117/27 62/118/27
f 64/119/26 72/120/26 71/121/24 65/122/24
f 60/123/2 76/124/2 75/125/28 61/126/28
f 58/127/10 78/128/10 77/129/1 59/130/1
f 33/131/15 32/132/15 27/133/29 29/134/29
usemtl Grass.045
f 20/135/30 3/136/30 26/137/30
f 37/138/7 38/139/7 28/140/7
f 21/141/30 22/142/30 23/143/30
f 23/143/30 24/144/30 26/137/30
f 20/135/30 19/145/30 25/146/30
f 25/146/30 4/147/30 3/136/30
f 26/137/30 21/141/30 23/143/30
f 25/146/30 3/136/30 20/135/30
f 24/144/30 20/135/30 26/137/30
f 44/148/7 28/140/7 43/149/7
f 27/150/7 32/151/7 28/140/7
f 34/152/7 35/153/7 28/140/7
f 36/154/7 37/138/7 28/140/7
f 38/139/7 39/155/7 28/140/7
f 40/156/7 41/157/7 28/140/7
f 42/158/7 43/149/7 28/140/7
f 28/140/7 32/151/7 34/152/7
f 35/153/7 36/154/7 28/140/7
f 39/155/7 40/156/7 28/140/7
f 42/158/7 28/140/7 41/157/7
f 28/159/8 22/142/8 21/41/8 27/44/8
f 22/142/5 28/159/5 44/10/5 23/9/5
usemtl Sand.001
f 71/160/7 72/161/7 10/162/7 9/163/7
f 77/164/7 78/165/7 16/166/7 15/167/7
f 12/168/7 74/169/7 75/170/7 13/171/7
f 73/172/7 74/169/7 12/168/7 11/173/7
f 78/165/7 79/174/7 17/175/7 16/166/7
f 2/176/7 17/175/7 79/174/7 30/177/7
f 15/167/7 14/178/7 76/179/7 77/164/7
f 70/180/7 71/160/7 9/163/7 8/181/7
f 7/182/7 69/183/7 70/180/7 8/181/7
f 73/172/7 11/173/7 10/162/7 72/161/7
f 69/183/7 7/182/7 6/184/7 68/185/7
f 13/171/7 75/170/7 76/179/7 14/178/7
f 30/43/8 26/42/8 3/186/8 2/187/8
f 24/12/5 68/11/5 6/188/5 20/189/5
usemtl Water.002
f 12/168/7 13/171/7 18/190/7
f 5/191/5 19/192/5 20/189/5 6/188/5
f 18/190/7 5/193/7 10/162/7
f 5/193/7 6/184/7 7/182/7
f 2/176/7 1/194/7 17/175/7
f 17/175/7 1/194/7 16/166/7
f 5/193/7 7/182/7 8/181/7
f 5/193/7 8/181/7 9/163/7
f 16/166/7 1/194/7 15/167/7
f 15/167/7 1/194/7 14/178/7
f 5/193/7 9/163/7 10/162/7
f 18/190/7 10/162/7 11/173/7
f 14/178/7 1/194/7 18/190/7
f 13/171/7 14/178/7 18/190/7
f 18/190/7 11/173/7 12/168/7
f 18/195/31 1/196/31 4/197/31 25/198/31
f 4/199/8 1/200/8 2/187/8 3/186/8
f 25/201/32 19/202/32 5/203/32 18/204/32
