# Blender v2.79 (sub 0) OBJ File: ''
# www.blender.org
mtllib roadTile_198.mtl
o Mesh1_Group1_Model.197
v 0.000000 1.730000 0.000000
v 0.000000 1.100000 0.000000
v 0.000000 0.000000 -0.000000
v 3.000000 0.000000 -0.000000
v 3.000000 1.730000 0.000000
v 0.000000 1.730000 -3.000000
v 0.000000 1.100001 -3.000000
v 0.000000 1.730000 -0.750000
v 0.000000 1.700000 -0.750000
v 0.000000 1.400000 -0.750000
v 0.000000 1.400000 -2.250000
v 0.000000 1.700000 -2.250000
v 0.000000 1.730000 -2.250000
v 0.000000 0.000000 -3.000000
v 3.000000 1.730000 -3.000000
v 3.000000 0.000000 -3.000000
v 3.000000 1.730000 -2.250000
v 3.000000 1.700000 -2.250000
v 3.000000 1.400000 -2.250000
v 3.000000 1.400000 -0.750000
v 3.000000 1.700000 -0.750000
v 3.000000 1.730000 -0.750000
vt 0.000000 1.730000
vt 0.000000 1.100000
vt 0.000000 -0.000000
vt 3.000000 -0.000000
vt 3.000000 1.730000
vt -3.000000 1.730000
vt -3.000000 1.100000
vt -0.750000 1.730000
vt -0.750000 1.700000
vt -0.750000 1.400000
vt -2.250000 1.400000
vt -2.250000 1.700000
vt -2.250000 1.730000
vt -0.000000 0.000000
vt -0.000000 1.100000
vt -0.000000 1.730000
vt -3.000000 1.730000
vt -3.000000 -0.000000
vt -3.000000 0.000000
vt -3.000000 0.000000
vt -0.000000 3.000000
vt -3.000000 3.000000
vt 0.000000 1.730000
vt 0.000000 -0.000000
vt 3.000000 -0.000000
vt 3.000000 1.730000
vt 2.250000 1.730000
vt 2.250000 1.700000
vt 2.250000 1.400000
vt 0.750000 1.400000
vt 0.750000 1.700000
vt 0.750000 1.730000
vt 3.000000 2.250000
vt 3.000000 3.000000
vt 0.000000 3.000000
vt 0.000000 2.250000
vt 0.000000 1.700000
vt 3.000000 1.700000
vt 3.000000 1.730000
vt 0.000000 1.730000
vt -3.000000 1.700000
vt -0.000000 1.700000
vt -0.000000 1.730000
vt -3.000000 1.730000
vt 0.000000 0.750000
vt 0.000000 0.000000
vt 3.000000 0.000000
vt 3.000000 0.750000
vt 3.000000 2.250000
vt 0.000000 2.250000
vt 0.000000 0.750000
vt 3.000000 0.750000
vn 0.0000 -0.0000 1.0000
vn -1.0000 0.0000 -0.0000
vn 0.0000 0.0000 -1.0000
vn -0.0000 -1.0000 -0.0000
vn 1.0000 -0.0000 0.0000
vn 0.0000 1.0000 0.0000
usemtl Stone.154
s 1
f 1/1/1 2/2/1 3/3/1 4/4/1 5/5/1
f 6/6/2 7/7/2 2/2/2 1/1/2 8/8/2 9/9/2 10/10/2 11/11/2 12/12/2 13/13/2
f 14/14/3 7/15/3 6/16/3 15/17/3 16/18/3
f 3/3/2 2/2/2 7/7/2 14/19/2
f 4/20/4 3/3/4 14/21/4 16/22/4
f 5/23/5 4/24/5 16/25/5 15/26/5 17/27/5 18/28/5 19/29/5 20/30/5 21/31/5 22/32/5
f 17/33/6 15/34/6 6/35/6 13/36/6
f 12/37/1 18/38/1 17/39/1 13/40/1
f 21/41/3 9/42/3 8/43/3 22/44/3
f 8/45/6 1/46/6 5/47/6 22/48/6
usemtl Asphalt.127
f 18/49/6 12/50/6 9/51/6 21/52/6
f 12/12/2 11/11/2 10/10/2 9/9/2
f 21/31/5 20/30/5 19/29/5 18/28/5
