# Blender v2.79 (sub 0) OBJ File: ''
# www.blender.org
mtllib roadTile_066.mtl
o Mesh1_Group1_Model.065
v 0.877778 0.630000 -2.470570
v 0.848739 0.630000 -2.250000
v 0.848739 0.600000 -2.250000
v 0.877778 0.600000 -2.470570
v 1.097070 0.630000 -3.000000
v 0.000000 0.630000 -3.000000
v 0.000000 0.630000 -2.250000
v 1.097070 0.600001 -3.000000
v 0.877778 0.600000 -0.529429
v 1.097070 0.600000 0.000000
v 2.839190 0.600000 0.000000
v 2.551440 0.600000 -0.375000
v 2.326670 0.600000 -0.917657
v 2.250000 0.600000 -1.500000
v 2.326670 0.600000 -2.082340
v 2.551440 0.600000 -2.625000
v 2.839190 0.600001 -3.000000
v 0.000000 0.600000 -2.250000
v 0.000000 0.600000 -0.750000
v 0.848739 0.600000 -0.750000
v 0.877778 0.630000 -0.529429
v 1.097070 0.630000 0.000000
v 0.000000 0.630000 -0.750000
v 0.000000 0.630000 0.000000
v 0.848739 0.630000 -0.750000
v 0.000000 0.315000 -0.750000
v 0.000000 0.315000 -2.250000
v 0.000000 0.000000 -3.000000
v 0.000000 0.000000 0.000000
v 1.097070 0.315000 -3.000000
v 2.839190 0.315000 -3.000000
v 2.839190 0.630000 -3.000000
v 3.000000 0.630000 -3.000000
v 3.000000 0.000000 -3.000000
v 2.551440 0.630000 -2.625000
v 2.839190 0.630000 0.000000
v 3.000000 0.630000 0.000000
v 2.326670 0.630000 -2.082340
v 2.250000 0.630000 -1.500000
v 2.326670 0.630000 -0.917657
v 2.551440 0.630000 -0.375000
v 2.839190 0.315000 0.000000
v 1.097070 0.315000 0.000000
v 3.000000 0.000000 -0.000000
vt -2.250000 0.315000
vt -3.000000 0.000000
vt -0.000000 0.000000
vt -2.839190 0.315000
vt -3.000000 0.000000
vt -1.097070 0.315000
vt 3.000000 0.000000
vt 2.250000 1.500000
vt 2.326670 0.917657
vt 1.097070 0.315000
vt 3.000000 0.000000
vt -0.000000 0.600000
vt -0.000000 0.630000
vt -0.848739 0.630000
vt -0.848739 0.600000
vt 0.877778 2.470570
vt 1.097070 3.000000
vt 0.000000 3.000000
vt 0.000000 0.630000
vt 1.097070 0.600000
vt -2.814210 0.600000
vt -2.814210 0.630000
vt -3.401580 0.630000
vt -3.401580 0.600000
vt 0.000000 0.000000
vt 0.877778 0.529429
vt 0.848739 0.750000
vt 0.000000 0.750000
vt 0.629940 0.600000
vt 0.629940 0.630000
vt 0.042572 0.630000
vt 0.042572 0.600000
vt 0.000000 2.250000
vt 0.848739 2.250000
vt 1.097070 0.000000
vt -0.750000 0.630000
vt -0.750000 0.600000
vt -2.250000 0.630000
vt -3.000000 0.630000
vt -2.250000 0.600000
vt -0.750000 0.315000
vt 3.000000 0.000000
vt 3.000000 0.630000
vt 0.000000 0.630000
vt 0.000000 0.000000
vt -0.606115 0.600000
vt -0.606115 0.630000
vt -1.193480 0.630000
vt -1.193480 0.600000
vt -1.780850 0.600000
vt -1.780850 0.630000
vt -2.368220 0.630000
vt -2.368220 0.600000
vt -0.000000 0.630000
vt -1.097070 0.630000
vt -1.097070 0.600000
vt -2.839190 0.630000
vt -3.000000 0.630000
vt -2.839190 0.600000
vt -0.000000 0.000000
vt 0.153217 0.600000
vt 0.153217 0.630000
vt -0.419832 0.630000
vt -0.419832 0.600000
vt 2.551440 0.375000
vt 2.839190 0.000000
vt 3.000000 3.000000
vt 2.839190 3.000000
vt 2.551440 2.625000
vt 2.326670 2.082340
vt 3.000000 0.630000
vt 2.839190 0.315000
vt 2.839190 0.630000
vt 2.839190 0.600000
vt 1.097070 0.630000
vt 0.632801 0.600000
vt 0.632801 0.630000
vt 0.410326 0.630000
vt 0.410326 0.600000
vt 1.728390 0.600000
vt 1.728390 0.630000
vt 1.255710 0.630000
vt 1.255710 0.600000
vt 3.191470 0.600000
vt 3.191470 0.630000
vt 2.618420 0.630000
vt 2.618420 0.600000
vt 0.848739 0.600000
vt 0.848739 0.630000
vt 0.000000 0.630000
vt 0.000000 0.600000
vt -3.635770 0.600000
vt -3.635770 0.630000
vt -4.108450 0.630000
vt -4.108450 0.600000
vt -0.000000 3.000000
vt -3.000000 3.000000
vt -3.000000 0.000000
vt 2.564010 0.600000
vt 2.564010 0.630000
vt 2.341530 0.630000
vt 2.341530 0.600000
vt 2.326670 2.082340
vt 2.551440 2.625000
vt 1.097070 3.000000
vt 0.877778 2.470570
vt 0.848739 2.250000
vt 2.250000 1.500000
vt 1.097070 0.000000
vt 2.839190 0.000000
vt 2.551440 0.375000
vt 0.877778 0.529429
vt 2.326670 0.917657
vt 2.839190 3.000000
vt 0.848739 0.750000
vt 0.000000 2.250000
vt 0.000000 0.750000
vn -1.0000 0.0000 -0.0000
vn 0.0000 0.0000 -1.0000
vn 0.0000 1.0000 0.0000
vn 0.0000 -0.0000 1.0000
vn -0.9659 0.0000 -0.2588
vn -0.8660 0.0000 -0.5000
vn -0.8660 0.0000 0.5000
vn -0.9659 0.0000 0.2588
vn 1.0000 0.0000 0.0000
vn 0.9659 0.0000 -0.2588
vn 0.9239 0.0000 -0.3827
vn 0.9914 0.0000 -0.1305
vn -0.7934 0.0000 0.6088
vn 0.9239 0.0000 0.3827
vn 0.9659 0.0000 0.2588
vn -0.7934 0.0000 -0.6088
vn 0.0000 -1.0000 -0.0000
vn 0.9914 0.0000 0.1305
usemtl Stone.046
s 1
f 27/1/1 28/2/1 29/3/1
f 31/4/2 34/5/2 30/6/2
f 37/7/3 39/8/3 40/9/3
f 43/10/4 29/3/4 44/11/4
f 19/12/2 23/13/2 25/14/2 20/15/2
f 1/16/3 5/17/3 6/18/3
f 24/19/4 29/3/4 43/10/4 10/20/4
f 15/21/5 38/22/5 35/23/6 16/24/6
f 24/25/3 21/26/3 25/27/3 23/28/3
f 12/29/7 41/30/7 40/31/8 13/32/8
f 7/33/3 2/34/3 1/16/3 6/18/3
f 24/25/3 22/35/3 21/26/3
f 23/36/1 19/37/1 24/19/1
f 7/38/1 6/39/1 18/40/1
f 24/19/1 19/37/1 26/41/1 29/3/1
f 29/3/1 26/41/1 27/1/1
f 34/42/9 33/43/9 37/44/9 44/45/9
f 13/46/8 40/47/8 39/48/1 14/49/1
f 14/50/1 39/51/1 38/52/5 15/53/5
f 6/39/1 28/2/1 27/1/1 18/40/1
f 6/54/2 5/55/2 8/56/2
f 32/57/2 33/58/2 17/59/2
f 17/59/2 33/58/2 31/4/2
f 31/4/2 33/58/2 34/5/2
f 28/60/2 30/6/2 34/5/2
f 9/61/10 21/62/10 22/63/11 10/64/11
f 41/65/3 36/66/3 37/7/3
f 37/7/3 33/67/3 39/8/3
f 32/68/3 35/69/3 33/67/3
f 38/70/3 39/8/3 33/67/3
f 40/9/3 41/65/3 37/7/3
f 33/67/3 35/69/3 38/70/3
f 44/11/4 37/71/4 42/72/4
f 36/73/4 11/74/4 37/71/4
f 22/75/4 24/19/4 10/20/4
f 6/54/2 8/56/2 30/6/2 28/60/2
f 37/71/4 11/74/4 42/72/4
f 44/11/4 42/72/4 43/10/4
f 20/76/12 25/77/12 21/78/10 9/79/10
f 11/80/13 36/81/13 41/82/7 12/83/7
f 8/84/14 5/85/14 1/86/15 4/87/15
f 3/88/4 2/89/4 7/90/4 18/91/4
f 16/92/6 35/93/6 32/94/16 17/95/16
f 29/3/17 28/96/17 34/97/17 44/98/17
f 4/99/15 1/100/15 2/101/18 3/102/18
usemtl Asphalt.035
f 15/103/3 16/104/3 8/105/3 4/106/3
f 3/107/3 14/108/3 15/103/3 4/106/3
f 10/109/3 11/110/3 12/111/3
f 9/112/3 10/109/3 12/111/3 13/113/3
f 16/104/3 17/114/3 8/105/3
f 20/115/3 14/108/3 3/107/3
f 13/113/3 14/108/3 20/115/3 9/112/3
f 3/107/3 18/116/3 19/117/3 20/115/3
f 43/10/4 42/72/4 11/74/4 10/20/4
f 31/4/2 30/6/2 8/56/2 17/59/2
f 27/1/1 26/41/1 19/37/1 18/40/1
