# Blender v2.79 (sub 0) OBJ File: ''
# www.blender.org
mtllib roadTile_122.mtl
o Mesh1_Group1_Model.121
v 1.902300 0.630000 -2.082340
v 2.127070 0.630000 -2.625000
v 2.127070 0.600000 -2.625000
v 1.902300 0.600000 -2.082340
v 2.575630 0.630000 0.000000
v 2.575630 0.630000 -0.401164
v 2.451830 0.630000 -0.562500
v 2.264520 0.630000 -1.014710
v 2.200630 0.630000 -1.500000
v 2.264520 0.630000 -1.985290
v 2.451830 0.630000 -2.437500
v 2.575630 0.630000 -2.598840
v 2.575630 0.630000 -3.000000
v 2.414820 0.630000 -3.000000
v 1.825630 0.630000 -1.500000
v 1.902300 0.630000 -0.917657
v 2.127070 0.630000 -0.375000
v 2.414820 0.630000 0.000000
v 2.575630 0.000000 0.000000
v 2.575630 0.000000 -0.401164
v 0.323261 0.630000 0.000000
v 0.323261 0.000000 -0.000000
v 2.414820 0.600000 0.000000
v 2.414820 0.315000 0.000000
v 0.672705 0.315000 0.000000
v 0.672705 0.600000 0.000000
v 0.672705 0.630000 0.000000
v 0.138874 0.630000 -0.445149
v 0.138874 0.000000 -0.445149
v 0.672705 0.630000 -3.000000
v 0.323261 0.630000 -3.000000
v 0.138874 0.630000 -2.554850
v 0.000000 0.630000 -1.500000
v 0.453408 0.630000 -0.529429
v 0.325630 0.630000 -1.500000
v 0.453408 0.630000 -2.470570
v 2.575630 0.000000 -3.000000
v 0.323261 0.000000 -3.000000
v 0.672705 0.600001 -3.000000
v 0.672705 0.315000 -3.000000
v 2.414820 0.315000 -3.000000
v 2.414820 0.600001 -3.000000
v 0.000000 0.000000 -1.500000
v 0.138874 0.000000 -2.554850
v 2.575630 0.000000 -2.598840
v 2.451830 0.000000 -2.437500
v 2.264520 0.000000 -1.985290
v 2.200630 0.000000 -1.500000
v 2.264520 0.000000 -1.014710
v 2.451830 0.000000 -0.562500
v 0.453408 0.600000 -2.470570
v 0.325630 0.600000 -1.500000
v 0.453408 0.600000 -0.529429
v 2.127070 0.600000 -0.375000
v 1.902300 0.600000 -0.917657
v 1.825630 0.600000 -1.500000
vt 0.323261 0.000000
vt 2.575630 0.000000
vt 0.672705 0.315000
vt -2.575630 0.000000
vt -0.672705 0.315000
vt -2.414820 0.315000
vt 2.508620 0.600000
vt 2.508620 0.630000
vt 1.529670 0.630000
vt 1.529670 0.600000
vt 2.264520 1.985290
vt 2.451830 2.437500
vt 2.127070 2.625000
vt 1.902300 2.082340
vt 2.200630 1.500000
vt 1.825630 1.500000
vt 1.902300 0.917657
vt 2.264520 1.014710
vt 2.575630 0.401164
vt 2.127070 0.375000
vt 2.414820 0.000000
vt 2.575630 -0.000000
vt 2.575630 2.598840
vt -0.323261 3.000000
vt -2.451830 2.437500
vt -2.264520 1.985290
vt -0.138874 2.554850
vt 2.451830 0.562500
vt -2.200630 1.500000
vt -0.000000 1.500000
vt 0.123706 0.000000
vt 0.123706 0.630000
vt -0.358120 0.630000
vt -0.358120 -0.000000
vt 0.672705 0.630000
vt 0.323261 0.630000
vt 0.672705 0.600000
vt 2.575630 0.630000
vt 2.414820 0.315000
vt 2.414820 0.630000
vt 2.414820 0.600000
vt 0.453408 0.529429
vt 0.138874 0.445149
vt 0.323261 0.000000
vt 0.672705 0.000000
vt 2.575630 3.000000
vt 2.414820 3.000000
vt 0.325630 1.500000
vt -0.000000 1.500000
vt -0.323261 0.000000
vt -0.323261 0.630000
vt -0.672705 0.630000
vt -0.672705 0.600000
vt -2.414820 0.630000
vt -2.575630 0.630000
vt -2.414820 0.600000
vt -2.575630 0.401164
vt -2.575630 -0.000000
vt -2.451830 0.562500
vt -2.264520 1.014710
vt -0.138874 0.445149
vt -2.575630 3.000000
vt -2.575630 2.598840
vt -0.323261 0.000000
vt -1.487170 0.000000
vt -1.487170 0.630000
vt -2.551120 0.630000
vt -2.551120 0.000000
vt -2.413520 0.000000
vt -2.413520 0.630000
vt -2.895350 0.630000
vt -2.895350 0.000000
vt 2.598840 0.630000
vt 2.598840 0.000000
vt 3.000000 0.000000
vt 3.000000 0.630000
vt 3.190230 -0.000000
vt 3.190230 0.630000
vt 2.700760 0.630000
vt 2.700760 -0.000000
vt -1.725460 0.600000
vt -1.725460 0.630000
vt -2.312830 0.630000
vt -2.312830 0.600000
vt 0.315616 0.600000
vt 0.315616 0.630000
vt -0.257433 0.630000
vt -0.257433 0.600000
vt -0.423214 -0.000000
vt -0.423214 0.630000
vt 2.263880 -0.000000
vt 2.263880 0.630000
vt 1.774410 0.630000
vt 1.774410 -0.000000
vt 1.199930 -0.000000
vt 1.199930 0.630000
vt 0.710454 0.630000
vt 0.710454 -0.000000
vt 0.070880 -0.000000
vt 0.070880 0.630000
vt -0.418594 0.630000
vt -0.418594 -0.000000
vt -1.046320 -0.000000
vt -1.046320 0.630000
vt -1.249680 0.630000
vt -1.249680 -0.000000
vt 3.029070 0.600000
vt 3.029070 0.630000
vt 2.456020 0.630000
vt 2.456020 0.600000
vt 0.401164 -0.000000
vt 0.401164 0.630000
vt -0.000000 0.630000
vt -0.000000 0.000000
vt 1.444660 0.600000
vt 1.444660 0.630000
vt 0.465718 0.630000
vt 0.465718 0.600000
vt 0.323261 3.000000
vt 0.138874 2.554850
vt 0.453408 2.470570
vt 0.672705 3.000000
vt -2.651810 0.600000
vt -2.651810 0.630000
vt -3.239180 0.630000
vt -3.239180 0.600000
vt -3.377430 0.600000
vt -3.377430 0.630000
vt -3.850110 0.630000
vt -3.850110 0.600000
vt 1.470050 0.600000
vt 1.470050 0.630000
vt 0.997373 0.630000
vt 0.997373 0.600000
vt 0.467541 0.600000
vt 0.467541 0.630000
vt -0.119827 0.630000
vt -0.119827 0.600000
vt -0.661507 0.600000
vt -0.661507 0.630000
vt -1.248870 0.630000
vt -1.248870 0.600000
vt 3.629740 0.000000
vt 3.629740 0.630000
vt 3.426380 0.630000
vt 3.426380 -0.000000
vt 1.902300 2.082340
vt 2.127070 2.625000
vt 0.672705 3.000000
vt 0.453408 2.470570
vt 0.453408 0.529429
vt 1.902300 0.917657
vt 1.825630 1.500000
vt 0.325630 1.500000
vt 2.414820 3.000000
vt 0.672705 0.000000
vt 2.127070 0.375000
vt 2.414820 0.000000
vn -0.0000 -0.0000 1.0000
vn 0.0000 0.0000 -1.0000
vn 0.9659 0.0000 0.2588
vn 1.0000 0.0000 0.0000
vn 0.0000 1.0000 0.0000
vn 0.0000 -1.0000 -0.0000
vn -0.9239 -0.0000 0.3827
vn -0.9659 -0.0000 0.2588
vn -1.0000 -0.0000 -0.0000
vn -0.9659 0.0000 -0.2588
vn -0.9239 0.0000 -0.3827
vn 0.8660 0.0000 0.5000
vn 0.9659 0.0000 -0.2588
vn 0.9239 0.0000 -0.3827
vn 0.8660 0.0000 -0.5000
vn 0.7933 -0.0000 -0.6088
vn 0.9239 0.0000 0.3827
vn -0.8660 0.0000 -0.5000
vn -0.7934 0.0000 -0.6088
vn -0.7934 0.0000 0.6088
vn -0.8660 0.0000 0.5000
vn 0.7934 0.0000 0.6088
usemtl Stone.102
s 1
f 22/1/1 19/2/1 25/3/1
f 37/4/2 40/5/2 41/6/2
f 51/7/3 36/8/3 35/9/4 52/10/4
f 10/11/5 11/12/5 2/13/5 1/14/5
f 9/15/5 15/16/5 16/17/5 8/18/5
f 6/19/5 17/20/5 18/21/5 5/22/5
f 11/12/5 12/23/5 2/13/5
f 38/24/6 46/25/6 47/26/6 44/27/6
f 17/20/5 6/19/5 7/28/5
f 47/26/6 48/29/6 43/30/6 44/27/6
f 22/31/7 21/32/7 28/33/8 29/34/8
f 27/35/1 21/36/1 26/37/1
f 19/2/1 5/38/1 24/39/1
f 18/40/1 23/41/1 5/38/1
f 5/38/1 23/41/1 24/39/1
f 26/37/1 21/36/1 25/3/1
f 19/2/1 24/39/1 25/3/1
f 25/3/1 21/36/1 22/1/1
f 1/14/5 15/16/5 9/15/5 10/11/5
f 34/42/5 28/43/5 21/44/5 27/45/5
f 7/28/5 8/18/5 16/17/5 17/20/5
f 12/23/5 13/46/5 14/47/5 2/13/5
f 28/43/5 34/42/5 35/48/5 33/49/5
f 38/50/2 31/51/2 40/5/2
f 31/51/2 30/52/2 39/53/2
f 14/54/2 13/55/2 42/56/2
f 41/6/2 42/56/2 13/55/2
f 31/51/2 39/53/2 40/5/2
f 41/6/2 13/55/2 37/4/2
f 38/50/2 40/5/2 37/4/2
f 20/57/6 19/58/6 50/59/6
f 48/29/6 49/60/6 29/61/6 43/30/6
f 38/24/6 37/62/6 46/25/6
f 37/62/6 45/63/6 46/25/6
f 50/59/6 19/58/6 22/64/6
f 49/60/6 50/59/6 22/64/6 29/61/6
f 43/65/9 33/66/9 32/67/10 44/68/10
f 44/69/10 32/70/10 31/71/11 38/72/11
f 12/73/4 45/74/4 37/75/4 13/76/4
f 46/77/12 11/78/12 10/79/3 47/80/3
f 56/81/9 15/82/9 1/83/10 4/84/10
f 53/85/13 34/86/13 27/87/14 26/88/14
f 29/89/8 28/90/8 33/66/9 43/65/9
f 47/91/3 10/92/3 9/93/4 48/94/4
f 48/95/4 9/96/4 8/97/13 49/98/13
f 49/99/13 8/100/13 7/101/15 50/102/15
f 50/103/15 7/104/15 6/105/16 20/106/16
f 39/107/17 30/108/17 36/109/3 51/110/3
f 20/111/4 6/112/4 5/113/4 19/114/4
f 52/115/4 35/116/4 34/117/13 53/118/13
f 31/119/5 32/120/5 36/121/5 30/122/5
f 32/120/5 33/49/5 35/48/5 36/121/5
f 4/123/10 1/124/10 2/125/18 3/126/18
f 3/127/18 2/128/18 14/129/19 42/130/19
f 23/131/20 18/132/20 17/133/21 54/134/21
f 54/135/21 17/136/21 16/137/8 55/138/8
f 55/139/8 16/140/8 15/141/9 56/142/9
f 45/143/22 12/144/22 11/145/12 46/146/12
usemtl Asphalt.076
f 4/147/5 3/148/5 39/149/5 51/150/5
f 53/151/5 55/152/5 56/153/5 52/154/5
f 3/148/5 42/155/5 39/149/5
f 55/152/5 53/151/5 26/156/5 54/157/5
f 56/153/5 4/147/5 51/150/5 52/154/5
f 26/156/5 23/158/5 54/157/5
f 41/6/2 40/5/2 39/53/2 42/56/2
f 25/3/1 24/39/1 23/41/1 26/37/1
