# Blender v2.79 (sub 0) OBJ File: ''
# www.blender.org
mtllib roadTile_116.mtl
o Mesh1_Group1_Model.115
v 0.734210 0.000000 -0.048123
v 0.734210 0.630000 -0.048123
v 0.000000 0.630000 0.000000
v 0.000000 0.000000 0.000000
v 1.455860 0.000000 -0.191667
v 1.455860 0.630000 -0.191667
v 2.152590 0.000000 -0.428178
v 2.152590 0.630000 -0.428178
v 2.812500 0.000000 -0.753607
v 2.812500 0.630000 -0.753607
v 3.000000 0.000000 -0.878891
v 3.000000 0.630000 -0.878891
v 3.000000 0.000000 -2.625000
v 3.000000 0.300000 -2.625000
v 3.000000 0.300000 -1.328930
v 3.000000 0.600000 -1.328930
v 3.000000 0.630000 -1.328930
v 0.000000 0.000000 -2.625000
v 0.000000 0.630000 -0.375000
v 0.000000 0.600000 -0.375000
v 0.000000 0.300000 -0.375000
v 0.000000 0.300000 -2.625000
v 2.625000 0.630000 -1.078370
v 2.009090 0.630000 -0.774632
v 1.358800 0.630000 -0.553889
v 0.685263 0.630000 -0.419914
v 2.625000 0.600000 -1.078370
v 0.000000 0.600000 -2.625000
v 0.685263 0.600000 -0.419914
v 1.358800 0.600000 -0.553889
v 2.009090 0.600000 -0.774632
v 3.000000 0.600000 -2.625000
vt -1.455860 0.191667
vt -0.734210 0.048123
vt -0.000000 2.625000
vt 0.729490 0.000000
vt 1.465280 0.000000
vt 1.465280 0.630000
vt 0.729490 0.630000
vt 1.440200 0.000000
vt 2.175990 0.000000
vt 2.175990 0.630000
vt 1.440200 0.630000
vt 2.119980 0.000000
vt 2.855770 0.000000
vt 2.855770 0.630000
vt 2.119980 0.630000
vt 2.757190 0.000000
vt 2.982690 0.000000
vt 2.982690 0.630000
vt 2.757190 0.630000
vt -1.440750 0.630000
vt -1.440750 0.600000
vt -0.754017 0.600000
vt -0.754017 0.630000
vt 0.878891 -0.000000
vt 2.625000 -0.000000
vt 1.328930 0.300000
vt -0.000000 0.630000
vt -0.375000 0.600000
vt -0.375000 0.300000
vt -0.000000 0.000000
vt 2.625000 0.300000
vt 1.328930 0.630000
vt 0.878891 0.630000
vt 1.328930 0.600000
vt -3.000000 0.878891
vt -2.812500 0.753607
vt -3.000000 2.625000
vt -2.152590 0.428178
vt -2.625000 0.300000
vt -2.625000 0.000000
vt -0.375000 0.630000
vt 1.358800 0.553889
vt 0.685263 0.419914
vt 0.734210 0.048123
vt 1.455860 0.191667
vt 0.000000 0.000000
vt -0.000000 0.375000
vt 2.152590 0.428178
vt 2.812500 0.753607
vt 2.625000 1.078370
vt 2.009090 0.774632
vt 3.000000 0.878891
vt 3.000000 1.328930
vt -2.831240 0.630000
vt -2.831240 0.600000
vt -2.144510 0.600000
vt -2.144510 0.630000
vt -3.232720 0.630000
vt -3.232720 0.600000
vt -2.781720 0.600000
vt -2.781720 0.630000
vt -3.000000 0.000000
vt -0.000000 0.000000
vt -0.000000 0.300000
vt -3.000000 0.300000
vt -0.711259 0.630000
vt -0.711259 0.600000
vt -0.024526 0.600000
vt -0.024526 0.630000
vt 0.735785 0.000000
vt 0.735785 0.630000
vt -2.151460 0.630000
vt -2.151460 0.600000
vt -1.464730 0.600000
vt -1.464730 0.630000
vt 2.009090 0.774632
vt 2.625000 1.078370
vt 3.000000 2.625000
vt 0.000000 2.625000
vt -0.000000 0.375000
vt 0.685263 0.419914
vt 1.358800 0.553889
vt 3.000000 1.328930
vt -0.000000 0.600000
vt -3.000000 0.600000
vt 2.625000 0.600000
vt -2.625000 0.600000
vn 0.0000 -1.0000 -0.0000
vn 0.1305 -0.0000 0.9914
vn 0.2588 -0.0000 0.9659
vn 0.3827 -0.0000 0.9239
vn 0.5000 -0.0000 0.8660
vn 0.5556 -0.0000 0.8315
vn -0.2588 0.0000 -0.9659
vn -0.1305 0.0000 -0.9914
vn 1.0000 0.0000 0.0000
vn -1.0000 -0.0000 0.0000
vn 0.0000 1.0000 0.0000
vn -0.5000 0.0000 -0.8660
vn -0.3827 0.0000 -0.9239
vn -0.5556 0.0000 -0.8315
vn 0.0000 0.0000 -1.0000
vn -0.0654 0.0000 -0.9979
vn 0.0654 -0.0000 0.9979
usemtl Stone.096
s 1
f 5/1/1 1/2/1 18/3/1
f 1/4/2 5/5/3 6/6/3 2/7/2
f 5/8/3 7/9/4 8/10/4 6/11/3
f 7/12/4 9/13/5 10/14/5 8/15/4
f 9/16/5 11/17/6 12/18/6 10/19/5
f 25/20/7 30/21/7 29/22/8 26/23/8
f 11/24/9 13/25/9 15/26/9
f 3/27/10 20/28/10 21/29/10 4/30/10
f 13/25/9 14/31/9 15/26/9
f 17/32/9 12/33/9 16/34/9
f 11/35/1 9/36/1 13/37/1
f 1/2/1 4/30/1 18/3/1
f 13/37/1 9/36/1 7/38/1
f 22/39/10 18/40/10 21/29/10
f 7/38/1 5/1/1 18/3/1 13/37/1
f 19/41/10 20/28/10 3/27/10
f 21/29/10 18/40/10 4/30/10
f 25/42/11 26/43/11 2/44/11 6/45/11
f 3/46/11 2/44/11 26/43/11 19/47/11
f 11/24/9 15/26/9 16/34/9 12/33/9
f 8/48/11 10/49/11 23/50/11 24/51/11
f 12/52/11 17/53/11 23/50/11 10/49/11
f 24/51/11 25/42/11 6/45/11 8/48/11
f 23/54/12 27/55/12 31/56/13 24/57/13
f 17/58/14 16/59/14 27/60/12 23/61/12
f 13/62/15 18/63/15 22/64/15 14/65/15
f 26/66/8 29/67/8 20/68/16 19/69/16
f 4/30/17 1/70/2 2/71/2 3/27/17
f 24/72/13 31/73/13 30/74/7 25/75/7
usemtl Asphalt.070
f 31/76/11 27/77/11 32/78/11
f 32/78/11 28/79/11 31/76/11
f 20/80/11 29/81/11 28/79/11
f 30/82/11 31/76/11 28/79/11
f 27/77/11 16/83/11 32/78/11
f 28/79/11 29/81/11 30/82/11
f 28/84/15 32/85/15 14/65/15 22/64/15
f 14/31/9 32/86/9 16/34/9 15/26/9
f 20/28/10 28/87/10 22/39/10 21/29/10
