# Blender v2.79 (sub 0) OBJ File: ''
# www.blender.org
mtllib roadTile_221.mtl
o Mesh1_Group1_Model.220
v 0.000000 0.000000 -3.000000
v 0.000000 1.650000 -3.000000
v 3.000000 1.650000 -3.000000
v 3.000000 0.000000 -3.000000
v 0.000000 0.300000 -2.250000
v 0.000000 0.300000 -0.750000
v 0.000000 0.000000 -0.000000
v 0.000000 1.275000 -0.750000
v 0.000000 1.650000 0.000000
v 3.000000 1.650000 0.000000
v 3.000000 1.275000 -0.750000
v 3.000000 0.000000 -0.000000
v 3.000000 0.300000 -0.750000
v 3.000000 0.300000 -2.250000
v 3.000000 0.600000 -2.250000
v 3.000000 1.275000 -2.250000
v 0.000000 1.275000 -2.250000
v 3.000000 0.600000 -0.750000
v 0.000000 0.600000 -0.750000
v 0.000000 0.600000 -2.250000
vt -0.000000 -0.000000
vt -0.000000 1.650000
vt -3.000000 1.650000
vt -3.000000 -0.000000
vt -3.000000 0.000000
vt -2.250000 0.300000
vt -3.000000 1.650000
vt -0.750000 0.300000
vt -0.000000 0.000000
vt -0.750000 1.275000
vt 0.000000 1.650000
vt 3.000000 0.000000
vt 3.000000 3.000000
vt -0.000000 3.000000
vt 0.000000 0.000000
vt 0.000000 1.650000
vt 0.750000 1.275000
vt 3.000000 1.650000
vt 0.000000 -0.000000
vt 3.000000 -0.000000
vt 3.000000 1.650000
vt 0.000000 3.000000
vt -3.000000 3.000000
vt -3.000000 0.000000
vt 3.000000 -0.000000
vt 0.750000 0.300000
vt 2.250000 0.300000
vt 2.250000 0.600000
vt 2.250000 1.275000
vt -3.000000 2.250000
vt -3.000000 0.750000
vt -0.000000 0.750000
vt -0.000000 2.250000
vt -3.000000 1.275000
vt -3.000000 0.600000
vt -0.000000 0.600000
vt -0.000000 1.275000
vt 0.750000 0.600000
vt 3.000000 0.600000
vt 3.000000 1.275000
vt 0.000000 1.275000
vt 0.000000 0.600000
vt -2.250000 1.275000
vt -2.250000 0.600000
vt -0.750000 0.600000
vt 3.000000 0.750000
vt 3.000000 2.250000
vt 0.000000 2.250000
vt 0.000000 0.750000
vn 0.0000 0.0000 -1.0000
vn -1.0000 -0.0000 0.0000
vn 0.0000 1.0000 0.0000
vn 1.0000 -0.0000 0.0000
vn 0.0000 -0.0000 1.0000
vn 0.0000 -1.0000 -0.0000
usemtl Stone.177
s 1
f 1/1/1 2/2/1 3/3/1 4/4/1
f 1/5/2 5/6/2 2/7/2
f 1/5/2 6/8/2 5/6/2
f 7/9/2 6/8/2 1/5/2
f 6/8/2 7/9/2 8/10/2
f 9/11/2 8/10/2 7/9/2
f 8/10/2 9/11/2 2/7/2
f 10/12/3 3/13/3 2/14/3 9/15/3
f 10/16/4 11/17/4 3/18/4
f 11/17/4 10/16/4 12/19/4
f 9/11/5 7/9/5 12/20/5 10/21/5
f 7/9/6 1/22/6 4/23/6 12/24/6
f 4/25/4 13/26/4 12/19/4
f 13/26/4 4/25/4 14/27/4
f 14/27/4 4/25/4 15/28/4
f 15/28/4 4/25/4 16/29/4
f 3/18/4 16/29/4 4/25/4
f 3/18/4 11/17/4 16/29/4
f 16/30/6 11/31/6 8/32/6 17/33/6
f 11/34/1 18/35/1 19/36/1 8/37/1
f 11/17/4 12/19/4 18/38/4
f 18/38/4 12/19/4 13/26/4
f 15/39/5 16/40/5 17/41/5 20/42/5
f 17/43/2 2/7/2 20/44/2
f 8/10/2 2/7/2 17/43/2
f 20/44/2 2/7/2 5/6/2
f 6/8/2 8/10/2 19/45/2
usemtl Asphalt.146
f 15/28/4 18/38/4 13/26/4 14/27/4
f 18/46/3 15/47/3 20/48/3 19/49/3
f 19/45/2 20/44/2 5/6/2 6/8/2
