# Blender v2.79 (sub 0) OBJ File: ''
# www.blender.org
mtllib roadTile_021.mtl
o Mesh1_Group1_Model.020
v 0.000000 1.650000 0.000000
v 2.897780 0.550000 -0.776457
v 2.771640 0.550000 -1.148050
v 2.974330 0.550000 -0.391579
v 3.000000 0.550000 0.000000
v 0.000000 0.000000 -0.000000
v 3.000000 0.000000 -0.000000
v 0.000000 0.000000 -3.000000
v 0.391579 0.000000 -2.974330
v 0.776457 0.000000 -2.897780
v 1.148050 0.000000 -2.771640
v 1.500000 0.000000 -2.598080
v 1.826280 0.000000 -2.380060
v 2.121320 0.000000 -2.121320
v 2.380060 0.000000 -1.826280
v 2.598080 0.000000 -1.500000
v 2.771640 0.000000 -1.148050
v 2.897780 0.000000 -0.776457
v 2.974330 0.000000 -0.391579
v 0.000000 0.550000 -3.000000
v 0.391579 0.550000 -2.974330
v 0.776457 0.550000 -2.897780
v 1.148050 0.550000 -2.771640
v 1.500000 0.550000 -2.598080
v 1.826280 0.550000 -2.380060
v 2.121320 0.550000 -2.121320
v 2.380060 0.550000 -1.826280
v 2.598080 0.550000 -1.500000
vt -0.000000 0.569094
vt -0.196209 -2.620190
vt 0.196209 -2.620190
vt -0.196209 -2.620190
vt 0.196209 -2.620190
vt -0.196209 -2.620190
vt 0.196209 -2.620190
vt -1.826280 2.380060
vt -2.121320 2.121320
vt -0.000000 0.000000
vt -0.196209 -2.620190
vt 0.196209 -2.620190
vt -0.196209 -2.620190
vt 0.196209 -2.620190
vt -0.196209 -2.620190
vt 0.196209 -2.620190
vt -0.196209 -2.620190
vt 0.196209 -2.620190
vt -0.196209 -2.620190
vt 0.196209 -2.620190
vt -0.196209 -2.620190
vt 0.196209 -2.620190
vt -0.196209 -2.620190
vt 0.196209 -2.620190
vt -0.196209 -2.620190
vt 0.196209 -2.620190
vt -0.196209 -2.620190
vt 0.196209 -2.620190
vt -3.000000 0.000000
vt -2.974330 0.391579
vt 0.000000 3.000000
vt -0.391579 2.974330
vt -0.776457 2.897780
vt -1.148050 2.771640
vt -1.500000 2.598080
vt -2.380060 1.826280
vt -2.598080 1.500000
vt -2.771640 1.148050
vt -2.897780 0.776457
vt 3.000000 0.550000
vt 0.000000 1.650000
vt 3.000000 -0.000000
vt -0.196209 0.550000
vt -0.196209 0.000000
vt 0.196209 0.000000
vt 0.196209 0.550000
vt -0.196209 0.550000
vt -0.196209 0.000000
vt 0.196209 0.000000
vt 0.196209 0.550000
vt -0.196209 0.550000
vt -0.196209 0.000000
vt 0.196209 0.000000
vt 0.196209 0.550000
vt -0.196209 0.550000
vt -0.196209 0.000000
vt 0.196209 0.000000
vt 0.196209 0.550000
vt -0.196209 0.550000
vt -0.196209 0.000000
vt 0.196209 0.000000
vt 0.196209 0.550000
vt -0.196209 0.550000
vt -0.196209 0.000000
vt 0.196209 0.000000
vt 0.196209 0.550000
vt -0.196209 0.550000
vt -0.196209 0.000000
vt 0.196209 0.000000
vt 0.196209 0.550000
vt -0.196209 0.550000
vt -0.196209 0.000000
vt 0.196209 0.000000
vt 0.196209 0.550000
vt -0.196209 0.550000
vt -0.196209 0.000000
vt 0.196209 0.000000
vt 0.196209 0.550000
vt -0.196209 0.550000
vt -0.196209 0.000000
vt 0.196209 0.000000
vt 0.196209 0.550000
vt -0.196209 0.550000
vt -0.196209 0.000000
vt 0.196209 0.000000
vt 0.196209 0.550000
vt -3.000000 0.550000
vt -3.000000 0.000000
vt -0.196209 0.550000
vt -0.196209 0.000000
vt 0.196209 0.000000
vt 0.196209 0.550000
vn 0.2222 0.9493 -0.2222
vn 0.3325 0.9389 -0.0891
vn 0.3180 0.9389 -0.1317
vn 0.3413 0.9389 -0.0449
vn 0.3442 0.9386 -0.0226
vn 0.0000 -1.0000 -0.0000
vn 0.0449 0.9389 -0.3413
vn 0.0226 0.9386 -0.3442
vn 0.0891 0.9389 -0.3325
vn 0.1317 0.9389 -0.3180
vn 0.1721 0.9389 -0.2981
vn 0.2096 0.9389 -0.2731
vn 0.2434 0.9389 -0.2434
vn 0.2731 0.9389 -0.2096
vn 0.2981 0.9389 -0.1721
vn 0.0000 -0.0000 1.0000
vn 0.9914 -0.0000 -0.1305
vn 0.9659 0.0000 -0.2588
vn 0.1305 0.0000 -0.9914
vn 0.0654 0.0000 -0.9979
vn 0.9979 -0.0000 -0.0654
vn 0.8660 0.0000 -0.5000
vn 0.7934 0.0000 -0.6088
vn 0.7071 0.0000 -0.7071
vn 0.6088 0.0000 -0.7934
vn 0.5000 0.0000 -0.8660
vn 0.3827 0.0000 -0.9239
vn 0.2588 0.0000 -0.9659
vn 0.9239 0.0000 -0.3827
vn -1.0000 -0.0000 0.0000
usemtl Grass.009
s 1
f 1/1/1 2/2/2 3/3/3
f 1/1/1 4/4/4 2/5/2
f 1/1/1 5/6/5 4/7/4
f 13/8/6 14/9/6 6/10/6
f 1/1/1 21/11/7 20/12/8
f 1/1/1 22/13/9 21/14/7
f 1/1/1 23/15/10 22/16/9
f 1/1/1 24/17/11 23/18/10
f 1/1/1 25/19/12 24/20/11
f 1/1/1 26/21/13 25/22/12
f 1/1/1 27/23/14 26/24/13
f 1/1/1 28/25/15 27/26/14
f 1/1/1 3/27/3 28/28/15
f 7/29/6 6/10/6 19/30/6
f 8/31/6 9/32/6 6/10/6
f 10/33/6 11/34/6 6/10/6
f 12/35/6 13/8/6 6/10/6
f 14/9/6 15/36/6 6/10/6
f 16/37/6 17/38/6 6/10/6
f 18/39/6 19/30/6 6/10/6
f 6/10/6 9/32/6 10/33/6
f 11/34/6 12/35/6 6/10/6
f 15/36/6 16/37/6 6/10/6
f 18/39/6 6/10/6 17/38/6
f 5/40/16 1/41/16 6/10/16 7/42/16
f 4/43/17 19/44/17 18/45/18 2/46/18
f 21/47/19 9/48/19 8/49/20 20/50/20
f 5/51/21 7/52/21 19/53/17 4/54/17
f 28/55/22 16/56/22 15/57/23 27/58/23
f 27/59/23 15/60/23 14/61/24 26/62/24
f 26/63/24 14/64/24 13/65/25 25/66/25
f 25/67/25 13/68/25 12/69/26 24/70/26
f 24/71/26 12/72/26 11/73/27 23/74/27
f 23/75/27 11/76/27 10/77/28 22/78/28
f 22/79/28 10/80/28 9/81/19 21/82/19
f 2/83/18 18/84/18 17/85/29 3/86/29
f 6/10/30 1/41/30 20/87/30 8/88/30
f 3/89/29 17/90/29 16/91/22 28/92/22
