# Blender v2.79 (sub 0) OBJ File: ''
# www.blender.org
mtllib roadTile_068.mtl
o Mesh1_Group1_Model.067
v 1.902930 0.600000 0.000000
v 0.160810 0.600000 0.000000
v 0.160810 0.315000 0.000000
v 1.902930 0.315000 0.000000
v 0.090990 0.600000 -0.090990
v 1.747600 0.600000 -0.375000
v 1.151650 0.600000 -1.151650
v 0.375000 0.600000 -1.747600
v 0.000000 0.600000 -1.902930
v 0.000000 0.600000 -0.160810
v 0.090990 0.630000 -0.090990
v 0.160810 0.630000 0.000000
v 0.000000 0.630000 -0.160810
v 0.000000 0.630000 0.000000
v 0.000000 0.315000 -0.160810
v 0.000000 0.315000 -1.902930
v 0.000000 0.630000 -1.902930
v 0.000000 0.630000 -3.000000
v 0.000000 0.000000 -3.000000
v 0.000000 0.000000 -0.000000
v 0.375000 0.630000 -1.747600
v 1.747600 0.630000 -0.375000
v 1.902930 0.630000 0.000000
v 3.000000 0.630000 0.000000
v 3.000000 0.630000 -3.000000
v 1.151650 0.630000 -1.151650
v 3.000000 0.000000 0.000000
v 3.000000 0.000000 -3.000000
vt 0.000000 0.000000
vt 0.090990 0.090990
vt 0.000000 0.160810
vt -1.902930 0.315000
vt -3.000000 0.000000
vt -0.000000 0.000000
vt 3.000000 3.000000
vt 0.375000 1.747600
vt 1.151650 1.151650
vt 0.160810 0.315000
vt 1.902930 0.315000
vt 0.728218 0.600000
vt 0.728218 0.630000
vt 0.322321 0.630000
vt 0.322321 0.600000
vt 0.097895 0.600000
vt 0.097895 0.630000
vt -0.016796 0.630000
vt -0.016796 0.600000
vt 0.160810 0.000000
vt -0.000000 0.630000
vt -0.160810 0.630000
vt -0.160810 0.600000
vt -0.160810 0.315000
vt -1.902930 0.630000
vt -3.000000 0.630000
vt -1.902930 0.600000
vt 3.000000 0.000000
vt 3.000000 0.630000
vt 1.902930 0.600000
vt -0.322321 0.600000
vt -0.322321 0.630000
vt -0.728218 0.630000
vt -0.728218 0.600000
vt 1.747600 0.375000
vt 1.902930 0.000000
vt 3.000000 0.000000
vt 0.000000 3.000000
vt 0.000000 1.902930
vt 0.766361 0.600000
vt 0.766361 0.630000
vt -0.212585 0.630000
vt -0.212585 0.600000
vt 0.212585 0.600000
vt 0.212585 0.630000
vt -0.766361 0.630000
vt -0.766361 0.600000
vt -3.000000 -0.000000
vt 0.000000 3.000000
vt -3.000000 3.000000
vt 1.902930 0.630000
vt 0.160810 0.630000
vt 0.160810 0.600000
vt -3.000000 0.630000
vt -3.000000 -0.000000
vt -0.000000 -0.000000
vt -0.000000 0.630000
vt 0.016796 0.600000
vt 0.016796 0.630000
vt -0.097895 0.630000
vt -0.097895 0.600000
vt 3.000000 0.630000
vt -0.000000 0.630000
vt -0.000000 0.000000
vt 3.000000 0.000000
vt 1.151650 1.151650
vt 0.375000 1.747600
vt 0.000000 0.160810
vt 0.090990 0.090990
vt 1.902930 0.000000
vt 1.747600 0.375000
vt 0.160810 0.000000
vt 0.000000 1.902930
vn 0.0000 1.0000 0.0000
vn -1.0000 0.0000 0.0000
vn -0.0000 -0.0000 1.0000
vn -0.9239 0.0000 0.3827
vn -0.8660 0.0000 0.5000
vn 0.6088 0.0000 -0.7934
vn 0.7071 0.0000 -0.7071
vn -0.5000 0.0000 0.8660
vn -0.3827 0.0000 0.9239
vn -0.7071 0.0000 0.7071
vn 0.0000 -1.0000 -0.0000
vn 0.0000 0.0000 -1.0000
vn 0.7934 -0.0000 -0.6088
vn 1.0000 0.0000 0.0000
usemtl Stone.048
s 1
f 14/1/1 11/2/1 13/3/1
f 16/4/2 19/5/2 20/6/2
f 25/7/1 21/8/1 26/9/1
f 3/10/3 20/6/3 4/11/3
f 1/12/4 23/13/4 22/14/5 6/15/5
f 10/16/6 13/17/6 11/18/7 5/19/7
f 14/1/1 12/20/1 11/2/1
f 14/21/2 13/22/2 10/23/2
f 14/21/2 10/23/2 15/24/2
f 17/25/2 18/26/2 9/27/2
f 27/28/3 24/29/3 1/30/3 4/11/3
f 20/6/2 14/21/2 15/24/2
f 20/6/2 15/24/2 16/4/2
f 8/31/8 21/32/8 17/33/9 9/34/9
f 18/26/2 19/5/2 16/4/2 9/27/2
f 22/35/1 23/36/1 24/37/1
f 24/37/1 25/7/1 22/35/1
f 18/38/1 17/39/1 21/8/1
f 26/9/1 22/35/1 25/7/1
f 18/38/1 21/8/1 25/7/1
f 6/40/5 22/41/5 26/42/10 7/43/10
f 7/44/10 26/45/10 21/46/8 8/47/8
f 27/48/11 20/6/11 19/49/11 28/50/11
f 24/29/3 23/51/3 1/30/3
f 12/52/3 14/21/3 2/53/3
f 3/10/3 2/53/3 14/21/3
f 3/10/3 14/21/3 20/6/3
f 27/28/3 4/11/3 20/6/3
f 25/54/12 28/55/12 19/56/12 18/57/12
f 5/58/7 11/59/7 12/60/13 2/61/13
f 25/62/14 24/63/14 27/64/14 28/65/14
usemtl Asphalt.037
f 7/66/1 8/67/1 10/68/1 5/69/1
f 1/70/1 6/71/1 2/72/1
f 9/73/1 10/68/1 8/67/1
f 15/24/2 10/23/2 9/27/2 16/4/2
f 2/72/1 6/71/1 7/66/1 5/69/1
f 4/11/3 1/30/3 2/53/3 3/10/3
