# Blender v2.79 (sub 0) OBJ File: ''
# www.blender.org
mtllib roadTile_108.mtl
o Mesh1_Group1_Model.107
v 2.625080 0.630000 0.000000
v 1.125080 0.630000 0.000000
v 1.125080 0.000000 -0.000000
v 2.625080 0.000000 0.000000
v 0.930968 0.630000 -1.849440
v 1.125080 0.630000 -1.875000
v 2.625080 0.630000 -1.875000
v 2.625080 0.630000 -2.250000
v 1.125080 0.630000 -2.250160
v 0.833890 0.630000 -2.211830
v 0.562541 0.630000 -2.099430
v 0.329529 0.630000 -1.920640
v 0.150732 0.630000 -1.687620
v 0.038336 0.630000 -1.416280
v 0.000000 0.630000 -1.125080
v 0.038336 0.630000 -0.833890
v 0.150732 0.630000 -0.562541
v 0.329529 0.630000 -0.329529
v 0.562541 0.630000 -0.150732
v 0.833890 0.630000 -0.038336
v 2.625080 0.630000 -0.375000
v 1.125080 0.630000 -0.375000
v 0.930968 0.630000 -0.400556
v 0.750082 0.630000 -0.475481
v 0.594752 0.630000 -0.594670
v 0.475563 0.630000 -0.750000
v 0.400638 0.630000 -0.930886
v 0.375082 0.630000 -1.125000
v 0.400638 0.630000 -1.319110
v 0.475563 0.630000 -1.500000
v 0.594752 0.630000 -1.655330
v 0.750082 0.630000 -1.774520
v 0.930968 0.600000 -1.849440
v 1.125080 0.600000 -1.875000
v 0.930968 0.600000 -0.400556
v 1.125080 0.600000 -0.375000
v 2.625080 0.600000 -0.375000
v 2.625080 0.600000 -1.875000
v 0.750082 0.600000 -1.774520
v 0.594752 0.600000 -1.655330
v 0.475563 0.600000 -1.500000
v 0.400638 0.600000 -1.319110
v 0.375082 0.600000 -1.125000
v 0.400638 0.600000 -0.930886
v 0.475563 0.600000 -0.750000
v 0.594752 0.600000 -0.594670
v 0.750082 0.600000 -0.475481
v 2.625080 0.000000 -2.250000
v 2.625080 0.300000 -1.875000
v 2.625080 0.300000 -0.375000
v 0.833890 0.000000 -0.038336
v 0.562541 0.000000 -0.150732
v 0.329529 0.000000 -0.329529
v 0.150732 0.000000 -0.562541
v 0.038336 0.000000 -0.833890
v 0.000000 0.000000 -1.125080
v 0.038336 0.000000 -1.416280
v 0.150732 0.000000 -1.687620
v 0.329529 0.000000 -1.920640
v 0.562541 0.000000 -2.099430
v 0.833890 0.000000 -2.211830
v 1.125080 0.000000 -2.250160
vt 0.000000 -0.000000
vt 2.250000 0.000000
vt 0.375000 0.300000
vt -0.038336 0.833890
vt -0.038336 1.416280
vt -0.833890 2.211830
vt -0.060828 0.000000
vt -0.060828 0.630000
vt -0.354534 0.630000
vt -0.354534 0.000000
vt 0.930968 1.849440
vt 1.125080 1.875000
vt 1.125080 2.250160
vt 0.833890 2.211830
vt -1.125080 0.000000
vt -0.833890 0.038336
vt -1.125080 2.250160
vt 0.038336 0.833890
vt 0.400638 0.930886
vt 0.375082 1.125000
vt -0.000000 1.125080
vt 0.150732 0.562541
vt 0.475563 0.750000
vt 0.329529 0.329529
vt 0.594752 0.594670
vt 0.833890 0.038336
vt 0.930968 0.400556
vt 0.750082 0.475481
vt 0.562541 0.150732
vt 1.479530 0.630000
vt 1.479530 0.600000
vt 1.675320 0.600000
vt 1.675320 0.630000
vt 1.125080 0.000000
vt 1.125080 0.375000
vt 0.400638 1.319110
vt 0.038336 1.416280
vt 0.475563 1.500000
vt 0.150732 1.687620
vt 0.594752 1.655330
vt 0.750082 1.774520
vt 0.562541 2.099430
vt 0.329529 1.920640
vt 1.479550 0.630000
vt 1.479550 0.600000
vt 1.675340 0.600000
vt 1.675340 0.630000
vt 2.250000 0.630000
vt 1.875000 0.600000
vt 1.875000 0.300000
vt 2.625080 0.000000
vt 2.625080 0.375000
vt 1.164400 0.630000
vt 1.164400 0.600000
vt 1.360190 0.600000
vt 1.360190 0.630000
vt -0.706816 0.630000
vt -0.706816 0.600000
vt -0.511027 0.600000
vt -0.511027 0.630000
vt -0.305626 0.630000
vt -0.305626 0.600000
vt -0.109836 0.600000
vt -0.109836 0.630000
vt -0.462038 0.000000
vt -0.462038 0.630000
vt -0.755743 0.630000
vt -0.755743 0.000000
vt 0.109721 0.630000
vt 0.109721 0.600000
vt 0.305511 0.600000
vt 0.305511 0.630000
vt 0.870628 0.630000
vt 0.870628 0.600000
vt 1.066420 0.600000
vt 1.066420 0.630000
vt 0.510920 0.630000
vt 0.510920 0.600000
vt 0.706709 0.600000
vt 0.706709 0.630000
vt 1.164330 0.630000
vt 1.164330 0.600000
vt 1.360120 0.600000
vt 1.360120 0.630000
vt 1.372020 0.630000
vt 1.372020 0.600000
vt 1.567810 0.600000
vt 1.567810 0.630000
vt -1.066510 0.630000
vt -1.066510 0.600000
vt -0.870720 0.600000
vt -0.870720 0.630000
vt 1.372060 0.630000
vt 1.372060 0.600000
vt 1.567850 0.600000
vt 1.567850 0.630000
vt 0.000000 0.630000
vt 0.375000 0.600000
vt 1.875000 0.630000
vt 0.375000 0.630000
vt 2.625080 2.250000
vt 2.625080 1.875000
vt -0.562541 0.150732
vt -0.329529 0.329529
vt -0.150732 0.562541
vt -0.000000 1.125080
vt -0.150732 1.687620
vt -0.562541 2.099430
vt -0.329529 1.920640
vt -2.625080 0.630000
vt -2.625080 0.600000
vt -1.125080 0.600000
vt -1.125080 0.630000
vt 1.115460 0.000000
vt 1.115460 0.630000
vt 0.821752 0.630000
vt 0.821752 0.000000
vt 0.755743 0.000000
vt 0.755743 0.630000
vt 0.462037 0.630000
vt 0.462037 0.000000
vt 0.354534 0.000000
vt 0.354534 0.630000
vt 0.060828 0.630000
vt 0.060828 0.000000
vt -2.625080 -0.000000
vt -2.625080 2.250000
vt 2.625080 -0.000000
vt 2.625080 0.630000
vt 1.125080 0.630000
vt 1.125080 0.000000
vt -0.821752 0.000000
vt -0.821752 0.630000
vt -1.115460 0.630000
vt -1.115460 0.000000
vt -1.409160 0.630000
vt -1.409160 0.000000
vt -1.323140 0.000000
vt -1.323140 0.630000
vt -1.616840 0.630000
vt -1.616840 0.000000
vt -1.430640 0.000000
vt -1.430640 0.630000
vt -1.724350 0.630000
vt -1.724350 0.000000
vt -1.430640 0.000000
vt -1.430640 0.630000
vt -1.724350 0.630000
vt -1.724350 0.000000
vt -1.323140 0.000000
vt -1.323140 0.630000
vt -1.616840 0.630000
vt -1.616840 0.000000
vt -1.115460 0.000000
vt -1.115460 0.630000
vt -1.409160 0.630000
vt -1.409160 0.000000
vt -1.124840 0.000000
vt -1.124840 0.630000
vt -2.624840 0.630000
vt -2.624840 0.000000
vt 1.125080 0.630000
vt 1.125080 0.600000
vt 2.625080 0.600000
vt 2.625080 0.630000
vt 0.930968 1.849440
vt 0.400638 1.319110
vt 0.594752 0.594670
vt 1.125080 0.375000
vt 1.125080 1.875000
vt 0.750082 0.475481
vt 0.930968 0.400556
vt 0.750082 1.774520
vt 0.594752 1.655330
vt 0.475563 1.500000
vt 0.375082 1.125000
vt 0.400638 0.930886
vt 0.475563 0.750000
vt 2.625080 1.875000
vt 2.625080 0.375000
vn 1.0000 0.0000 0.0000
vn -0.0000 -1.0000 -0.0000
vn -0.7071 -0.0000 0.7071
vn -0.8660 -0.0000 0.5000
vn 0.0000 1.0000 0.0000
vn 0.8660 0.0000 0.5000
vn 0.7071 0.0000 0.7071
vn 0.5000 0.0000 0.8660
vn 0.2588 0.0000 0.9659
vn 0.0654 0.0000 0.9979
vn 0.2588 0.0000 -0.9659
vn 0.5000 0.0000 -0.8660
vn 0.7071 0.0000 -0.7071
vn -0.9659 -0.0000 0.2588
vn 0.8660 0.0000 -0.5000
vn 0.9659 0.0000 -0.2588
vn 0.9659 0.0000 0.2588
vn 0.0654 0.0000 -0.9979
vn 0.0000 0.0000 -1.0000
vn -0.0654 -0.0000 0.9979
vn -0.2588 -0.0000 0.9659
vn -0.5000 -0.0000 0.8660
vn -0.0000 -0.0000 1.0000
vn -1.0000 -0.0000 0.0000
vn -0.9659 0.0000 -0.2588
vn -0.8660 0.0000 -0.5000
vn -0.7071 0.0000 -0.7071
vn -0.5000 0.0000 -0.8660
vn -0.2588 0.0000 -0.9659
vn -0.0653 0.0000 -0.9979
vn 0.0001 0.0000 -1.0000
usemtl Stone.088
s 1
f 4/1/1 48/2/1 50/3/1
f 55/4/2 57/5/2 61/6/2
f 53/7/3 18/8/3 17/9/4 54/10/4
f 5/11/5 6/12/5 9/13/5 10/14/5
f 3/15/2 51/16/2 61/6/2 62/17/2
f 16/18/5 27/19/5 28/20/5 15/21/5
f 17/22/5 26/23/5 27/19/5 16/18/5
f 17/22/5 18/24/5 25/25/5 26/23/5
f 20/26/5 23/27/5 24/28/5 19/29/5
f 30/30/6 41/31/6 40/32/7 31/33/7
f 2/34/5 22/35/5 23/27/5 20/26/5
f 15/21/5 28/20/5 29/36/5 14/37/5
f 29/36/5 30/38/5 13/39/5 14/37/5
f 31/40/5 32/41/5 11/42/5 12/43/5
f 19/29/5 24/28/5 25/25/5 18/24/5
f 32/41/5 5/11/5 10/14/5 11/42/5
f 31/44/7 40/45/7 39/46/8 32/47/8
f 8/48/1 38/49/1 49/50/1 48/2/1
f 22/35/5 2/34/5 1/51/5 21/52/5
f 5/53/9 33/54/9 34/55/10 6/56/10
f 23/57/11 35/58/11 47/59/12 24/60/12
f 24/61/12 47/62/12 46/63/13 25/64/13
f 54/65/4 17/66/4 16/67/14 55/68/14
f 25/69/13 46/70/13 45/71/15 26/72/15
f 27/73/16 44/74/16 43/75/1 28/76/1
f 26/77/15 45/78/15 44/79/16 27/80/16
f 28/81/1 43/82/1 42/83/17 29/84/17
f 29/85/17 42/86/17 41/87/6 30/88/6
f 22/89/18 36/90/18 35/91/11 23/92/11
f 32/93/8 39/94/8 33/95/9 5/96/9
f 1/97/1 4/1/1 50/3/1 37/98/1
f 7/99/1 38/49/1 8/48/1
f 21/100/1 1/97/1 37/98/1
f 48/2/1 49/50/1 50/3/1
f 8/101/5 9/13/5 6/12/5 7/102/5
f 51/16/2 52/103/2 53/104/2
f 53/104/2 54/105/2 55/4/2
f 55/4/2 56/106/2 57/5/2
f 57/5/2 58/107/2 60/108/2
f 59/109/2 60/108/2 58/107/2
f 13/39/5 30/38/5 31/40/5 12/43/5
f 53/104/2 55/4/2 61/6/2
f 57/5/2 60/108/2 61/6/2
f 61/6/2 51/16/2 53/104/2
f 21/110/19 37/111/19 36/112/18 22/113/18
f 3/114/20 2/115/20 20/116/21 51/117/21
f 51/118/21 20/119/21 19/120/22 52/121/22
f 52/122/22 19/123/22 18/124/3 53/125/3
f 4/126/2 3/15/2 62/17/2 48/127/2
f 4/128/23 1/129/23 2/130/20 3/131/20
f 55/132/14 16/133/14 15/134/24 56/135/24
f 56/135/24 15/134/24 14/136/25 57/137/25
f 57/138/25 14/139/25 13/140/26 58/141/26
f 58/142/26 13/143/26 12/144/27 59/145/27
f 59/146/27 12/147/27 11/148/28 60/149/28
f 60/150/28 11/151/28 10/152/29 61/153/29
f 61/154/29 10/155/29 9/156/30 62/157/30
f 62/158/30 9/159/30 8/160/31 48/161/31
f 6/162/10 34/163/10 38/164/23 7/165/23
usemtl Asphalt.062
f 33/166/5 42/167/5 46/168/5
f 46/168/5 36/169/5 34/170/5 33/166/5
f 47/171/5 35/172/5 46/168/5
f 38/49/1 37/98/1 50/3/1 49/50/1
f 33/166/5 39/173/5 40/174/5
f 40/174/5 41/175/5 42/167/5
f 42/167/5 43/176/5 44/177/5
f 44/177/5 45/178/5 46/168/5
f 46/168/5 35/172/5 36/169/5
f 33/166/5 40/174/5 42/167/5
f 42/167/5 44/177/5 46/168/5
f 38/179/5 34/170/5 36/169/5 37/180/5
