# Blender v2.79 (sub 0) OBJ File: ''
# www.blender.org
mtllib roadTile_130.mtl
o Mesh1_Group1_Model.129
v 2.625000 0.600000 -0.375000
v 0.375000 0.600000 -0.375000
v 0.375000 0.630000 -0.375000
v 2.625000 0.630000 -0.375000
v 2.625000 0.600000 -2.625000
v 0.375000 0.600000 -2.625000
v 2.625000 0.300000 -2.625000
v 0.375000 0.300000 -2.625000
v 2.625000 0.300000 -0.375000
v 2.625000 0.630000 0.000000
v 2.625000 0.000000 0.000000
v 2.625000 0.000000 -2.625000
v 0.000000 0.630000 0.000000
v 0.000000 0.000000 -0.000000
v 0.375000 0.630000 -2.625000
v 0.000000 0.630000 -2.625000
v 0.000000 0.000000 -2.625000
vt 2.625000 0.000000
vt 2.625000 0.375000
vt 0.375000 0.375000
vt 2.625000 0.630000
vt 0.375000 0.630000
vt 0.375000 0.600000
vt 2.625000 0.600000
vt 0.375000 0.630000
vt 0.000000 0.630000
vt 0.375000 0.600000
vt 0.000000 0.000000
vt 2.625000 0.000000
vt 0.375000 0.300000
vt 2.625000 0.300000
vt -0.000000 2.625000
vt -2.625000 2.625000
vt -2.625000 -0.000000
vt 0.000000 0.000000
vt 0.375000 2.625000
vt 0.000000 2.625000
vt 0.000000 0.000000
vt -2.625000 0.300000
vt -2.625000 0.000000
vt -0.375000 0.300000
vt -0.375000 0.630000
vt -0.375000 0.600000
vt 0.000000 0.630000
vt 0.000000 0.000000
vt -2.625000 0.630000
vt -2.625000 0.600000
vt -0.375000 0.600000
vt -0.375000 0.630000
vt 2.625000 0.000000
vt 2.625000 0.630000
vt -0.000000 0.630000
vt -2.625000 0.630000
vt -2.625000 0.000000
vt 2.625000 0.375000
vt 2.625000 2.625000
vt 0.375000 2.625000
vt 0.375000 0.375000
vt -2.625000 0.600000
vt 2.625000 0.600000
vn 0.0000 1.0000 0.0000
vn 1.0000 0.0000 0.0000
vn -0.0000 -1.0000 -0.0000
vn 0.0000 0.0000 -1.0000
vn -0.0000 -0.0000 1.0000
vn -1.0000 0.0000 -0.0000
usemtl Stone.110
s 1
f 10/1/1 4/2/1 3/3/1
f 15/4/2 3/5/2 2/6/2 6/7/2
f 4/8/2 10/9/2 1/10/2
f 11/11/2 12/12/2 9/13/2
f 12/12/2 7/14/2 9/13/2
f 17/15/3 12/16/3 11/17/3 14/18/3
f 3/3/1 15/19/1 16/20/1
f 13/21/1 10/1/1 3/3/1
f 3/3/1 16/20/1 13/21/1
f 7/22/4 12/23/4 8/24/4
f 11/11/2 9/13/2 1/10/2 10/9/2
f 15/25/4 6/26/4 16/27/4
f 8/24/4 12/23/4 17/28/4
f 16/27/4 6/26/4 8/24/4 17/28/4
f 4/29/4 1/30/4 2/31/4 3/32/4
f 11/33/5 10/34/5 13/35/5 14/18/5
f 14/18/6 13/35/6 16/36/6 17/37/6
usemtl Asphalt.084
f 1/38/1 5/39/1 6/40/1 2/41/1
f 6/26/4 5/42/4 7/22/4 8/24/4
f 5/43/2 1/10/2 9/13/2 7/14/2
