# Blender v2.79 (sub 0) OBJ File: ''
# www.blender.org
mtllib roadTile_183.mtl
o Mesh1_Group1_Model.182
v 3.000000 0.000000 -0.000000
v 3.000000 0.550000 0.000000
v 0.000000 1.100000 0.000000
v 0.000000 0.550000 0.000000
v 3.000000 0.000000 -0.375000
v 3.000000 0.550000 -0.375000
v 0.000000 0.550000 -0.375000
v 0.000000 0.550000 -2.625000
v 0.000000 0.550000 -3.000000
v 3.000000 0.000000 -3.000000
v 3.000000 0.000000 -2.625000
v 0.000000 1.100000 -0.375000
v 0.000000 1.180000 -0.375000
v 3.000000 0.630000 -0.375000
v 0.000000 1.180000 -0.750000
v 0.000000 1.150000 -0.750000
v 0.000000 0.850000 -0.750000
v 0.000000 0.850000 -2.250000
v 0.000000 1.150000 -2.250000
v 0.000000 1.180000 -2.250000
v 0.000000 1.180000 -2.625000
v 0.000000 1.100001 -2.625000
v 3.000000 0.630000 -0.750000
v 3.000000 0.550000 -2.625000
v 3.000000 0.630000 -2.625000
v 3.000000 0.630000 -2.250000
v 3.000000 0.600000 -2.250000
v 3.000000 0.300000 -2.250000
v 3.000000 0.300000 -0.750000
v 3.000000 0.600000 -0.750000
v 3.000000 0.550000 -3.000000
v 0.000000 1.100001 -3.000000
vt 0.000000 1.180000
vt 0.000000 1.100000
vt 3.000000 0.550000
vt 3.000000 0.630000
vt -2.625000 0.550000
vt -0.375000 0.550000
vt -0.375000 1.100000
vt -0.375000 1.180000
vt -0.750000 1.180000
vt -0.750000 1.150000
vt -0.750000 0.850000
vt -2.250000 0.850000
vt -2.250000 1.150000
vt -2.250000 1.180000
vt -2.625000 1.180000
vt -2.625000 1.100000
vt 0.750000 0.212787
vt 0.375000 0.212787
vt 0.375000 -2.837210
vt 0.750000 -2.837210
vt 0.375000 0.000000
vt 2.625000 0.000000
vt 2.625000 0.550000
vt 2.625000 0.630000
vt 2.250000 0.630000
vt 2.250000 0.600000
vt 2.250000 0.300000
vt 0.750000 0.300000
vt 0.750000 0.600000
vt 0.750000 0.630000
vt 0.375000 0.630000
vt 0.375000 0.550000
vt -3.000000 0.630000
vt -3.000000 0.550000
vt -0.000000 1.100000
vt -0.000000 1.180000
vt 2.250000 -2.837210
vt 2.625000 -2.837210
vt 2.625000 0.212787
vt 2.250000 0.212787
vt 0.000000 1.150000
vt 3.000000 0.600000
vt 3.000000 0.630000
vt 0.000000 1.180000
vt -3.000000 0.600000
vt -0.000000 1.150000
vt -0.000000 1.180000
vt -3.000000 0.630000
vt 3.000000 0.000000
vt 3.000000 0.550000
vt 0.000000 1.100000
vt 0.000000 0.550000
vt 0.000000 0.000000
vt 0.000000 0.550000
vt -0.000000 0.099180
vt -0.375000 0.099180
vt -2.625000 0.099180
vt -3.000000 0.099180
vt -3.000000 -2.950820
vt -2.625000 -2.950820
vt -0.375000 -2.950820
vt -0.000000 -2.950820
vt 0.000000 0.198361
vt 0.000000 -2.851640
vt 0.375000 -2.851640
vt 0.375000 0.198361
vt 3.000000 0.550000
vt 3.000000 -0.000000
vt 3.000000 -2.851640
vt 3.000000 0.198361
vt 2.625000 0.198361
vt 2.625000 -2.851640
vt -0.000000 0.550000
vt -0.000000 1.100000
vt -3.000000 0.550000
vt -3.000000 0.000000
vt -3.000000 0.550000
vt -3.000000 1.100000
vt 2.250000 -2.842620
vt 2.250000 0.207377
vt 0.750000 0.207377
vt 0.750000 -2.842620
vn 0.0000 0.0000 1.0000
vn -1.0000 0.0000 -0.0000
vn 0.1803 0.9836 0.0000
vn 1.0000 0.0000 0.0000
vn -0.0000 0.0000 -1.0000
vn -0.1803 -0.9836 -0.0000
usemtl Stone.145
s 1
f 13/1/1 12/2/1 6/3/1 14/4/1
f 8/5/2 7/6/2 12/7/2 13/8/2 15/9/2 16/10/2 17/11/2 18/12/2 19/13/2 20/14/2 21/15/2 22/16/2
f 15/17/3 13/18/3 14/19/3 23/20/3
f 5/21/4 11/22/4 24/23/4 25/24/4 26/25/4 27/26/4 28/27/4 29/28/4 30/29/4 23/30/4 14/31/4 6/32/4
f 25/33/5 24/34/5 22/35/5 21/36/5
f 26/37/3 25/38/3 21/39/3 20/40/3
f 19/41/1 27/42/1 26/43/1 20/44/1
f 30/45/5 16/46/5 15/47/5 23/48/5
usemtl Grass.089
f 1/49/1 2/50/1 3/51/1 4/52/1
f 1/53/4 5/21/4 6/32/4 2/54/4
f 4/55/6 7/56/6 8/57/6 9/58/6 10/59/6 11/60/6 5/61/6 1/62/6
f 3/51/2 12/7/2 7/6/2 4/52/2
f 3/63/3 2/64/3 6/65/3 12/66/3
f 31/67/4 24/23/4 11/22/4 10/68/4
f 31/69/3 32/70/3 22/71/3 24/72/3
f 9/73/5 32/74/5 31/75/5 10/76/5
f 9/77/2 8/5/2 22/16/2 32/78/2
usemtl Asphalt.118
f 27/79/3 19/80/3 16/81/3 30/82/3
f 19/13/2 18/12/2 17/11/2 16/10/2
f 27/26/4 30/29/4 29/28/4 28/27/4
