# Blender v2.79 (sub 0) OBJ File: ''
# www.blender.org
mtllib roadTile_005.mtl
o Mesh1_Group1_Model.004
v 0.000000 0.550000 -3.000000
v 0.000000 0.000000 -3.000000
v 0.000000 0.000000 -0.000000
v 0.000000 1.650000 0.000000
v 3.000000 0.000000 -3.000000
v 3.000000 0.550000 -3.000000
v 3.000000 0.000000 0.000000
v 3.000000 0.550000 0.000000
vt 3.000000 0.550000
vt 0.000000 1.650000
vt -0.000000 0.000000
vt 3.000000 0.000000
vt -0.000000 3.000000
vt -3.000000 3.000000
vt -3.000000 0.000000
vt 3.000000 0.550000
vt 0.000000 0.550000
vt 0.000000 0.000000
vt 3.000000 0.000000
vt -3.000000 0.550000
vt -3.000000 0.000000
vt 3.000000 3.000000
vt 2.121320 -1.630010
vt -0.000000 0.759554
vt 3.000000 0.000000
vt -3.000000 0.550000
vt -3.000000 -0.000000
vt 0.000000 -0.000000
vt 0.000000 0.550000
vn -0.0000 -0.0000 1.0000
vn 0.0000 -1.0000 -0.0000
vn 1.0000 0.0000 0.0000
vn -1.0000 0.0000 -0.0000
vn 0.1775 0.9680 -0.1775
vn 0.0000 0.0000 -1.0000
usemtl Stone.003
s 1
f 8/1/1 4/2/1 3/3/1 7/4/1
f 2/5/2 5/6/2 7/7/2 3/3/2
f 6/8/3 8/9/3 7/10/3 5/11/3
f 3/3/4 4/2/4 1/12/4 2/13/4
f 6/14/5 1/15/5 4/16/5 8/17/5
f 6/18/6 5/19/6 2/20/6 1/21/6
