# Blender v2.79 (sub 0) OBJ File: ''
# www.blender.org
mtllib roadTile_161.mtl
o Mesh1_Group1_Model.160
v 3.000000 0.600000 -2.250000
v 3.000000 0.600000 -0.750000
v 3.000000 0.300000 -0.750000
v 3.000000 0.300000 -2.250000
v 0.000000 1.700000 -2.250000
v 0.000000 1.700000 -0.750000
v 3.000000 0.630000 -2.250000
v 0.000000 1.730000 -2.250000
v 3.000000 0.000000 -0.375000
v 3.000000 0.000000 -2.625000
v 3.000000 0.550000 -2.625000
v 3.000000 0.630000 -2.625000
v 3.000000 0.630000 -0.750000
v 3.000000 0.630000 -0.375000
v 3.000000 0.550000 -0.375000
v 3.000000 0.000000 -0.000000
v 0.000000 1.100000 0.000000
v 0.000000 1.100000 -0.375000
v 0.000000 1.100001 -2.625000
v 0.000000 1.100001 -3.000000
v 3.000000 0.000000 -3.000000
v 0.000000 1.650000 0.000000
v 3.000000 0.550000 0.000000
v 0.000000 1.650000 -0.375000
v 0.000000 1.650000 -2.625000
v 0.000000 1.730000 -0.375000
v 0.000000 1.730000 -0.750000
v 0.000000 1.400000 -0.750000
v 0.000000 1.400000 -2.250000
v 0.000000 1.730000 -2.625000
v 0.000000 1.650000 -3.000000
v 3.000000 0.550000 -3.000000
vt 0.000000 1.700000
vt 3.000000 0.600000
vt 3.000000 0.630000
vt 0.000000 1.730000
vt 0.375000 -0.000000
vt 2.625000 -0.000000
vt 2.625000 0.550000
vt 2.625000 0.630000
vt 2.250000 0.630000
vt 2.250000 0.600000
vt 2.250000 0.300000
vt 0.750000 0.300000
vt 0.750000 0.600000
vt 0.750000 0.630000
vt 0.375000 0.630000
vt 0.375000 0.550000
vt -2.625000 1.650000
vt -2.625000 1.100000
vt -0.375000 1.100000
vt -0.375000 1.650000
vt -0.375000 1.730000
vt -0.750000 1.730000
vt -0.750000 1.700000
vt -0.750000 1.400000
vt -2.250000 1.400000
vt -2.250000 1.700000
vt -2.250000 1.730000
vt -2.625000 1.730000
vt -3.000000 0.550000
vt -0.000000 1.650000
vt -0.000000 1.730000
vt -3.000000 0.630000
vt 2.250000 -2.599750
vt 2.625000 -2.599750
vt 2.625000 0.595561
vt 2.250000 0.595561
vt 0.000000 1.650000
vt 3.000000 0.550000
vt 3.000000 0.630000
vt 0.000000 1.730000
vt 0.750000 0.595561
vt 0.375000 0.595561
vt 0.375000 -2.599750
vt 0.750000 -2.599750
vt -3.000000 0.600000
vt -0.000000 1.700000
vt -0.000000 1.730000
vt -3.000000 0.630000
vt -0.000000 -2.816630
vt -0.000000 0.378680
vt -0.375000 0.378680
vt -2.625000 0.378680
vt -3.000000 0.378680
vt -3.000000 -2.816630
vt -2.625000 -2.816630
vt -0.375000 -2.816630
vt 0.000000 1.650000
vt 0.000000 1.100000
vt 3.000000 -0.000000
vt 3.000000 0.550000
vt -3.000000 1.650000
vt -3.000000 1.100000
vt -3.000000 0.550000
vt -3.000000 0.000000
vt -0.000000 1.100000
vt -0.000000 1.650000
vt 3.000000 0.550000
vt 3.000000 0.000000
vt 2.625000 0.568020
vt 2.625000 -2.627290
vt 3.000000 -2.627290
vt 3.000000 0.568020
vt 0.375000 -2.627290
vt 0.375000 0.568020
vt 0.000000 0.568020
vt 0.000000 -2.627290
vt 0.000000 0.000000
vt 0.000000 0.550000
vt 2.250000 -2.610080
vt 2.250000 0.585233
vt 0.750000 0.585233
vt 0.750000 -2.610080
vn 0.0000 0.0000 1.0000
vn 1.0000 0.0000 0.0000
vn -1.0000 0.0000 -0.0000
vn -0.0000 0.0000 -1.0000
vn 0.3443 0.9389 0.0000
vn -0.3443 -0.9389 -0.0000
usemtl Stone.133
s 1
f 5/1/1 1/2/1 7/3/1 8/4/1
f 9/5/2 10/6/2 11/7/2 12/8/2 7/9/2 1/10/2 4/11/2 3/12/2 2/13/2 13/14/2 14/15/2 15/16/2
f 25/17/3 19/18/3 18/19/3 24/20/3 26/21/3 27/22/3 6/23/3 28/24/3 29/25/3 5/26/3 8/27/3 30/28/3
f 11/29/4 25/30/4 30/31/4 12/32/4
f 7/33/5 12/34/5 30/35/5 8/36/5
f 24/37/1 15/38/1 14/39/1 26/40/1
f 27/41/5 26/42/5 14/43/5 13/44/5
f 2/45/4 6/46/4 27/47/4 13/48/4
usemtl Grass.067
f 16/49/6 17/50/6 18/51/6 19/52/6 20/53/6 21/54/6 10/55/6 9/56/6
f 22/57/1 17/58/1 16/59/1 23/60/1
f 24/20/3 18/19/3 17/58/3 22/57/3
f 31/61/3 20/62/3 19/18/3 25/17/3
f 32/63/4 21/64/4 20/65/4 31/66/4
f 32/67/2 11/7/2 10/6/2 21/68/2
f 25/69/5 11/70/5 32/71/5 31/72/5
f 15/73/5 24/74/5 22/75/5 23/76/5
f 16/77/2 9/5/2 15/16/2 23/78/2
usemtl Asphalt.106
f 1/10/2 2/13/2 3/12/2 4/11/2
f 1/79/5 5/80/5 6/81/5 2/82/5
f 6/23/3 5/26/3 29/25/3 28/24/3
