# Blender v2.79 (sub 0) OBJ File: ''
# www.blender.org
mtllib roadTile_228.mtl
o Mesh1_Group1_Model.227
v 3.000000 1.260000 0.000000
v 0.000000 1.260000 0.000000
v 0.000000 0.000000 0.000000
v 3.000000 0.000000 -0.000000
v 0.000000 1.260000 -0.375000
v 3.000000 1.260000 -0.375000
v 0.000000 0.000000 -2.250000
v 0.000000 0.600000 -0.375000
v 0.000000 0.300000 -0.375000
v 0.000000 0.300000 -1.875000
v 0.000000 0.600000 -1.875000
v 0.000000 1.260000 -1.875000
v 0.000000 1.260000 -2.250000
v 3.000000 0.000000 -2.250000
v 3.000000 1.260000 -2.250000
v 3.000000 1.260000 -1.875000
v 3.000000 0.600000 -1.875000
v 3.000000 0.300000 -1.875000
v 3.000000 0.300000 -0.375000
v 3.000000 0.600000 -0.375000
vt 3.000000 1.260000
vt 0.000000 1.260000
vt 0.000000 0.000000
vt 3.000000 0.000000
vt 0.000000 0.375000
vt 0.000000 0.000000
vt 3.000000 0.000000
vt 3.000000 0.375000
vt -2.250000 0.000000
vt -0.375000 1.260000
vt -0.375000 0.600000
vt -0.375000 0.300000
vt -1.875000 0.300000
vt -1.875000 0.600000
vt -1.875000 1.260000
vt -2.250000 1.260000
vt -3.000000 2.250000
vt -3.000000 0.000000
vt -0.000000 2.250000
vt 0.000000 0.000000
vt 2.250000 0.000000
vt 2.250000 1.260000
vt 1.875000 1.260000
vt 1.875000 0.600000
vt 1.875000 0.300000
vt 0.375000 0.300000
vt 0.375000 0.600000
vt 0.375000 1.260000
vt 0.000000 1.260000
vt -0.000000 1.260000
vt -3.000000 1.260000
vt -3.000000 -0.000000
vt -0.000000 -0.000000
vt 3.000000 1.875000
vt 3.000000 2.250000
vt 0.000000 2.250000
vt 0.000000 1.875000
vt 0.000000 0.600000
vt 3.000000 0.600000
vt 3.000000 1.260000
vt 0.000000 1.260000
vt -3.000000 0.600000
vt -0.000000 0.600000
vt -0.000000 1.260000
vt -3.000000 1.260000
vt 3.000000 1.875000
vt 0.000000 1.875000
vt 0.000000 0.375000
vt 3.000000 0.375000
vn 0.0000 -0.0000 1.0000
vn 0.0000 1.0000 0.0000
vn -1.0000 0.0000 -0.0000
vn 0.0000 -1.0000 -0.0000
vn 1.0000 0.0000 0.0000
vn 0.0000 0.0000 -1.0000
usemtl Stone.184
s 1
f 1/1/1 2/2/1 3/3/1 4/4/1
f 5/5/2 2/6/2 1/7/2 6/8/2
f 7/9/3 3/3/3 2/2/3 5/10/3 8/11/3 9/12/3 10/13/3 11/14/3 12/15/3 13/16/3
f 14/17/4 4/18/4 3/3/4 7/19/4
f 4/20/5 14/21/5 15/22/5 16/23/5 17/24/5 18/25/5 19/26/5 20/27/5 6/28/5 1/29/5
f 13/30/6 15/31/6 14/32/6 7/33/6
f 16/34/2 15/35/2 13/36/2 12/37/2
f 11/38/1 17/39/1 16/40/1 12/41/1
f 20/42/6 8/43/6 5/44/6 6/45/6
usemtl Asphalt.153
f 17/46/2 11/47/2 8/48/2 20/49/2
f 11/14/3 10/13/3 9/12/3 8/11/3
f 20/27/5 19/26/5 18/25/5 17/24/5
