# Blender v2.79 (sub 0) OBJ File: ''
# www.blender.org
mtllib roadTile_156.mtl
o Mesh1_Group1_Model.155
v 0.187500 0.630000 -1.128610
v 0.000000 0.630000 -1.253890
v 0.000000 0.550000 -1.253890
v 0.187500 0.550000 -1.128610
v 0.000000 0.630000 -1.703930
v 0.847406 0.630000 -0.803178
v 1.544140 0.630000 -0.566667
v 2.265790 0.630000 -0.423123
v 3.000000 0.630000 -0.375000
v 3.000000 0.630000 -0.750000
v 2.314740 0.630000 -0.794914
v 1.641200 0.630000 -0.928889
v 0.990912 0.630000 -1.149630
v 0.375000 0.630000 -1.453370
v 0.000000 0.600000 -1.703930
v 0.000000 0.300000 -1.703930
v 0.000000 0.300000 -3.000000
v 0.000000 0.000000 -3.000000
v 0.000000 0.000000 -1.253890
v 0.000000 0.600001 -3.000000
v 0.754448 0.600001 -3.000000
v 0.754448 0.300000 -3.000000
v 1.468970 0.000000 -3.000000
v 0.754448 0.630000 -3.000000
v 1.468970 0.630000 -3.000000
v 1.468970 0.550000 -3.000000
v 0.000000 0.000000 0.000000
v 3.000000 0.000000 -3.000000
v 3.000000 0.000000 -2.625000
v 3.000000 0.000000 -0.375000
v 3.000000 0.000000 -0.000000
v 0.000000 0.550000 0.000000
v 3.000000 0.550000 0.000000
v 3.000000 0.550000 -0.375000
v 2.265790 0.550000 -0.423123
v 1.544140 0.550000 -0.566667
v 0.847406 0.550000 -0.803178
v 3.000000 0.550000 -2.625000
v 3.000000 0.630000 -2.625000
v 3.000000 0.630000 -2.250000
v 3.000000 0.600000 -2.250000
v 3.000000 0.300000 -2.250000
v 3.000000 0.300000 -0.750000
v 3.000000 0.600000 -0.750000
v 3.000000 0.550000 -3.000000
v 1.708440 0.550000 -2.881910
v 2.126490 0.550000 -2.740000
v 2.559470 0.550000 -2.653870
v 1.708440 0.630000 -2.881910
v 2.559470 0.630000 -2.653870
v 2.126490 0.630000 -2.740000
v 1.125000 0.630000 -2.752400
v 1.564940 0.630000 -2.535450
v 2.029430 0.630000 -2.377780
v 2.510530 0.630000 -2.282080
v 1.125000 0.600001 -2.752400
v 0.375000 0.600000 -1.453370
v 0.990912 0.600000 -1.149630
v 1.641200 0.600000 -0.928889
v 2.314740 0.600000 -0.794914
v 2.510530 0.600000 -2.282080
v 2.029430 0.600000 -2.377780
v 1.564940 0.600000 -2.535450
vt -0.471120 0.630000
vt -0.696624 0.630000
vt -0.696624 0.550000
vt -0.471120 0.550000
vt 0.000000 1.703930
vt 0.000000 1.253890
vt 0.187500 1.128610
vt 0.847406 0.803178
vt 1.544140 0.566667
vt 2.265790 0.423123
vt 3.000000 0.375000
vt 3.000000 0.750000
vt 2.314740 0.794914
vt 1.641200 0.928889
vt 0.990912 1.149630
vt 0.375000 1.453370
vt -1.703930 0.600000
vt -1.703930 0.300000
vt -3.000000 0.300000
vt -3.000000 0.000000
vt -1.253890 0.000000
vt -1.253890 0.550000
vt -1.253890 0.630000
vt -1.703930 0.630000
vt -1.468970 0.000000
vt -0.000000 0.000000
vt -0.000000 0.300000
vt -0.754448 0.300000
vt -0.754448 0.600000
vt -0.754448 0.630000
vt -1.468970 0.630000
vt -1.468970 0.550000
vt 0.375000 0.630000
vt 0.375000 0.550000
vt 0.375000 0.000000
vt 2.625000 0.000000
vt 2.625000 0.550000
vt 2.625000 0.630000
vt 2.250000 0.630000
vt 2.250000 0.600000
vt 2.250000 0.300000
vt 0.750000 0.300000
vt 0.750000 0.600000
vt 0.750000 0.630000
vt 2.969050 0.630000
vt 2.233270 0.630000
vt 2.233270 0.550000
vt 2.969050 0.550000
vt 2.139710 0.630000
vt 1.403920 0.630000
vt 1.403920 0.550000
vt 2.139710 0.550000
vt 1.280050 0.630000
vt 0.544261 0.630000
vt 0.544261 0.550000
vt 1.280050 0.550000
vt 0.404779 0.630000
vt -0.331007 0.630000
vt -0.331007 0.550000
vt 0.404779 0.550000
vt 0.009384 0.630000
vt -0.257622 0.630000
vt -0.257622 0.550000
vt 0.009384 0.550000
vt 3.000000 2.250000
vt 3.000000 2.625000
vt 2.559470 2.653870
vt 2.126490 2.740000
vt 1.708440 2.881910
vt 1.468970 3.000000
vt 0.754448 3.000000
vt 1.125000 2.752400
vt 1.564940 2.535450
vt 2.029430 2.377780
vt 2.510530 2.282080
vt -2.380420 0.630000
vt -2.821890 0.630000
vt -2.821890 0.550000
vt -2.380420 0.550000
vt -1.551080 0.630000
vt -1.992550 0.630000
vt -1.992550 0.550000
vt -1.551080 0.550000
vt -0.691418 0.630000
vt -1.132890 0.630000
vt -1.132890 0.550000
vt -0.691418 0.550000
vt -0.593751 0.630000
vt -1.039410 0.630000
vt -1.039410 0.600000
vt -0.593751 0.600000
vt 0.946655 0.630000
vt 0.495646 0.630000
vt 0.495646 0.600000
vt 0.946655 0.600000
vt 0.306480 0.630000
vt -0.380253 0.630000
vt -0.380253 0.600000
vt 0.306480 0.600000
vt -0.568787 0.630000
vt -1.255520 0.630000
vt -1.255520 0.600000
vt -0.568787 0.600000
vt -1.428450 0.630000
vt -2.115180 0.630000
vt -2.115180 0.600000
vt -1.428450 0.600000
vt -2.257790 0.630000
vt -2.944520 0.630000
vt -2.944520 0.600000
vt -2.257790 0.600000
vt 2.846420 0.630000
vt 2.355900 0.630000
vt 2.355900 0.600000
vt 2.846420 0.600000
vt 2.017080 0.630000
vt 1.526550 0.630000
vt 1.526550 0.600000
vt 2.017080 0.600000
vt 1.157420 0.630000
vt 0.666892 0.630000
vt 0.666892 0.600000
vt 1.157420 0.600000
vt 0.282148 0.630000
vt -0.208376 0.630000
vt -0.208376 0.600000
vt 0.282148 0.600000
vt -0.000000 0.000000
vt -0.000000 1.253890
vt -0.000000 3.000000
vt -1.468970 3.000000
vt -3.000000 3.000000
vt -3.000000 2.625000
vt -3.000000 0.375000
vt -3.000000 0.000000
vt 0.000000 0.550000
vt 3.000000 0.550000
vt 3.000000 -0.000000
vt 3.000000 0.000000
vt 3.000000 0.375000
vt 2.265790 0.423123
vt 1.544140 0.566667
vt 0.847406 0.803178
vt 0.187500 1.128610
vt 0.000000 1.253890
vt 0.000000 0.000000
vt 0.000000 0.000000
vt 0.000000 0.550000
vt 3.000000 0.550000
vt 3.000000 0.000000
vt 3.000000 3.000000
vt 1.468970 3.000000
vt 1.708440 2.881910
vt 2.126490 2.740000
vt 2.559470 2.653870
vt 3.000000 2.625000
vt -3.000000 0.550000
vt -3.000000 0.000000
vt -3.000000 0.600000
vt -0.000000 0.600000
vt 0.754448 3.000000
vt 0.000000 3.000000
vt -0.000000 1.703930
vt 0.375000 1.453370
vt 0.990912 1.149630
vt 1.641200 0.928889
vt 2.314740 0.794914
vt 3.000000 0.750000
vt 3.000000 2.250000
vt 2.510530 2.282080
vt 2.029430 2.377780
vt 1.564940 2.535450
vt 1.125000 2.752400
vn -0.5000 0.0000 0.8660
vn -0.5556 0.0000 0.8315
vn -0.0000 1.0000 0.0000
vn -1.0000 -0.0000 0.0000
vn -0.0000 0.0000 -1.0000
vn 1.0000 0.0000 0.0000
vn -0.0654 0.0000 0.9979
vn -0.1305 0.0000 0.9914
vn -0.2588 0.0000 0.9659
vn -0.3827 0.0000 0.9239
vn 0.4423 0.0000 -0.8969
vn 0.3827 0.0000 -0.9239
vn 0.1305 0.0000 -0.9914
vn 0.0654 0.0000 -0.9979
vn 0.2588 0.0000 -0.9659
vn 0.5556 0.0000 -0.8315
vn 0.5000 0.0000 -0.8660
vn -0.0000 -1.0000 -0.0000
vn 0.0000 -0.0000 1.0000
usemtl Stone.131
s 1
f 1/1/1 2/2/2 3/3/2 4/4/1
f 5/5/3 2/6/3 1/7/3 6/8/3 7/9/3 8/10/3 9/11/3 10/12/3 11/13/3 12/14/3 13/15/3 14/16/3
f 15/17/4 16/18/4 17/19/4 18/20/4 19/21/4 3/22/4 2/23/4 5/24/4
f 23/25/5 18/26/5 17/27/5 22/28/5 21/29/5 24/30/5 25/31/5 26/32/5
f 9/33/6 34/34/6 30/35/6 29/36/6 38/37/6 39/38/6 40/39/6 41/40/6 42/41/6 43/42/6 44/43/6 10/44/6
f 9/45/7 8/46/8 35/47/8 34/48/7
f 8/49/8 7/50/9 36/51/9 35/52/8
f 7/53/9 6/54/10 37/55/10 36/56/9
f 6/57/10 1/58/1 4/59/1 37/60/10
f 25/61/11 49/62/12 46/63/12 26/64/11
f 40/65/3 39/66/3 50/67/3 51/68/3 49/69/3 25/70/3 24/71/3 52/72/3 53/73/3 54/74/3 55/75/3
f 50/76/13 39/77/14 38/78/14 48/79/13
f 51/80/15 50/81/13 48/82/13 47/83/15
f 49/84/12 51/85/15 47/86/15 46/87/12
f 52/88/1 24/89/2 21/90/2 56/91/1
f 5/92/16 14/93/17 57/94/17 15/95/16
f 14/96/17 13/97/12 58/98/12 57/99/17
f 13/100/12 12/101/15 59/102/15 58/103/12
f 12/104/15 11/105/13 60/106/13 59/107/15
f 11/108/13 10/109/14 44/110/14 60/111/13
f 40/112/7 55/113/8 61/114/8 41/115/7
f 55/116/8 54/117/9 62/118/9 61/119/8
f 54/120/9 53/121/10 63/122/10 62/123/9
f 53/124/10 52/125/1 56/126/1 63/127/10
usemtl Grass.062
f 27/128/18 19/129/18 18/130/18 23/131/18 28/132/18 29/133/18 30/134/18 31/135/18
f 3/22/4 19/21/4 27/128/4 32/136/4
f 33/137/19 32/136/19 27/128/19 31/138/19
f 33/139/3 34/140/3 35/141/3 36/142/3 37/143/3 4/144/3 3/145/3 32/146/3
f 31/147/6 30/35/6 34/34/6 33/148/6
f 45/149/6 38/37/6 29/36/6 28/150/6
f 45/151/3 26/152/3 46/153/3 47/154/3 48/155/3 38/156/3
f 26/32/5 45/157/5 28/158/5 23/25/5
usemtl Asphalt.104
f 20/159/4 17/19/4 16/18/4 15/17/4
f 21/29/5 22/28/5 17/27/5 20/160/5
f 21/161/3 20/162/3 15/163/3 57/164/3 58/165/3 59/166/3 60/167/3 44/168/3 41/169/3 61/170/3 62/171/3 63/172/3 56/173/3
f 41/40/6 44/43/6 43/42/6 42/41/6
