# Blender v2.79 (sub 0) OBJ File: ''
# www.blender.org
mtllib roadTile_185.mtl
o Mesh1_Group1_Model.184
v 2.259150 0.455000 -2.903140
v 2.250000 0.455000 -3.000000
v 0.750000 0.455000 -3.000000
v 0.756827 0.455000 -2.701910
v 0.804783 0.455000 -2.407630
v 0.892946 0.455000 -2.122790
v 1.019630 0.455000 -1.852870
v 1.182390 0.455000 -1.603050
v 1.378120 0.455000 -1.378120
v 1.603050 0.455000 -1.182390
v 1.852870 0.455000 -1.019630
v 2.122790 0.455000 -0.892946
v 2.407630 0.455000 -0.804783
v 2.701910 0.455000 -0.756827
v 3.000000 0.455000 -0.750000
v 3.000000 0.455000 -2.250000
v 2.903140 0.455000 -2.259150
v 2.808190 0.455000 -2.280370
v 2.716650 0.455000 -2.313320
v 2.629960 0.455000 -2.357480
v 2.549490 0.455000 -2.412170
v 2.476510 0.455000 -2.476510
v 2.412170 0.455000 -2.549490
v 2.357480 0.455000 -2.629960
v 2.313320 0.455000 -2.716650
v 2.280370 0.455000 -2.808190
v 2.259150 0.550000 -2.903140
v 2.250000 0.550000 -3.000000
v 2.280370 0.550000 -2.808190
v 2.313320 0.550000 -2.716650
v 2.357480 0.550000 -2.629960
v 2.412170 0.550000 -2.549490
v 2.476510 0.550000 -2.476510
v 2.549490 0.550000 -2.412170
v 2.629960 0.550000 -2.357480
v 2.716650 0.550000 -2.313320
v 2.808190 0.550000 -2.280370
v 2.903140 0.550000 -2.259150
v 3.000000 0.550000 -2.250000
v 3.000000 0.000000 -2.250000
v 3.000000 0.000000 -3.000000
v 3.000000 0.550000 -3.000000
v 3.000000 0.000000 -0.750000
v 2.250000 0.000000 -3.000000
v 3.000000 0.000000 0.000000
v 0.000000 0.000000 0.000000
v 0.000000 0.000000 -3.000000
v 0.750000 0.000000 -3.000000
v 0.750000 0.550000 -3.000000
v 0.000000 0.550000 -3.000000
v 0.756827 0.550000 -2.701910
v 0.000000 0.550000 0.000000
v 3.000000 0.550000 0.000000
v 3.000000 0.550000 -0.750000
v 2.701910 0.550000 -0.756827
v 2.407630 0.550000 -0.804783
v 2.122790 0.550000 -0.892946
v 1.852870 0.550000 -1.019630
v 1.603050 0.550000 -1.182390
v 1.378120 0.550000 -1.378120
v 1.182390 0.550000 -1.603050
v 1.019630 0.550000 -1.852870
v 0.892946 0.550000 -2.122790
v 0.804783 0.550000 -2.407630
vt -2.775150 0.455000
vt -2.677860 0.455000
vt -2.677860 0.550000
vt -2.775150 0.550000
vt -2.340590 0.455000
vt -2.243300 0.455000
vt -2.243300 0.550000
vt -2.340590 0.550000
vt -1.869890 0.455000
vt -1.772590 0.455000
vt -1.772590 0.550000
vt -1.869890 0.550000
vt -1.370450 0.455000
vt -1.273160 0.455000
vt -1.273160 0.550000
vt -1.370450 0.550000
vt -0.850161 0.455000
vt -0.752869 0.455000
vt -0.752869 0.550000
vt -0.850161 0.550000
vt -0.317230 0.455000
vt -0.219938 0.455000
vt -0.219938 0.550000
vt -0.317230 0.550000
vt 0.219938 0.455000
vt 0.317230 0.455000
vt 0.317230 0.550000
vt 0.219938 0.550000
vt 0.752869 0.455000
vt 0.850161 0.455000
vt 0.850161 0.550000
vt 0.752869 0.550000
vt 1.273160 0.455000
vt 1.370450 0.455000
vt 1.370450 0.550000
vt 1.273160 0.550000
vt 1.772590 0.455000
vt 1.869890 0.455000
vt 1.869890 0.550000
vt 1.772590 0.550000
vt 2.243300 0.455000
vt 2.340590 0.455000
vt 2.340590 0.550000
vt 2.243300 0.550000
vt 2.677860 0.455000
vt 2.775150 0.455000
vt 2.775150 0.550000
vt 2.677860 0.550000
vt 2.250000 0.550000
vt 2.250000 0.455000
vt 2.250000 0.000000
vt 3.000000 0.000000
vt 3.000000 0.550000
vt -2.250000 3.000000
vt -3.000000 3.000000
vt -3.000000 2.250000
vt -3.000000 0.750000
vt -3.000000 -0.000000
vt -0.000000 -0.000000
vt -0.000000 3.000000
vt -0.750000 3.000000
vt -3.000000 0.000000
vt -2.250000 0.000000
vt -2.250000 0.455000
vt -2.250000 0.550000
vt -3.000000 0.550000
vt -0.750000 0.550000
vt -0.750000 0.455000
vt -0.750000 0.000000
vt -0.000000 0.000000
vt -0.000000 0.550000
vt 2.683870 0.455000
vt 2.982040 0.455000
vt 2.982040 0.550000
vt 2.683870 0.550000
vt 0.000000 0.000000
vt 3.000000 0.000000
vt 3.000000 0.750000
vt 2.701910 0.756827
vt 2.407630 0.804783
vt 2.122790 0.892946
vt 1.852870 1.019630
vt 1.603050 1.182390
vt 1.378120 1.378120
vt 1.182390 1.603050
vt 1.019630 1.852870
vt 0.892946 2.122790
vt 0.804783 2.407630
vt 0.756827 2.701910
vt 0.750000 3.000000
vt 0.000000 3.000000
vt 3.000000 0.000000
vt 3.000000 0.550000
vt 0.000000 0.550000
vt 0.000000 0.000000
vt 0.750000 0.000000
vt 0.750000 0.455000
vt 0.750000 0.550000
vt 0.000000 0.550000
vt -2.982040 0.455000
vt -2.683870 0.455000
vt -2.683870 0.550000
vt -2.982040 0.550000
vt -2.545010 0.455000
vt -2.246840 0.455000
vt -2.246840 0.550000
vt -2.545010 0.550000
vt -2.062010 0.455000
vt -1.763840 0.455000
vt -1.763840 0.550000
vt -2.062010 0.550000
vt -1.542300 0.455000
vt -1.244130 0.455000
vt -1.244130 0.550000
vt -1.542300 0.550000
vt -0.995851 0.455000
vt -0.697684 0.455000
vt -0.697684 0.550000
vt -0.995851 0.550000
vt -0.433156 0.455000
vt -0.134989 0.455000
vt -0.134989 0.550000
vt -0.433156 0.550000
vt 0.134989 0.455000
vt 0.433156 0.455000
vt 0.433156 0.550000
vt 0.134989 0.550000
vt 0.697684 0.455000
vt 0.995851 0.455000
vt 0.995851 0.550000
vt 0.697684 0.550000
vt 1.244130 0.455000
vt 1.542300 0.455000
vt 1.542300 0.550000
vt 1.244130 0.550000
vt 1.763840 0.455000
vt 2.062010 0.455000
vt 2.062010 0.550000
vt 1.763840 0.550000
vt 2.246840 0.455000
vt 2.545010 0.455000
vt 2.545010 0.550000
vt 2.246840 0.550000
vt -3.000000 0.000000
vt -3.000000 0.550000
vt 3.000000 2.250000
vt 3.000000 3.000000
vt 2.250000 3.000000
vt 2.259150 2.903140
vt 2.280370 2.808190
vt 2.313320 2.716650
vt 2.357480 2.629960
vt 2.412170 2.549490
vt 2.476510 2.476510
vt 2.549490 2.412170
vt 2.629960 2.357480
vt 2.716650 2.313320
vt 2.808190 2.280370
vt 2.903140 2.259150
vt 2.259150 2.903140
vt 2.250000 3.000000
vt 0.750000 3.000000
vt 0.756827 2.701910
vt 0.804783 2.407630
vt 0.892946 2.122790
vt 1.019630 1.852870
vt 1.182390 1.603050
vt 1.378120 1.378120
vt 1.603050 1.182390
vt 1.852870 1.019630
vt 2.122790 0.892946
vt 2.407630 0.804783
vt 2.701910 0.756827
vt 3.000000 0.750000
vt 3.000000 2.250000
vt 2.903140 2.259150
vt 2.808190 2.280370
vt 2.716650 2.313320
vt 2.629960 2.357480
vt 2.549490 2.412170
vt 2.476510 2.476510
vt 2.412170 2.549490
vt 2.357480 2.629960
vt 2.313320 2.716650
vt 2.280370 2.808190
vn -0.9956 0.0000 0.0940
vn -0.9877 0.0000 0.1564
vn -0.9603 0.0000 0.2789
vn -0.9178 0.0000 0.3971
vn -0.8608 0.0000 0.5090
vn -0.7901 0.0000 0.6129
vn -0.7071 0.0000 0.7071
vn -0.6129 0.0000 0.7901
vn -0.5090 0.0000 0.8608
vn -0.3971 0.0000 0.9178
vn -0.2789 0.0000 0.9603
vn -0.1564 0.0000 0.9877
vn -0.0940 0.0000 0.9956
vn 1.0000 0.0000 0.0000
vn 0.0000 -1.0000 -0.0000
vn -0.0000 0.0000 -1.0000
vn 0.9958 0.0000 -0.0921
vn 0.9997 0.0000 -0.0229
vn -0.0000 1.0000 0.0000
vn 0.0000 -0.0000 1.0000
vn 0.0229 0.0000 -0.9997
vn 0.0921 0.0000 -0.9958
vn 0.2288 0.0000 -0.9735
vn 0.3611 0.0000 -0.9325
vn 0.4865 0.0000 -0.8737
vn 0.6026 0.0000 -0.7980
vn 0.7071 0.0000 -0.7071
vn 0.7980 0.0000 -0.6026
vn 0.8737 0.0000 -0.4865
vn 0.9325 0.0000 -0.3611
vn 0.9735 0.0000 -0.2288
vn -1.0000 -0.0000 0.0000
usemtl Grass.091
s 1
f 2/1/1 1/2/2 27/3/2 28/4/1
f 1/5/2 26/6/3 29/7/3 27/8/2
f 26/9/3 25/10/4 30/11/4 29/12/3
f 25/13/4 24/14/5 31/15/5 30/16/4
f 24/17/5 23/18/6 32/19/6 31/20/5
f 23/21/6 22/22/7 33/23/7 32/24/6
f 22/25/7 21/26/8 34/27/8 33/28/7
f 21/29/8 20/30/9 35/31/9 34/32/8
f 20/33/9 19/34/10 36/35/10 35/36/9
f 19/37/10 18/38/11 37/39/11 36/40/10
f 18/41/11 17/42/12 38/43/12 37/44/11
f 17/45/12 16/46/13 39/47/13 38/48/12
f 39/49/14 16/50/14 40/51/14 41/52/14 42/53/14
f 44/54/15 41/55/15 40/56/15 43/57/15 45/58/15 46/59/15 47/60/15 48/61/15
f 41/62/16 44/63/16 2/64/16 28/65/16 42/66/16
f 49/67/16 3/68/16 48/69/16 47/70/16 50/71/16
f 4/72/17 3/73/18 49/74/18 51/75/17
f 52/76/19 53/77/19 54/78/19 55/79/19 56/80/19 57/81/19 58/82/19 59/83/19 60/84/19 61/85/19 62/86/19 63/87/19 64/88/19 51/89/19 49/90/19 50/91/19
f 46/59/20 45/92/20 53/93/20 52/94/20
f 45/95/14 43/96/14 15/97/14 54/98/14 53/99/14
f 15/100/21 14/101/22 55/102/22 54/103/21
f 14/104/22 13/105/23 56/106/23 55/107/22
f 13/108/23 12/109/24 57/110/24 56/111/23
f 12/112/24 11/113/25 58/114/25 57/115/24
f 11/116/25 10/117/26 59/118/26 58/119/25
f 10/120/26 9/121/27 60/122/27 59/123/26
f 9/124/27 8/125/28 61/126/28 60/127/27
f 8/128/28 7/129/29 62/130/29 61/131/28
f 7/132/29 6/133/30 63/134/30 62/135/29
f 6/136/30 5/137/31 64/138/31 63/139/30
f 5/140/31 4/141/17 51/142/17 64/143/31
f 47/144/32 46/59/32 52/94/32 50/145/32
f 39/146/19 42/147/19 28/148/19 27/149/19 29/150/19 30/151/19 31/152/19 32/153/19 33/154/19 34/155/19 35/156/19 36/157/19 37/158/19 38/159/19
usemtl Water.017
f 1/160/19 2/161/19 3/162/19 4/163/19 5/164/19 6/165/19 7/166/19 8/167/19 9/168/19 10/169/19 11/170/19 12/171/19 13/172/19 14/173/19 15/174/19 16/175/19 17/176/19 18/177/19 19/178/19 20/179/19 21/180/19 22/181/19 23/182/19 24/183/19 25/184/19 26/185/19
f 43/96/14 40/51/14 16/50/14 15/97/14
f 44/63/16 48/69/16 3/68/16 2/64/16
