# Blender v2.79 (sub 0) OBJ File: ''
# www.blender.org
mtllib roadTile_125.mtl
o Mesh1_Group1_Model.124
v 2.625000 0.000000 -2.625000
v 2.625000 0.000000 0.000000
v 0.000000 0.000000 -0.000000
v 0.000000 0.000000 -2.625000
v 2.625000 1.730000 -0.375000
v 2.625000 1.730000 0.000000
v 2.625000 0.300000 -2.625000
v 2.625000 0.300000 -0.375000
v 2.625000 0.600000 -0.375000
v 0.375000 1.730000 -2.625000
v 0.000000 1.730000 -2.625000
v 0.000000 1.730000 0.000000
v 0.375000 1.730000 -0.375000
v 0.375000 0.600000 -2.625000
v 0.375000 0.300000 -2.625000
v 0.375000 0.600000 -0.375000
v 2.625000 0.600000 -2.625000
vt 0.000000 1.730000
vt 0.000000 0.000000
vt 0.375000 0.600000
vt 2.625000 0.000000
vt 2.625000 0.375000
vt 0.375000 0.375000
vt 0.000000 0.000000
vt -0.375000 0.600000
vt -0.375000 0.300000
vt -0.000000 0.000000
vt -0.000000 1.730000
vt -2.625000 1.730000
vt -2.625000 0.000000
vt 0.375000 1.730000
vt 2.625000 0.000000
vt 0.375000 0.300000
vt 2.625000 0.300000
vt 0.375000 2.625000
vt 0.000000 2.625000
vt 0.000000 0.000000
vt -2.625000 0.300000
vt -2.625000 0.000000
vt 0.000000 1.730000
vt -0.375000 1.730000
vt 2.625000 0.000000
vt 2.625000 1.730000
vt 2.625000 1.730000
vt 0.375000 1.730000
vt 0.375000 0.600000
vt 2.625000 0.600000
vt -2.625000 1.730000
vt -2.625000 0.600000
vt -0.375000 0.600000
vt -0.375000 1.730000
vt -0.000000 2.625000
vt -2.625000 2.625000
vt -2.625000 -0.000000
vt 2.625000 0.375000
vt 2.625000 2.625000
vt 0.375000 2.625000
vt 0.375000 0.375000
vt -2.625000 0.600000
vt 2.625000 0.600000
vn 1.0000 0.0000 0.0000
vn 0.0000 1.0000 0.0000
vn -0.0000 0.0000 -1.0000
vn -1.0000 0.0000 -0.0000
vn -0.0000 -0.0000 1.0000
vn -0.0000 -1.0000 -0.0000
usemtl Stone.105
s 1
f 6/1/1 2/2/1 9/3/1
f 6/4/2 5/5/2 13/6/2
f 4/7/3 14/8/3 15/9/3
f 3/10/4 12/11/4 11/12/4 4/13/4
f 9/3/1 5/14/1 6/1/1
f 2/2/1 1/15/1 8/16/1
f 8/16/1 9/3/1 2/2/1
f 1/15/1 7/17/1 8/16/1
f 13/6/2 10/18/2 11/19/2
f 12/20/2 6/4/2 13/6/2
f 13/6/2 11/19/2 12/20/2
f 7/21/3 1/22/3 15/9/3
f 4/7/3 11/23/3 14/8/3
f 10/24/3 14/8/3 11/23/3
f 15/9/3 1/22/3 4/7/3
f 2/25/5 6/26/5 12/11/5 3/10/5
f 10/27/1 13/28/1 16/29/1 14/30/1
f 5/31/3 9/32/3 16/33/3 13/34/3
f 4/35/6 1/36/6 2/37/6 3/10/6
usemtl Asphalt.079
f 9/38/2 17/39/2 14/40/2 16/41/2
f 14/8/3 17/42/3 7/21/3 15/9/3
f 17/43/1 9/3/1 8/16/1 7/17/1
