# Blender v2.79 (sub 0) OBJ File: ''
# www.blender.org
mtllib roadTile_101.mtl
o Mesh1_Group1_Model.100
v 3.000000 0.000000 -0.000000
v 3.000000 0.000000 -3.000000
v 3.000000 0.630000 -3.000000
v 3.000000 0.630000 -2.160720
v 3.000000 0.570000 -2.160720
v 3.000000 0.570000 -1.928960
v 3.000000 0.630000 -1.928960
v 3.000000 0.630000 0.000000
v 0.000000 0.000000 0.000000
v 0.000000 0.000000 -3.000000
v 0.000000 0.630000 0.000000
v 0.000000 0.630000 -3.000000
v 2.918150 0.630000 -1.983650
v 2.420270 0.630000 -2.420270
v 1.983650 0.630000 -2.918150
v 1.928960 0.630000 -3.000000
v 2.918150 0.570000 -1.983650
v 2.160720 0.570000 -3.000000
v 1.928960 0.570000 -3.000000
v 1.983650 0.570000 -2.918150
v 2.420270 0.570000 -2.420270
v 2.552850 0.570000 -2.552850
v 2.160720 0.630000 -3.000000
v 2.552850 0.630000 -2.552850
vt 3.000000 0.000000
vt 1.928960 0.570000
vt -0.000000 0.000000
vt -1.928960 0.570000
vt -2.160720 0.570000
vt -3.000000 -0.000000
vt 3.000000 3.000000
vt 2.552850 2.552850
vt 3.000000 2.160720
vt -0.000000 -0.000000
vt -0.000000 0.630000
vt -1.928960 0.630000
vt 2.160720 0.570000
vt 3.000000 0.630000
vt 0.000000 0.630000
vt 0.000000 -0.000000
vt 3.000000 -0.000000
vt -3.000000 0.630000
vt -3.000000 0.000000
vt -3.000000 0.630000
vt -2.160720 0.630000
vt 3.000000 0.000000
vt 3.000000 1.928960
vt 2.918150 1.983650
vt 1.928960 3.000000
vt -0.000000 3.000000
vt 1.983650 2.918150
vt 2.420270 2.420270
vt 0.000000 -0.000000
vt 3.000000 0.630000
vt 2.160720 0.630000
vt -3.000000 3.000000
vt -3.000000 0.000000
vt 0.000000 3.000000
vt 2.160720 3.000000
vt 1.928960 0.630000
vt 0.000000 0.630000
vt -0.236124 0.570000
vt -0.236124 0.630000
vt -0.830859 0.630000
vt -0.830859 0.570000
vt -0.223861 0.570000
vt -0.223861 0.630000
vt -0.886067 0.630000
vt -0.886067 0.570000
vt 1.928960 3.000000
vt 1.983650 2.918150
vt 2.160720 3.000000
vt 2.420270 2.420270
vt 2.552850 2.552850
vt 3.000000 1.928960
vt 3.000000 2.160720
vt 2.918150 1.983650
vt 1.422740 0.570000
vt 1.422740 0.630000
vt 1.324290 0.630000
vt 1.324290 0.570000
vt 0.830859 0.570000
vt 0.830859 0.630000
vt 0.236124 0.630000
vt 0.236124 0.570000
vt -1.324290 0.570000
vt -1.324290 0.630000
vt -1.422740 0.630000
vt -1.422740 0.570000
vt 0.886067 0.570000
vt 0.886067 0.630000
vt 0.223861 0.630000
vt 0.223861 0.570000
vn 1.0000 0.0000 0.0000
vn -0.0000 0.0000 -1.0000
vn 0.0000 1.0000 0.0000
vn 0.0000 -0.0000 1.0000
vn -1.0000 -0.0000 0.0000
vn 0.0000 -1.0000 -0.0000
vn -0.7071 0.0000 0.7071
vn -0.7518 0.0000 0.6593
vn 0.7071 0.0000 -0.7071
vn 0.6088 0.0000 -0.7934
vn 0.8315 0.0000 -0.5556
vn 0.7934 0.0000 -0.6088
vn -0.6593 0.0000 0.7518
vn 0.5556 0.0000 -0.8315
usemtl Stone.081
s 1
f 2/1/1 6/2/1 1/3/1
f 19/4/2 18/5/2 2/6/2
f 3/7/3 24/8/3 4/9/3
f 10/10/2 12/11/2 16/12/2 19/4/2
f 2/1/1 5/13/1 6/2/1
f 8/14/4 11/15/4 9/16/4 1/17/4
f 12/18/5 10/19/5 9/16/5 11/15/5
f 3/20/2 2/6/2 18/5/2 23/21/2
f 8/22/3 7/23/3 13/24/3
f 16/25/3 12/26/3 15/27/3
f 15/27/3 12/26/3 14/28/3
f 8/22/3 13/24/3 14/28/3
f 14/28/3 12/26/3 11/29/3 8/22/3
f 2/6/2 10/10/2 19/4/2
f 3/30/1 4/31/1 5/13/1 2/1/1
f 2/32/6 1/33/6 9/16/6 10/34/6
f 3/7/3 23/35/3 24/8/3
f 6/2/1 7/36/1 8/37/1 1/3/1
usemtl Grey_Asphalt.013
f 22/38/7 24/39/7 23/40/8 18/41/8
f 21/42/9 14/43/9 13/44/10 17/45/10
f 19/46/3 20/47/3 18/48/3
f 18/48/3 20/47/3 21/49/3 22/50/3
f 6/51/3 5/52/3 17/53/3
f 5/52/3 22/50/3 21/49/3 17/53/3
f 19/54/11 16/55/11 15/56/12 20/57/12
f 5/58/13 4/59/13 24/60/7 22/61/7
f 17/62/10 13/63/10 7/64/14 6/65/14
f 20/66/12 15/67/12 14/68/9 21/69/9
