# Blender v2.79 (sub 0) OBJ File: ''
# www.blender.org
mtllib roadTile_109.mtl
o Mesh1_Group1_Model.108
v 0.000000 0.630000 -0.375000
v 0.000000 0.630000 0.000000
v 3.000000 0.630000 0.000000
v 3.000000 0.630000 -0.375000
v 0.000000 0.000000 -2.250000
v 0.000000 0.000000 0.000000
v 0.000000 0.600000 -0.375000
v 0.000000 0.300000 -0.375000
v 0.000000 0.300000 -1.875000
v 0.000000 0.600000 -1.875000
v 0.000000 0.630000 -1.875000
v 0.000000 0.630000 -2.250000
v 3.000000 0.000000 -2.250000
v 3.000000 0.000000 -0.000000
v 3.000000 0.630000 -2.250000
v 3.000000 0.630000 -1.875000
v 3.000000 0.600000 -1.875000
v 3.000000 0.300000 -1.875000
v 3.000000 0.300000 -0.375000
v 3.000000 0.600000 -0.375000
v 1.125000 0.600000 -1.687500
v 1.125000 0.600000 -1.312500
v 1.125000 0.600000 -0.375000
v 1.875000 0.600000 -0.375000
v 1.875000 0.600000 -0.562500
v 1.875000 0.600000 -1.125000
v 1.875000 0.600000 -1.687500
v 1.875000 0.600000 -1.500000
v 1.125000 0.600000 -1.500000
v 1.875000 0.600000 -1.312500
v 1.125000 0.600000 -1.125000
v 1.125000 0.600000 -0.750000
v 1.125000 0.600000 -0.937500
v 1.875000 0.600000 -0.750000
v 1.875000 0.600000 -0.937500
v 1.125000 0.600000 -0.562500
vt -2.250000 0.000000
vt 0.000000 0.000000
vt -1.875000 0.300000
vt -0.000000 0.000000
vt 2.250000 0.000000
vt 0.375000 0.300000
vt -1.125000 0.600000
vt -0.000000 0.630000
vt -3.000000 0.630000
vt 2.250000 0.630000
vt 1.875000 0.600000
vt 1.875000 0.300000
vt 3.000000 0.375000
vt 0.000000 0.375000
vt 0.000000 -0.000000
vt 3.000000 0.000000
vt -0.000000 -0.000000
vt -0.000000 0.630000
vt -3.000000 0.630000
vt -3.000000 0.000000
vt 0.000000 2.250000
vt -3.000000 2.250000
vt -3.000000 0.000000
vt -2.250000 0.630000
vt -1.875000 0.600000
vt -0.375000 0.630000
vt -0.375000 0.600000
vt 0.000000 0.630000
vt -1.875000 0.630000
vt -0.000000 0.630000
vt 0.375000 0.600000
vt -0.375000 0.300000
vt 3.000000 -0.000000
vt 3.000000 0.630000
vt 1.875000 0.630000
vt 0.375000 0.630000
vt 0.000000 1.875000
vt 3.000000 1.875000
vt 3.000000 2.250000
vt 0.000000 2.250000
vt -3.000000 0.600000
vt -1.875000 0.600000
vt -0.000000 0.600000
vt 3.000000 0.630000
vt 0.000000 0.630000
vt 0.000000 0.600000
vt 3.000000 0.600000
vt 1.125000 1.125000
vt 1.875000 1.125000
vt 1.875000 1.312500
vt 1.125000 1.312500
vt 1.125000 0.750000
vt 1.875000 0.750000
vt 1.875000 0.937500
vt 1.125000 0.937500
vt 1.125000 0.375000
vt 1.875000 0.375000
vt 1.875000 0.562500
vt 1.125000 0.562500
vt 1.125000 1.500000
vt 1.875000 1.500000
vt 1.875000 1.687500
vt 1.125000 1.687500
vt 0.000000 1.875000
vt 3.000000 1.875000
vt 0.000000 0.375000
vt 3.000000 0.375000
vn -1.0000 0.0000 0.0000
vn 1.0000 0.0000 0.0000
vn 0.0000 0.0000 -1.0000
vn 0.0000 1.0000 0.0000
vn 0.0000 -1.0000 -0.0000
vn 0.0000 -0.0000 1.0000
vn 0.0027 1.0000 0.0000
vn 0.4440 0.4441 -0.7782
vn 0.8154 0.0758 -0.5739
vn -0.5529 0.5529 0.6233
vn -0.1721 0.9851 -0.0000
vn -0.4304 0.4304 -0.7934
vn -0.0001 1.0000 0.0000
vn -0.9943 -0.1062 0.0000
vn 0.1122 0.9937 0.0000
vn -0.5000 0.5000 0.7071
usemtl Stone.089
s 1
f 5/1/1 6/2/1 9/3/1
f 14/4/2 13/5/2 19/6/2
f 23/7/3 1/8/3 4/9/3
f 15/10/2 17/11/2 18/12/2 13/5/2
f 4/13/4 1/14/4 2/15/4 3/16/4
f 5/17/3 12/18/3 15/19/3 13/20/3
f 5/21/5 13/22/5 14/23/5 6/2/5
f 12/24/1 5/1/1 9/3/1 10/25/1
f 1/26/1 7/27/1 2/28/1
f 11/29/1 12/24/1 10/25/1
f 3/30/2 14/4/2 19/6/2 20/31/2
f 6/2/1 8/32/1 9/3/1
f 14/33/6 3/34/6 2/28/6 6/2/6
f 2/28/1 7/27/1 8/32/1 6/2/1
f 16/35/2 17/11/2 15/10/2
f 4/36/2 3/30/2 20/31/2
f 13/5/2 18/12/2 19/6/2
f 11/37/4 16/38/4 15/39/4 12/40/4
f 4/9/3 20/41/3 24/42/3
f 23/7/3 7/43/3 1/8/3
f 4/9/3 24/42/3 23/7/3
f 16/44/6 11/45/6 10/46/6 17/47/6
usemtl White.002
f 31/48/7 26/49/4 30/50/8 22/51/4
f 32/52/9 34/53/10 35/54/11 33/55/12
f 23/56/13 24/57/4 25/58/4 36/59/14
f 29/60/15 28/61/16 27/62/4 21/63/4
usemtl Asphalt.063
f 10/64/4 21/63/4 17/65/4
f 22/51/4 7/66/4 23/56/13
f 20/67/4 25/58/4 24/57/4
f 17/65/4 27/62/4 26/49/4
f 17/65/4 21/63/4 27/62/4
f 28/61/16 26/49/4 27/62/4
f 28/61/16 30/50/8 26/49/4
f 22/51/4 29/60/15 21/63/4
f 32/52/9 31/48/7 22/51/4
f 31/48/7 32/52/9 33/55/12
f 34/53/10 25/58/4 35/54/11
f 32/52/9 23/56/13 36/59/14
f 22/51/4 23/56/13 32/52/9
f 35/54/11 25/58/4 26/49/4
f 31/48/7 33/55/12 35/54/11 26/49/4
f 7/66/4 22/51/4 21/63/4 10/64/4
f 17/65/4 26/49/4 25/58/4 20/67/4
f 7/27/1 10/25/1 9/3/1 8/32/1
f 17/11/2 20/31/2 19/6/2 18/12/2
f 29/60/15 22/51/4 30/50/8 28/61/16
f 32/52/9 36/59/14 25/58/4 34/53/10
