# Blender v2.79 (sub 0) OBJ File: ''
# www.blender.org
mtllib roadTile_263.mtl
o Mesh1_Group1_Model.262
v 3.000000 0.000000 -0.750000
v 3.000000 0.000000 -2.250000
v 3.000000 1.650000 -2.250000
v 3.000000 1.650000 -0.750000
v 3.000000 0.000000 -0.000000
v 0.000000 0.000000 0.000000
v 0.000000 0.000000 -3.000000
v 3.000000 0.000000 -3.000000
v 3.000000 0.000000 -2.625000
v 3.000000 0.000000 -0.375000
v 0.000000 1.650000 0.000000
v 3.000000 1.650000 0.000000
v 0.000000 1.650000 -3.000000
v 3.000000 1.650000 -0.375000
v 3.000000 1.650000 -2.625000
v 3.000000 1.650000 -3.000000
vt 0.750000 1.650000
vt 0.375000 1.650000
vt 0.375000 0.000000
vt 0.750000 0.000000
vt 2.250000 0.000000
vt 2.625000 0.000000
vt 2.625000 1.650000
vt 2.250000 1.650000
vt -3.000000 0.000000
vt -0.000000 -0.000000
vt 0.000000 3.000000
vt -3.000000 3.000000
vt -3.000000 2.625000
vt -3.000000 2.250000
vt -3.000000 0.750000
vt -3.000000 0.375000
vt 0.000000 1.650000
vt 3.000000 0.000000
vt 3.000000 1.650000
vt -3.000000 0.000000
vt -3.000000 1.650000
vt 0.000000 3.000000
vt 0.000000 -0.000000
vt 3.000000 0.000000
vt 3.000000 0.375000
vt 3.000000 0.750000
vt 3.000000 2.250000
vt 3.000000 2.625000
vt 3.000000 3.000000
vt 0.000000 0.000000
vt 0.000000 1.650000
vt 3.000000 1.650000
vt 3.000000 0.000000
vt -3.000000 1.650000
vt -3.000000 0.000000
vt -0.000000 0.000000
vt -0.000000 1.650000
vn 1.0000 0.0000 0.0000
vn 0.0000 -1.0000 -0.0000
vn 0.0000 -0.0000 1.0000
vn -1.0000 -0.0000 0.0000
vn -0.0000 1.0000 0.0000
vn 0.0000 0.0000 -1.0000
usemtl Stone.219
s 1
f 4/1/1 14/2/1 10/3/1 1/4/1
f 2/5/1 9/6/1 15/7/1 3/8/1
usemtl Grass.120
f 5/9/2 6/10/2 7/11/2 8/12/2 9/13/2 2/14/2 1/15/2 10/16/2
f 11/17/3 6/10/3 5/18/3 12/19/3
f 7/20/4 6/10/4 11/17/4 13/21/4
f 13/22/5 11/23/5 12/24/5 14/25/5 4/26/5 3/27/5 15/28/5 16/29/5
f 5/30/1 10/3/1 14/2/1 12/31/1
f 16/32/1 15/7/1 9/6/1 8/33/1
f 16/34/6 8/35/6 7/36/6 13/37/6
usemtl Water.041
f 1/4/1 2/5/1 3/8/1 4/1/1
