# Blender v2.79 (sub 0) OBJ File: ''
# www.blender.org
mtllib roadTile_281.mtl
o Mesh1_Group1_Model.280
v 3.000000 0.000000 -0.000000
v 0.000000 0.000000 0.000000
v 0.000000 0.000000 -3.000000
v 3.000000 0.000000 -3.000000
v 3.000000 0.630000 0.000000
v 0.000000 0.630000 0.000000
v 3.000000 0.300000 -3.000000
v 3.000000 0.300000 -1.703930
v 3.000000 0.600000 -1.703930
v 3.000000 0.630000 -1.703930
v 0.000000 0.630000 -3.000000
v 1.703930 0.630000 -3.000000
v 1.703930 0.600001 -3.000000
v 1.703930 0.300000 -3.000000
v 2.804000 0.630000 -1.834890
v 2.287690 0.630000 -2.287690
v 1.834890 0.630000 -2.804000
v 2.804000 0.600000 -1.834890
v 3.000000 0.600001 -3.000000
v 1.834890 0.600001 -2.804000
v 2.287690 0.600000 -2.287690
vt -3.000000 0.000000
vt -0.000000 -0.000000
vt -0.000000 3.000000
vt -3.000000 3.000000
vt 3.000000 0.000000
vt 3.000000 0.630000
vt 0.000000 0.630000
vt -0.000000 0.630000
vt -0.000000 -0.000000
vt 3.000000 -0.000000
vt 3.000000 0.300000
vt 1.703930 0.300000
vt 1.703930 0.600000
vt 1.703930 0.630000
vt -3.000000 0.300000
vt -3.000000 0.000000
vt -0.000000 0.000000
vt -0.000000 0.630000
vt -1.703930 0.630000
vt -1.703930 0.600000
vt -1.703930 0.300000
vt -3.000000 0.630000
vt -3.000000 0.000000
vt 0.000000 0.000000
vt 3.000000 0.000000
vt 3.000000 1.703930
vt 2.804000 1.834890
vt 2.287690 2.287690
vt 1.834890 2.804000
vt 1.703930 3.000000
vt 0.000000 3.000000
vt -1.312030 0.630000
vt -1.547750 0.630000
vt -1.547750 0.600000
vt -1.312030 0.600000
vt 1.547750 0.630000
vt 1.312030 0.630000
vt 1.312030 0.600000
vt 1.547750 0.600000
vt 0.898330 0.630000
vt 0.211598 0.630000
vt 0.211598 0.600000
vt 0.898330 0.600000
vt -0.211598 0.630000
vt -0.898330 0.630000
vt -0.898330 0.600000
vt -0.211598 0.600000
vt 2.804000 1.834890
vt 3.000000 1.703930
vt 3.000000 3.000000
vt 1.703930 3.000000
vt 1.834890 2.804000
vt 2.287690 2.287690
vt 3.000000 0.600000
vt -3.000000 0.600000
vn 0.0000 -1.0000 -0.0000
vn 0.0000 -0.0000 1.0000
vn 1.0000 0.0000 0.0000
vn 0.0000 0.0000 -1.0000
vn -1.0000 -0.0000 0.0000
vn -0.0000 1.0000 0.0000
vn 0.6088 0.0000 -0.7934
vn 0.5556 0.0000 -0.8315
vn 0.8315 0.0000 -0.5556
vn 0.7934 0.0000 -0.6088
vn 0.7071 0.0000 -0.7071
usemtl Stone.237
s 1
f 1/1/1 2/2/1 3/3/1 4/4/1
f 2/2/2 1/5/2 5/6/2 6/7/2
f 5/8/3 1/9/3 4/10/3 7/11/3 8/12/3 9/13/3 10/14/3
f 7/15/4 4/16/4 3/17/4 11/18/4 12/19/4 13/20/4 14/21/4
f 11/22/5 3/23/5 2/2/5 6/7/5
f 6/24/6 5/25/6 10/26/6 15/27/6 16/28/6 17/29/6 12/30/6 11/31/6
f 15/32/7 10/33/8 9/34/8 18/35/7
f 12/36/9 17/37/10 20/38/10 13/39/9
f 17/40/10 16/41/11 21/42/11 20/43/10
f 16/44/11 15/45/7 18/46/7 21/47/11
usemtl Asphalt.193
f 18/48/6 9/49/6 19/50/6 13/51/6 20/52/6 21/53/6
f 9/13/3 8/12/3 7/11/3 19/54/3
f 19/55/4 7/15/4 14/21/4 13/20/4
