# Blender v2.79 (sub 0) OBJ File: ''
# www.blender.org
mtllib roadTile_216.mtl
o Mesh1_Group1_Model.215
v 0.000000 1.650000 -2.250000
v 0.000000 1.650000 -2.625000
v 0.000000 0.000000 -2.625000
v 0.000000 0.000000 -2.250000
v 0.000000 1.555000 -2.250000
v 3.000000 0.550000 -2.250000
v 3.000000 0.550000 -2.625000
v 3.000000 0.000000 -2.250000
v 3.000000 0.000000 -2.625000
v 3.000000 0.455000 -2.250000
v 0.000000 0.000000 -3.000000
v 3.000000 0.000000 -3.000000
v 3.000000 0.000000 -0.750000
v 3.000000 0.000000 -0.375000
v 3.000000 0.000000 -0.000000
v 0.000000 0.000000 -0.000000
v 0.000000 0.000000 -0.375000
v 0.000000 0.000000 -0.750000
v 0.000000 1.650000 -3.000000
v 3.000000 0.550000 -3.000000
v 3.000000 0.455000 -0.750000
v 0.000000 1.555000 -0.750000
v 0.000000 1.650000 -0.375000
v 0.000000 1.650000 -0.750000
v 0.000000 1.650000 0.000000
v 3.000000 0.550000 0.000000
v 3.000000 0.550000 -0.375000
v 3.000000 0.550000 -0.750000
vt -2.250000 1.650000
vt -2.625000 1.650000
vt -2.625000 0.000000
vt -2.250000 0.000000
vt -2.250000 1.555000
vt 2.250000 -2.627290
vt 2.625000 -2.627290
vt 2.625000 0.568020
vt 2.250000 0.568020
vt 2.250000 0.000000
vt 2.625000 0.000000
vt 2.625000 0.550000
vt 2.250000 0.550000
vt 2.250000 0.455000
vt -0.750000 0.000000
vt -0.375000 0.000000
vt -0.375000 1.650000
vt -0.750000 1.650000
vt -0.750000 1.555000
vt 0.750000 0.550000
vt 0.375000 0.550000
vt 0.375000 0.000000
vt 0.750000 0.000000
vt 0.750000 0.455000
vt 0.750000 0.568020
vt 0.375000 0.568020
vt 0.375000 -2.627290
vt 0.750000 -2.627290
vt -0.000000 1.555000
vt -0.000000 1.650000
vt -3.000000 0.550000
vt -3.000000 0.455000
vt 3.000000 0.455000
vt 3.000000 0.550000
vt 0.000000 1.650000
vt 0.000000 1.555000
vt -0.000000 2.625000
vt 0.000000 3.000000
vt -3.000000 3.000000
vt -3.000000 2.625000
vt -3.000000 2.250000
vt -3.000000 0.750000
vt -3.000000 0.375000
vt -3.000000 0.000000
vt -0.000000 0.000000
vt -0.000000 0.375000
vt -0.000000 0.750000
vt -0.000000 2.250000
vt -3.000000 0.000000
vt -3.000000 1.650000
vt 3.000000 0.568020
vt 3.000000 -2.627290
vt 3.000000 0.550000
vt 3.000000 0.000000
vt -3.000000 -0.000000
vt -0.000000 -0.000000
vt -0.000000 1.650000
vt -3.000000 0.550000
vt 0.000000 1.650000
vt 0.000000 -2.627290
vt 0.000000 0.568020
vt 0.000000 0.000000
vt 0.000000 0.550000
vt 3.000000 -0.000000
vt 3.000000 0.550000
vt 2.250000 0.535316
vt 0.750000 0.535316
vt 0.750000 -2.659990
vt 2.250000 -2.659990
vn -1.0000 0.0000 0.0000
vn 0.3443 0.9389 -0.0000
vn 1.0000 0.0000 0.0000
vn 0.0000 0.0000 -1.0000
vn -0.0000 0.0000 1.0000
vn 0.0000 -1.0000 -0.0000
usemtl Stone.172
s 1
f 1/1/1 2/2/1 3/3/1 4/4/1 5/5/1
f 6/6/2 7/7/2 2/8/2 1/9/2
f 8/10/3 9/11/3 7/12/3 6/13/3 10/14/3
f 18/15/1 17/16/1 23/17/1 24/18/1 22/19/1
f 28/20/3 27/21/3 14/22/3 13/23/3 21/24/3
f 24/25/2 23/26/2 27/27/2 28/28/2
f 22/29/4 24/30/4 28/31/4 21/32/4
f 10/33/5 6/34/5 1/35/5 5/36/5
usemtl Grass.108
f 3/37/6 11/38/6 12/39/6 9/40/6 8/41/6 13/42/6 14/43/6 15/44/6 16/45/6 17/46/6 18/47/6 4/48/6
f 11/49/1 3/3/1 2/2/1 19/50/1
f 19/51/2 2/8/2 7/7/2 20/52/2
f 20/53/3 7/12/3 9/11/3 12/54/3
f 12/55/4 11/56/4 19/57/4 20/58/4
f 25/59/1 23/17/1 17/16/1 16/45/1
f 26/60/2 27/27/2 23/26/2 25/61/2
f 15/62/3 14/22/3 27/21/3 26/63/3
f 16/45/5 15/64/5 26/65/5 25/59/5
usemtl Water.030
f 13/23/3 8/10/3 10/14/3 21/24/3
f 5/66/2 22/67/2 21/68/2 10/69/2
f 4/4/1 18/15/1 22/19/1 5/5/1
