# Blender v2.79 (sub 0) OBJ File: ''
# www.blender.org
mtllib roadTile_128.mtl
o Mesh1_Group1_Model.127
v 2.315140 0.630000 -0.892522
v 2.437500 0.630000 -0.974279
v 2.437500 0.600000 -0.974279
v 2.315140 0.600000 -0.892522
v 2.107480 0.630000 -0.684857
v 2.025720 0.630000 -0.562500
v 1.960640 0.630000 -0.430519
v 1.913330 0.630000 -0.291171
v 1.884620 0.630000 -0.146842
v 1.875000 0.630000 0.000000
v 2.437500 0.630000 0.000000
v 2.442310 0.630000 -0.073421
v 2.456670 0.630000 -0.145586
v 2.480320 0.630000 -0.215259
v 2.512860 0.630000 -0.281250
v 2.553740 0.630000 -0.342428
v 2.602250 0.630000 -0.397748
v 2.657570 0.630000 -0.446261
v 2.718750 0.630000 -0.487139
v 2.784740 0.630000 -0.519682
v 2.854410 0.630000 -0.543333
v 2.926580 0.630000 -0.557688
v 3.000000 0.630000 -0.562500
v 3.000000 0.630000 -1.125000
v 2.853160 0.630000 -1.115380
v 2.708830 0.630000 -1.086670
v 2.569480 0.630000 -1.039360
v 2.204500 0.630000 -0.795495
v 2.107480 0.600000 -0.684857
v 2.025720 0.600000 -0.562500
v 2.204500 0.600000 -0.795495
v 3.000000 0.600000 -1.125000
v 3.000000 0.600000 -1.875000
v 0.000000 0.600000 -1.875000
v 0.000000 0.600000 -1.125000
v 1.501490 0.600000 -1.125000
v 1.376200 0.600000 -0.937500
v 1.267730 0.600000 -0.717531
v 1.188890 0.600000 -0.485286
v 1.141040 0.600000 -0.244737
v 1.125000 0.600000 0.000000
v 1.875000 0.600000 0.000000
v 1.884620 0.600000 -0.146842
v 1.913330 0.600000 -0.291171
v 1.960640 0.600000 -0.430519
v 2.569480 0.600000 -1.039360
v 2.708830 0.600000 -1.086670
v 2.853160 0.600000 -1.115380
v 3.000000 0.300000 -1.125000
v 3.000000 0.300000 -1.875000
v 3.000000 0.000000 -0.562500
v 3.000000 0.000000 -2.437500
v 3.000000 0.630000 -2.437500
v 3.000000 0.630000 -1.875000
v 2.926580 0.000000 -0.557688
v 2.854410 0.000000 -0.543333
v 2.784740 0.000000 -0.519682
v 2.718750 0.000000 -0.487139
v 2.657570 0.000000 -0.446261
v 2.602250 0.000000 -0.397748
v 2.553740 0.000000 -0.342428
v 2.512860 0.000000 -0.281250
v 2.480320 0.000000 -0.215259
v 2.456670 0.000000 -0.145586
v 2.442310 0.000000 -0.073421
v 2.437500 0.000000 0.000000
v 0.562500 0.000000 0.000000
v 0.583353 0.000000 -0.318158
v 0.631956 0.000000 -0.562500
v 0.000000 0.000000 -0.562500
v 0.000000 0.000000 -2.437500
v 0.562500 0.630000 0.000000
v 1.875000 0.300000 0.000000
v 1.125000 0.300000 0.000000
v 1.125000 0.630000 0.000000
v 0.583353 0.630000 -0.318158
v 0.000000 0.630000 -0.562500
v 0.631956 0.630000 -0.562500
v 1.141040 0.630000 -0.244737
v 1.188890 0.630000 -0.485286
v 1.215100 0.630000 -0.562500
v 1.267730 0.630000 -0.717531
v 1.376200 0.630000 -0.937500
v 1.501490 0.630000 -1.125000
v 0.000000 0.630000 -1.125000
v 0.000000 0.630000 -2.437500
v 0.000000 0.300000 -1.125000
v 0.000000 0.300000 -1.875000
v 0.000000 0.630000 -1.875000
vt 0.562500 0.000000
vt 2.437500 0.000000
vt 1.125000 0.300000
vt -2.657570 0.446261
vt -2.602250 0.397748
vt -0.631956 0.562500
vt 0.562500 0.000000
vt 2.437500 0.000000
vt 1.875000 0.300000
vt 0.631956 0.562500
vt 1.267730 0.717531
vt 1.376200 0.937500
vt -2.437500 0.000000
vt -0.562500 0.000000
vt -1.875000 0.300000
vt 0.841688 0.600000
vt 1.086950 0.600000
vt 0.923229 0.630000
vt -1.593130 0.600000
vt -1.593130 0.630000
vt -1.740290 0.630000
vt -1.740290 0.600000
vt 2.718750 0.487139
vt 2.784740 0.519682
vt 2.569480 1.039360
vt 2.437500 0.974279
vt 2.854410 0.543333
vt 2.708830 1.086670
vt -2.442310 0.073421
vt -2.437500 0.000000
vt -0.562500 0.000000
vt -0.583353 0.318158
vt 2.456670 0.145586
vt 1.913330 0.291171
vt 1.884620 0.146842
vt 2.442310 0.073421
vt 2.553740 0.342428
vt 2.602250 0.397748
vt 2.204500 0.795495
vt 2.107480 0.684857
vt 1.875000 0.000000
vt 2.437500 0.000000
vt -3.000000 2.437500
vt 0.000000 2.437500
vt 2.480320 0.215259
vt 1.960640 0.430519
vt 2.512860 0.281250
vt 2.025720 0.562500
vt -1.904460 0.600000
vt -1.904460 0.630000
vt -2.051620 0.630000
vt -2.051620 0.600000
vt -2.181940 0.600000
vt -2.181940 0.630000
vt -2.329100 0.630000
vt -2.329100 0.600000
vt 0.583353 0.318158
vt 1.141040 0.244737
vt 1.188890 0.485286
vt 3.000000 1.125000
vt 2.853160 1.115380
vt 2.926580 0.557688
vt 3.000000 0.562500
vt 2.657570 0.446261
vt 2.315140 0.892522
vt 0.562500 0.000000
vt 1.125000 0.000000
vt 3.030370 0.000000
vt 3.030370 0.630000
vt 2.956790 0.630000
vt 2.956790 -0.000000
vt 0.562500 0.630000
vt 1.125000 0.600000
vt 1.875000 0.630000
vt 1.875000 0.600000
vt 2.437500 0.630000
vt 1.125000 0.630000
vt 1.875000 0.300000
vt -2.437500 0.630000
vt -1.875000 0.600000
vt -3.000000 0.562500
vt -2.926580 0.557688
vt 0.000000 0.562500
vt -2.480320 0.215259
vt -2.456670 0.145586
vt -2.854410 0.543333
vt -2.784740 0.519682
vt -2.512860 0.281250
vt -2.553740 0.342428
vt -2.718750 0.487139
vt 2.979150 0.000000
vt 2.979150 0.630000
vt 2.905570 0.630000
vt 2.905570 0.000000
vt 2.877580 0.000000
vt 2.877580 0.630000
vt 2.804000 0.630000
vt 2.804000 0.000000
vt 2.727410 0.000000
vt 2.727410 0.630000
vt 2.653830 0.630000
vt 2.653830 0.000000
vt 2.531200 0.000000
vt 2.531200 0.630000
vt 2.457620 0.630000
vt 2.457620 0.000000
vt 2.292310 0.000000
vt 2.292310 0.630000
vt 2.218730 0.630000
vt 2.218730 0.000000
vt 2.014830 0.000000
vt 2.014830 0.630000
vt 1.941250 0.630000
vt 1.941250 0.000000
vt 1.703500 -0.000000
vt 1.703500 0.630000
vt 1.629920 0.630000
vt 1.629920 -0.000000
vt 1.363660 -0.000000
vt 1.363660 0.630000
vt 1.290080 0.630000
vt 1.290080 -0.000000
vt 1.001110 -0.000000
vt 1.001110 0.630000
vt 0.927529 0.630000
vt 0.927529 -0.000000
vt 0.622060 -0.000000
vt 0.622060 0.630000
vt 0.548482 0.630000
vt 0.548482 -0.000000
vt -0.036789 0.000000
vt -0.036789 0.630000
vt -0.355630 0.630000
vt -0.355630 0.000000
vt -2.868780 0.600000
vt -2.868780 0.630000
vt -3.015930 0.630000
vt -3.015930 0.600000
vt 1.125000 0.630000
vt 0.562500 0.630000
vt 1.125000 0.600000
vt 1.125000 0.300000
vt 1.875000 0.630000
vt 1.875000 0.600000
vt 2.437500 0.630000
vt 0.631956 0.000000
vt 0.631956 0.630000
vt 0.000000 0.630000
vt 0.000000 0.000000
vt 0.000000 1.125000
vt 0.000000 0.562500
vt 1.501490 1.125000
vt 1.215100 0.562500
vt 0.000000 0.000000
vt 0.000000 0.630000
vt -3.000000 0.630000
vt -3.000000 0.000000
vt -1.875000 0.630000
vt -1.125000 0.630000
vt -1.125000 0.600000
vt -0.562500 0.630000
vt -1.125000 0.300000
vt 0.000000 1.875000
vt 3.000000 1.875000
vt 3.000000 2.437500
vt 0.000000 2.437500
vt 3.000000 0.600000
vt 3.000000 0.630000
vt 0.000000 0.630000
vt 0.000000 0.600000
vt 0.000000 0.600000
vt 0.000000 0.630000
vt -1.501490 0.630000
vt -1.501490 0.600000
vt 1.449500 0.600000
vt 1.449500 0.630000
vt 1.204240 0.630000
vt 1.204240 0.600000
vt 0.232999 -0.000000
vt 0.232999 0.630000
vt 0.159420 0.630000
vt 0.159420 0.000000
vt 0.707902 0.600000
vt 0.707902 0.630000
vt 0.462640 0.630000
vt 0.462640 0.600000
vt 1.086950 0.630000
vt 0.841688 0.630000
vt 0.318840 0.600000
vt 0.318840 0.630000
vt 0.073578 0.630000
vt 0.073578 0.600000
vt -0.425851 0.000000
vt -0.425851 0.630000
vt -0.674980 0.630000
vt -0.674980 0.000000
vt -0.122631 0.600000
vt -0.122631 0.630000
vt -0.269788 0.630000
vt -0.269788 0.600000
vt -0.511692 0.600000
vt -0.511692 0.630000
vt -0.658849 0.630000
vt -0.658849 0.600000
vt -0.890740 0.600000
vt -0.890740 0.630000
vt -1.037900 0.630000
vt -1.037900 0.600000
vt -1.253290 0.600000
vt -1.253290 0.630000
vt -1.400440 0.630000
vt -1.400440 0.600000
vt -2.920000 0.600000
vt -2.920000 0.630000
vt -3.067160 0.630000
vt -3.067160 0.600000
vt -2.767210 0.600000
vt -2.767210 0.630000
vt -2.914370 0.630000
vt -2.914370 0.600000
vt 1.544080 0.630000
vt 1.544080 0.600000
vt 1.769580 0.600000
vt 1.769580 0.630000
vt -2.420830 0.600000
vt -2.420830 0.630000
vt -2.567990 0.630000
vt -2.567990 0.600000
vt -2.617040 0.600000
vt -2.617040 0.630000
vt -2.764200 0.630000
vt -2.764200 0.600000
vt 1.267730 0.717531
vt 1.188890 0.485286
vt 1.913330 0.291171
vt 1.960640 0.430519
vt 1.125000 0.000000
vt 1.875000 0.000000
vt 1.884620 0.146842
vt 1.141040 0.244737
vt 2.853160 1.115380
vt 3.000000 1.125000
vt 3.000000 1.875000
vt -0.000000 1.875000
vt 1.501490 1.125000
vt -0.000000 1.125000
vt 2.708830 1.086670
vt 2.569480 1.039360
vt 2.437500 0.974279
vt 2.204500 0.795495
vt 2.315140 0.892522
vt 2.107480 0.684857
vt 2.025720 0.562500
vt 1.376200 0.937500
vn 1.0000 0.0000 0.0000
vn -0.0000 -1.0000 -0.0000
vn 0.0000 -0.0000 1.0000
vn 0.0000 1.0000 0.0000
vn -1.0000 0.0000 0.0000
vn 0.9659 0.0000 0.2588
vn 0.9239 0.0000 0.3827
vn 0.9469 0.0000 0.3214
vn -0.8660 0.0000 -0.5000
vn -0.7934 0.0000 -0.6088
vn -0.7071 0.0000 -0.7071
vn -0.6088 0.0000 -0.7934
vn 0.0654 -0.0000 0.9979
vn 0.1305 -0.0000 0.9914
vn 0.2588 -0.0000 0.9659
vn 0.3827 -0.0000 0.9239
vn 0.5000 -0.0000 0.8660
vn 0.6088 -0.0000 0.7934
vn 0.7071 -0.0000 0.7071
vn 0.7934 -0.0000 0.6088
vn 0.8660 0.0000 0.5000
vn 0.9914 -0.0000 0.1305
vn -0.9979 -0.0000 -0.0654
vn -0.9914 -0.0000 -0.1305
vn -0.2588 0.0000 -0.9659
vn -0.1305 0.0000 -0.9914
vn 0.0000 0.0000 -1.0000
vn 0.9979 -0.0000 0.0654
vn -0.9808 0.0000 -0.1951
vn -0.9659 0.0000 -0.2588
vn -0.9239 0.0000 -0.3827
vn -0.0654 0.0000 -0.9979
vn -0.3827 0.0000 -0.9239
vn 0.8315 0.0000 0.5556
vn -0.5000 0.0000 -0.8660
usemtl Stone.108
s 1
f 51/1/1 52/2/1 49/3/1
f 59/4/2 60/5/2 69/6/2
f 67/7/3 66/8/3 73/9/3
f 78/10/4 82/11/4 83/12/4
f 71/13/5 70/14/5 88/15/5
f 39/16/6 38/17/7 81/18/8
f 30/19/9 6/20/9 5/21/10 29/22/10
f 19/23/4 20/24/4 27/25/4 2/26/4
f 20/24/4 21/27/4 26/28/4 27/25/4
f 65/29/2 66/30/2 67/31/2 68/32/2
f 13/33/4 8/34/4 9/35/4 12/36/4
f 16/37/4 17/38/4 28/39/4 5/40/4
f 12/36/4 9/35/4 10/41/4 11/42/4
f 52/43/2 59/4/2 69/6/2 71/44/2
f 14/45/4 7/46/4 8/34/4 13/33/4
f 7/46/4 14/45/4 15/47/4 6/48/4
f 15/47/4 16/37/4 5/40/4 6/48/4
f 29/49/10 5/50/10 28/51/11 31/52/11
f 31/53/11 28/54/11 1/55/12 4/56/12
f 76/57/4 79/58/4 80/59/4 78/10/4
f 24/60/4 25/61/4 22/62/4 23/63/4
f 18/64/4 19/23/4 2/26/4 1/65/4
f 17/38/4 18/64/4 1/65/4 28/39/4
f 79/58/4 76/57/4 72/66/4 75/67/4
f 51/68/13 23/69/13 22/70/14 55/71/14
f 23/72/1 51/1/1 49/3/1 32/73/1
f 54/74/1 33/75/1 53/76/1
f 24/77/1 23/72/1 32/73/1
f 52/2/1 50/78/1 49/3/1
f 86/79/5 71/13/5 88/15/5 34/80/5
f 52/43/2 51/81/2 55/82/2
f 69/6/2 70/83/2 71/44/2
f 63/84/2 64/85/2 69/6/2
f 52/43/2 55/82/2 56/86/2
f 52/43/2 56/86/2 57/87/2
f 62/88/2 63/84/2 69/6/2
f 61/89/2 62/88/2 69/6/2
f 52/43/2 57/87/2 58/90/2
f 52/43/2 58/90/2 59/4/2
f 60/5/2 61/89/2 69/6/2
f 55/91/14 22/92/14 21/93/15 56/94/15
f 56/95/15 21/96/15 20/97/16 57/98/16
f 57/99/16 20/100/16 19/101/17 58/102/17
f 58/103/17 19/104/17 18/105/18 59/106/18
f 59/107/18 18/108/18 17/109/19 60/110/19
f 60/111/19 17/112/19 16/113/20 61/114/20
f 61/115/20 16/116/20 15/117/21 62/118/21
f 62/119/21 15/120/21 14/121/7 63/122/7
f 63/123/7 14/124/7 13/125/6 64/126/6
f 64/127/6 13/128/6 12/129/22 65/130/22
f 67/131/23 72/132/23 76/133/24 68/134/24
f 47/135/25 26/136/25 25/137/26 48/138/26
f 75/139/3 72/140/3 41/141/3
f 72/140/3 67/7/3 74/142/3 41/141/3
f 10/143/3 42/144/3 11/145/3
f 53/76/1 33/75/1 50/78/1 52/2/1
f 73/9/3 74/142/3 67/7/3
f 69/146/3 78/147/3 77/148/3 70/149/3
f 85/150/4 77/151/4 78/10/4
f 21/27/4 22/62/4 25/61/4 26/28/4
f 84/152/4 85/150/4 83/12/4
f 78/10/4 80/59/4 81/153/4
f 83/12/4 85/150/4 78/10/4
f 78/10/4 81/153/4 82/11/4
f 71/154/27 86/155/27 53/156/27 52/157/27
f 89/158/5 86/79/5 34/80/5
f 11/145/3 42/144/3 73/9/3 66/8/3
f 85/159/5 35/160/5 77/161/5
f 77/161/5 35/160/5 87/162/5 70/14/5
f 87/162/5 88/15/5 70/14/5
f 89/163/4 54/164/4 53/165/4 86/166/4
f 33/167/3 54/168/3 89/169/3 34/170/3
f 35/171/27 85/172/27 84/173/27 36/174/27
f 37/175/21 83/176/21 82/177/7 38/178/7
f 65/179/22 12/180/22 11/181/28 66/182/28
f 39/183/6 80/184/6 79/185/22 40/186/22
f 82/187/7 81/18/8 38/17/7
f 80/188/6 39/16/6 81/18/8
f 40/189/22 79/190/22 75/191/28 41/192/28
f 68/193/24 76/194/24 78/195/29 69/196/29
f 42/197/23 10/198/23 9/199/24 43/200/24
f 43/201/24 9/202/24 8/203/30 44/204/30
f 44/205/30 8/206/30 7/207/31 45/208/31
f 45/209/31 7/210/31 6/211/9 30/212/9
f 48/213/26 25/214/26 24/215/32 32/216/32
f 46/217/33 27/218/33 26/219/25 47/220/25
f 65/29/2 68/32/2 69/6/2 64/85/2
f 83/221/21 37/222/21 36/223/34 84/224/34
f 4/225/12 1/226/12 2/227/35 3/228/35
f 3/229/35 2/230/35 27/231/33 46/232/33
usemtl Asphalt.082
f 38/233/4 39/234/4 44/235/4 45/236/4
f 41/237/4 42/238/4 43/239/4 40/240/4
f 33/75/1 32/73/1 49/3/1 50/78/1
f 48/241/4 32/242/4 33/243/4
f 33/243/4 34/244/4 36/245/4
f 34/244/4 35/246/4 36/245/4
f 47/247/4 48/241/4 33/243/4
f 46/248/4 47/247/4 33/243/4
f 33/243/4 36/245/4 3/249/4
f 36/245/4 31/250/4 4/251/4
f 3/249/4 46/248/4 33/243/4
f 4/251/4 3/249/4 36/245/4
f 36/245/4 29/252/4 31/250/4
f 45/236/4 30/253/4 37/254/4 38/233/4
f 37/254/4 30/253/4 29/252/4 36/245/4
f 44/235/4 39/234/4 40/240/4 43/239/4
f 35/160/5 34/80/5 88/15/5 87/162/5
f 42/144/3 41/141/3 74/142/3 73/9/3
