# Blender v2.79 (sub 0) OBJ File: ''
# www.blender.org
mtllib roadTile_184.mtl
o Mesh1_Group1_Model.183
v 0.000000 1.650000 0.000000
v 0.000000 1.650000 -0.375000
v 0.000000 0.000000 -0.375000
v 0.000000 0.000000 0.000000
v 3.000000 1.650000 0.000000
v 3.000000 1.650000 -0.375000
v 3.000000 0.000000 -0.000000
v 3.000000 0.000000 -0.375000
v 0.000000 0.000000 -2.625000
v 0.000000 0.000000 -3.000000
v 3.000000 0.000000 -3.000000
v 3.000000 0.000000 -2.625000
v 0.000000 1.730000 -2.625000
v 0.000000 1.650000 -2.625000
v 0.000000 1.730000 -0.375000
v 0.000000 1.730000 -0.750000
v 0.000000 0.600000 -0.750000
v 0.000000 0.300000 -0.750000
v 0.000000 0.300000 -2.250000
v 0.000000 0.600000 -2.250000
v 0.000000 1.730000 -2.250000
v 3.000000 1.730000 -2.625000
v 3.000000 1.650000 -2.625000
v 3.000000 1.730000 -2.250000
v 3.000000 0.600000 -2.250000
v 3.000000 0.300000 -2.250000
v 3.000000 0.300000 -0.750000
v 3.000000 0.600000 -0.750000
v 3.000000 1.730000 -0.750000
v 3.000000 1.730000 -0.375000
v 3.000000 1.650000 -3.000000
v 0.000000 1.650000 -3.000000
vt -2.625000 1.730000
vt -2.625000 1.650000
vt -2.625000 0.000000
vt -0.375000 0.000000
vt -0.375000 1.650000
vt -0.375000 1.730000
vt -0.750000 1.730000
vt -0.750000 0.600000
vt -0.750000 0.300000
vt -2.250000 0.300000
vt -2.250000 0.600000
vt -2.250000 1.730000
vt -0.000000 1.730000
vt -3.000000 1.730000
vt -3.000000 1.650000
vt -0.000000 1.650000
vt 3.000000 2.250000
vt 3.000000 2.625000
vt 0.000000 2.625000
vt 0.000000 2.250000
vt 0.375000 -0.000000
vt 2.625000 -0.000000
vt 2.625000 1.650000
vt 2.625000 1.730000
vt 2.250000 1.730000
vt 2.250000 0.600000
vt 2.250000 0.300000
vt 0.750000 0.300000
vt 0.750000 0.600000
vt 0.750000 1.730000
vt 0.375000 1.730000
vt 0.375000 1.650000
vt 0.000000 0.600000
vt 3.000000 0.600000
vt 3.000000 1.730000
vt 0.000000 1.730000
vt -3.000000 0.600000
vt -0.000000 0.600000
vt -0.000000 1.730000
vt -3.000000 1.730000
vt 0.000000 0.750000
vt 0.000000 0.375000
vt 3.000000 0.375000
vt 3.000000 0.750000
vt 3.000000 1.730000
vt 0.000000 1.730000
vt 0.000000 1.650000
vt 3.000000 1.650000
vt 0.000000 1.650000
vt 0.000000 0.000000
vt 3.000000 0.000000
vt 3.000000 0.375000
vt 0.000000 0.375000
vt 0.000000 0.000000
vt 0.000000 0.000000
vt 0.000000 1.650000
vt -0.000000 0.375000
vt -0.000000 2.625000
vt -0.000000 3.000000
vt -3.000000 3.000000
vt -3.000000 2.625000
vt -3.000000 0.375000
vt -3.000000 0.000000
vt 3.000000 1.650000
vt 3.000000 -0.000000
vt 0.000000 3.000000
vt 0.000000 2.625000
vt 3.000000 2.625000
vt 3.000000 3.000000
vt -3.000000 0.000000
vt -3.000000 1.650000
vt -3.000000 0.000000
vt -0.000000 0.000000
vt -0.000000 1.650000
vt -3.000000 1.650000
vt 3.000000 -0.000000
vt 3.000000 1.650000
vt 3.000000 2.250000
vt 0.000000 2.250000
vt 0.000000 0.750000
vt 3.000000 0.750000
vn -1.0000 0.0000 -0.0000
vn 0.0000 0.0000 -1.0000
vn 0.0000 1.0000 0.0000
vn 1.0000 0.0000 0.0000
vn 0.0000 -0.0000 1.0000
vn 0.0000 -1.0000 -0.0000
usemtl Stone.146
s 1
f 13/1/1 14/2/1 9/3/1 3/4/1 2/5/1 15/6/1 16/7/1 17/8/1 18/9/1 19/10/1 20/11/1 21/12/1
f 13/13/2 22/14/2 23/15/2 14/16/2
f 24/17/3 22/18/3 13/19/3 21/20/3
f 8/21/4 12/22/4 23/23/4 22/24/4 24/25/4 25/26/4 26/27/4 27/28/4 28/29/4 29/30/4 30/31/4 6/32/4
f 20/33/5 25/34/5 24/35/5 21/36/5
f 28/37/2 17/38/2 16/39/2 29/40/2
f 16/41/3 15/42/3 30/43/3 29/44/3
f 30/45/5 15/46/5 2/47/5 6/48/5
usemtl Grass.090
f 1/49/1 2/5/1 3/4/1 4/50/1
f 5/51/3 6/52/3 2/53/3 1/54/3
f 7/55/4 8/21/4 6/32/4 5/56/4
f 4/50/6 3/57/6 9/58/6 10/59/6 11/60/6 12/61/6 8/62/6 7/63/6
f 31/64/4 23/23/4 12/22/4 11/65/4
f 32/66/3 14/67/3 23/68/3 31/69/3
f 10/70/1 9/3/1 14/2/1 32/71/1
f 11/72/2 10/73/2 32/74/2 31/75/2
f 4/50/5 7/76/5 5/77/5 1/49/5
usemtl Asphalt.119
f 25/78/3 20/79/3 17/80/3 28/81/3
f 20/11/1 19/10/1 18/9/1 17/8/1
f 28/29/4 27/28/4 26/27/4 25/26/4
