# Blender v2.79 (sub 0) OBJ File: ''
# www.blender.org
mtllib roadTile_065.mtl
o Mesh1_Group1_Model.064
v 0.000000 0.630000 0.000000
v 0.000000 0.000000 0.000000
v 3.000000 0.000000 -0.000000
v 3.000000 0.300000 0.000000
v 1.703930 0.300000 0.000000
v 1.703930 0.600000 0.000000
v 1.703930 0.630000 0.000000
v 0.000000 0.000000 -3.000000
v 0.000000 0.630000 -3.000000
v 3.000000 0.000000 -3.000000
v 3.000000 0.630000 -3.000000
v 0.750000 0.630000 -3.000000
v 0.750000 0.600001 -3.000000
v 2.250000 0.600001 -3.000000
v 2.250000 0.630000 -3.000000
v 3.000000 0.630000 -0.754448
v 3.000000 0.600000 -0.754448
v 3.000000 0.300000 -0.754448
v 2.752400 0.630000 -1.125000
v 2.282080 0.630000 -2.510530
v 2.377780 0.630000 -2.029430
v 2.535450 0.630000 -1.564940
v 2.752400 0.600000 -1.125000
v 2.535450 0.600000 -1.564940
v 2.377780 0.600000 -2.029430
v 2.282080 0.600000 -2.510530
v 3.000000 0.600000 0.000000
v 0.794914 0.600000 -2.314740
v 0.928889 0.600000 -1.641200
v 1.149630 0.600000 -0.990912
v 1.453370 0.600000 -0.375000
v 0.794914 0.630000 -2.314740
v 1.453370 0.630000 -0.375000
v 1.149630 0.630000 -0.990912
v 0.928889 0.630000 -1.641200
vt -3.000000 0.000000
vt -0.750000 0.600000
vt -2.250000 0.600000
vt 3.000000 3.000000
vt 2.282080 2.510530
vt 2.377780 2.029430
vt 0.000000 -0.000000
vt 0.928889 1.641200
vt 0.000000 3.000000
vt 1.703930 0.630000
vt 0.000000 0.630000
vt 1.703930 0.600000
vt 0.000000 0.000000
vt 3.000000 0.000000
vt 1.703930 0.300000
vt 3.000000 0.300000
vt -0.000000 0.000000
vt -0.000000 0.630000
vt -0.750000 0.630000
vt -3.000000 3.000000
vt -3.000000 0.000000
vt 0.000000 3.000000
vt 1.255520 0.600000
vt 1.255520 0.630000
vt 0.568787 0.630000
vt 0.568787 0.600000
vt -3.000000 0.630000
vt -2.250000 0.630000
vt 0.754448 0.300000
vt -0.000000 0.300000
vt -0.000000 0.000000
vt 3.000000 0.000000
vt 3.000000 0.630000
vt 0.754448 0.630000
vt 0.754448 0.600000
vt 2.535450 1.564940
vt 2.752400 1.125000
vt 3.000000 0.754448
vt 2.250000 3.000000
vt 0.208376 0.600000
vt 0.208376 0.630000
vt -0.282148 0.630000
vt -0.282148 0.600000
vt -1.526550 0.600000
vt -1.526550 0.630000
vt -2.017080 0.630000
vt -2.017080 0.600000
vt -2.355900 0.600000
vt -2.355900 0.630000
vt -2.846420 0.630000
vt -2.846420 0.600000
vt 1.039410 0.600000
vt 1.039410 0.630000
vt 0.593751 0.630000
vt 0.593751 0.600000
vt 2.115180 0.600000
vt 2.115180 0.630000
vt 1.428450 0.630000
vt 1.428450 0.600000
vt -0.666892 0.600000
vt -0.666892 0.630000
vt -1.157420 0.630000
vt -1.157420 0.600000
vt 0.750000 3.000000
vt 0.794914 2.314740
vt 1.703930 0.000000
vt 1.453370 0.375000
vt 1.149630 0.990912
vt 2.944520 0.600000
vt 2.944520 0.630000
vt 2.257790 0.630000
vt 2.257790 0.600000
vt -0.495646 0.600000
vt -0.495646 0.630000
vt -0.946655 0.630000
vt -0.946655 0.600000
vt 0.380253 0.600000
vt 0.380253 0.630000
vt -0.306480 0.630000
vt -0.306480 0.600000
vt -3.000000 0.630000
vt -3.000000 0.000000
vt 3.000000 0.754448
vt 2.752400 1.125000
vt 1.453370 0.375000
vt 1.703930 0.000000
vt 2.377780 2.029430
vt 2.282080 2.510530
vt 0.794914 2.314740
vt 0.928889 1.641200
vt 3.000000 0.000000
vt 0.750000 3.000000
vt 2.250000 3.000000
vt 2.535450 1.564940
vt 1.149630 0.990912
vt -0.000000 0.600000
vt 3.000000 0.600000
vn 0.0000 0.0000 -1.0000
vn 0.0000 1.0000 0.0000
vn 0.0000 -0.0000 1.0000
vn 0.0000 -1.0000 -0.0000
vn 0.9659 0.0000 -0.2588
vn 0.9239 0.0000 -0.3827
vn 1.0000 -0.0000 0.0000
vn -0.8660 0.0000 0.5000
vn -0.9239 0.0000 0.3827
vn -0.9659 0.0000 0.2588
vn -0.9914 0.0000 0.1305
vn -0.9979 0.0000 0.0654
vn -0.8315 0.0000 0.5556
vn 0.9914 0.0000 -0.1305
vn 0.9979 0.0000 -0.0654
vn 0.8660 0.0000 -0.5000
vn 0.8315 0.0000 -0.5556
vn -1.0000 -0.0000 0.0000
usemtl Stone.045
s 1
f 10/1/1 13/2/1 14/3/1
f 11/4/2 20/5/2 21/6/2
f 1/7/2 35/8/2 9/9/2
f 7/10/3 1/11/3 6/12/3
f 2/13/3 3/14/3 5/15/3
f 3/14/3 4/16/3 5/15/3
f 8/17/1 9/18/1 12/19/1 13/2/1
f 10/20/4 3/21/4 2/13/4 8/22/4
f 29/23/5 35/24/5 34/25/6 30/26/6
f 10/1/1 8/17/1 13/2/1
f 11/27/1 10/1/1 14/3/1 15/28/1
f 18/29/7 4/30/7 3/31/7
f 3/31/7 10/32/7 18/29/7
f 11/33/7 16/34/7 17/35/7
f 2/13/3 5/15/3 6/12/3 1/11/3
f 22/36/2 19/37/2 11/4/2
f 16/38/2 11/4/2 19/37/2
f 15/39/2 20/5/2 11/4/2
f 21/6/2 22/36/2 11/4/2
f 23/40/8 19/41/8 22/42/9 24/43/9
f 25/44/10 21/45/10 20/46/11 26/47/11
f 26/48/11 20/49/11 15/50/12 14/51/12
f 17/52/13 16/53/13 19/54/8 23/55/8
f 11/33/7 17/35/7 18/29/7 10/32/7
f 28/56/14 32/57/14 35/58/5 29/59/5
f 24/60/9 22/61/9 21/62/10 25/63/10
f 12/64/2 9/9/2 32/65/2
f 1/7/2 7/66/2 33/67/2
f 1/7/2 33/67/2 34/68/2
f 32/65/2 9/9/2 35/8/2
f 1/7/2 34/68/2 35/8/2
f 13/69/15 12/70/15 32/71/14 28/72/14
f 31/73/16 33/74/16 7/75/17 6/76/17
f 30/77/6 34/78/6 33/79/16 31/80/16
f 9/81/18 8/82/18 2/13/18 1/11/18
usemtl Asphalt.034
f 17/83/2 23/84/2 31/85/2 6/86/2
f 25/87/2 26/88/2 28/89/2 29/90/2
f 27/91/2 17/83/2 6/86/2
f 13/92/2 28/89/2 26/88/2 14/93/2
f 24/94/2 25/87/2 29/90/2 30/95/2
f 23/84/2 24/94/2 30/95/2 31/85/2
f 17/35/7 27/96/7 4/30/7 18/29/7
f 27/97/3 6/12/3 5/15/3 4/16/3
