# Blender v2.79 (sub 0) OBJ File: ''
# www.blender.org
mtllib roadTile_247.mtl
o Mesh1_Group1_Model.246
v 0.000000 0.470000 0.000000
v 1.718180 0.470000 0.000000
v 3.000000 0.000000 -0.000000
v 3.000000 1.100000 0.000000
v 0.000000 1.100000 0.000000
v 0.000000 0.470000 -3.000000
v 1.718180 0.470000 -3.000000
v 0.000000 1.100001 -3.000000
v 0.000000 1.100000 -0.750000
v 0.000000 1.070000 -0.750000
v 0.000000 0.770000 -0.750000
v 0.000000 0.770000 -2.250000
v 0.000000 1.070000 -2.250000
v 0.000000 1.100000 -2.250000
v 3.000000 1.100001 -3.000000
v 3.000000 0.000000 -3.000000
v 3.000000 1.100000 -2.250000
v 3.000000 1.070000 -2.250000
v 3.000000 0.770000 -2.250000
v 3.000000 0.770000 -0.750000
v 3.000000 1.070000 -0.750000
v 3.000000 1.100000 -0.750000
vt 0.000000 0.470000
vt 1.718180 0.470000
vt 3.000000 -0.000000
vt 3.000000 1.100000
vt 0.000000 1.100000
vt -0.000000 0.000000
vt -0.000000 3.000000
vt -1.718180 3.000000
vt -1.718180 0.000000
vt -3.000000 1.100000
vt -3.000000 0.470000
vt -0.750000 1.100000
vt -0.750000 1.070000
vt -0.750000 0.770000
vt -2.250000 0.770000
vt -2.250000 1.070000
vt -2.250000 1.100000
vt -3.000000 1.100000
vt -3.000000 0.000000
vt -1.718180 0.470000
vt -0.000000 0.470000
vt -0.000000 1.100000
vt 0.000000 0.000000
vt 3.000000 0.000000
vt 3.000000 1.100000
vt 2.250000 1.100000
vt 2.250000 1.070000
vt 2.250000 0.770000
vt 0.750000 0.770000
vt 0.750000 1.070000
vt 0.750000 1.100000
vt 0.000000 1.100000
vt -0.000000 -2.816630
vt -0.000000 -1.451360
vt -3.000000 -1.451360
vt -3.000000 -2.816630
vt 3.000000 2.250000
vt 3.000000 3.000000
vt 0.000000 3.000000
vt 0.000000 2.250000
vt 0.000000 1.070000
vt 3.000000 1.070000
vt 3.000000 1.100000
vt 0.000000 1.100000
vt -3.000000 1.070000
vt -0.000000 1.070000
vt -0.000000 1.100000
vt -3.000000 1.100000
vt 0.000000 0.750000
vt 0.000000 0.000000
vt 3.000000 0.000000
vt 3.000000 0.750000
vt 3.000000 2.250000
vt 0.000000 2.250000
vt 0.000000 0.750000
vt 3.000000 0.750000
vn 0.0000 -0.0000 1.0000
vn 0.0000 -1.0000 -0.0000
vn -1.0000 0.0000 -0.0000
vn -0.0000 0.0000 -1.0000
vn 1.0000 0.0000 0.0000
vn -0.3443 -0.9389 -0.0000
vn 0.0000 1.0000 0.0000
usemtl Stone.203
s 1
f 1/1/1 2/2/1 3/3/1 4/4/1 5/5/1
f 1/6/2 6/7/2 7/8/2 2/9/2
f 8/10/3 6/11/3 1/1/3 5/5/3 9/12/3 10/13/3 11/14/3 12/15/3 13/16/3 14/17/3
f 15/18/4 16/19/4 7/20/4 6/21/4 8/22/4
f 3/23/5 16/24/5 15/25/5 17/26/5 18/27/5 19/28/5 20/29/5 21/30/5 22/31/5 4/32/5
f 3/33/6 2/34/6 7/35/6 16/36/6
f 17/37/7 15/38/7 8/39/7 14/40/7
f 13/41/1 18/42/1 17/43/1 14/44/1
f 21/45/4 10/46/4 9/47/4 22/48/4
f 9/49/7 5/50/7 4/51/7 22/52/7
usemtl Asphalt.167
f 18/53/7 13/54/7 10/55/7 21/56/7
f 13/16/3 12/15/3 11/14/3 10/13/3
f 21/30/5 20/29/5 19/28/5 18/27/5
