# Blender v2.79 (sub 0) OBJ File: ''
# www.blender.org
mtllib roadTile_093.mtl
o Mesh1_Group1_Model.092
v 1.141040 0.630000 -2.755260
v 1.125000 0.630000 -3.000000
v 1.125000 0.570000 -3.000000
v 1.141040 0.570000 -2.755260
v 1.875000 0.630000 -3.000000
v 1.188890 0.630000 -2.514710
v 1.267730 0.630000 -2.282470
v 1.376200 0.630000 -2.062500
v 2.382460 0.630000 -2.062500
v 2.315140 0.630000 -2.107480
v 2.204500 0.630000 -2.204500
v 2.107480 0.630000 -2.315140
v 2.025720 0.630000 -2.437500
v 1.960640 0.630000 -2.569480
v 1.913330 0.630000 -2.708830
v 1.884620 0.630000 -2.853160
v 3.000000 0.630000 -3.000000
v 3.000000 0.000000 -3.000000
v 0.000000 0.000000 -3.000000
v 0.000000 0.630000 -3.000000
v 0.937500 0.630000 -3.000000
v 0.937500 0.570000 -3.000000
v 1.875000 0.570000 -3.000000
v 2.062500 0.570000 -3.000000
v 2.062500 0.630000 -3.000000
v 3.000000 0.000000 0.000000
v 3.000000 0.630000 -2.062500
v 3.000000 0.570000 -2.062500
v 3.000000 0.570000 -1.875000
v 3.000000 0.630000 -1.875000
v 3.000000 0.630000 -1.125000
v 3.000000 0.570000 -1.125000
v 3.000000 0.570000 -0.937500
v 3.000000 0.630000 -0.937500
v 3.000000 0.630000 0.000000
v 0.000000 0.000000 0.000000
v 0.000000 0.630000 0.000000
v 0.000000 0.630000 -0.937500
v 0.000000 0.570000 -0.937500
v 0.000000 0.570000 -1.125000
v 0.000000 0.630000 -1.125000
v 0.000000 0.630000 -1.875000
v 0.000000 0.570000 -1.875000
v 0.000000 0.570000 -2.062500
v 0.000000 0.630000 -2.062500
v 1.501490 0.570000 -1.875000
v 2.877630 0.570000 -2.070520
v 2.757360 0.570000 -2.094440
v 2.641230 0.570000 -2.133860
v 2.531250 0.570000 -2.188100
v 2.429290 0.570000 -2.256230
v 2.337090 0.570000 -2.337090
v 2.256230 0.570000 -2.429290
v 2.188100 0.570000 -2.531250
v 2.133860 0.570000 -2.641230
v 2.094440 0.570000 -2.757360
v 2.070520 0.570000 -2.877630
v 1.884620 0.570000 -2.853160
v 1.913330 0.570000 -2.708830
v 1.960640 0.570000 -2.569480
v 2.025720 0.570000 -2.437500
v 2.107480 0.570000 -2.315140
v 2.204500 0.570000 -2.204500
v 2.315140 0.570000 -2.107480
v 2.382460 0.570000 -2.062500
v 1.376200 0.570000 -2.062500
v 1.267730 0.570000 -2.282470
v 1.188890 0.570000 -2.514710
v 0.955145 0.570000 -2.730790
v 1.007780 0.570000 -2.466190
v 1.094500 0.570000 -2.210720
v 1.167590 0.570000 -2.062500
v 1.276460 0.570000 -1.875000
v 1.363710 0.570000 -1.744430
v 1.541590 0.570000 -1.541590
v 1.744430 0.570000 -1.363710
v 1.968750 0.570000 -1.213820
v 2.148860 0.570000 -1.125000
v 2.755260 0.570000 -1.141040
v 2.514710 0.570000 -1.188890
v 2.282470 0.570000 -1.267730
v 2.062500 0.570000 -1.376200
v 1.858570 0.570000 -1.512460
v 1.674170 0.570000 -1.674170
v 1.512460 0.570000 -1.858570
v 1.501490 0.630000 -1.875000
v 1.512460 0.630000 -1.858570
v 1.674170 0.630000 -1.674170
v 1.858570 0.630000 -1.512460
v 2.062500 0.630000 -1.376200
v 2.282470 0.630000 -1.267730
v 2.514710 0.630000 -1.188890
v 2.755260 0.630000 -1.141040
v 2.877630 0.630000 -2.070520
v 2.070520 0.630000 -2.877630
v 2.094440 0.630000 -2.757360
v 2.133860 0.630000 -2.641230
v 2.188100 0.630000 -2.531250
v 2.256230 0.630000 -2.429290
v 2.337090 0.630000 -2.337090
v 2.429290 0.630000 -2.256230
v 2.531250 0.630000 -2.188100
v 2.641230 0.630000 -2.133860
v 2.757360 0.630000 -2.094440
v 0.955145 0.630000 -2.730790
v 1.167590 0.630000 -2.062500
v 1.094500 0.630000 -2.210720
v 1.007780 0.630000 -2.466190
v 1.276460 0.630000 -1.875000
v 2.148860 0.630000 -1.125000
v 1.968750 0.630000 -1.213820
v 1.744430 0.630000 -1.363710
v 1.541590 0.630000 -1.541590
v 1.363710 0.630000 -1.744430
vt 1.376200 2.062500
vt 2.107480 2.315140
vt 2.025720 2.437500
vt -3.000000 0.000000
vt -1.875000 0.570000
vt -2.062500 0.570000
vt 3.000000 0.000000
vt 1.875000 0.570000
vt 1.125000 0.570000
vt 0.000000 0.000000
vt -1.125000 0.570000
vt -1.875000 0.570000
vt 2.282470 1.267730
vt 2.514710 1.188890
vt 3.000000 1.875000
vt 2.256230 2.429290
vt 2.337090 2.337090
vt 3.000000 3.000000
vt 1.007780 2.466190
vt 0.955145 2.730790
vt -0.000000 2.062500
vt 1.744430 1.363710
vt 1.541590 1.541590
vt 0.000000 1.125000
vt -1.875000 0.630000
vt -1.125000 0.570000
vt -1.125000 0.630000
vt 2.382460 2.062500
vt 2.315140 2.107480
vt 2.204500 2.204500
vt 1.960640 2.569480
vt 1.267730 2.282470
vt 1.125000 3.000000
vt 1.141040 2.755260
vt 1.884620 2.853160
vt 1.875000 3.000000
vt 0.000000 0.630000
vt -0.937500 0.630000
vt -0.937500 0.570000
vt -0.000000 0.000000
vt -3.000000 0.630000
vt -2.062500 0.630000
vt -0.937500 0.570000
vt 1.363710 1.744430
vt 1.276460 1.875000
vt 0.000000 1.875000
vt 0.937500 0.570000
vt 0.937500 0.630000
vt -0.000000 0.630000
vt -0.000000 0.000000
vt -3.000000 3.000000
vt -3.000000 -0.000000
vt -0.000000 3.000000
vt 2.062500 0.570000
vt 3.000000 0.630000
vt 3.000000 0.000000
vt -1.125000 0.630000
vt -1.875000 0.630000
vt 3.000000 0.630000
vt 2.062500 0.630000
vt -2.062500 0.570000
vt -2.062500 0.630000
vt -3.000000 0.630000
vt -3.000000 0.000000
vt 0.000000 0.000000
vt 3.000000 0.000000
vt 3.000000 0.937500
vt 0.000000 0.937500
vt 1.913330 2.708830
vt 1.188890 2.514710
vt -0.000000 0.630000
vt -0.937500 0.630000
vt 3.000000 1.125000
vt 2.755260 1.141040
vt 1.501490 1.875000
vt 1.512460 1.858570
vt 1.674170 1.674170
vt 1.858570 1.512460
vt 2.062500 1.376200
vt 3.000000 2.062500
vt 2.877630 2.070520
vt 2.062500 3.000000
vt 2.070520 2.877630
vt 2.094440 2.757360
vt 2.133860 2.641230
vt 2.188100 2.531250
vt 2.429290 2.256230
vt 2.531250 2.188100
vt 2.641230 2.133860
vt 2.757360 2.094440
vt 1.167590 2.062500
vt 1.094500 2.210720
vt 0.937500 3.000000
vt 0.000000 3.000000
vt 2.148860 1.125000
vt 1.968750 1.213820
vt 1.875000 0.630000
vt 1.125000 0.630000
vt 2.757360 2.094440
vt 2.382460 2.062500
vt 3.000000 1.875000
vt 1.094500 2.210720
vt 1.267730 2.282470
vt 1.188890 2.514710
vt 1.007780 2.466190
vt 2.133860 2.641230
vt 2.094440 2.757360
vt 1.913330 2.708830
vt 1.960640 2.569480
vt 2.479720 0.570000
vt 2.479720 0.630000
vt 2.234450 0.630000
vt 2.234450 0.570000
vt -1.501490 0.570000
vt -1.501490 0.630000
vt -3.000000 0.630000
vt -3.000000 0.570000
vt 1.501490 1.875000
vt 3.000000 2.062500
vt 2.877630 2.070520
vt 3.000000 0.937500
vt 3.000000 1.125000
vt 2.755260 1.141040
vt 0.000000 1.125000
vt 0.000000 0.937500
vt 2.148860 1.125000
vt 2.514710 1.188890
vt 1.167590 2.062500
vt 1.376200 2.062500
vt 2.062500 1.376200
vt 1.858570 1.512460
vt 1.744430 1.363710
vt 1.968750 1.213820
vt 1.276460 1.875000
vt 2.282470 1.267730
vt 1.674170 1.674170
vt 1.512460 1.858570
vt 1.363710 1.744430
vt 1.541590 1.541590
vt 0.000000 1.875000
vt 0.000000 2.062500
vt 1.875000 3.000000
vt 1.884620 2.853160
vt 2.070520 2.877630
vt 2.062500 3.000000
vt 1.141040 2.755260
vt 1.125000 3.000000
vt 0.937500 3.000000
vt 0.955145 2.730790
vt 2.025720 2.437500
vt 2.188100 2.531250
vt 2.531250 2.188100
vt 2.429290 2.256230
vt 2.315140 2.107480
vt 2.107480 2.315140
vt 2.256230 2.429290
vt 2.337090 2.337090
vt 2.204500 2.204500
vt 2.641230 2.133860
vt -0.705067 0.570000
vt -0.705067 0.630000
vt -0.724825 0.630000
vt -0.724825 0.570000
vt -0.154851 0.570000
vt -0.154851 0.630000
vt -0.400113 0.630000
vt -0.400113 0.570000
vt 0.400113 0.570000
vt 0.400113 0.630000
vt 0.154851 0.630000
vt 0.154851 0.570000
vt 0.950329 0.570000
vt 0.950329 0.630000
vt 0.705067 0.630000
vt 0.705067 0.570000
vt 1.486380 0.570000
vt 1.486380 0.630000
vt 1.241120 0.630000
vt 1.241120 0.570000
vt 1.999100 0.570000
vt 1.999100 0.630000
vt 1.753840 0.630000
vt 1.753840 0.570000
vt 2.920000 0.570000
vt 2.920000 0.630000
vt 2.674740 0.630000
vt 2.674740 0.570000
vt 2.011370 0.570000
vt 2.011370 0.630000
vt 1.741580 0.630000
vt 1.741580 0.570000
vt -2.736050 0.570000
vt -2.736050 0.630000
vt -2.858680 0.630000
vt -2.858680 0.570000
vt -2.295770 0.570000
vt -2.295770 0.630000
vt -2.418400 0.630000
vt -2.418400 0.570000
vt -1.815160 0.570000
vt -1.815160 0.630000
vt -1.937790 0.630000
vt -1.937790 0.570000
vt -1.302440 0.570000
vt -1.302440 0.630000
vt -1.425070 0.630000
vt -1.425070 0.570000
vt -0.766383 0.570000
vt -0.766383 0.630000
vt -0.889014 0.630000
vt -0.889014 0.570000
vt -0.216167 0.570000
vt -0.216167 0.630000
vt -0.338797 0.630000
vt -0.338797 0.570000
vt 0.338797 0.570000
vt 0.338797 0.630000
vt 0.216167 0.630000
vt 0.216167 0.570000
vt 0.889014 0.570000
vt 0.889014 0.630000
vt 0.766383 0.630000
vt 0.766383 0.570000
vt 1.425070 0.570000
vt 1.425070 0.630000
vt 1.302440 0.630000
vt 1.302440 0.570000
vt 2.418400 0.570000
vt 2.418400 0.630000
vt 2.295770 0.630000
vt 2.295770 0.570000
vt 2.858680 0.570000
vt 2.858680 0.630000
vt 2.736050 0.630000
vt 2.736050 0.570000
vt 2.870950 0.570000
vt 2.870950 0.630000
vt 2.723790 0.630000
vt 2.723790 0.570000
vt 1.950050 0.570000
vt 1.950050 0.630000
vt 1.802890 0.630000
vt 1.802890 0.570000
vt 1.437330 0.570000
vt 1.437330 0.630000
vt 1.290170 0.630000
vt 1.290170 0.570000
vt 0.901277 0.570000
vt 0.901277 0.630000
vt 0.754120 0.630000
vt 0.754120 0.570000
vt 0.351060 0.570000
vt 0.351060 0.630000
vt 0.203903 0.630000
vt 0.203903 0.570000
vt -0.203903 0.570000
vt -0.203903 0.630000
vt -0.351060 0.630000
vt -0.351060 0.570000
vt -0.754120 0.570000
vt -0.754120 0.630000
vt -0.835077 0.630000
vt -0.835077 0.570000
vt 2.382460 0.570000
vt 2.382460 0.630000
vt 1.376200 0.630000
vt 1.376200 0.570000
vt 2.430660 0.570000
vt 2.430660 0.630000
vt 2.283510 0.630000
vt 2.283510 0.570000
vt 2.932260 0.570000
vt 2.932260 0.630000
vt 2.662470 0.630000
vt 2.662470 0.570000
vt 1.167590 0.570000
vt 1.167590 0.630000
vt -0.000000 0.630000
vt -0.000000 0.570000
vt 1.498650 0.570000
vt 1.498650 0.630000
vt 1.333390 0.630000
vt 1.333390 0.570000
vt 2.491980 0.570000
vt 2.491980 0.630000
vt 2.222190 0.630000
vt 2.222190 0.570000
vt 1.937790 0.570000
vt 1.937790 0.630000
vt 1.815160 0.630000
vt 1.815160 0.570000
vt -0.000000 0.570000
vt -0.000000 0.630000
vt -1.276460 0.630000
vt -1.276460 0.570000
vt 2.148860 0.570000
vt 2.148860 0.630000
vt 0.000000 0.630000
vt 0.000000 0.570000
vt -1.228860 0.570000
vt -1.228860 0.630000
vt -1.429680 0.630000
vt -1.429680 0.570000
vt -0.692804 0.570000
vt -0.692804 0.630000
vt -0.962592 0.630000
vt -0.962592 0.570000
vt -0.142588 0.570000
vt -0.142588 0.630000
vt -0.412376 0.630000
vt -0.412376 0.570000
vt 0.412376 0.570000
vt 0.412376 0.630000
vt 0.142588 0.630000
vt 0.142588 0.570000
vt 0.849840 0.570000
vt 0.849840 0.630000
vt 0.692804 0.630000
vt 0.692804 0.570000
vt -0.000000 0.570000
vt -0.000000 0.630000
vt -3.000000 0.630000
vt -3.000000 0.570000
vt -1.753840 0.570000
vt -1.753840 0.630000
vt -1.999100 0.630000
vt -1.999100 0.570000
vt -2.234450 0.570000
vt -2.234450 0.630000
vt -2.479720 0.630000
vt -2.479720 0.570000
vt -1.241120 0.570000
vt -1.241120 0.630000
vt -1.486380 0.630000
vt -1.486380 0.570000
vt -2.674740 0.570000
vt -2.674740 0.630000
vt -2.920000 0.630000
vt -2.920000 0.570000
vn -0.0000 1.0000 0.0000
vn 0.0000 0.0000 -1.0000
vn 1.0000 0.0000 0.0000
vn -1.0000 -0.0000 0.0000
vn 0.0000 -1.0000 -0.0000
vn 0.0000 -0.0000 1.0000
vn -0.1305 0.0000 0.9914
vn -0.2588 0.0000 0.9659
vn -0.7935 0.0000 0.6086
vn -0.8317 0.0000 0.5553
vn -0.7071 0.0000 0.7071
vn -0.6088 0.0000 0.7934
vn -0.5000 0.0000 0.8660
vn -0.3827 0.0000 0.9239
vn -0.0654 0.0000 0.9979
vn 0.9659 0.0000 -0.2588
vn 0.9239 0.0000 -0.3827
vn -0.9914 0.0000 0.1305
vn -0.9979 0.0000 0.0654
vn -0.9659 0.0000 0.2588
vn -0.9239 0.0000 0.3827
vn -0.8660 0.0000 0.5000
vn -0.7933 0.0000 0.6088
vn -0.6088 0.0000 0.7933
vn 0.9979 0.0000 -0.0654
vn 0.9914 0.0000 -0.1305
vn 0.8660 0.0000 -0.5000
vn 0.7934 0.0000 -0.6087
vn 0.7071 0.0000 -0.7071
vn 0.6087 0.0000 -0.7934
vn 0.5556 0.0000 -0.8315
vn 0.8969 0.0000 -0.4423
vn 0.5000 0.0000 -0.8660
vn 0.4423 0.0000 -0.8969
vn 0.6088 0.0000 -0.7934
vn 0.7933 0.0000 -0.6088
vn 0.8315 0.0000 -0.5556
vn -0.8969 0.0000 0.4423
usemtl Stone.073
s 1
f 8/1/1 12/2/1 13/3/1
f 18/4/2 23/5/2 24/6/2
f 18/7/3 29/8/3 32/9/3
f 36/10/4 40/11/4 43/12/4
f 91/13/1 92/14/1 30/15/1
f 99/16/1 100/17/1 17/18/1
f 108/19/1 105/20/1 45/21/1
f 112/22/1 113/23/1 41/24/1
f 5/25/2 23/5/2 3/26/2 2/27/2
f 8/1/1 9/28/1 10/29/1
f 8/1/1 10/29/1 11/30/1
f 13/3/1 14/31/1 7/32/1 8/1/1
f 2/33/1 1/34/1 16/35/1 5/36/1
f 8/1/1 11/30/1 12/2/1
f 37/37/4 38/38/4 39/39/4 36/10/4
f 18/4/2 19/40/2 3/26/2
f 17/41/2 18/4/2 24/6/2 25/42/2
f 19/40/2 22/43/2 3/26/2
f 18/4/2 3/26/2 23/5/2
f 114/44/1 109/45/1 42/46/1 41/24/1
f 33/47/3 34/48/3 35/49/3 26/50/3
f 18/51/5 26/52/5 36/10/5 19/53/5
f 33/47/3 26/50/3 32/9/3
f 32/9/3 26/50/3 18/7/3
f 18/7/3 28/54/3 29/8/3
f 35/55/6 37/37/6 36/10/6 26/56/6
f 40/11/4 41/57/4 42/58/4 43/12/4
f 17/59/3 27/60/3 28/54/3 18/7/3
f 44/61/4 45/62/4 20/63/4 19/64/4
f 37/65/1 35/66/1 34/67/1 38/68/1
f 44/61/4 19/64/4 43/12/4
f 43/12/4 19/64/4 36/10/4
f 36/10/4 39/39/4 40/11/4
f 15/69/1 16/35/1 1/34/1 6/70/1
f 19/40/2 20/71/2 21/72/2 22/43/2
f 14/31/1 15/69/1 6/70/1 7/32/1
f 31/73/1 30/15/1 93/74/1
f 86/75/1 87/76/1 30/15/1
f 88/77/1 89/78/1 30/15/1
f 90/79/1 91/13/1 30/15/1
f 92/14/1 93/74/1 30/15/1
f 30/15/1 87/76/1 88/77/1
f 89/78/1 90/79/1 30/15/1
f 27/80/1 17/18/1 94/81/1
f 25/82/1 95/83/1 17/18/1
f 96/84/1 97/85/1 17/18/1
f 98/86/1 99/16/1 17/18/1
f 100/17/1 101/87/1 17/18/1
f 102/88/1 103/89/1 17/18/1
f 104/90/1 94/81/1 17/18/1
f 17/18/1 95/83/1 96/84/1
f 97/85/1 98/86/1 17/18/1
f 101/87/1 102/88/1 17/18/1
f 104/90/1 17/18/1 103/89/1
f 45/21/1 106/91/1 107/92/1
f 45/21/1 107/92/1 108/19/1
f 105/20/1 21/93/1 20/94/1 45/21/1
f 41/24/1 110/95/1 111/96/1
f 113/23/1 114/44/1 41/24/1
f 41/24/1 111/96/1 112/22/1
f 29/8/3 30/97/3 31/98/3 32/9/3
usemtl Grey_Asphalt.005
f 48/99/1 65/100/1 29/101/1
f 71/102/1 67/103/1 68/104/1 70/105/1
f 55/106/1 56/107/1 59/108/1 60/109/1
f 79/110/7 93/111/7 92/112/8 80/113/8
f 46/114/2 86/115/2 30/116/2 29/117/2
f 46/118/1 29/101/1 65/100/1
f 29/101/1 28/119/1 47/120/1
f 29/101/1 47/120/1 48/99/1
f 33/121/1 32/122/1 79/123/1
f 40/124/1 39/125/1 78/126/1
f 78/126/1 39/125/1 33/121/1
f 33/121/1 79/123/1 80/127/1
f 33/121/1 80/127/1 78/126/1
f 72/128/1 66/129/1 67/103/1 71/102/1
f 82/130/1 83/131/1 76/132/1 77/133/1
f 66/129/1 72/128/1 73/134/1 46/118/1
f 78/126/1 80/127/1 81/135/1
f 84/136/1 85/137/1 74/138/1 75/139/1
f 43/140/1 73/134/1 72/128/1 44/141/1
f 23/142/1 58/143/1 57/144/1 24/145/1
f 56/107/1 57/144/1 58/143/1 59/108/1
f 4/146/1 3/147/1 22/148/1 69/149/1
f 61/150/1 54/151/1 55/106/1 60/109/1
f 50/152/1 51/153/1 64/154/1 65/100/1
f 70/105/1 68/104/1 4/146/1 69/149/1
f 62/155/1 53/156/1 54/151/1 61/150/1
f 76/132/1 83/131/1 84/136/1 75/139/1
f 64/154/1 51/153/1 52/157/1 63/158/1
f 78/126/1 81/135/1 82/130/1 77/133/1
f 49/159/1 50/152/1 65/100/1
f 48/99/1 49/159/1 65/100/1
f 65/100/1 66/129/1 46/118/1
f 85/160/9 87/161/9 86/162/10 46/163/10
f 84/164/11 88/165/11 87/166/9 85/167/9
f 83/168/12 89/169/12 88/170/11 84/171/11
f 82/172/13 90/173/13 89/174/12 83/175/12
f 81/176/14 91/177/14 90/178/13 82/179/13
f 80/180/8 92/181/8 91/182/14 81/183/14
f 32/184/15 31/185/15 93/186/7 79/187/7
f 70/188/16 108/189/16 107/190/17 71/191/17
f 57/192/18 95/193/18 25/194/19 24/195/19
f 56/196/20 96/197/20 95/198/18 57/199/18
f 55/200/21 97/201/21 96/202/20 56/203/20
f 54/204/22 98/205/22 97/206/21 55/207/21
f 53/208/23 99/209/23 98/210/22 54/211/22
f 52/212/11 100/213/11 99/214/23 53/215/23
f 51/216/24 101/217/24 100/218/11 52/219/11
f 50/220/13 102/221/13 101/222/24 51/223/24
f 49/224/14 103/225/14 102/226/13 50/227/13
f 47/228/7 94/229/7 104/230/8 48/231/8
f 28/232/15 27/233/15 94/234/7 47/235/7
f 23/236/25 5/237/25 16/238/26 58/239/26
f 59/240/16 15/241/16 14/242/17 60/243/17
f 62/155/1 63/158/1 52/157/1 53/156/1
f 60/244/17 14/245/17 13/246/27 61/247/27
f 61/248/27 13/249/27 12/250/28 62/251/28
f 62/252/28 12/253/28 11/254/29 63/255/29
f 63/256/29 11/257/29 10/258/30 64/259/30
f 64/260/30 10/261/30 9/262/31 65/263/31
f 65/264/6 9/265/6 8/266/6 66/267/6
f 58/268/26 16/269/26 15/270/16 59/271/16
f 22/272/25 21/273/25 105/274/26 69/275/26
f 72/276/6 106/277/6 45/278/6 44/279/6
f 74/138/1 85/137/1 46/118/1 73/134/1
f 71/280/17 107/281/17 106/282/32 72/283/32
f 69/284/26 105/285/26 108/286/16 70/287/16
f 48/288/8 104/289/8 103/290/14 49/291/14
f 43/292/2 42/293/2 109/294/2 73/295/2
f 78/296/6 110/297/6 41/298/6 40/299/6
f 77/300/33 111/301/33 110/302/34 78/303/34
f 76/304/35 112/305/35 111/306/33 77/307/33
f 75/308/29 113/309/29 112/310/35 76/311/35
f 74/312/36 114/313/36 113/314/29 75/315/29
f 73/316/37 109/317/37 114/318/36 74/319/36
usemtl Light_Asphalt
f 39/320/2 38/321/2 34/322/2 33/323/2
f 67/324/21 7/325/21 6/326/20 68/327/20
f 68/328/20 6/329/20 1/330/18 4/331/18
f 66/332/38 8/333/38 7/334/21 67/335/21
f 4/336/18 1/337/18 2/338/19 3/339/19
