# Blender v2.79 (sub 0) OBJ File: ''
# www.blender.org
mtllib roadTile_284.mtl
o Mesh1_Group1_Model.283
v 1.143840 0.550000 -1.143840
v 1.402000 0.550000 -0.917448
v 1.402000 0.630000 -0.917448
v 1.143840 0.630000 -1.143840
v 3.000000 0.550000 0.000000
v 3.000000 0.550000 -0.375000
v 2.657370 0.550000 -0.397457
v 2.320600 0.550000 -0.464445
v 1.995460 0.550000 -0.574816
v 1.687500 0.550000 -0.726683
v 0.917447 0.550000 -1.402000
v 0.726683 0.550000 -1.687500
v 0.574816 0.550000 -1.995460
v 0.464445 0.550000 -2.320600
v 0.397457 0.550000 -2.657370
v 0.375000 0.550000 -3.000000
v 0.000000 0.550000 -3.000000
v 0.000000 0.550000 0.000000
v 3.000000 0.000000 0.000000
v 3.000000 0.000000 -0.375000
v 0.000000 0.000000 -0.000000
v 0.000000 0.000000 -3.000000
v 0.375000 0.000000 -3.000000
v 0.750000 0.000000 -3.000000
v 1.875000 0.000000 -3.000000
v 3.000000 0.000000 -3.000000
v 3.000000 0.000000 -1.875000
v 3.000000 0.000000 -0.750000
v 0.375000 0.630000 -3.000000
v 0.750000 0.630000 -3.000000
v 0.750000 0.455000 -3.000000
v 0.397457 0.630000 -2.657370
v 0.464445 0.630000 -2.320600
v 0.574816 0.630000 -1.995460
v 0.726683 0.630000 -1.687500
v 0.917447 0.630000 -1.402000
v 1.687500 0.630000 -0.726683
v 1.995460 0.630000 -0.574816
v 2.320600 0.630000 -0.464445
v 2.657370 0.630000 -0.397457
v 3.000000 0.630000 -0.375000
v 3.000000 0.630000 -0.750000
v 2.706320 0.630000 -0.769249
v 2.417660 0.630000 -0.826667
v 2.138960 0.630000 -0.921271
v 1.875000 0.630000 -1.051440
v 1.630290 0.630000 -1.214950
v 1.409010 0.630000 -1.409010
v 1.214950 0.630000 -1.630290
v 1.051440 0.630000 -1.875000
v 0.921271 0.630000 -2.138960
v 0.826667 0.630000 -2.417660
v 0.769249 0.630000 -2.706320
v 3.000000 0.455000 -0.750000
v 3.000000 0.455000 -1.875000
v 3.000000 0.455000 -3.000000
v 1.875000 0.455000 -3.000000
v 1.884620 0.455000 -2.853160
v 1.913330 0.455000 -2.708830
v 1.960640 0.455000 -2.569480
v 2.025720 0.455000 -2.437500
v 2.107480 0.455000 -2.315140
v 2.204500 0.455000 -2.204500
v 2.315140 0.455000 -2.107480
v 2.437500 0.455000 -2.025720
v 2.569480 0.455000 -1.960640
v 2.708830 0.455000 -1.913330
v 2.853160 0.455000 -1.884620
v 0.769249 0.455000 -2.706320
v 0.826667 0.455000 -2.417660
v 0.921271 0.455000 -2.138960
v 1.051440 0.455000 -1.875000
v 1.214950 0.455000 -1.630290
v 1.409010 0.455000 -1.409010
v 1.630290 0.455000 -1.214950
v 1.875000 0.455000 -1.051440
v 2.138960 0.455000 -0.921271
v 2.417660 0.455000 -0.826667
v 2.706320 0.455000 -0.769249
vt 0.105799 0.550000
vt 0.449165 0.550000
vt 0.449165 0.630000
vt 0.105799 0.630000
vt -0.750000 0.000000
vt -0.375000 0.000000
vt -0.375000 0.550000
vt -0.375000 0.630000
vt -0.750000 0.630000
vt -0.750000 0.455000
vt -2.969050 0.550000
vt -2.625680 0.550000
vt -2.625680 0.630000
vt -2.969050 0.630000
vt -2.528770 0.550000
vt -2.185400 0.550000
vt -2.185400 0.630000
vt -2.528770 0.630000
vt -2.048160 0.550000
vt -1.704790 0.550000
vt -1.704790 0.630000
vt -2.048160 0.630000
vt -1.535440 0.550000
vt -1.192070 0.550000
vt -1.192070 0.630000
vt -1.535440 0.630000
vt -0.999381 0.550000
vt -0.656015 0.550000
vt -0.656015 0.630000
vt -0.999381 0.630000
vt -0.449165 0.550000
vt -0.105799 0.550000
vt -0.105799 0.630000
vt -0.449165 0.630000
vt 0.750000 3.000000
vt 0.375000 3.000000
vt 0.397457 2.657370
vt 0.464445 2.320600
vt 0.574816 1.995460
vt 0.726683 1.687500
vt 0.917447 1.402000
vt 1.143840 1.143840
vt 1.402000 0.917448
vt 1.687500 0.726683
vt 1.995460 0.574816
vt 2.320600 0.464445
vt 2.657370 0.397457
vt 3.000000 0.375000
vt 3.000000 0.750000
vt 2.706320 0.769249
vt 2.417660 0.826667
vt 2.138960 0.921271
vt 1.875000 1.051440
vt 1.630290 1.214950
vt 1.409010 1.409010
vt 1.214950 1.630290
vt 1.051440 1.875000
vt 0.921271 2.138960
vt 0.826667 2.417660
vt 0.769249 2.706320
vt 0.656015 0.550000
vt 0.999381 0.550000
vt 0.999381 0.630000
vt 0.656015 0.630000
vt 1.192070 0.550000
vt 1.535440 0.550000
vt 1.535440 0.630000
vt 1.192070 0.630000
vt 1.704790 0.550000
vt 2.048160 0.550000
vt 2.048160 0.630000
vt 1.704790 0.630000
vt 2.185400 0.550000
vt 2.528770 0.550000
vt 2.528770 0.630000
vt 2.185400 0.630000
vt 2.625680 0.550000
vt 2.969050 0.550000
vt 2.969050 0.630000
vt 2.625680 0.630000
vt 0.375000 0.630000
vt 0.375000 0.550000
vt 0.375000 0.000000
vt 0.750000 0.000000
vt 0.750000 0.455000
vt 0.750000 0.630000
vt 2.944520 0.455000
vt 2.944520 0.630000
vt 2.650210 0.630000
vt 2.650210 0.455000
vt 2.504240 0.455000
vt 2.504240 0.630000
vt 2.209930 0.630000
vt 2.209930 0.455000
vt 2.023630 0.455000
vt 2.023630 0.630000
vt 1.729310 0.630000
vt 1.729310 0.455000
vt 1.510910 0.455000
vt 1.510910 0.630000
vt 1.216600 0.630000
vt 1.216600 0.455000
vt 0.974855 0.455000
vt 0.974855 0.630000
vt 0.680541 0.630000
vt 0.680541 0.455000
vt 0.424639 0.455000
vt 0.424639 0.630000
vt 0.130325 0.630000
vt 0.130325 0.455000
vt -0.130325 0.455000
vt -0.130325 0.630000
vt -0.424639 0.630000
vt -0.424639 0.455000
vt -0.680541 0.455000
vt -0.680541 0.630000
vt -0.974855 0.630000
vt -0.974855 0.455000
vt -1.216600 0.455000
vt -1.216600 0.630000
vt -1.510910 0.630000
vt -1.510910 0.455000
vt -1.729310 0.455000
vt -1.729310 0.630000
vt -2.023630 0.630000
vt -2.023630 0.455000
vt -2.209930 0.455000
vt -2.209930 0.630000
vt -2.504240 0.630000
vt -2.504240 0.455000
vt -2.650210 0.455000
vt -2.650210 0.630000
vt -2.944520 0.630000
vt -2.944520 0.455000
vt 3.000000 -0.000000
vt 3.000000 0.375000
vt 2.657370 0.397457
vt 2.320600 0.464445
vt 1.995460 0.574816
vt 1.687500 0.726683
vt 1.402000 0.917448
vt 1.143840 1.143840
vt 0.917447 1.402000
vt 0.726683 1.687500
vt 0.574816 1.995460
vt 0.464445 2.320600
vt 0.397457 2.657370
vt 0.375000 3.000000
vt 0.000000 3.000000
vt 0.000000 0.000000
vt 0.000000 0.000000
vt 0.000000 0.550000
vt -3.000000 0.375000
vt -3.000000 -0.000000
vt -0.000000 0.000000
vt -0.000000 3.000000
vt -0.375000 3.000000
vt -0.750000 3.000000
vt -1.875000 3.000000
vt -3.000000 3.000000
vt -3.000000 1.875000
vt -3.000000 0.750000
vt -0.000000 0.550000
vt 3.000000 0.000000
vt 3.000000 0.550000
vt -3.000000 0.550000
vt -3.000000 0.000000
vt -0.000000 0.550000
vt -0.000000 -0.000000
vt 1.875000 0.000000
vt 1.875000 0.455000
vt -1.875000 0.455000
vt -1.875000 -0.000000
vt 3.000000 0.750000
vt 3.000000 1.875000
vt 2.853160 1.884620
vt 2.708830 1.913330
vt 2.569480 1.960640
vt 2.437500 2.025720
vt 2.315140 2.107480
vt 2.204500 2.204500
vt 2.107480 2.315140
vt 2.025720 2.437500
vt 1.960640 2.569480
vt 1.913330 2.708830
vt 1.884620 2.853160
vt 1.875000 3.000000
vt 0.750000 3.000000
vt 0.769249 2.706320
vt 0.826667 2.417660
vt 0.921271 2.138960
vt 1.051440 1.875000
vt 1.214950 1.630290
vt 1.409010 1.409010
vt 1.630290 1.214950
vt 1.875000 1.051440
vt 2.138960 0.921271
vt 2.417660 0.826667
vt 2.706320 0.769249
vt 3.000000 0.455000
vt 3.000000 0.000000
vt 3.000000 3.000000
vt -3.000000 -0.000000
vt -3.000000 0.455000
vn -0.7071 0.0000 0.7071
vn -0.6088 0.0000 0.7934
vn 0.0000 0.0000 -1.0000
vn -0.9979 0.0000 0.0654
vn -0.9914 0.0000 0.1305
vn -0.9659 0.0000 0.2588
vn -0.9239 0.0000 0.3827
vn -0.8660 0.0000 0.5000
vn -0.7934 0.0000 0.6088
vn 0.0000 1.0000 0.0000
vn -0.5000 0.0000 0.8660
vn -0.3827 0.0000 0.9239
vn -0.2588 0.0000 0.9659
vn -0.1305 0.0000 0.9914
vn -0.0654 0.0000 0.9979
vn 1.0000 0.0000 0.0000
vn 0.9979 0.0000 -0.0654
vn 0.9914 0.0000 -0.1305
vn 0.9659 0.0000 -0.2588
vn 0.9239 0.0000 -0.3827
vn 0.8660 0.0000 -0.5000
vn 0.7934 0.0000 -0.6088
vn 0.7071 0.0000 -0.7071
vn 0.6088 0.0000 -0.7934
vn 0.5000 0.0000 -0.8660
vn 0.3827 0.0000 -0.9239
vn 0.2588 0.0000 -0.9659
vn 0.1305 0.0000 -0.9914
vn 0.0654 0.0000 -0.9979
vn 0.0000 -1.0000 -0.0000
vn -0.0000 -0.0000 1.0000
vn -1.0000 0.0000 -0.0000
usemtl Stone.240
s 1
f 1/1/1 2/2/2 3/3/2 4/4/1
f 24/5/3 23/6/3 16/7/3 29/8/3 30/9/3 31/10/3
f 16/11/4 15/12/5 32/13/5 29/14/4
f 15/15/5 14/16/6 33/17/6 32/18/5
f 14/19/6 13/20/7 34/21/7 33/22/6
f 13/23/7 12/24/8 35/25/8 34/26/7
f 12/27/8 11/28/9 36/29/9 35/30/8
f 11/31/9 1/32/1 4/33/1 36/34/9
f 30/35/10 29/36/10 32/37/10 33/38/10 34/39/10 35/40/10 36/41/10 4/42/10 3/43/10 37/44/10 38/45/10 39/46/10 40/47/10 41/48/10 42/49/10 43/50/10 44/51/10 45/52/10 46/53/10 47/54/10 48/55/10 49/56/10 50/57/10 51/58/10 52/59/10 53/60/10
f 2/61/2 10/62/11 37/63/11 3/64/2
f 10/65/11 9/66/12 38/67/12 37/68/11
f 9/69/12 8/70/13 39/71/13 38/72/12
f 8/73/13 7/74/14 40/75/14 39/76/13
f 7/77/14 6/78/15 41/79/15 40/80/14
f 41/81/16 6/82/16 20/83/16 28/84/16 54/85/16 42/86/16
f 31/87/17 30/88/17 53/89/18 69/90/18
f 69/91/18 53/92/18 52/93/19 70/94/19
f 70/95/19 52/96/19 51/97/20 71/98/20
f 71/99/20 51/100/20 50/101/21 72/102/21
f 72/103/21 50/104/21 49/105/22 73/106/22
f 73/107/22 49/108/22 48/109/23 74/110/23
f 74/111/23 48/112/23 47/113/24 75/114/24
f 75/115/24 47/116/24 46/117/25 76/118/25
f 76/119/25 46/120/25 45/121/26 77/122/26
f 77/123/26 45/124/26 44/125/27 78/126/27
f 78/127/27 44/128/27 43/129/28 79/130/28
f 79/131/28 43/132/28 42/133/29 54/134/29
usemtl Grass.127
f 5/135/10 6/136/10 7/137/10 8/138/10 9/139/10 10/140/10 2/141/10 1/142/10 11/143/10 12/144/10 13/145/10 14/146/10 15/147/10 16/148/10 17/149/10 18/150/10
f 19/151/16 20/83/16 6/82/16 5/152/16
f 20/153/30 19/154/30 21/155/30 22/156/30 23/157/30 24/158/30 25/159/30 26/160/30 27/161/30 28/162/30
f 18/163/31 21/155/31 19/164/31 5/165/31
f 18/163/32 17/166/32 22/167/32 21/155/32
f 17/168/3 16/7/3 23/6/3 22/169/3
usemtl Sand.007
f 28/84/16 27/170/16 55/171/16 54/85/16
f 24/5/3 31/10/3 57/172/3 25/173/3
f 54/174/10 55/175/10 68/176/10 67/177/10 66/178/10 65/179/10 64/180/10 63/181/10 62/182/10 61/183/10 60/184/10 59/185/10 58/186/10 57/187/10 31/188/10 69/189/10 70/190/10 71/191/10 72/192/10 73/193/10 74/194/10 75/195/10 76/196/10 77/197/10 78/198/10 79/199/10
usemtl Water.048
f 56/200/16 55/171/16 27/170/16 26/201/16
f 56/202/10 57/187/10 58/186/10 59/185/10 60/184/10 61/183/10 62/182/10 63/181/10 64/180/10 65/179/10 66/178/10 67/177/10 68/176/10 55/175/10
f 26/203/3 25/173/3 57/172/3 56/204/3
