# Blender v2.79 (sub 0) OBJ File: ''
# www.blender.org
mtllib roadTile_002.mtl
o Mesh1_Group1_Model.001
v 0.000000 0.630000 0.000000
v 0.000000 0.000000 0.000000
v 3.000000 0.000000 -0.000000
v 3.000000 0.630000 0.000000
v 0.000000 0.000000 -3.000000
v 0.000000 0.630000 -3.000000
v 3.000000 0.000000 -3.000000
v 3.000000 0.630000 -3.000000
vt -3.000000 0.630000
vt -3.000000 0.000000
vt 0.000000 0.000000
vt 0.000000 0.630000
vt -3.000000 3.000000
vt -3.000000 0.000000
vt 0.000000 3.000000
vt -0.000000 0.630000
vt -3.000000 0.630000
vt -3.000000 0.000000
vt -0.000000 0.000000
vt -0.000000 0.630000
vt -0.000000 -0.000000
vt 3.000000 -0.000000
vt 3.000000 0.630000
vt 3.000000 3.000000
vt 0.000000 3.000000
vt 0.000000 -0.000000
vt 3.000000 0.000000
vt 3.000000 0.630000
vt 3.000000 0.000000
vn -1.0000 -0.0000 0.0000
vn 0.0000 -1.0000 -0.0000
vn 0.0000 0.0000 -1.0000
vn 1.0000 0.0000 0.0000
vn 0.0000 1.0000 0.0000
vn 0.0000 -0.0000 1.0000
usemtl Stone
s 1
f 6/1/1 5/2/1 2/3/1 1/4/1
f 7/5/2 3/6/2 2/3/2 5/7/2
f 6/8/3 8/9/3 7/10/3 5/11/3
f 4/12/4 3/13/4 7/14/4 8/15/4
f 8/16/5 6/17/5 1/18/5 4/19/5
f 4/20/6 1/4/6 2/3/6 3/21/6
