# Blender v2.79 (sub 0) OBJ File: ''
# www.blender.org
mtllib roadTile_072.mtl
o Mesh1_Group1_Model.071
v 0.595015 0.600000 -2.543430
v 0.649519 0.600000 -2.625000
v 0.649519 0.630000 -2.625000
v 0.595015 0.630000 -2.543430
v 3.000000 0.600001 -3.000000
v 0.750000 0.600001 -3.000000
v 0.743584 0.600001 -2.902110
v 0.724444 0.600001 -2.805890
v 0.692910 0.600000 -2.712990
v 0.530330 0.600000 -2.469670
v 0.456571 0.600000 -2.404980
v 0.375000 0.600000 -2.350480
v 0.287013 0.600000 -2.307090
v 0.194114 0.600000 -2.275560
v 0.097895 0.600000 -2.256420
v 0.000000 0.600000 -2.250000
v 0.000000 0.600000 0.000000
v 3.000000 0.600000 0.000000
v 3.000000 0.300000 -3.000000
v 0.750000 0.300000 -3.000000
v 3.000000 0.300000 0.000000
v 0.000000 0.300000 0.000000
v 0.000000 0.300000 -2.250000
v 0.000000 0.630000 -2.250000
v 0.000000 0.630000 -3.000000
v 0.000000 0.000000 -3.000000
v 0.000000 0.000000 0.000000
v 0.097895 0.630000 -2.256420
v 0.194114 0.630000 -2.275560
v 0.287013 0.630000 -2.307090
v 0.375000 0.630000 -2.350480
v 0.456571 0.630000 -2.404980
v 0.530330 0.630000 -2.469670
v 0.692910 0.630000 -2.712990
v 0.724444 0.630000 -2.805890
v 0.743584 0.630000 -2.902110
v 0.750000 0.630000 -3.000000
v 3.000000 0.000000 -3.000000
v 3.000000 0.000000 -0.000000
vt 0.456571 2.404980
vt 0.530330 2.469670
vt 0.000000 3.000000
vt 0.536219 0.630000
vt 0.536219 0.600000
vt 0.634323 0.600000
vt 0.634323 0.630000
vt 0.000000 -0.000000
vt 0.000000 0.300000
vt -2.250000 0.300000
vt -2.250000 0.600000
vt -2.250000 0.630000
vt -3.000000 0.630000
vt -3.000000 -0.000000
vt 2.206470 0.630000
vt 2.206470 0.600000
vt 2.304570 0.600000
vt 2.304570 0.630000
vt 0.915266 0.630000
vt 0.915266 0.600000
vt 1.013370 0.600000
vt 1.013370 0.630000
vt 1.617660 0.630000
vt 1.617660 0.600000
vt 1.715760 0.600000
vt 1.715760 0.630000
vt 1.928990 0.630000
vt 1.928990 0.600000
vt 2.027090 0.600000
vt 2.027090 0.630000
vt 0.147157 0.630000
vt 0.147157 0.600000
vt 0.245262 0.600000
vt 0.245262 0.630000
vt 2.641570 0.630000
vt 2.641570 0.600000
vt 2.739670 0.600000
vt 2.739670 0.630000
vt -0.000000 0.630000
vt -0.750000 0.600000
vt -0.750000 0.300000
vt -0.000000 -0.000000
vt 0.750000 3.000000
vt 0.743584 2.902110
vt -0.000000 2.250000
vt 0.097895 2.256420
vt 0.194114 2.275560
vt 0.287013 2.307090
vt 0.375000 2.350480
vt 0.595015 2.543430
vt 0.649519 2.625000
vt 0.692910 2.712990
vt 0.724444 2.805890
vt 2.791740 0.630000
vt 2.791740 0.600000
vt 2.889840 0.600000
vt 2.889840 0.630000
vt 2.893300 0.630000
vt 2.893300 0.600000
vt 2.991410 0.600000
vt 2.991410 0.630000
vt 2.944520 0.630000
vt 2.944520 0.600000
vt 3.042630 0.600000
vt 3.042630 0.630000
vt 0.000000 0.000000
vt 3.000000 0.000000
vt 3.000000 0.300000
vt 0.000000 0.300000
vt -0.750000 0.630000
vt -3.000000 0.300000
vt -3.000000 -0.000000
vt 3.000000 0.000000
vt 3.000000 0.300000
vt 2.445360 0.630000
vt 2.445360 0.600000
vt 2.543460 0.600000
vt 2.543460 0.630000
vt 1.277810 0.630000
vt 1.277810 0.600000
vt 1.375920 0.600000
vt 1.375920 0.630000
vt 0.530330 2.469670
vt 0.456571 2.404980
vt 3.000000 0.000000
vt -3.000000 0.600000
vt 3.000000 3.000000
vt 0.595015 2.543430
vt 0.750000 3.000000
vt 0.743584 2.902110
vt -0.000000 2.250000
vt 0.000000 -0.000000
vt 0.097895 2.256420
vt 0.194114 2.275560
vt 0.724444 2.805890
vt 0.692910 2.712990
vt 0.287013 2.307090
vt 0.375000 2.350480
vt 0.649519 2.625000
vt 3.000000 0.600000
vt 0.000000 0.600000
vt 3.000000 0.600000
vt 0.000000 0.600000
vt -3.000000 3.000000
vt -3.000000 0.000000
vt -0.000000 3.000000
vn -0.0000 1.0000 0.0000
vn 0.1305 0.0000 0.9914
vn 0.2588 0.0000 0.9659
vn -1.0000 -0.0000 0.0000
vn 0.7071 0.0000 0.7071
vn 0.7934 0.0000 0.6088
vn 0.3827 0.0000 0.9239
vn 0.5000 0.0000 0.8660
vn 0.6088 0.0000 0.7934
vn 0.0654 0.0000 0.9979
vn 0.8660 0.0000 0.5000
vn 0.9239 0.0000 0.3827
vn 0.0000 0.0000 -1.0000
vn 0.9659 0.0000 0.2588
vn 0.9914 0.0000 0.1305
vn 0.9979 0.0000 0.0654
vn 1.0000 0.0000 0.0000
vn 0.0000 -0.0000 1.0000
vn 0.0000 -1.0000 -0.0000
usemtl Stone.052
s 1
f 32/1/1 33/2/1 25/3/1
f 28/4/2 15/5/2 14/6/3 29/7/3
f 27/8/4 22/9/4 23/10/4
f 16/11/4 24/12/4 25/13/4
f 26/14/4 27/8/4 23/10/4
f 33/15/5 10/16/5 1/17/6 4/18/6
f 29/19/3 14/20/3 13/21/7 30/22/7
f 31/23/8 12/24/8 11/25/9 32/26/9
f 32/27/9 11/28/9 10/29/5 33/30/5
f 24/31/10 16/32/10 15/33/2 28/34/2
f 3/35/11 2/36/11 9/37/12 34/38/12
f 25/39/13 6/40/13 20/41/13 26/42/13
f 37/43/1 25/3/1 36/44/1
f 24/45/1 28/46/1 25/3/1
f 29/47/1 30/48/1 25/3/1
f 31/49/1 32/1/1 25/3/1
f 33/2/1 4/50/1 25/3/1
f 3/51/1 34/52/1 25/3/1
f 35/53/1 36/44/1 25/3/1
f 25/3/1 28/46/1 29/47/1
f 30/48/1 31/49/1 25/3/1
f 4/50/1 3/51/1 25/3/1
f 35/53/1 25/3/1 34/52/1
f 34/54/12 9/55/12 8/56/14 35/57/14
f 35/58/14 8/59/14 7/60/15 36/61/15
f 36/62/15 7/63/15 6/64/16 37/65/16
f 39/66/17 38/67/17 19/68/17 21/69/17
f 37/70/13 6/40/13 25/39/13
f 20/41/13 19/71/13 38/72/13
f 25/13/4 26/14/4 23/10/4 16/11/4
f 20/41/13 38/72/13 26/42/13
f 27/8/18 39/73/18 21/74/18 22/9/18
f 4/75/6 1/76/6 2/77/11 3/78/11
f 30/79/7 13/80/7 12/81/8 31/82/8
usemtl Asphalt.041
f 10/83/1 11/84/1 18/85/1
f 6/40/13 5/86/13 19/71/13 20/41/13
f 18/85/1 5/87/1 1/88/1
f 5/87/1 6/89/1 7/90/1
f 16/91/1 17/92/1 15/93/1
f 15/93/1 17/92/1 14/94/1
f 5/87/1 7/90/1 8/95/1
f 5/87/1 8/95/1 9/96/1
f 14/94/1 17/92/1 13/97/1
f 13/97/1 17/92/1 12/98/1
f 5/87/1 9/96/1 2/99/1
f 5/87/1 2/99/1 1/88/1
f 12/98/1 17/92/1 11/84/1
f 11/84/1 17/92/1 18/85/1
f 18/85/1 1/88/1 10/83/1
f 5/100/17 18/101/17 21/69/17 19/68/17
f 18/102/18 17/103/18 22/9/18 21/74/18
f 17/103/4 16/11/4 23/10/4 22/9/4
f 38/104/19 39/105/19 27/8/19 26/106/19
