# Blender v2.79 (sub 0) OBJ File: ''
# www.blender.org
mtllib roadTile_020.mtl
o Mesh1_Group1_Model.019
v 1.017620 0.000000 -0.588471
v 0.960343 0.553783 -0.645746
v 0.761057 0.553783 -0.645746
v 0.703783 0.000000 -0.588471
v 1.017620 0.000000 -0.902305
v 0.960343 0.553783 -0.845031
v 0.703783 0.000000 -0.902305
v 0.761057 0.553783 -0.845031
v 0.525027 0.553783 -0.163985
v 1.196370 0.553783 -0.163985
v 1.196370 0.553783 -1.326790
v 0.525027 0.553783 -1.326790
v 0.189354 0.553783 -0.745388
v 0.430350 0.907183 0.000000
v 0.000000 0.907183 -0.745388
v 1.291050 0.907183 0.000000
v 1.721400 0.907183 -0.745388
v 1.532050 0.553783 -0.745388
v 1.523440 2.149780 -0.745388
v 1.192070 2.149780 -0.171439
v 1.291050 0.907183 -1.490780
v 1.192070 2.149780 -1.319340
v 0.430350 0.907183 -1.490780
v 0.197961 2.149780 -0.745388
v 0.529331 2.149780 -1.319340
v 0.860700 2.622880 -0.745388
v 0.529331 2.149780 -0.171439
v 0.860700 2.149780 -0.745388
vt -0.960343 0.463912
vt -1.017620 -0.092825
vt -0.703783 -0.092825
vt -0.761057 0.463912
vt 0.645746 0.452049
vt 0.588471 -0.104688
vt 0.902305 -0.104688
vt 0.845031 0.452049
vt -0.902305 0.072402
vt -0.588471 0.072402
vt -0.645746 0.629140
vt -0.845031 0.629140
vt 0.703783 0.060539
vt 1.017620 0.060539
vt 0.960343 0.617277
vt 0.761057 0.617277
vt -1.017620 0.588471
vt -0.703783 0.588471
vt -0.703783 0.902305
vt -1.017620 0.902305
vt -0.761057 0.645746
vt -0.525027 0.163985
vt -0.761057 0.845031
vt -0.525027 1.326790
vt -1.196370 1.326790
vt -0.960343 0.845031
vt -0.960343 0.645746
vt 0.860700 0.745388
vt 1.192070 1.319340
vt 0.529331 1.319340
vt 0.197961 0.745388
vt -0.189354 0.745388
vt -1.196370 0.163985
vt -1.532050 0.745388
vt 1.407240 0.636915
vt 0.860700 2.243480
vt 0.529331 1.499670
vt 0.744506 0.636915
vt 0.116195 1.787260
vt -0.215175 2.531060
vt -0.546545 1.787260
vt 1.075880 2.622880
vt 0.413136 2.149780
vt 1.075880 2.149780
vt 0.546545 0.061742
vt 0.215175 0.805543
vt -0.116195 0.061742
vt 1.738610 2.149780
vt 1.523440 0.745388
vt 0.215175 0.666034
vt -0.645525 0.666034
vt -0.550848 0.276441
vt 0.120498 0.276441
vt 0.761057 0.645746
vt 0.960343 0.645746
vt 0.960343 0.845031
vt 0.761057 0.845031
vt 0.529331 2.153040
vt 0.430350 0.898671
vt 1.291050 0.898671
vt 1.192070 2.153040
vt -0.430350 1.450400
vt -1.291050 1.450400
vt -1.196370 1.060800
vt -0.525027 1.060800
vt 1.411550 0.903930
vt 1.506230 1.293520
vt 0.645525 1.293520
vt 0.740202 0.903930
vt -0.645525 0.979779
vt -1.506230 0.979779
vt -1.411550 0.590186
vt -0.740202 0.590186
vt 0.215175 0.949608
vt 0.116195 2.203980
vt -0.546545 2.203980
vt -0.645525 0.949608
vt -0.645525 0.847733
vt -0.744506 2.102100
vt -1.407240 2.102100
vt -1.506230 0.847733
vt 1.196370 0.433313
vt 1.291050 0.822906
vt 0.430350 0.822906
vt 0.525027 0.433313
vt 0.550848 1.217670
vt 0.645525 1.607270
vt -0.215175 1.607270
vt -0.120498 1.217670
vt 0.529331 0.171439
vt 1.192070 0.171439
vt 0.546545 1.898350
vt -0.116195 1.898350
vt -0.215175 0.643984
vt 0.645525 0.643984
vt -1.291050 0.694921
vt -0.430350 0.694921
vt -0.529331 1.949290
vt -1.192070 1.949290
vt -0.860700 1.093130
vt -1.192070 0.349328
vt -1.407240 1.212090
vt -0.744506 1.212090
vt 0.744506 2.000230
vt 0.645525 0.745858
vt 1.506230 0.745858
vt 1.407240 2.000230
vn 0.0000 0.1029 -0.9947
vn 0.9947 0.1029 0.0000
vn -0.9947 0.1029 0.0000
vn 0.0000 0.1029 0.9947
vn 0.0000 -1.0000 -0.0000
vn 0.0000 1.0000 0.0000
vn 0.2905 0.8139 0.5032
vn -0.5508 0.7716 0.3180
vn 0.8660 -0.0000 0.5000
vn 0.5508 0.7716 -0.3180
vn -0.7856 -0.4209 0.4536
vn 0.0000 0.1367 0.9906
vn 0.0000 -0.4209 -0.9071
vn 0.7856 -0.4209 0.4536
vn -0.7856 -0.4209 -0.4535
vn -0.8579 0.1367 0.4953
vn -0.8579 0.1367 -0.4953
vn 0.0000 -0.4209 0.9071
vn 0.7856 -0.4209 -0.4536
vn 0.8579 0.1367 -0.4953
vn 0.0000 0.1367 -0.9906
vn -0.2905 0.8139 -0.5032
vn 0.8579 0.1367 0.4953
usemtl Alternate_Dirt.007
s 1
f 6/1/1 5/2/1 7/3/1 8/4/1
f 2/5/2 1/6/2 5/7/2 6/8/2
f 7/9/3 4/10/3 3/11/3 8/12/3
f 4/13/4 1/14/4 2/15/4 3/16/4
f 1/17/5 4/18/5 7/19/5 5/20/5
usemtl Grass.008
f 3/21/5 9/22/5 8/23/5
f 8/23/5 12/24/5 11/25/5 6/26/5
f 6/26/5 11/25/5 2/27/5
f 28/28/6 22/29/6 25/30/6 24/31/6
f 9/22/5 12/24/5 8/23/5
f 12/24/5 9/22/5 13/32/5
f 10/33/5 11/25/5 18/34/5
f 10/33/5 2/27/5 11/25/5
f 19/35/7 26/36/7 27/37/7 20/38/7
f 27/39/8 26/40/8 24/41/8
f 26/42/9 27/43/9 28/44/9
f 22/45/10 26/46/10 19/47/10
f 22/48/9 26/42/9 28/44/9
f 22/29/6 28/28/6 19/49/6
f 14/50/11 15/51/11 13/52/11 9/53/11
f 3/54/6 2/55/6 6/56/6 8/57/6
f 27/58/12 14/59/12 16/60/12 20/61/12
f 23/62/13 21/63/13 11/64/13 12/65/13
f 18/66/14 17/67/14 16/68/14 10/69/14
f 15/70/15 23/71/15 12/72/15 13/73/15
f 14/74/16 27/75/16 24/76/16 15/77/16
f 15/78/17 24/79/17 25/80/17 23/81/17
f 3/21/5 2/27/5 10/33/5 9/22/5
f 10/82/18 16/83/18 14/84/18 9/85/18
f 11/86/19 21/87/19 17/88/19 18/89/19
f 28/28/6 27/90/6 20/91/6 19/49/6
f 27/90/6 28/28/6 24/31/6
f 22/92/20 19/93/20 17/94/20 21/95/20
f 21/96/21 23/97/21 25/98/21 22/99/21
f 26/100/22 22/101/22 25/102/22 24/103/22
f 20/104/23 16/105/23 17/106/23 19/107/23
