# Blender v2.79 (sub 0) OBJ File: ''
# www.blender.org
mtllib roadTile_001.mtl
o Mesh1_Group1_Model
v 0.000000 0.455000 -3.000000
v 0.000000 0.000000 -3.000000
v 0.000000 0.000000 -0.000000
v 0.000000 0.455000 0.000000
v 3.000000 0.455000 -3.000000
v 3.000000 0.000000 -3.000000
v 3.000000 0.455000 0.000000
v 3.000000 0.000000 0.000000
vt -0.000000 0.455000
vt -3.000000 0.455000
vt -3.000000 -0.000000
vt -0.000000 -0.000000
vt 3.000000 0.455000
vt 0.000000 0.455000
vt 0.000000 0.000000
vt 3.000000 0.000000
vt 3.000000 0.455000
vt -0.000000 0.455000
vt -0.000000 0.000000
vt 3.000000 0.000000
vt -0.000000 3.000000
vt -3.000000 3.000000
vt -3.000000 -0.000000
vt 0.000000 3.000000
vt -0.000000 0.000000
vt 3.000000 -0.000000
vt 3.000000 3.000000
vt -3.000000 0.455000
vt -3.000000 -0.000000
vn 0.0000 0.0000 -1.0000
vn 1.0000 0.0000 0.0000
vn -0.0000 -0.0000 1.0000
vn -0.0000 -1.0000 -0.0000
vn 0.0000 1.0000 0.0000
vn -1.0000 0.0000 -0.0000
usemtl Water
s 1
f 1/1/1 5/2/1 6/3/1 2/4/1
f 5/5/2 7/6/2 8/7/2 6/8/2
f 7/9/3 4/10/3 3/11/3 8/12/3
f 2/13/4 6/14/4 8/15/4 3/11/4
f 1/16/5 4/17/5 7/18/5 5/19/5
f 4/10/6 1/20/6 2/21/6 3/11/6
