<?xml version="1.0" encoding="utf-8"?>
<svg viewBox="403.41180419921875 11.460551261901855 69.73764038085938 93.59246826171875" width="69.73764038085938" height="93.59246826171875" xmlns="http://www.w3.org/2000/svg">
  <g id="armLeft_FL_FL_FL_FL_FL_FL_FL_FL_FL_FL_FL_FL_FL_FL_FL_FL_FL_FL_FL_FL_FL_FL_FL" transform="matrix(-0.86602783203125, 0.4999847114086151, -0.4110107123851776, -1.1675262451171875, 420.54998779296875, 57.1500015258789)">
    <g transform="matrix( 1, 0, 0, 1, 0,0) ">
      <g id="" transform="matrix(1, 0, 0, 1, 0, 0)">
        <path fill="#E7E2DA" stroke="none" d="&#10;M 5.15 8.95&#10;Q 5.1802734375 8.848828125 5.2 8.75&#10;L -9.7 6.05&#10;Q -11.4134765625 8.3953125 -9.95 11.65&#10;L -8.9 11.45 5.15 8.95 Z"/>
        <path fill="#637480" stroke="none" d="&#10;M 5.7 8.85&#10;L 6.2 5.9 -9.2 3.05&#10;Q -10.5 3.65 -9.7 6.05&#10;L 5.2 8.75 5.7 8.85 Z"/>
        <path fill="#FFE0B1" stroke="none" d="&#10;M -8.9 11.45&#10;Q -9.2880859375 16.8732421875 -8.95 22.25 -5.9 25.15 -1.4 26 3.299609375 18.134375 5.15 8.95&#10;L -8.9 11.45 Z"/>
        <path fill="#7E95A3" stroke="none" d="&#10;M 5.6 -3.65&#10;Q 3.75 -6.35 0.55 -6.9&#10;L 0.5 -6.9&#10;Q -0.1 -7 -0.65 -7 -5.7 -7.15 -9.2 3.05&#10;L 6.2 5.9 6.85 2.3&#10;Q 7.45 -0.9 5.6 -3.65 Z"/>
      </g>
    </g>
  </g>
  <g id="handLeft_FL_FL_FL_FL_FL_FL_FL_FL_FL_FL_FL_FL_FL_FL_FL_FL_FL_FL_FL_FL_FL_FL_FL" transform="matrix(0.965911865234375, -0.2587890326976776, -0.2587890326976776, -0.9658966660499573, 419.04998779296875, 23.600000381469727)">
    <g transform="matrix( 1, 0, 0, 1, 0,0) ">
      <g id="" transform="matrix(1, 0, 0, 1, 0, 0)">
        <path fill="#FFE0B1" stroke="none" d="&#10;M 4.9 -1.85&#10;Q 3.1 -6.8 0.65 -9&#10;L -9 -6.45&#10;Q -10.2 -6.15 -9.95 -5.05&#10;L -9.8 -4.5&#10;Q -7.1 7.6 -0.2 5.8 2.25 5.2 4.65 3.95 6.25 3.15 5.95 1.95&#10;L 5.9 1.7&#10;Q 5.5 0.25 5.1 -1.1&#10;L 5.1 -1.05 4.9 -1.85&#10;M -8.15 -3&#10;Q -8.2 -3.45 -7.05 -4.15 -5.95 -4.85 -4.25 -5.45 -2.5 -6 -1.3 -6.15 0 -6.25 0.05 -5.85 0.15 -5.4 -0.95 -4.7 -2.05 -3.95 -3.8 -3.35 -5.5 -2.75 -6.75 -2.65 -8.05 -2.55 -8.15 -3 Z"/>
        <path fill="#E7CBA0" stroke="none" d="&#10;M -7.05 -4.15&#10;Q -8.2 -3.45 -8.15 -3 -8.05 -2.55 -6.75 -2.65 -5.5 -2.75 -3.8 -3.35 -2.05 -3.95 -0.95 -4.7 0.15 -5.4 0.05 -5.85 0 -6.25 -1.3 -6.15 -2.5 -6 -4.25 -5.45 -5.95 -4.85 -7.05 -4.15&#10;M 5.1 -1.1&#10;Q 8.2 -5.45 0.65 -9 3.1 -6.8 4.9 -1.85&#10;L 5.1 -1.05 5.1 -1.1 Z"/>
      </g>
    </g>
  </g>
  <g id="armRight_FL_FL_FL_FL_FL_FL_FL_FL_FL_FL_FL_FL_FL_FL_FL_FL_FL_FL_FL_FL_FL_FL_FL_FL" transform="matrix(0.6365509033203125, 0.7712249159812927, 0.5618133544921875, -0.463714599609375, 453.79998779296875, 62.1500015258789)">
    <g transform="matrix( 1, 0, 0, 1, 0,0) ">
      <g id="" transform="matrix(1, 0, 0, 1, 0, 0)">
        <path fill="#E7E2DA" stroke="none" d="&#10;M 5.15 8.95&#10;Q 5.1802734375 8.848828125 5.2 8.75&#10;L -9.7 6.05&#10;Q -11.4134765625 8.3953125 -9.95 11.65&#10;L -8.9 11.45 5.15 8.95 Z"/>
        <path fill="#637480" stroke="none" d="&#10;M 5.7 8.85&#10;L 6.2 5.9 -9.2 3.05&#10;Q -10.5 3.65 -9.7 6.05&#10;L 5.2 8.75 5.7 8.85 Z"/>
        <path fill="#FFE0B1" stroke="none" d="&#10;M -8.9 11.45&#10;Q -9.2880859375 16.8732421875 -8.95 22.25 -5.9 25.15 -1.4 26 3.299609375 18.134375 5.15 8.95&#10;L -8.9 11.45 Z"/>
        <path fill="#7E95A3" stroke="none" d="&#10;M 5.6 -3.65&#10;Q 3.75 -6.35 0.55 -6.9&#10;L 0.5 -6.9&#10;Q -0.1 -7 -0.65 -7 -5.7 -7.15 -9.2 3.05&#10;L 6.2 5.9 6.85 2.3&#10;Q 7.45 -0.9 5.6 -3.65 Z"/>
      </g>
    </g>
  </g>
  <g id="handRight_FL_FL_FL_FL_FL_FL_FL_FL_FL_FL_FL_FL_FL_FL_FL_FL_FL_FL_FL_FL_FL_FL_FL_FL" transform="matrix(-0.9999237060546875, 0.0097808837890625, -0.0097808837890625, -0.9999237060546875, 457.6000061035156, 44.09999847412109)">
    <g transform="matrix( 1, 0, 0, 1, 0,0) ">
      <g id="" transform="matrix(1, 0, 0, 1, 0, 0)">
        <path fill="#FFE0B1" stroke="none" d="&#10;M 4.9 -1.85&#10;Q 3.1 -6.8 0.65 -9&#10;L -9 -6.45&#10;Q -10.2 -6.15 -9.95 -5.05&#10;L -9.8 -4.5&#10;Q -7.1 7.6 -0.2 5.8 2.25 5.2 4.65 3.95 6.25 3.15 5.95 1.95&#10;L 5.9 1.7&#10;Q 5.5 0.25 5.1 -1.1&#10;L 5.1 -1.05 4.9 -1.85&#10;M -8.15 -3&#10;Q -8.2 -3.45 -7.05 -4.15 -5.95 -4.85 -4.25 -5.45 -2.5 -6 -1.3 -6.15 0 -6.25 0.05 -5.85 0.15 -5.4 -0.95 -4.7 -2.05 -3.95 -3.8 -3.35 -5.5 -2.75 -6.75 -2.65 -8.05 -2.55 -8.15 -3 Z"/>
        <path fill="#E7CBA0" stroke="none" d="&#10;M -7.05 -4.15&#10;Q -8.2 -3.45 -8.15 -3 -8.05 -2.55 -6.75 -2.65 -5.5 -2.75 -3.8 -3.35 -2.05 -3.95 -0.95 -4.7 0.15 -5.4 0.05 -5.85 0 -6.25 -1.3 -6.15 -2.5 -6 -4.25 -5.45 -5.95 -4.85 -7.05 -4.15&#10;M 5.1 -1.1&#10;Q 8.2 -5.45 0.65 -9 3.1 -6.8 4.9 -1.85&#10;L 5.1 -1.05 5.1 -1.1 Z"/>
      </g>
    </g>
  </g>
  <g transform="matrix(-0.9870148301124573, 0.1589355617761612, 0, 1, 438.6499938964844, 78.3499984741211)">
    <g transform="matrix( 1, 0, 0, 1, 0,0) ">
      <g id="" transform="matrix(1, 0, 0, 1, 0, 0)">
        <path fill="#B8824D" stroke="none" d="&#10;M -19 5.95&#10;L -19 10 20 10 20 5.95 -19 5.95&#10;M -19 -6.55&#10;Q -12.3 -8.25 -13.5 -14.4 -14.3 -17.85 -12.9 -21&#10;L -19 -21 -19 -6.55&#10;M 13.9 -21&#10;Q 15.3 -17.85 14.5 -14.4 13.3 -8.25 20 -6.55&#10;L 20 -21 13.9 -21 Z"/>
        <path fill="#7E95A3" stroke="none" d="&#10;M 14.5 -14.4&#10;Q 15.3 -17.85 13.9 -21&#10;L -12.9 -21&#10;Q -14.3 -17.85 -13.5 -14.4 -12.3 -8.25 -19 -6.55&#10;L -19 5.95 20 5.95 20 -6.55&#10;Q 13.3 -8.25 14.5 -14.4 Z"/>
      </g>
    </g>
    <g transform="matrix( 0.719451904296875, 0, 0, 0.719451904296875, 36.2,-0.35) ">
      <g id="" transform="matrix(1, 0, 0, 1, 0, 0)">
        <path fill="#000000" fill-opacity="0.10196078431372549" stroke="none" d="&#10;M -41.35 5.75&#10;L -44.9 5.75 -55.85 5.75 -59.35 5.75&#10;Q -50.35 8.05 -41.35 5.75 Z"/>
        <path fill="#9C6E41" stroke="none" d="&#10;M -46.6 -1.6&#10;L -54.1 -1.6 -56.65 0.75 -55.85 5.75 -44.9 5.75 -44.05 0.75 -46.6 -1.6&#10;M -51.4 -10.75&#10;Q -51.4 -10.3 -51.1 -10 -50.8 -9.65 -50.35 -9.65 -49.9 -9.65 -49.6 -10 -49.3 -10.3 -49.3 -10.75 -49.3 -11.15 -49.6 -11.5 -49.9 -11.8 -50.35 -11.8 -50.8 -11.8 -51.1 -11.5 -51.4 -11.15 -51.4 -10.75&#10;M -61.4 -10.35&#10;L -61.4 -8.35 -50.35 -6.75 -39.3 -8.35 -39.3 -10.35 -50.35 -8.75 -61.4 -10.35 Z"/>
        <path fill="#B8824D" stroke="none" d="&#10;M -54.1 -1.6&#10;L -46.6 -1.6 -44.05 0.75 -44.9 5.75 -41.35 5.75 -40.35 5.75&#10;Q -39.3 5.75 -39.3 4.7&#10;L -39.3 -8.35 -50.35 -6.75 -61.4 -8.35 -61.4 4.7&#10;Q -61.4 5.75 -60.35 5.75&#10;L -59.35 5.75 -55.85 5.75 -56.65 0.75 -54.1 -1.6&#10;M -61.4 -17.2&#10;L -61.4 -10.35 -50.35 -8.75 -39.3 -10.35 -39.3 -17.2&#10;Q -39.3 -18.25 -40.35 -18.25&#10;L -60.35 -18.25&#10;Q -61.4 -18.25 -61.4 -17.2&#10;M -51.1 -10&#10;Q -51.4 -10.3 -51.4 -10.75 -51.4 -11.15 -51.1 -11.5 -50.8 -11.8 -50.35 -11.8 -49.9 -11.8 -49.6 -11.5 -49.3 -11.15 -49.3 -10.75 -49.3 -10.3 -49.6 -10 -49.9 -9.65 -50.35 -9.65 -50.8 -9.65 -51.1 -10 Z"/>
      </g>
    </g>
  </g>
  <g id="legRight_FL_FL_FL_FL_FL_FL_FL_FL_FL_FL_FL_FL_FL_FL_FL_FL_FL_FL_FL_FL_FL_FL_FL_FL" transform="matrix(-0.9421082139015198, -0.3477173149585724, -0.2938080132007599, 0.9530029892921448, 453.6000061035156, 79.3499984741211)">
    <g transform="matrix( 1, 0, 0, 1, 0,0) ">
      <g id="" transform="matrix(1, 0, 0, 1, 0, 0)">
        <path fill="#916B4E" stroke="none" d="&#10;M 8.95 9.25&#10;L 9 6.35 -8.75 6.35 -8.75 8.35 8.95 9.25 Z"/>
        <path fill="#AA7E5C" stroke="none" d="&#10;M 8.95 16&#10;L 8.95 9.25 -8.75 8.35 -7.2 11 -8.75 11&#10;Q -10.55 11.9 -12 13.85&#10;L -12 16 8.95 16 Z"/>
        <path fill="#E0C1A2" stroke="none" d="&#10;M 9 6.35&#10;L 9 2.95 -8.75 2.95 -8.75 6.35 9 6.35 Z"/>
        <path fill="#ECCFB1" stroke="none" d="&#10;M 6.45 -4.5&#10;Q 3.85 -7 0.15 -7&#10;L 0.1 -7&#10;Q -3.6 -7 -6.15 -4.5 -8.75 -1.95 -8.75 1.7&#10;L -8.75 2.95 9 2.95 9 1.7&#10;Q 9 -1.95 6.45 -4.5 Z"/>
      </g>
    </g>
  </g>
  <g id="legLeft_FL_FL_FL_FL_FL_FL_FL_FL_FL_FL_FL_FL_FL_FL_FL_FL_FL_FL_FL_FL_FL_FL_FL" transform="matrix(0.9604035019874573, -0.2794342339038849, 0.1309356689453125, 1.00311279296875, 426.04998779296875, 85.6500015258789)">
    <g transform="matrix( 1, 0, 0, 1, 0,0) ">
      <g id="" transform="matrix(1, 0, 0, 1, 0, 0)">
        <path fill="#916B4E" stroke="none" d="&#10;M 8.95 9.25&#10;L 9 6.35 -8.75 6.35 -8.75 8.35 8.95 9.25 Z"/>
        <path fill="#AA7E5C" stroke="none" d="&#10;M 8.95 16&#10;L 8.95 9.25 -8.75 8.35 -7.2 11 -8.75 11&#10;Q -10.55 11.9 -12 13.85&#10;L -12 16 8.95 16 Z"/>
        <path fill="#E0C1A2" stroke="none" d="&#10;M 9 6.35&#10;L 9 2.95 -8.75 2.95 -8.75 6.35 9 6.35 Z"/>
        <path fill="#ECCFB1" stroke="none" d="&#10;M 6.45 -4.5&#10;Q 3.85 -7 0.15 -7&#10;L 0.1 -7&#10;Q -3.6 -7 -6.15 -4.5 -8.75 -1.95 -8.75 1.7&#10;L -8.75 2.95 9 2.95 9 1.7&#10;Q 9 -1.95 6.45 -4.5 Z"/>
      </g>
    </g>
  </g>
  <g transform="matrix(0.9965668320655823, -0.0825958326458931, 0.0825958326458931, 0.9965668320655823, 438.8999938964844, 62.59999847412109)">
    <g transform="matrix( 1, 0, 0, 1, 0,0) ">
      <g id="" transform="matrix(1, 0, 0, 1, 0, 0)">
        <path fill="#D7BD93" stroke="none" d="&#10;M -7.35 1.7&#10;Q -4.4 3.65 -0.2 3.65 4 3.65 6.95 1.7 8.7 0.55 9.4 -0.9&#10;L -9.8 -0.9&#10;Q -9.1 0.55 -7.35 1.7 Z"/>
        <path fill="#FFE0B1" stroke="none" d="&#10;M 19.15 -5.45&#10;Q 20.7 -15.55 19.1 -26.1 18.45 -30.55 14 -30.55&#10;L -16.35 -30.55&#10;Q -20.75 -30.55 -21.45 -26 -22.95 -15.7 -21.45 -5.4 -20.75 -0.9 -16.35 -0.9&#10;L -9.8 -0.9 9.4 -0.9 14 -0.9&#10;Q 18.45 -0.9 19.15 -5.45 Z"/>
      </g>
    </g>
    <g transform="matrix( 1, 0, 0, 1, 0,0) ">
      <g id="" transform="matrix(1, 0, 0, 1, 0, 0)">
        <path fill="#5D5454" stroke="none" d="&#10;M 0 -6.35&#10;L 19.8 -13.2&#10;Q -1 -7.6251953125 -21.8 -12.3&#10;L 0 -6.35&#10;M 14.15 -47.55&#10;Q 14.7546875 -48.1908203125 15.65 -48.35 7.05 -49.6 -4.3 -45.3 -4.55 -45.25 -4.8 -45.15 -10.5 -43.45 -17.85 -40.05&#10;L -19.1 -36.95 -22.2 -38.3 -25.2 -31.55&#10;Q -27.888671875 -24.348046875 -22.65 -12.55 -22.43046875 -12.0466796875 -22.2 -11.55&#10;L -21.9 -12.35 -16.2 -26.45&#10;Q -7.357421875 -42.121875 14.15 -47.55&#10;M 13.05 -44.45&#10;L 17.15 -25.7 20.65 -19.3 20.65 -34.3 13.05 -44.45 Z"/>
        <path fill="#544B4B" stroke="none" d="&#10;M 13.05 -44.45&#10;Q 13.2607421875 -46.5572265625 14.15 -47.55 -7.357421875 -42.121875 -16.2 -26.45&#10;L -21.9 -12.35 -21.8 -12.3&#10;Q -1 -7.6251953125 19.8 -13.2&#10;L 20.65 -19.3 17.15 -25.7 13.05 -44.45 Z"/>
      </g>
    </g>
  </g>
</svg>